<svg width="36" height="36" viewBox="0 0 36 36" fill="none" xmlns="http://www.w3.org/2000/svg">
<mask id="mask0_1975_22888" style="mask-type:alpha" maskUnits="userSpaceOnUse" x="0" y="0" width="36" height="36">
<rect width="36" height="36" fill="#D9D9D9"/>
</mask>
<g mask="url(#mask0_1975_22888)">
<path d="M24.4744 23.0707C24.4744 25.5247 24.4744 27.9787 24.4744 30.4327C24.4744 31.7647 23.8384 32.4007 22.5184 32.4007C19.4644 32.4007 16.4104 32.4007 13.3564 32.4007C12.0364 32.4007 11.4004 31.7647 11.4004 30.4327C11.4004 25.5967 11.4004 20.7667 11.4004 15.9307C11.4004 14.8387 11.6524 13.8187 12.1444 12.8527C12.9664 11.2327 13.7644 9.60673 14.6044 7.99273C14.8504 7.51873 14.7544 7.04473 14.7724 6.56473C14.7724 6.50473 14.7124 6.40274 14.6644 6.39074C14.0224 6.24674 14.1604 5.73073 14.1604 5.30473C14.1484 3.37273 14.0344 3.61274 15.8344 3.60674C17.5204 3.60074 19.2064 3.60674 20.8924 3.60674C21.6064 3.60674 21.7204 3.71473 21.7264 4.40473C21.7264 4.80073 21.7264 5.19073 21.7264 5.58673C21.7264 5.94073 21.7024 6.24673 21.2704 6.37873C21.0364 6.45073 21.0064 7.41073 21.2104 7.83673C21.5224 8.47873 21.8464 9.10874 22.1704 9.74474C22.6924 10.7827 23.2084 11.8207 23.7364 12.8527C24.2404 13.8367 24.4864 14.8747 24.4804 15.9847C24.4684 18.3427 24.4804 20.7067 24.4804 23.0647L24.4744 23.0707ZM23.5564 23.0347C23.5564 20.8447 23.5264 18.6487 23.5684 16.4587C23.5924 15.1687 23.3344 13.9747 22.6984 12.8527C22.3324 12.1987 22.3564 12.1867 21.7504 12.5947C20.7364 13.2907 19.8604 13.2847 18.8464 12.5947C18.1564 12.1207 17.7004 12.1267 16.9984 12.6067C16.0144 13.2847 15.1264 13.2847 14.1424 12.6067C14.0164 12.5227 13.8904 12.4447 13.7644 12.3667C13.5904 12.2527 13.4644 12.2647 13.3624 12.4687C12.7984 13.5367 12.3064 14.6107 12.3124 15.8647C12.3244 20.7187 12.3124 25.5727 12.3124 30.4267C12.3124 31.2427 12.5584 31.4887 13.3924 31.4887C16.4104 31.4887 19.4284 31.4887 22.4464 31.4887C23.3344 31.4887 23.5564 31.2547 23.5564 30.3427C23.5564 27.9067 23.5564 25.4707 23.5564 23.0347ZM20.3164 12.1747C20.8804 12.2287 21.2104 11.7667 21.6604 11.5567C21.9124 11.4427 21.9304 11.3107 21.8044 11.0827C21.4624 10.4407 21.1624 9.77473 20.8144 9.13273C20.4064 8.38873 20.0344 7.63873 20.1724 6.75073C20.2324 6.38473 19.9924 6.37273 19.7284 6.37273C18.5284 6.37273 17.3284 6.39073 16.1344 6.37273C15.7384 6.36673 15.6484 6.53474 15.6904 6.87074C15.7864 7.59074 15.5524 8.22074 15.2104 8.84474C14.8144 9.56474 14.4604 10.3087 14.0944 11.0467C14.0344 11.1727 13.9024 11.2867 14.0224 11.4547C14.5624 12.1927 15.7144 12.3787 16.4884 11.8507C17.5024 11.1547 18.3784 11.1547 19.3864 11.8507C19.6684 12.0487 19.9564 12.2167 20.3224 12.1807L20.3164 12.1747ZM17.9044 5.44273C18.7084 5.44273 19.5124 5.42474 20.3164 5.44874C20.6824 5.46074 20.8024 5.34073 20.7964 4.97473C20.7904 4.64473 20.7004 4.51873 20.3524 4.52473C18.7444 4.54273 17.1424 4.54273 15.5344 4.52473C15.1864 4.52473 15.0904 4.63873 15.0844 4.97473C15.0784 5.34073 15.1864 5.46673 15.5584 5.45473C16.3444 5.43073 17.1244 5.44874 17.9104 5.44874L17.9044 5.44273Z" fill="#111E6C"/>
<path d="M13.2188 20.8747C13.2188 19.2247 13.2188 17.5807 13.2188 15.9307C13.2188 15.3067 13.3448 14.7067 13.5728 14.1247C13.6748 13.8547 13.8608 13.6567 14.1728 13.7587C14.5208 13.8727 14.5448 14.1607 14.4308 14.4487C14.1548 15.1447 14.1428 15.8707 14.1428 16.6027C14.1488 19.7107 14.1428 22.8187 14.1428 25.9267C14.1428 26.0947 14.1428 26.2627 14.1308 26.4307C14.1188 26.6947 13.9688 26.8627 13.7168 26.8747C13.4288 26.8927 13.2727 26.7067 13.2367 26.4307C13.2187 26.2807 13.2248 26.1307 13.2248 25.9807C13.2248 24.2767 13.2248 22.5727 13.2248 20.8687L13.2188 20.8747Z" fill="#111E6C"/>
<path d="M14.1305 29.1668C14.1305 29.4848 14.1305 29.8027 14.1305 30.1147C14.1245 30.3847 13.9625 30.5347 13.7105 30.5467C13.4585 30.5587 13.2545 30.4027 13.2485 30.1567C13.2245 29.5087 13.2245 28.8547 13.2485 28.2007C13.2605 27.9547 13.4645 27.7987 13.7225 27.8227C13.9685 27.8467 14.1245 28.0087 14.1305 28.2727C14.1365 28.5727 14.1305 28.8668 14.1305 29.1668Z" fill="#111E6C"/>
<path d="M17.9635 7.30247C18.2455 7.30247 18.5215 7.29647 18.8035 7.30247C19.0675 7.30847 19.2295 7.47046 19.2475 7.72246C19.2655 7.97446 19.1035 8.17848 18.8575 8.19048C18.2455 8.21448 17.6275 8.21448 17.0095 8.19048C16.7575 8.17848 16.6015 7.97446 16.6255 7.72246C16.6435 7.47646 16.8055 7.31448 17.0695 7.30848C17.3695 7.30248 17.6695 7.30848 17.9635 7.30848V7.30247Z" fill="#111E6C"/>
</g>
</svg>
