<svg width="36" height="36" viewBox="0 0 36 36" fill="none" xmlns="http://www.w3.org/2000/svg">
<mask id="mask0_1975_22970" style="mask-type:alpha" maskUnits="userSpaceOnUse" x="0" y="0" width="36" height="36">
<rect width="36" height="36" fill="#D9D9D9"/>
</mask>
<g mask="url(#mask0_1975_22970)">
<path d="M31.9873 20.8562C32.1193 20.7842 32.2153 20.5622 32.2693 20.4422C32.4553 20.0162 32.4253 19.5602 32.1853 19.1942C31.9213 18.7862 31.4293 18.5402 30.8713 18.5342C28.7173 18.5342 26.5693 18.5342 24.4153 18.5342H21.8353H19.4413C17.2453 18.5342 15.0493 18.5342 12.8533 18.5342C12.1153 18.5342 11.5933 18.8702 11.3893 19.4882C11.1793 20.1302 11.3893 20.6702 12.0193 21.0962C12.2533 21.2522 12.2893 21.4382 12.3133 21.6602C12.6493 24.9182 14.2213 27.4202 16.9873 29.0942C17.5213 29.4182 17.6053 29.6642 17.3473 30.2042C17.0653 30.7982 17.0473 31.3442 17.3053 31.7462C17.5633 32.1602 18.0913 32.3882 18.7753 32.3882C19.4113 32.3882 20.0473 32.3882 20.6833 32.3762C21.2593 32.3762 21.8473 32.3642 22.4353 32.3642C23.2453 32.3642 24.0673 32.3762 24.8773 32.4062C25.5433 32.4362 26.1373 32.1422 26.4253 31.6442C26.6893 31.1882 26.6533 30.6422 26.3233 30.1022C26.1913 29.8862 26.1433 29.7242 26.1793 29.5802C26.2153 29.4242 26.3473 29.2982 26.5993 29.1482C29.2873 27.6002 30.8773 25.2362 31.3273 22.1222L31.3393 22.0562C31.4053 21.5822 31.4713 21.1382 31.9813 20.8622L31.9873 20.8562ZM25.7293 31.1822C25.6213 31.5482 25.2913 31.5482 25.0153 31.5482C24.1993 31.5482 23.3953 31.5482 22.5853 31.5482H20.8753C20.5753 31.5482 20.2753 31.5482 19.9693 31.5482C19.5553 31.5482 19.1413 31.5482 18.7273 31.5482C18.3433 31.5482 18.1153 31.4702 18.0073 31.3022C17.8993 31.1402 17.9173 30.9062 18.0553 30.5702C18.3553 29.8322 18.4033 29.8082 19.1773 30.0482C20.9713 30.5942 22.8493 30.5762 24.7453 29.9942C24.7813 29.9822 24.8233 29.9642 24.8713 29.9402C24.9793 29.8862 25.0993 29.8262 25.2133 29.8682C25.2793 29.8922 25.3393 29.9462 25.3753 30.0302C25.4113 30.1082 25.4593 30.1862 25.5073 30.2642C25.6573 30.5282 25.8313 30.8222 25.7293 31.1822ZM30.4633 22.4342C29.6533 26.6762 26.1013 29.6102 21.7933 29.6102C21.7513 29.6102 21.7093 29.6102 21.6733 29.6102C17.4853 29.5562 13.9213 26.4602 13.2133 22.2422C13.2013 22.1882 13.1953 22.1282 13.1893 22.0742C13.1473 21.7022 13.1233 21.5162 13.2193 21.4022C13.3153 21.2942 13.4953 21.2942 13.8553 21.2942H26.7373C26.8453 21.2942 26.9593 21.2942 27.0673 21.2942C27.0733 21.2942 27.0793 21.2942 27.0913 21.2942C27.1033 21.2942 27.1093 21.2942 27.1213 21.2942H29.0893C29.1673 21.3002 29.2453 21.3062 29.3353 21.3062H29.5033C30.0913 21.3062 30.3553 21.3062 30.4933 21.4682C30.6253 21.6302 30.5713 21.9002 30.4693 22.4462L30.4633 22.4342ZM31.4053 20.2922C31.2673 20.4302 31.0513 20.4542 30.8353 20.4542H30.7933C30.5353 20.4542 30.2773 20.4542 30.0253 20.4542H29.8093C29.6473 20.4542 29.4913 20.4542 29.3293 20.4542H29.2873H13.0273C12.8953 20.4542 12.7573 20.4542 12.6253 20.4362C12.3253 20.3942 12.1573 20.1962 12.1573 19.8962C12.1573 19.5962 12.3373 19.4042 12.6373 19.3682C12.7873 19.3502 12.9313 19.3502 13.0813 19.3502H30.7813C31.0933 19.3502 31.5433 19.3502 31.5493 19.8842C31.5493 20.0582 31.5073 20.1902 31.4113 20.2802L31.4053 20.2922Z" fill="#111E6C"/>
<path d="M11.1609 24.516C11.1609 23.898 10.9209 23.4 10.4289 23.01L10.3929 22.98C10.2009 22.83 10.0089 22.674 9.80488 22.536C9.41488 22.272 9.22887 21.906 9.23487 21.42C9.23487 20.808 9.23487 20.196 9.23487 19.59C9.23487 19.146 9.23487 18.702 9.23487 18.264C9.23487 18.24 9.23487 18.21 9.23487 18.186C9.22887 18.06 9.21088 17.892 9.39688 17.796C10.2789 17.34 10.2489 16.542 10.2189 15.696V15.66C10.1829 14.754 9.65488 14.232 8.76088 14.214C8.39488 14.214 8.02287 14.208 7.65087 14.208C7.32687 14.208 7.00288 14.208 6.67888 14.208H6.21687C5.05887 14.214 4.57888 14.688 4.57288 15.852C4.57288 16.056 4.57288 16.32 4.57888 16.584C4.59688 17.07 4.80088 17.436 5.17288 17.658C5.47888 17.838 5.53887 18.054 5.53287 18.366C5.53287 18.564 5.52688 18.762 5.52088 18.96C5.50888 19.596 5.49088 20.256 5.54488 20.898C5.62288 21.81 5.31088 22.422 4.53688 22.884C3.89488 23.268 3.57687 23.892 3.60087 24.726C3.61887 25.422 3.61288 26.13 3.60688 26.814C3.60688 27.114 3.60688 27.42 3.60688 27.72C3.60688 28.044 3.60688 28.362 3.60688 28.686C3.60688 29.424 3.60688 30.186 3.60688 30.936C3.61888 31.8 4.16488 32.37 5.00488 32.382C6.51088 32.4 8.05888 32.4 9.74488 32.382C10.5969 32.37 11.1489 31.812 11.1549 30.96C11.1609 29.556 11.1609 28.128 11.1549 26.748C11.1549 26.004 11.1549 25.266 11.1549 24.522L11.1609 24.516ZM5.55087 16.914C5.43687 16.8 5.38287 16.638 5.38287 16.416V16.404C5.38287 16.404 5.38287 16.38 5.38287 16.368C5.35887 15.756 5.35287 15.402 5.53287 15.21C5.71887 15.018 6.06687 15.012 6.66687 15.012H7.28487C7.73487 15.012 8.19088 15.012 8.64088 15.012H8.65888C8.91688 15.012 9.10288 15.078 9.22888 15.204C9.34888 15.33 9.40287 15.528 9.38487 15.78C9.37887 15.864 9.38487 15.948 9.38487 16.032C9.38487 16.08 9.38487 16.122 9.38487 16.17C9.38487 16.998 9.29488 17.082 8.47888 17.088C8.32288 17.088 8.17287 17.088 8.01687 17.088C7.91487 17.088 7.81288 17.088 7.71088 17.088H7.27888C6.86488 17.088 6.45687 17.088 6.04887 17.088C5.82687 17.082 5.66487 17.034 5.55087 16.926V16.914ZM4.51288 24.072C4.61488 23.832 4.79487 23.646 5.08287 23.478C6.04287 22.92 6.45087 22.098 6.36687 20.892C6.33087 20.388 6.33687 19.872 6.34887 19.38C6.34887 19.062 6.36087 18.732 6.34887 18.408C6.34287 18.054 6.47487 17.916 6.83487 17.904H6.86487C7.62687 17.88 8.01087 17.868 8.21487 18.072C8.42487 18.276 8.42488 18.666 8.42488 19.446C8.42488 19.65 8.42488 19.854 8.42488 20.058C8.42488 20.508 8.43087 20.97 8.41887 21.426C8.39487 22.176 8.70088 22.77 9.34288 23.232C9.40288 23.28 9.46887 23.322 9.53487 23.364C9.83487 23.562 10.1409 23.772 10.2789 24.162C10.3389 24.324 10.3869 24.534 10.2849 24.672C10.2129 24.768 10.0809 24.816 9.86487 24.816C9.85287 24.816 9.83488 24.816 9.82288 24.816C9.24088 24.798 8.64688 24.804 8.07088 24.804C7.82488 24.804 7.58488 24.804 7.33888 24.804H6.63688C6.07888 24.804 5.52687 24.804 4.96887 24.804C4.69887 24.804 4.53687 24.744 4.45287 24.624C4.37487 24.504 4.38688 24.33 4.49488 24.072H4.51288ZM10.3569 30.756C10.3569 31.098 10.3449 31.524 9.73287 31.536C9.36087 31.542 8.98888 31.548 8.61088 31.548C8.36488 31.548 8.11288 31.548 7.87288 31.548C7.62688 31.548 7.38088 31.548 7.12888 31.548H6.58888C6.11488 31.548 5.62887 31.548 5.14887 31.548C4.51887 31.536 4.44688 31.35 4.41088 30.564C4.39888 30.342 4.44088 30.192 4.53688 30.096C4.66888 29.958 4.89088 29.964 5.11288 29.964C5.66488 29.976 6.22287 29.97 6.76887 29.97C7.21287 29.97 7.65687 29.97 8.10087 29.97C8.64087 29.97 9.19887 29.97 9.75087 29.97C9.96687 29.97 10.1649 29.97 10.2849 30.102C10.3689 30.192 10.3989 30.33 10.3749 30.522C10.3689 30.6 10.3629 30.684 10.3629 30.768L10.3569 30.756ZM10.2549 29.034C10.1589 29.13 10.0269 29.154 9.85287 29.154C9.83487 29.154 9.81688 29.154 9.79288 29.154C9.23488 29.142 8.66488 29.142 8.11288 29.148C7.64488 29.148 7.17687 29.148 6.70287 29.148C6.12687 29.148 5.52688 29.148 4.93888 29.148C4.75888 29.148 4.61487 29.136 4.51887 29.04C4.44087 28.962 4.41087 28.848 4.41687 28.68C4.43487 27.846 4.43487 26.976 4.41687 26.088C4.41687 25.92 4.44688 25.8 4.52488 25.722C4.62688 25.62 4.78287 25.608 4.93287 25.608C6.90087 25.62 8.41888 25.62 9.84688 25.608H9.86487C10.0569 25.608 10.1769 25.644 10.2609 25.728C10.3449 25.812 10.3749 25.938 10.3689 26.142C10.3449 27.114 10.3449 27.9 10.3689 28.62C10.3749 28.818 10.3389 28.95 10.2549 29.034Z" fill="#111E6C"/>
<path d="M7.4773 6.6961C8.0653 7.3381 8.6113 7.88411 9.1513 8.37011C9.3013 8.50811 9.4393 8.6581 9.4453 8.8381C9.4453 8.9821 9.3673 9.12609 9.1873 9.31209C8.7253 9.78009 8.6953 10.4641 9.1093 11.0221C9.5233 11.5741 10.2373 11.7481 10.7653 11.4301C11.2093 11.1661 11.4193 11.3281 11.7013 11.6101C12.6013 12.5161 13.5013 13.4161 14.4013 14.3221C14.9533 14.8681 15.4993 15.4201 16.0513 15.9721C16.3093 16.2301 16.5973 16.5181 16.9453 16.3741C17.0653 16.3261 17.1733 16.3021 17.2633 16.3021C17.5393 16.3021 17.7133 16.4881 17.8753 16.6741C18.0133 16.8241 18.1393 16.9501 18.2773 17.0581C18.9073 17.5681 19.7713 17.5381 20.3413 16.9861C20.9293 16.4101 20.9773 15.5281 20.4493 14.8861C20.3413 14.7541 20.2153 14.6341 20.0953 14.5141C20.0173 14.4361 19.9393 14.3581 19.8613 14.2801C19.8433 14.2621 19.8313 14.2501 19.8133 14.2321C19.7233 14.1481 19.6033 14.0341 19.7053 13.8181C19.9573 13.3081 19.6813 12.9721 19.3213 12.6181C17.9953 11.3041 16.6573 9.9601 15.3613 8.6641L14.9233 8.22609C14.9233 8.22609 14.8813 8.18409 14.8633 8.16609C14.7133 8.02809 14.5453 7.87209 14.7373 7.53009C15.1273 6.83409 15.0133 6.15609 14.4313 5.71209C13.8433 5.26209 13.1713 5.32209 12.5893 5.88009C12.4513 6.01209 12.3373 6.07209 12.2293 6.07209H12.2233C12.0913 6.07209 11.9833 5.9821 11.8573 5.8501C11.4853 5.4601 11.0953 5.07009 10.7173 4.69809C10.5553 4.53609 10.3873 4.37409 10.2253 4.21209C9.8113 3.79809 9.3433 3.6061 8.7433 3.6001C8.2153 3.6301 7.5073 3.84609 7.1413 4.68009C6.8173 5.41209 6.9313 6.1081 7.4713 6.6961H7.4773ZM17.8093 12.6061C18.0973 12.6061 18.3733 12.7441 18.5593 12.9781C18.7573 13.2241 18.8413 13.5361 18.7813 13.8421C18.7273 14.1181 18.8053 14.3641 19.0273 14.5981C19.1233 14.6941 19.2193 14.7901 19.3093 14.8861C19.4653 15.0421 19.6273 15.2041 19.7773 15.3661C20.0773 15.7021 20.0773 16.0741 19.7773 16.3801C19.6213 16.5361 19.4533 16.6141 19.2733 16.6141C19.0933 16.6141 18.9313 16.5421 18.7633 16.3981C18.5653 16.2241 18.3793 16.0321 18.1993 15.8461L18.1153 15.7621C17.7433 15.3721 17.4253 15.2821 17.0533 15.4561C16.8853 15.5341 16.7473 15.5101 16.6153 15.3781C16.0153 14.7721 15.4153 14.1721 14.7733 13.5361L13.8433 12.6061H15.1993C16.1053 12.6061 16.9633 12.6061 17.8093 12.6061ZM16.3453 10.7941L17.3233 11.7661H17.1433C16.7233 11.7661 16.3153 11.7661 15.9193 11.7721C15.5473 11.7721 15.1813 11.7781 14.8213 11.7781C14.2933 11.7781 13.7713 11.7721 13.2553 11.7421C12.8053 11.7181 12.5353 11.3761 12.2773 11.0461C12.1753 10.9141 12.0673 10.7821 11.9533 10.6741C11.9113 10.6321 11.8873 10.5841 11.8873 10.5361C11.8873 10.4401 11.9773 10.3621 12.0493 10.3021C12.0673 10.2841 12.0853 10.2721 12.1033 10.2541C12.4033 9.9481 12.7033 9.64809 13.0033 9.34809C13.2193 9.13209 13.4353 8.9161 13.6513 8.7001C13.7473 8.6041 13.8373 8.5141 13.9513 8.5141C14.0353 8.5141 14.1193 8.55611 14.2093 8.65211C14.8993 9.35411 15.6013 10.0501 16.3393 10.7941H16.3453ZM12.1093 7.5241C12.4573 7.1761 12.7993 6.8341 13.1473 6.4861C13.3033 6.3301 13.4593 6.25211 13.6153 6.25211C13.7473 6.25211 13.8793 6.3121 13.9933 6.4321C14.2273 6.6721 14.2093 6.9781 13.9513 7.2421C13.0933 8.1061 12.2293 8.97011 11.3653 9.83411L10.6453 10.5541C10.5193 10.6801 10.3753 10.7461 10.2193 10.7461C10.2013 10.7461 10.1833 10.7461 10.1653 10.7461C9.9613 10.7461 9.7933 10.6381 9.7093 10.4521C9.6013 10.2061 9.6553 9.9721 9.8713 9.7561C10.3933 9.2401 10.9093 8.72411 11.4253 8.20211L12.1033 7.5241H12.1093ZM8.3593 4.5061C8.7733 4.3021 9.1753 4.3561 9.4933 4.6561C9.9073 5.0461 10.3153 5.4601 10.7173 5.8561C10.9513 6.0901 11.1853 6.32409 11.4253 6.55809C11.4853 6.61809 11.5633 6.70809 11.5633 6.82209C11.5633 6.90009 11.5153 6.97209 11.4373 7.04409C11.4253 7.05009 11.4193 7.0621 11.4073 7.0741C10.8673 7.7161 10.5973 8.03411 10.2913 8.05211H10.2733C9.9793 8.05211 9.6913 7.7641 9.1273 7.2001L8.8213 6.89409C8.6053 6.67809 8.3893 6.4621 8.1673 6.2461C7.9333 6.0181 7.8073 5.7541 7.7833 5.4421C7.8193 4.9921 8.0113 4.68609 8.3593 4.51209V4.5061Z" fill="#111E6C"/>
<path d="M8.92973 27.2402C8.04173 27.0782 7.07573 26.9223 5.97773 26.7603C5.95373 26.7603 5.92973 26.7603 5.90573 26.7603C5.82173 26.7603 5.75573 26.7842 5.69573 26.8262C5.61773 26.8862 5.56372 26.9883 5.55172 27.1143C5.52772 27.3483 5.65372 27.5043 5.89972 27.5463C6.55372 27.6603 7.20773 27.7743 7.86173 27.8823L8.68372 28.0203C8.98972 28.0443 9.15773 27.9543 9.21173 27.7143C9.24173 27.5883 9.22372 27.4742 9.16972 27.3902C9.12172 27.3122 9.03773 27.2643 8.92973 27.2463V27.2402Z" fill="#111E6C"/>
</g>
</svg>
