<svg width="36" height="36" viewBox="0 0 36 36" fill="none" xmlns="http://www.w3.org/2000/svg">
<mask id="mask0_1975_22858" style="mask-type:alpha" maskUnits="userSpaceOnUse" x="0" y="0" width="36" height="36">
<rect width="36" height="36" fill="#D9D9D9"/>
</mask>
<g mask="url(#mask0_1975_22858)">
<path d="M28.1772 11.1476C28.8492 10.9976 29.2692 10.4156 29.2212 9.70757C29.1672 8.91557 28.5732 8.44157 27.6312 8.44157H27.0372C23.5332 8.44157 19.9092 8.43557 16.3452 8.44757H16.3392C15.9432 8.44757 15.7332 8.30957 15.5832 7.94357C15.1452 6.89357 14.6712 5.84357 14.2212 4.84757C13.9632 4.27757 13.5372 3.86957 13.0152 3.68957C12.5412 3.53357 12.0252 3.58157 11.5632 3.83357C11.0952 4.08557 10.7712 4.49357 10.6392 4.98557C10.5012 5.51957 10.6032 6.10157 10.9392 6.61757C11.1672 6.98357 11.4012 7.33157 11.6712 7.73957C11.7972 7.93157 11.9292 8.12957 12.0732 8.34557L12.1332 8.44157H12.0192C11.6352 8.44157 11.2632 8.44157 10.9032 8.44157C10.5612 8.44157 10.2192 8.44157 9.88923 8.44157C9.42723 8.44157 8.97123 8.44157 8.51523 8.45357C7.83123 8.46557 7.27923 8.97557 7.20723 9.65957C7.13523 10.3736 7.55523 11.0036 8.19123 11.1356C8.63523 11.2256 8.67723 11.4416 8.70723 11.7896C8.90523 14.4776 9.10923 17.1596 9.30723 19.8476C9.51123 22.5836 9.71523 25.3136 9.91923 28.0496C10.0032 29.2136 10.5252 29.9576 11.5212 30.3416C11.7852 30.4436 11.8992 30.5756 11.9592 30.8456C12.1692 31.8056 12.9012 32.3996 13.8732 32.4056C16.8072 32.4176 19.7292 32.4176 22.5672 32.4056C23.5332 32.4056 24.2712 31.8056 24.4812 30.8456C24.5412 30.5696 24.6552 30.4376 24.9192 30.3416C25.8852 29.9816 26.4132 29.2676 26.5032 28.2236C26.5872 27.1916 26.6652 26.1416 26.7372 25.1216C26.7792 24.5636 26.8152 23.9996 26.8572 23.4416C26.9412 22.2896 27.0312 21.1376 27.1152 19.9856C27.3192 17.2616 27.5352 14.4536 27.7332 11.6816C27.7572 11.3576 27.8652 11.2316 28.1832 11.1596L28.1772 11.1476ZM12.0552 6.77957C11.9232 6.58757 11.7912 6.38957 11.6652 6.19157C11.4552 5.86157 11.3772 5.51357 11.4552 5.21357C11.5212 4.95557 11.6832 4.74557 11.9352 4.60157C12.1932 4.45757 12.4692 4.42157 12.7272 4.50557C13.0332 4.60757 13.2972 4.86557 13.4652 5.23757C13.6152 5.56757 13.7592 5.90357 13.9092 6.23957C14.1312 6.75557 14.3652 7.28357 14.6112 7.79957C14.7432 8.06957 14.7672 8.23157 14.6892 8.33957C14.6172 8.44157 14.4612 8.47157 14.1912 8.43557C14.1372 8.42957 14.0772 8.42957 13.9992 8.43557C13.9512 8.43557 13.9032 8.43557 13.8372 8.43557C13.7472 8.45957 13.6692 8.47157 13.5912 8.47157C13.1472 8.47157 12.8772 8.09357 12.7032 7.78757C12.5052 7.43957 12.2772 7.10357 12.0552 6.77357V6.77957ZM23.5092 31.0196L23.4972 31.0436C23.2812 31.3796 22.9572 31.5476 22.5432 31.5476H20.3712C18.1992 31.5476 16.0332 31.5476 13.8672 31.5476C13.5912 31.5476 13.3752 31.4756 13.1952 31.3316C13.0152 31.1816 12.7152 30.9356 12.8172 30.6176C12.8832 30.4196 13.0992 30.4496 13.2732 30.4736C13.3332 30.4796 13.3872 30.4916 13.4292 30.4916C14.6532 30.4856 15.9012 30.4856 17.1012 30.4916H19.2132C20.5392 30.4916 21.8592 30.4916 23.1792 30.4916H23.2212C23.3652 30.4916 23.5272 30.4916 23.5872 30.5756C23.7012 30.7256 23.5872 30.8996 23.5032 31.0256L23.5092 31.0196ZM25.7232 27.2156C25.6212 28.9856 25.3932 29.6396 23.3652 29.6396C23.3112 29.6396 23.2512 29.6396 23.1912 29.6396C20.7552 29.5976 18.2772 29.6096 15.8772 29.6156C14.8212 29.6156 13.7652 29.6156 12.7092 29.6216C11.3472 29.6216 10.9092 29.2316 10.7712 27.8816C10.7052 27.2756 10.6752 26.9696 10.8252 26.8016C10.9752 26.6336 11.2872 26.6336 11.9052 26.6336H18.2772C19.4412 26.6336 20.5992 26.6336 21.7752 26.6336C22.8972 26.6336 24.0312 26.6336 25.1532 26.6216H25.1712C25.4052 26.6216 25.5372 26.6576 25.6212 26.7476C25.7052 26.8376 25.7352 26.9756 25.7232 27.2156ZM25.8612 25.2296C25.8312 25.6436 25.6932 25.7696 25.2732 25.7696H25.2672C20.6472 25.7576 15.9012 25.7576 11.1612 25.7696C10.7892 25.7696 10.6032 25.6856 10.5732 25.2296C10.3452 22.0016 10.0992 18.7496 9.83523 15.5576C9.81723 15.3656 9.84723 15.2396 9.91923 15.1556C10.0212 15.0476 10.1832 15.0416 10.3812 15.0476C12.4032 15.0476 14.4312 15.0476 16.4532 15.0476H18.2232H19.9932C22.0152 15.0476 24.0432 15.0476 26.0652 15.0476C26.2572 15.0476 26.4252 15.0476 26.5272 15.1556C26.5992 15.2336 26.6292 15.3656 26.6112 15.5576C26.3532 18.6656 26.1072 21.9236 25.8732 25.2296H25.8612ZM26.8692 11.7836C26.7912 12.4136 26.7612 13.0436 26.7312 13.7516C26.7192 14.0936 26.5752 14.2256 26.2332 14.2256C20.9172 14.2196 15.5172 14.2196 10.2012 14.2256C9.85323 14.2256 9.71523 14.0936 9.70323 13.7516C9.67323 13.0856 9.64323 12.4316 9.56523 11.7836C9.53523 11.5616 9.56523 11.4176 9.64923 11.3216C9.75123 11.2076 9.93123 11.1836 10.1532 11.1836C12.1812 11.1956 14.2452 11.1956 16.2432 11.1956H18.2232H20.2032C22.2012 11.1956 24.2652 11.1956 26.2932 11.1836H26.3112C26.5272 11.1836 26.6952 11.2076 26.7912 11.3216C26.8752 11.4176 26.8992 11.5556 26.8752 11.7836H26.8692ZM27.4932 10.3676H27.4092C24.8532 10.3676 22.2972 10.3676 19.7412 10.3676H8.95323C8.91723 10.3676 8.88123 10.3676 8.83923 10.3676C8.76123 10.3676 8.68323 10.3676 8.60523 10.3616C8.24523 10.3316 8.04723 10.1216 8.05323 9.79757C8.06523 9.49757 8.25723 9.31157 8.58723 9.27557C8.68923 9.26357 8.79123 9.26357 8.89323 9.26957H8.98923C15.1452 9.26957 21.2952 9.26957 27.4512 9.26957C27.5172 9.26957 27.5832 9.26957 27.6492 9.26957C27.7332 9.26957 27.8232 9.26957 27.9072 9.28757C28.1952 9.34157 28.3632 9.53357 28.3692 9.80957C28.3692 10.0916 28.2072 10.2896 27.9252 10.3436C27.7812 10.3736 27.6372 10.3676 27.4932 10.3676Z" fill="#111E6C"/>
<path d="M20.1848 18.1314C20.1848 18.0234 20.2748 17.9454 20.3948 17.8494C20.5868 17.6934 20.6108 17.4834 20.4548 17.2794C20.3348 17.1114 20.1548 17.0814 19.9148 17.1834C19.8488 17.2134 19.7828 17.2434 19.7228 17.2794C19.6388 17.3214 19.5488 17.3694 19.4588 17.3994C19.0868 17.5314 18.9068 17.5794 18.7808 17.4954C18.6608 17.4114 18.6368 17.2374 18.6308 16.8414C18.6308 16.8054 18.6308 16.7634 18.6308 16.7274C18.6308 16.5654 18.6368 16.4154 18.5228 16.2894C18.3908 16.1454 18.2408 16.1094 18.0788 16.1694C17.8028 16.2774 17.8028 16.5054 17.8028 16.7694V16.8294C17.8028 17.2194 17.7788 17.4054 17.6528 17.4894C17.5328 17.5734 17.3468 17.5314 16.9868 17.3994C16.8368 17.3454 16.6928 17.2734 16.5728 17.2014C16.2968 17.0514 16.0928 17.0814 15.9548 17.2854C15.8828 17.3934 15.8588 17.5074 15.8768 17.6094C15.8948 17.7054 15.9548 17.7894 16.0508 17.8494C16.1828 17.9334 16.2428 18.0114 16.2548 18.1014C16.2668 18.2154 16.1768 18.3054 16.0748 18.4014L16.0328 18.4434C15.6128 18.8634 15.3908 19.3734 15.3848 19.9674C15.3848 21.0594 15.9968 22.6134 16.7348 23.4354C17.1848 23.9334 17.7008 24.1974 18.2228 24.1974H18.2348C18.7568 24.1974 19.2668 23.9214 19.7048 23.4234C20.3468 22.6854 20.7668 21.7434 20.9888 20.5554C21.1568 19.6494 20.9468 18.9474 20.3468 18.3954C20.2328 18.2874 20.1848 18.2034 20.1848 18.1194V18.1314ZM20.0708 20.8554C19.8548 21.7434 19.5008 22.4334 18.9848 22.9614C18.7148 23.2374 18.4568 23.3694 18.2108 23.3694C17.9588 23.3694 17.7128 23.2314 17.4548 22.9614C16.7828 22.2534 16.3808 21.3354 16.2488 20.2194C16.2308 19.2834 16.7468 18.6834 17.7368 18.4854C18.5648 18.3234 19.2668 18.4854 19.7108 18.9414C20.1428 19.3854 20.2748 20.0694 20.0828 20.8554H20.0708Z" fill="#111E6C"/>
</g>
</svg>
