<svg width="36" height="36" viewBox="0 0 36 36" fill="none" xmlns="http://www.w3.org/2000/svg">
<mask id="mask0_1975_23280" style="mask-type:alpha" maskUnits="userSpaceOnUse" x="0" y="0" width="36" height="36">
<rect width="36" height="36" fill="#D9D9D9"/>
</mask>
<g mask="url(#mask0_1975_23280)">
<path d="M31.6788 12.9178C31.6548 12.4498 31.5048 12.2818 31.0908 12.2818C28.1748 12.2818 25.1388 12.2878 21.8028 12.2818C21.3828 12.2818 21.2088 12.4438 21.2088 12.8458C21.2028 13.8478 21.2208 14.9338 21.3828 16.0198C21.5988 17.4238 21.7788 18.8518 21.9528 20.2378L22.0308 20.8618C22.0308 20.8618 22.0428 20.9218 22.0488 20.9518C22.0788 21.0838 22.1328 21.3118 21.8748 21.4018C21.6408 21.4798 21.3228 21.4138 21.0468 21.2218C20.7588 21.0238 20.5848 20.7538 20.5788 20.5018C20.5668 20.1538 20.4168 20.0158 20.0388 20.0098C19.3128 20.0038 18.6288 20.2018 17.9568 20.3998L17.8968 20.4178L17.8668 20.3578C17.7948 20.1958 17.8188 20.0578 17.8428 19.9378C17.8488 19.8958 17.8608 19.8598 17.8608 19.8178C17.8908 19.4758 17.9448 19.1398 17.9988 18.8098C18.1068 18.1678 18.2148 17.5078 18.1248 16.8478C17.8548 14.8438 16.8708 13.2958 15.1848 12.2458C14.9508 12.1018 14.8008 11.9398 14.7528 11.5918C14.6808 11.0218 14.5788 10.4458 14.4768 9.88781C14.4168 9.56381 14.3628 9.2458 14.3088 8.9218C14.2548 8.6038 14.1408 8.44782 13.9848 8.46582C13.7328 8.48982 13.5588 8.45381 13.4508 8.35181C13.3008 8.21381 13.3128 7.98581 13.3188 7.76981C13.3188 7.70981 13.3188 7.64982 13.3188 7.58982C13.3188 7.49982 13.3188 7.40982 13.3188 7.32582C13.3188 7.17582 13.3248 7.02582 13.3128 6.87582C13.2948 6.68382 13.3248 6.55781 13.4028 6.46781C13.4868 6.37781 13.6248 6.34782 13.8228 6.34782C14.3748 6.35982 14.9328 6.3598 15.4728 6.3538C15.8448 6.3538 16.2228 6.3538 16.5948 6.3538H16.6068C16.8108 6.3538 16.9548 6.31182 17.0448 6.21582C17.1348 6.12582 17.1768 5.9818 17.1768 5.7718C17.1768 5.4838 17.1768 5.18981 17.1768 4.89581C17.1768 4.72181 17.1768 4.55382 17.1768 4.37982C17.1768 4.02582 17.1528 3.79781 17.0448 3.69581C16.9368 3.59381 16.7208 3.58782 16.3848 3.61182L16.2048 3.62381C14.3928 3.73781 12.5148 3.85781 10.6728 3.99581C9.68876 4.06781 9.04676 4.58781 8.74676 5.55581C8.64476 5.88581 8.63276 6.05381 8.69876 6.15581C8.76476 6.25181 8.92076 6.3058 9.23276 6.3358C9.38876 6.3478 9.49676 6.39582 9.55676 6.47982C9.63476 6.58182 9.61676 6.71981 9.59276 6.80981C9.55676 6.98381 9.58076 7.16982 9.60476 7.36182C9.65276 7.71582 9.70076 8.07582 9.36476 8.39382C9.32276 8.42982 9.26876 8.42381 9.22076 8.42381H9.19076C9.19076 8.42381 9.15476 8.42381 9.14276 8.42381C8.82476 8.42381 8.66876 8.58581 8.61476 8.96981C8.56676 9.31181 8.50076 9.65381 8.44076 9.98381C8.35076 10.4638 8.26076 10.9678 8.20676 11.4598C8.15876 11.8918 7.97276 12.0958 7.66076 12.2998C5.57876 13.6918 4.60076 15.5878 4.83476 17.7778C5.17676 20.9458 5.62676 24.1498 6.05876 27.2518C6.23876 28.5298 6.41876 29.8138 6.58676 31.0918C6.70076 31.9318 7.22276 32.3998 8.05676 32.3998C15.3048 32.3998 21.9108 32.3998 28.2588 32.3998C29.1588 32.3998 29.7108 31.8478 29.7288 30.9238C29.7288 30.7018 29.7288 30.4678 29.7288 30.2458C29.7228 29.8138 29.7108 29.3638 29.7648 28.9258C29.9868 27.1978 30.2208 25.4458 30.4548 23.7478C30.6828 22.0798 30.9168 20.3518 31.1328 18.6538C31.1928 18.2098 31.2528 17.7598 31.3188 17.3158C31.5288 15.8818 31.7448 14.3998 31.6728 12.9178H31.6788ZM19.2588 20.9038C19.2588 20.9038 19.3128 20.8918 19.3428 20.8858C19.4628 20.8558 19.6488 20.8078 19.7508 21.0418C20.1948 22.0738 21.1008 22.1578 22.0668 22.2478L22.2168 22.2598C22.2888 22.2658 22.3548 22.2658 22.4268 22.2718C22.7508 22.2838 23.1168 22.2958 23.3688 22.7338L23.4348 22.8478H16.0428L16.1868 22.7158L16.2348 22.7698L16.1928 22.7098C17.1228 21.8758 17.9988 21.0838 19.2528 20.9038H19.2588ZM23.5008 23.8318C23.6148 23.9458 23.6268 24.1198 23.6268 24.2938C23.6268 24.5098 23.5908 24.6358 23.5068 24.7198C23.4228 24.8038 23.2848 24.8398 23.0748 24.8398C20.1048 24.8218 17.1708 24.8278 14.3448 24.8398H14.3328C13.8888 24.8398 13.8048 24.6538 13.7988 24.2878C13.7988 24.0598 13.8288 23.9278 13.9188 23.8378C14.0088 23.7478 14.1408 23.7178 14.3808 23.7118C15.4488 23.7298 16.5348 23.7238 17.5788 23.7238C18.3708 23.7238 19.1568 23.7238 19.9488 23.7238C20.9628 23.7238 22.0128 23.7238 23.0448 23.7118C23.2668 23.7118 23.4048 23.7478 23.4948 23.8318H23.5008ZM10.2228 4.86582C11.3148 4.79382 12.4068 4.72182 13.4988 4.64382L15.0228 4.54181C15.2628 4.52381 15.5028 4.51181 15.7428 4.50581C15.7908 4.50581 15.8388 4.49381 15.8868 4.48781C16.0128 4.46381 16.1568 4.43982 16.2648 4.52982C16.3488 4.59582 16.3908 4.71581 16.3908 4.90181C16.3968 5.17181 16.3608 5.32181 16.2588 5.42381C16.1568 5.51981 16.0068 5.56181 15.7548 5.54981C15.1188 5.51981 14.4708 5.52581 13.8468 5.53181C13.5828 5.53181 13.3128 5.53181 13.0488 5.53181H12.3588C11.6568 5.53181 10.9368 5.53182 10.2228 5.52582C10.1928 5.52582 10.1628 5.53181 10.1268 5.53781C10.0848 5.54381 10.0308 5.55581 9.98276 5.55581C9.92876 5.55581 9.87476 5.54382 9.82676 5.50782C9.77276 5.45982 9.74276 5.38782 9.74276 5.27982C9.74276 5.02782 9.90476 4.88982 10.2228 4.86582ZM12.5208 7.35581C12.5208 8.39381 12.4908 8.42381 11.4348 8.42381C10.4808 8.42381 10.4388 8.38781 10.4388 7.44581C10.4388 6.37781 10.4688 6.34782 11.5548 6.34782C11.5788 6.34782 11.6088 6.34782 11.6328 6.34782C11.6868 6.34782 11.7348 6.34782 11.7768 6.34782C12.0768 6.29382 12.2868 6.33582 12.4128 6.46182C12.5328 6.58782 12.5688 6.78581 12.5148 7.07381C12.5028 7.13381 12.5088 7.19381 12.5148 7.25981C12.5148 7.28981 12.5148 7.32581 12.5148 7.35581H12.5208ZM9.14276 10.7758V10.7338C9.40076 9.27581 9.43076 9.24581 10.9368 9.24581H11.5548C12.0648 9.24581 12.5868 9.24581 13.1028 9.24581C13.3368 9.24581 13.5768 9.26981 13.6128 9.65981C13.6548 10.0738 13.7388 10.4878 13.8168 10.8358C13.8588 11.0098 13.8408 11.1298 13.7748 11.2138C13.6848 11.3218 13.5168 11.3338 13.3668 11.3278C12.9108 11.3158 12.4488 11.3158 11.9988 11.3218C11.6328 11.3218 11.2728 11.3218 10.9068 11.3218C10.4868 11.3218 10.0548 11.3158 9.63476 11.3338C9.61076 11.3338 9.58076 11.3338 9.55676 11.3338C9.41276 11.3338 9.27476 11.3158 9.19076 11.2198C9.11276 11.1298 9.09476 10.9978 9.13076 10.7758H9.14276ZM11.5548 26.2618C11.5548 26.7898 11.5548 27.3238 11.5548 27.8518C11.5548 28.8898 11.5548 29.9698 11.5728 31.0258C11.5728 31.2658 11.5428 31.4038 11.4468 31.4938C11.3688 31.5658 11.2608 31.6018 11.0928 31.6018C11.0628 31.6018 11.0268 31.6018 10.9968 31.6018C10.6788 31.5838 10.3488 31.5838 10.0368 31.5898C9.75476 31.5898 9.47276 31.5898 9.19076 31.5898C8.87276 31.5898 8.54876 31.5838 8.23076 31.5958C7.72076 31.6258 7.47476 31.4038 7.40876 30.8758C7.16876 29.0218 6.91676 27.1318 6.67076 25.3078C6.56276 24.4978 6.44876 23.6818 6.34076 22.8718C6.25076 22.1878 6.16076 21.5038 6.07076 20.8198C5.95676 19.9318 5.83676 19.0378 5.71676 18.1498C5.36876 15.5698 6.86876 13.1638 9.28676 12.4378C11.4168 11.8018 13.2768 11.9818 14.8128 12.9778C16.7208 14.2138 17.5428 15.9418 17.2548 18.1258C17.2308 18.2998 17.2128 18.4738 17.1888 18.6478C17.1468 19.0258 17.0988 19.4158 17.0268 19.7998C17.0028 19.9318 16.9968 20.0758 16.9908 20.2258C16.9788 20.5918 16.9668 20.9698 16.6308 21.2518C16.5228 21.3418 16.4208 21.4318 16.3128 21.5218C15.5508 22.1758 14.7648 22.8598 13.6368 22.8838C13.3848 22.8898 13.2168 22.9438 13.1148 23.0518C13.0248 23.1538 12.9828 23.3098 13.0008 23.5318C13.0008 23.5978 13.0008 23.6698 13.0008 23.7418C13.0008 23.8138 13.0008 23.8858 13.0008 23.9518C13.0428 24.4078 13.0248 24.7978 12.3588 24.9598C11.6508 25.1338 11.5488 25.8418 11.5488 26.2558L11.5548 26.2618ZM24.8928 31.4038C24.7608 31.5358 24.5628 31.5958 24.2448 31.5958H24.2148C22.8888 31.5778 21.5448 31.5838 20.2428 31.5838C19.2288 31.5838 18.2208 31.5838 17.2068 31.5838C15.8868 31.5838 14.5248 31.5838 13.1868 31.5958C12.8748 31.5958 12.6768 31.5418 12.5508 31.4098C12.4248 31.2778 12.3648 31.0798 12.3708 30.7798C12.3948 29.3218 12.3948 27.8638 12.3708 26.4418C12.3708 26.1538 12.4248 25.9618 12.5508 25.8298C12.6828 25.6978 12.8808 25.6378 13.1928 25.6378H13.2048C17.1888 25.6558 20.8008 25.6558 24.2328 25.6378H24.2448C24.5628 25.6378 24.7668 25.6978 24.8988 25.8358C25.0308 25.9678 25.0908 26.1778 25.0848 26.4898C25.0548 27.9418 25.0548 29.3758 25.0848 30.7618C25.0908 31.0678 25.0308 31.2718 24.8988 31.4038H24.8928ZM28.9308 30.9178V30.9418C28.8948 31.3798 28.6728 31.5898 28.2528 31.5898H27.7908C27.3108 31.5898 26.8128 31.5898 26.3268 31.5898C26.3148 31.5898 26.3028 31.5898 26.2908 31.5898C26.1528 31.5898 26.0148 31.5718 25.9308 31.4758C25.8648 31.3978 25.8468 31.2898 25.8768 31.1398C25.8768 31.1158 25.8768 31.0918 25.8768 31.0678V31.0378C25.8768 30.2938 25.8768 29.9218 26.0748 29.7178C26.2788 29.5138 26.6568 29.5138 27.4068 29.5138H27.6468C28.3188 29.5138 28.6548 29.5138 28.8288 29.6998C29.0028 29.8918 28.9788 30.2338 28.9248 30.9178H28.9308ZM30.7248 15.6838C30.3528 18.4078 29.9808 21.1798 29.6268 23.8618L29.2488 26.7178C29.2308 26.8738 29.2008 27.0298 29.1768 27.1798C29.1288 27.4978 29.0748 27.8218 29.0568 28.1398C29.0328 28.6258 28.7748 28.7158 28.4148 28.6978C27.7188 28.6678 27.0948 28.6678 26.4948 28.6978C26.4648 28.6978 26.4288 28.6978 26.3928 28.6978C26.2428 28.6978 26.0868 28.6738 25.9848 28.5718C25.8888 28.4758 25.8528 28.3258 25.8648 28.0918C25.8948 27.5698 25.8888 27.0358 25.8768 26.5198V26.2318C25.8588 25.4698 25.5228 25.0378 24.8208 24.8638C24.5088 24.7858 24.4068 24.6658 24.4188 24.3598V24.2458C24.4368 23.8918 24.4548 23.5198 24.4008 23.1718C24.2808 22.3798 23.9088 21.8458 23.2788 21.5938C22.9728 21.4738 22.8888 21.2758 22.8528 20.9938L22.8228 20.7418C22.6128 19.1038 22.3908 17.4118 22.1448 15.7498C22.1088 15.4918 22.1028 15.2878 22.2228 15.1618C22.3188 15.0538 22.4988 15.0118 22.7748 15.0178C23.6448 15.0478 24.5268 15.0418 25.3788 15.0358C26.0868 15.0358 26.7888 15.0358 27.4968 15.0358C28.3548 15.0418 29.2428 15.0478 30.1128 15.0238C30.3828 15.0178 30.5328 15.0538 30.6228 15.1618C30.7128 15.2638 30.7368 15.4198 30.7008 15.6838H30.7248ZM30.3588 14.2258H30.3468C27.7488 14.2078 25.1208 14.2078 22.5228 14.2258H22.5108C22.0368 14.2258 22.0248 13.9678 22.0128 13.6738V13.6498C22.0008 13.4398 22.0368 13.3078 22.1208 13.2178C22.2048 13.1278 22.3368 13.0918 22.5588 13.0978C23.5008 13.1158 24.4608 13.1098 25.3908 13.1098C26.1048 13.1098 26.8248 13.1098 27.5388 13.1098C28.4508 13.1098 29.3928 13.1098 30.3168 13.0978C30.5388 13.0978 30.6648 13.1278 30.7488 13.2178C30.8328 13.3078 30.8688 13.4338 30.8568 13.6558C30.8448 13.9678 30.8328 14.2318 30.3528 14.2318L30.3588 14.2258Z" fill="#111E6C"/>
<path d="M14.19 19.3797H14.196C14.406 19.3797 14.556 19.3317 14.646 19.2417C14.742 19.1457 14.79 18.9837 14.784 18.7557C14.766 17.8497 14.766 17.0397 14.784 16.2837C14.784 16.0557 14.742 15.8997 14.646 15.8037C14.55 15.7077 14.376 15.6657 14.124 15.6597C13.5 15.6717 12.87 15.6717 12.258 15.6657C11.994 15.6657 11.73 15.6657 11.472 15.6657H10.74C10.092 15.6657 9.42002 15.6657 8.76002 15.6657C8.53802 15.6657 8.38802 15.7077 8.29802 15.8037C8.20802 15.8937 8.16602 16.0317 8.16602 16.2357C8.17202 17.0757 8.17202 17.9517 8.16602 18.8277C8.16602 19.0257 8.20802 19.1637 8.29802 19.2537C8.39402 19.3497 8.55002 19.3977 8.76602 19.3917C9.73202 19.3917 10.65 19.3917 11.526 19.3917C12.45 19.3917 13.332 19.3917 14.184 19.3977L14.19 19.3797ZM9.50402 18.5637C9.50402 18.5637 9.48002 18.5637 9.47402 18.5637C9.29402 18.5637 9.18002 18.5277 9.10202 18.4437C9.03002 18.3657 8.99402 18.2457 8.98802 18.0417V18.0117C8.97002 17.2617 8.96402 16.8897 9.16202 16.6797C9.36002 16.4697 9.73802 16.4757 10.488 16.4757H11.508C11.694 16.4757 11.88 16.4757 12.066 16.4757C12.534 16.4757 13.014 16.4817 13.488 16.4637C13.5 16.4637 13.512 16.4637 13.524 16.4637C13.884 16.4637 13.962 16.6437 13.968 16.9497V16.9797C13.992 17.7477 14.01 18.1317 13.806 18.3357C13.602 18.5457 13.212 18.5457 12.438 18.5457C12.156 18.5457 11.874 18.5457 11.598 18.5457C10.908 18.5457 10.194 18.5457 9.49802 18.5577L9.50402 18.5637Z" fill="#111E6C"/>
<path d="M28.7736 18.4857C28.7736 18.1677 28.5936 17.8617 28.2756 17.6157C27.3696 16.9377 25.5216 16.9317 24.6096 17.6157C24.2796 17.8617 24.0996 18.1737 24.0996 18.4917C24.0996 18.8097 24.2796 19.1097 24.6036 19.3437C25.2216 19.7937 25.9236 19.8477 26.1996 19.8537C27.1116 19.8537 27.8256 19.6797 28.2636 19.3497C28.5876 19.1037 28.7676 18.7977 28.7736 18.4797V18.4857ZM27.6636 18.7737L27.6336 18.7917C27.2856 18.9657 26.8956 19.0437 26.3736 19.0437H26.3316C26.2476 19.0257 26.1396 19.0197 26.0316 19.0137C25.6296 18.9837 25.0716 18.9417 25.0476 18.4677C25.0476 18.3777 25.0716 18.2997 25.1316 18.2337C25.3536 17.9877 25.9596 17.9637 26.3976 17.9457C26.8416 17.9217 27.2496 18.0057 27.6216 18.1857L27.6516 18.1977C27.7536 18.2457 27.8976 18.3177 27.9096 18.4857C27.9156 18.6597 27.7656 18.7317 27.6696 18.7797L27.6636 18.7737Z" fill="#111E6C"/>
<path d="M20.5716 28.5898C20.5656 28.0918 20.3616 27.6298 20.0016 27.2818C19.6536 26.9458 19.1976 26.7598 18.7116 26.7598C18.6936 26.7598 18.6756 26.7598 18.6576 26.7598C17.6496 26.7898 16.8456 27.6298 16.8576 28.6438C16.8636 29.1418 17.0676 29.6038 17.4276 29.9518C17.7936 30.2998 18.2736 30.4918 18.7656 30.4678C19.7736 30.4378 20.5776 29.5978 20.5656 28.5838L20.5716 28.5898ZM19.4556 29.3398C19.2576 29.5378 18.9996 29.6518 18.7296 29.6518H18.7176C18.1596 29.6518 17.6916 29.1838 17.6856 28.6258C17.6856 28.3558 17.7876 28.0978 17.9856 27.8938C18.1836 27.6958 18.4416 27.5818 18.7116 27.5818H18.7236C19.2816 27.5818 19.7556 28.0498 19.7616 28.6078C19.7616 28.8778 19.6596 29.1358 19.4616 29.3398H19.4556Z" fill="#111E6C"/>
</g>
</svg>
