<svg width="36" height="36" viewBox="0 0 36 36" fill="none" xmlns="http://www.w3.org/2000/svg">
<mask id="mask0_1975_23453" style="mask-type:alpha" maskUnits="userSpaceOnUse" x="0" y="0" width="36" height="36">
<rect width="36" height="36" fill="#D9D9D9"/>
</mask>
<g mask="url(#mask0_1975_23453)">
</g>
<g clip-path="url(#clip0_1975_23453)">
<path d="M31.1391 16.8539C31.0191 16.2959 30.6351 16.0259 29.9871 15.9539C29.8851 15.9419 29.7711 15.9359 29.6511 15.9359C29.5491 15.9359 29.4351 15.9479 29.3271 15.9539C29.1291 15.9719 28.9251 15.9899 28.7811 15.9539H28.3611C27.9231 15.0119 27.2631 14.3039 26.3511 13.8179C26.0931 13.6679 25.9491 13.5059 25.8591 13.2539C25.2951 11.5739 24.1431 10.6499 22.3251 10.4279C21.9951 10.3919 21.7671 10.2539 21.5991 9.98389C21.1971 9.40789 20.6811 8.89189 20.0331 8.42389C19.5471 8.08789 19.3071 7.74589 19.3131 7.37389C19.3131 7.00189 19.5651 6.65989 20.0691 6.32989C20.3871 6.13189 20.4231 5.98189 20.3751 5.78989C20.3451 5.62789 20.2611 5.48389 19.8651 5.42989C18.0951 5.25589 16.6971 5.75989 15.5931 6.98389C15.3531 7.22389 15.1491 7.34389 14.8791 7.40389C11.4771 8.13589 9.78507 10.9859 9.91707 13.3019C9.91707 13.7279 9.68307 13.8899 9.50907 14.0099L9.44307 14.0579C8.62707 14.5559 8.06907 15.1919 7.76907 15.9479H5.47107C4.86507 16.0079 4.47507 16.2719 4.33107 16.7999C4.13907 17.4839 4.11507 18.6419 4.73307 18.9899C5.12907 19.2059 5.18307 19.5239 5.22507 19.9019C5.46507 22.4339 6.47307 24.6539 8.39907 26.2859C9.47307 27.1919 9.92907 28.0919 9.76707 29.4599C9.67107 30.2939 10.2291 30.7859 11.0751 30.7859C15.5151 30.7919 19.9611 30.7919 24.4071 30.7859C25.2471 30.7859 25.7091 30.2999 25.7211 29.4479C25.7331 28.9019 25.7331 28.3619 25.7211 27.8159C25.7151 27.5759 25.7811 27.4079 25.9851 27.2519C28.5231 25.3559 29.9991 22.8479 30.2811 19.6739C30.2991 19.4219 30.3411 19.2239 30.6051 19.0859C31.3011 18.7139 31.3551 17.8379 31.1511 16.8479L31.1391 16.8539ZM10.3551 14.5679C10.7331 14.3999 10.8411 14.2139 10.7991 13.7819C10.4451 10.7759 12.7251 8.69389 15.0471 8.26189C15.6171 8.15989 15.9471 7.97389 16.2291 7.59589C16.6071 7.03789 17.2191 6.64189 18.0891 6.39589L18.5451 6.26389L18.4731 6.73189C18.3051 7.79389 18.6651 8.57389 19.6071 9.19789C20.2491 9.64189 20.7531 10.2119 21.1251 10.9019C21.2691 11.1659 21.4611 11.2739 21.7971 11.2739C23.5791 11.2979 24.7251 12.2219 25.1091 13.9439C25.1631 14.1839 25.2771 14.3159 25.5291 14.4119C26.2731 14.6759 26.8371 15.1619 27.3291 15.9539H8.74707C9.11307 15.3239 9.65907 14.8439 10.3611 14.5679H10.3551ZM23.5311 29.9459H11.3811C10.6251 29.9459 10.5951 29.9099 10.5891 29.1539C10.5891 28.8179 10.6131 28.4759 10.5831 28.1459C10.5471 27.7379 10.7211 27.6419 11.0991 27.6479C12.7491 27.6659 14.3991 27.6539 16.0431 27.6539H23.9211C24.8571 27.6539 24.8631 27.6539 24.8571 28.6139C24.8451 30.0659 25.0251 29.9459 23.5311 29.9459ZM29.4111 19.9019C29.0451 22.6679 27.7311 24.8699 25.5171 26.5559C25.2651 26.7479 25.0071 26.8259 24.6891 26.8259C23.0931 26.8139 21.4911 26.8199 19.8891 26.8259L13.3911 26.8199C12.5151 26.8199 11.6391 26.8199 10.7691 26.8259C10.4571 26.8259 10.1991 26.7539 9.94107 26.5619C7.72707 24.8819 6.40707 22.6799 6.04107 19.9139C5.96907 19.4219 6.10107 19.2899 6.61107 19.2899C9.88107 19.3199 13.1511 19.3079 16.4211 19.3019L19.8111 19.3079C22.8351 19.3079 25.8591 19.3139 28.8771 19.2899C29.3871 19.2899 29.4711 19.4519 29.4111 19.9019ZM30.2991 18.2159C30.1311 18.5099 29.8431 18.4379 29.5911 18.4379H5.90307C5.63907 18.4379 5.27307 18.5399 5.15907 18.2039C5.02707 17.8139 5.00907 17.3759 5.17707 16.9919C5.30307 16.7099 5.63307 16.7939 5.89107 16.7879H29.4591C30.2631 16.7879 30.6891 17.5139 30.2991 18.2159Z" fill="#111E6C"/>
<path d="M18.7433 10.8901C18.5993 10.7521 18.3773 10.7521 18.2333 10.8901C17.6873 11.4421 16.7333 11.4541 16.1753 10.9081C16.0313 10.7701 15.8033 10.7701 15.6653 10.9141C15.5273 11.0581 15.5273 11.2861 15.6713 11.4241C16.0793 11.8201 16.6193 12.0421 17.1893 12.0421C17.7593 12.0421 18.3293 11.8141 18.7433 11.3941C18.8813 11.2501 18.8813 11.0221 18.7433 10.8841V10.8901Z" fill="#111E6C"/>
<path d="M15.4305 13.29C14.8845 13.842 13.9305 13.854 13.3725 13.314C13.2285 13.176 13.0005 13.176 12.8625 13.32C12.7245 13.464 12.7245 13.692 12.8685 13.83C13.2765 14.226 13.8165 14.448 14.3865 14.448C14.9565 14.448 15.5265 14.22 15.9405 13.8C16.0785 13.656 16.0785 13.428 15.9405 13.29C15.7965 13.152 15.5685 13.152 15.4305 13.29Z" fill="#111E6C"/>
<path d="M21.0301 13.0138C20.4841 13.5658 19.5301 13.5778 18.9721 13.0318C18.8281 12.8938 18.6001 12.8938 18.4621 13.0378C18.3241 13.1818 18.3241 13.4098 18.4681 13.5478C18.8761 13.9498 19.4161 14.1658 19.9861 14.1658C20.5561 14.1658 21.1261 13.9378 21.5401 13.5178C21.6781 13.3738 21.6781 13.1458 21.5401 13.0078C21.3961 12.8698 21.1681 12.8698 21.0301 13.0078V13.0138Z" fill="#111E6C"/>
</g>
<defs>
<clipPath id="clip0_1975_23453">
<rect width="27.042" height="25.392" fill="white" transform="translate(4.19922 5.3999)"/>
</clipPath>
</defs>
</svg>
