<svg width="36" height="36" viewBox="0 0 36 36" fill="none" xmlns="http://www.w3.org/2000/svg">
<mask id="mask0_1975_22901" style="mask-type:alpha" maskUnits="userSpaceOnUse" x="0" y="0" width="36" height="36">
<rect width="36" height="36" fill="#D9D9D9"/>
</mask>
<g mask="url(#mask0_1975_22901)">
<path d="M22.5749 20.385C22.1129 20.403 22.0349 20.193 21.9749 19.821C21.7409 18.393 20.5769 17.367 19.1369 17.331C18.6389 17.319 18.2369 17.163 17.8589 16.857C16.7369 15.957 15.8009 15.969 14.6609 16.857C13.8329 17.505 13.3349 17.499 12.5009 16.845C11.3909 15.969 10.4249 15.975 9.30288 16.869C9.02088 17.091 8.73288 17.307 8.35488 17.319C8.33688 17.319 8.31888 17.319 8.30088 17.325C8.27688 17.325 8.25888 17.325 8.23488 17.325C6.86088 17.445 6.41687 17.877 6.41687 17.877C6.35087 17.919 6.28488 17.973 6.21888 18.027C5.64288 18.525 5.26488 19.137 5.18688 19.899C5.15088 20.229 5.07888 20.385 4.69488 20.385C3.98688 20.385 3.62087 20.775 3.61487 21.471C3.60287 22.671 3.58488 23.871 3.62088 25.071C3.69888 27.681 5.79287 30.021 8.36687 30.363C8.84087 30.423 8.99688 30.555 8.98488 31.041C8.95488 32.019 9.36888 32.403 10.3409 32.403C12.4409 32.403 14.5409 32.403 16.6409 32.403C17.8529 32.403 18.1949 32.085 18.2069 30.891C18.2069 30.525 18.3269 30.411 18.6809 30.375C19.4369 30.303 20.1269 30.039 20.7749 29.649C20.7809 29.649 20.7869 29.649 20.7929 29.649C20.8109 29.643 20.8289 29.625 20.8469 29.613C20.8589 29.607 20.8709 29.601 20.8829 29.595C20.9249 29.571 20.9609 29.547 20.9969 29.517C21.0209 29.505 21.0389 29.487 21.0629 29.469C21.5309 29.121 22.1189 28.509 22.3109 28.311C22.3289 28.293 22.3529 28.269 22.3709 28.245C22.4009 28.209 22.4309 28.173 22.4609 28.137C22.9349 27.495 23.2889 26.793 23.4209 26.001C23.6849 24.417 23.5349 22.821 23.5229 21.231C23.5229 20.691 23.0969 20.373 22.5749 20.391V20.385ZM6.03888 19.875C6.16488 19.389 6.39287 18.981 6.78287 18.663C6.80687 18.645 6.83088 18.627 6.85488 18.603C7.32288 18.147 7.81488 18.105 8.08488 18.123C8.14488 18.141 8.21087 18.147 8.28287 18.153C8.34287 18.153 8.40288 18.153 8.46888 18.153C9.06888 18.123 9.51288 17.787 9.95688 17.433C10.5929 16.935 11.2229 16.935 11.8529 17.415C13.1969 18.447 13.9649 18.447 15.3209 17.415C15.9329 16.953 16.5929 16.917 17.1689 17.403C17.7689 17.913 18.4229 18.159 19.2089 18.201C20.1389 18.249 20.7689 18.783 21.0689 19.671C21.2909 20.313 21.2429 20.373 20.5769 20.373C16.1729 20.373 11.7689 20.373 7.35888 20.373C7.04088 20.373 6.71688 20.349 6.40488 20.373C5.97288 20.415 5.94887 20.223 6.03287 19.875H6.03888ZM16.7249 31.551C14.9849 31.539 13.2449 31.551 11.4989 31.551C11.1029 31.551 10.7129 31.533 10.3169 31.551C9.81287 31.575 9.81888 31.263 9.80088 30.891C9.77688 30.477 9.97488 30.441 10.3049 30.441C11.4089 30.453 12.5129 30.441 13.6169 30.441C14.6669 30.441 15.7169 30.453 16.7609 30.441C17.1389 30.441 17.3789 30.453 17.3669 30.963C17.3549 31.467 17.1509 31.557 16.7189 31.551H16.7249ZM22.7249 24.411C22.7429 25.581 22.4849 26.667 21.7829 27.621C21.3149 28.281 20.8829 28.611 20.6429 28.755C20.5769 28.785 20.5109 28.821 20.4449 28.863C19.6949 29.325 18.8849 29.583 17.9969 29.583C15.0569 29.583 12.1109 29.601 9.17088 29.583C6.72288 29.565 4.67088 27.651 4.50288 25.209C4.42488 24.069 4.49088 22.923 4.45488 21.783C4.43688 21.321 4.61088 21.219 5.03688 21.225C7.88688 21.243 10.7369 21.231 13.5869 21.231C16.4369 21.231 19.2869 21.243 22.1369 21.219C22.6109 21.219 22.7489 21.363 22.7309 21.825C22.6949 22.683 22.7129 23.547 22.7249 24.411Z" fill="#111E6C"/>
<path d="M31.7602 11.6669C30.4942 10.4069 29.2342 9.14689 27.9742 7.88689L26.1202 6.0329C26.1142 6.0269 26.1082 6.0209 26.1022 6.0149C25.5322 5.4449 24.9562 4.88089 24.3922 4.30489C23.8102 3.70489 23.1322 3.43489 22.3102 3.70489C21.4642 3.98089 21.0742 4.61689 20.9482 5.46289C20.5162 8.34889 20.0782 11.2409 19.6462 14.1269C19.4422 15.4889 20.5102 16.5689 21.8662 16.3709C22.9762 16.2089 24.0862 16.0409 25.1962 15.8729C27.0442 15.5909 28.8982 15.3269 30.7462 15.0209C31.7662 14.8529 32.4022 14.0789 32.4022 12.9749C32.3902 12.5489 32.1562 12.0809 31.7542 11.6789L31.7602 11.6669ZM21.7942 15.5129C20.9002 15.6209 20.3842 15.1109 20.4982 14.2229C20.6602 12.9809 20.8762 11.7509 21.0502 10.5089C21.0922 10.2029 21.2662 10.2029 21.4822 10.2449C22.4122 10.4189 23.1682 10.8269 23.5462 11.7629C23.9902 12.8489 24.2182 14.0129 24.9082 15.0509C23.8222 15.2189 22.8082 15.3929 21.7942 15.5189V15.5129ZM31.4902 13.4909C31.3282 13.9409 30.9682 14.1329 30.5002 14.1989C29.1262 14.3969 27.7582 14.6129 26.3962 14.8349C26.0182 14.8949 25.7722 14.8169 25.5562 14.4749C25.0702 13.7009 24.8242 12.8369 24.5542 11.9789C24.0982 10.5389 23.1682 9.65089 21.6622 9.42289C21.3202 9.36889 21.2362 9.2309 21.2902 8.9009C21.4822 7.7729 21.6562 6.64491 21.8182 5.51691C21.8902 5.02491 22.0942 4.65889 22.5802 4.50889C23.0602 4.35889 23.4502 4.5389 23.7922 4.8929C24.2962 5.4149 24.8182 5.92489 25.3402 6.44089L27.2362 8.33091C28.5322 9.62691 29.8222 10.9289 31.1302 12.2189C31.4962 12.5849 31.6762 12.9869 31.4962 13.4849L31.4902 13.4909Z" fill="#111E6C"/>
<path d="M15.7884 22.707C14.3124 22.707 12.8364 22.707 11.3544 22.707C11.0484 22.707 10.7424 22.749 10.7364 23.109C10.7304 23.517 11.0604 23.541 11.3784 23.541C12.1284 23.541 12.8724 23.541 13.6224 23.541C14.3304 23.541 15.0444 23.541 15.7524 23.541C16.0524 23.541 16.4064 23.565 16.4184 23.139C16.4304 22.719 16.0944 22.707 15.7764 22.707H15.7884Z" fill="#111E6C"/>
<path d="M24.4413 8.89485C24.0153 8.90685 24.0333 9.25486 24.0333 9.56086C24.0333 9.87886 24.0693 10.2209 24.4713 10.2029C24.8673 10.1849 24.8973 9.84886 24.8793 9.56086C24.8853 9.21286 24.8553 8.88285 24.4413 8.89485Z" fill="#111E6C"/>
<path d="M24.8612 7.58064C24.8312 7.09464 24.3812 7.14862 24.0752 7.04062C23.7692 7.02262 23.5592 7.16064 23.5772 7.44864C23.6072 7.93464 24.0512 7.91062 24.3752 7.97662C24.6572 8.03662 24.8732 7.86864 24.8612 7.58064Z" fill="#111E6C"/>
<path d="M26.8887 11.4989C26.4387 11.5829 26.3727 11.9909 26.3187 12.3509C26.2827 12.6149 26.4807 12.7829 26.7387 12.7469C27.2127 12.6809 27.1827 12.2189 27.3387 11.9309C27.2847 11.6489 27.1407 11.4509 26.8887 11.4989Z" fill="#111E6C"/>
<path d="M28.3592 12.387C28.0712 12.333 27.8792 12.501 27.8912 12.795C27.9152 13.263 28.3352 13.215 28.6232 13.323C28.9232 13.323 29.1332 13.191 29.1092 12.903C29.0792 12.459 28.6652 12.447 28.3532 12.387H28.3592Z" fill="#111E6C"/>
<path d="M27.3201 10.2927C27.3201 9.8967 26.9901 9.86669 26.6781 9.87269C26.3721 9.87269 26.0961 9.9327 26.1141 10.3107C26.1321 10.6887 26.4321 10.7067 26.7441 10.7007C27.0321 10.7247 27.3201 10.6467 27.3201 10.2927Z" fill="#111E6C"/>
<path d="M23.0076 5.82288C22.7016 5.82288 22.5996 6.02689 22.5996 6.30289C22.5996 6.59689 22.6956 6.83688 23.0196 6.83688C23.3076 6.83688 23.4336 6.62688 23.4276 6.34488C23.4396 6.05088 23.3496 5.81689 23.0076 5.81689V5.82288Z" fill="#111E6C"/>
</g>
</svg>
