<svg width="36" height="36" viewBox="0 0 36 36" fill="none" xmlns="http://www.w3.org/2000/svg">
<mask id="mask0_1975_22627" style="mask-type:alpha" maskUnits="userSpaceOnUse" x="0" y="0" width="36" height="36">
<rect width="36" height="36" fill="#D9D9D9"/>
</mask>
<g mask="url(#mask0_1975_22627)">
<path d="M24.4865 28.2361C25.0805 25.7641 25.4525 23.0761 25.6625 19.7881C25.8665 16.6321 25.9925 12.9001 25.3685 9.1801C25.1765 8.0161 24.9725 6.8281 23.9945 6.0301C23.8145 5.8861 23.8265 5.68209 23.8325 5.53809C23.8325 5.50209 23.8325 5.4721 23.8325 5.4361C23.7905 4.1341 23.2445 3.6061 21.9365 3.6001C20.7245 3.6001 19.5125 3.6001 18.3005 3.6001C17.0885 3.6001 15.8765 3.6001 14.6645 3.6001C13.3625 3.6001 12.8105 4.1341 12.7685 5.4481C12.7685 5.4781 12.7685 5.5141 12.7685 5.5441C12.7685 5.7061 12.7805 5.9221 12.5645 6.0841C12.0125 6.4981 11.7785 7.1221 11.5865 7.7281C11.1425 9.1621 10.9985 10.6321 10.9205 11.8801C10.6205 16.6021 10.8845 21.4201 11.7125 26.2021C12.0905 28.3921 12.5945 30.1441 13.2905 31.7101C13.5185 32.2261 13.8005 32.4121 14.3645 32.3941C15.2945 32.3581 16.2365 32.3641 17.1485 32.3701C17.9165 32.3701 18.6845 32.3701 19.4525 32.3701C20.4125 32.3701 21.4025 32.3641 22.3805 32.3821C22.8125 32.4001 23.0585 32.2441 23.2505 31.8361C23.7485 30.7921 24.1385 29.6461 24.4745 28.2241L24.4865 28.2361ZM14.1245 4.4941C14.2805 4.4401 14.4485 4.44009 14.6045 4.44009H14.6765C15.6185 4.44009 16.5605 4.44009 17.5025 4.44009H19.0625C20.0645 4.44009 21.0605 4.44009 22.0625 4.44009C22.2905 4.44009 22.8725 4.4401 22.9745 5.0641C23.0165 5.3161 23.0345 5.5681 22.8785 5.7361C22.7585 5.8621 22.5725 5.9041 22.3025 5.8801C22.0565 5.8561 21.8105 5.8621 21.5465 5.8681C21.3305 5.8681 21.1085 5.8801 20.8865 5.8681C20.3765 5.8441 20.1785 6.01809 20.1245 6.54009C20.0345 7.33809 19.4765 7.9381 18.6785 8.1121C18.5585 8.1361 18.4385 8.1481 18.3185 8.1481C17.7065 8.1481 17.1065 7.8241 16.7585 7.2781C16.6025 7.0321 16.5065 6.75009 16.4765 6.40809C16.4405 6.01209 16.2485 5.8561 15.8345 5.8681C15.2825 5.8861 14.7785 5.8861 14.2925 5.8681C14.2505 5.8681 14.2145 5.8681 14.1725 5.8801C14.0465 5.8981 13.8905 5.9221 13.7645 5.8141C13.6805 5.7421 13.6325 5.64009 13.6265 5.49009C13.6145 5.20809 13.5845 4.6801 14.1305 4.4941H14.1245ZM22.6865 31.1041C22.5545 31.4161 22.3505 31.5541 21.9965 31.5541H21.9905C19.0625 31.5421 16.8065 31.5421 14.6705 31.5541H14.6585C14.2205 31.5541 14.0465 31.3441 13.9145 31.0261C13.1105 29.1061 12.7145 27.0781 12.4565 25.5241C11.8205 21.6481 11.5565 17.6401 11.6825 13.6201C11.7365 11.8681 11.8565 9.99609 12.3425 8.19009C12.3785 8.05809 12.4145 7.9261 12.4565 7.8001C12.7865 6.8281 12.9545 6.70809 13.9625 6.70809H14.0405C14.0825 6.70809 14.1305 6.70809 14.1785 6.70809C15.0785 6.61209 15.6905 6.7441 16.1105 7.7281C16.4945 8.6101 17.4125 9.07809 18.5705 8.95809C19.6385 8.85609 20.4005 8.2921 20.7725 7.3201C20.9645 6.8341 21.2285 6.6541 21.7505 6.7021C22.0745 6.7261 22.4945 6.7501 22.9085 6.7021C23.6225 6.6121 23.9045 7.0861 24.0485 7.4521C24.4985 8.5861 24.6545 9.78009 24.7685 10.8061C24.9245 12.2461 24.9905 13.7581 25.0025 15.8701C24.8945 20.0641 24.6305 24.5521 23.4245 28.9981C23.2385 29.6881 22.9985 30.3781 22.6925 31.1041H22.6865Z" fill="#111E6C"/>
<path d="M18.2889 18.3062C19.0149 18.3122 19.6929 18.0362 20.2029 17.5262C20.7129 17.0162 20.9949 16.3442 20.9949 15.6242C20.9949 14.1542 19.8069 12.9482 18.3429 12.9302H18.3189C17.6289 12.9302 16.9449 13.2182 16.4409 13.7222C15.9249 14.2322 15.6309 14.9282 15.6309 15.6242C15.6309 17.0642 16.8549 18.2942 18.2949 18.3002L18.2889 18.3062ZM17.0109 14.3162C17.3649 13.9622 17.8269 13.7642 18.3129 13.7642C18.8049 13.7642 19.2609 13.9562 19.6089 14.3042C19.9569 14.6522 20.1489 15.1202 20.1489 15.6122C20.1489 16.6442 19.3449 17.4542 18.3129 17.4542C17.2989 17.4542 16.4709 16.6262 16.4649 15.6122C16.4649 15.1262 16.6569 14.6582 17.0109 14.3042V14.3162Z" fill="#111E6C"/>
<path d="M16.0556 22.9562C16.7696 22.9562 17.4776 22.9562 18.1916 22.9562C18.9716 22.9562 19.7516 22.9562 20.5316 22.9562C21.0116 22.9562 21.0836 22.7642 21.0896 22.5602C21.0896 22.4222 21.0656 22.3202 20.9996 22.2482C20.9156 22.1582 20.7476 22.1162 20.5256 22.1162C19.9856 22.1162 19.4456 22.1162 18.9056 22.1162H18.2576H17.6096C17.0876 22.1162 16.5716 22.1162 16.0496 22.1162C15.9116 22.1162 15.7256 22.1402 15.6176 22.2482C15.5516 22.3142 15.5156 22.4102 15.5156 22.5362C15.5156 22.6502 15.5156 22.9562 16.0556 22.9562Z" fill="#111E6C"/>
<path d="M19.4338 24.804C19.4338 24.534 19.2658 24.396 18.9418 24.396C18.6058 24.396 18.2698 24.396 17.9338 24.396H17.0218C16.8958 24.396 16.7638 24.396 16.6378 24.396C16.4278 24.396 16.2178 24.396 16.0078 24.396C15.8398 24.396 15.7079 24.444 15.6299 24.522C15.5639 24.588 15.5279 24.69 15.5339 24.816C15.5339 25.086 15.7018 25.224 16.0258 25.23C17.0098 25.23 17.9878 25.23 18.9718 25.23C19.1398 25.23 19.2719 25.188 19.3499 25.104C19.4159 25.032 19.4518 24.936 19.4518 24.81L19.4338 24.804Z" fill="#111E6C"/>
<path d="M20.7052 24.4019H20.6992C20.5672 24.4019 20.4652 24.4379 20.3932 24.5099C20.3212 24.5819 20.2852 24.6839 20.2852 24.8099C20.2852 25.0499 20.4292 25.1939 20.7112 25.2239C21.0712 25.1639 21.1132 24.9599 21.1012 24.7859C21.0892 24.5399 20.9512 24.4079 20.7052 24.4079V24.4019Z" fill="#111E6C"/>
</g>
</svg>
