<svg width="36" height="36" viewBox="0 0 36 36" fill="none" xmlns="http://www.w3.org/2000/svg">
<mask id="mask0_1975_22594" style="mask-type:alpha" maskUnits="userSpaceOnUse" x="0" y="0" width="36" height="36">
<rect width="36" height="36" fill="#D9D9D9"/>
</mask>
<g mask="url(#mask0_1975_22594)">
<path d="M13.0054 24.7227C12.8914 24.7347 12.7774 24.6507 12.6874 24.5607C12.1234 24.0147 11.4274 23.5827 10.5694 23.2347C8.74536 22.4967 6.74735 22.2507 4.28135 22.4667C4.03535 22.4907 3.85536 22.5747 3.74136 22.7187C3.61536 22.8747 3.57336 23.1087 3.61536 23.4027C3.90336 25.4007 4.32935 27.0147 4.94735 28.4907C5.48735 29.7747 6.29136 30.7887 7.35336 31.5087C9.26136 32.8047 11.7334 32.6547 13.3594 31.1487C13.4734 31.0467 13.5574 30.9987 13.6414 30.9987C13.7254 30.9987 13.8094 31.0407 13.9174 31.1307C15.6514 32.5107 17.6494 32.7927 19.6954 31.9527C20.6554 31.5567 21.6394 31.3947 22.8754 31.4127C23.2474 31.4187 23.6314 31.4127 23.9974 31.4127C24.1654 31.4127 24.3394 31.4127 24.5074 31.4127H25.4074C26.0854 31.4127 26.7574 31.4127 27.4354 31.4127C29.1454 31.4127 30.0274 30.5967 30.2074 28.8627C30.3214 27.7827 30.4534 26.6907 30.5794 25.6287C30.6214 25.3047 30.6574 24.9867 30.6994 24.6627C31.2394 20.1327 31.7854 15.6027 32.3314 11.0727C32.4034 10.4667 32.2294 10.0107 31.7914 9.66874C31.4554 9.41074 31.0654 9.36874 30.7174 9.36874H30.7054C29.9194 9.36874 29.1334 9.36874 28.3474 9.36874C26.9974 9.36874 25.5994 9.36874 24.2254 9.38074C24.2254 9.38074 24.2134 9.38074 24.2074 9.38074C23.9854 9.38074 23.8534 9.33874 23.7694 9.24874C23.6854 9.15874 23.6554 9.02674 23.6734 8.81074C23.6974 8.48074 23.6914 8.14474 23.6854 7.82074C23.6854 7.73674 23.6854 7.65874 23.6854 7.57474C23.6674 6.56074 23.2054 5.84074 22.3054 5.43274C20.9554 4.82074 19.5934 4.25674 18.2734 3.70474C17.7034 3.46474 17.2774 3.63874 17.0074 4.21474C16.8994 4.43674 16.8094 4.67674 16.7254 4.88674C16.4434 5.59474 16.6114 6.00274 17.3074 6.30874C17.8714 6.55474 18.4414 6.79474 19.0054 7.03474C19.3534 7.18474 19.7014 7.32874 20.0494 7.47874C20.9074 7.84474 20.9194 7.86874 20.9314 8.75074V8.82274C20.9314 9.03274 20.8954 9.16474 20.8114 9.24874C20.7034 9.35674 20.5234 9.36874 20.3554 9.36874C19.0474 9.35674 17.7214 9.35674 16.4314 9.36274H15.8434C15.2434 9.36274 14.7934 9.52474 14.5234 9.83674C14.2474 10.1487 14.1454 10.6047 14.2174 11.2047C14.5654 14.1267 15.0214 17.9667 15.4954 21.8307C15.5314 22.1067 15.4954 22.3047 15.2254 22.4907C14.4274 23.0307 13.7734 23.6967 13.2814 24.4707C13.1854 24.6207 13.1014 24.6927 13.0114 24.7047L13.0054 24.7227ZM12.7354 30.5787C12.1174 31.1967 11.1694 31.5267 10.1974 31.5267C9.53135 31.5267 8.85935 31.3767 8.25935 31.0647C7.14935 30.4827 6.32135 29.5347 5.74535 28.1667C5.10335 26.6487 4.77336 25.0947 4.53336 23.7807C4.49736 23.5827 4.51536 23.4567 4.58736 23.3727C4.65336 23.2947 4.76735 23.2527 4.94135 23.2647C5.17535 23.2707 5.40935 23.2647 5.64335 23.2647C5.74535 23.2647 5.85336 23.2647 5.95536 23.2647C7.64736 23.2647 9.01535 23.5107 10.2634 24.0327C10.7134 24.2187 11.1634 24.4707 11.6434 24.8007C12.2074 25.1907 12.6874 25.6167 12.3814 26.5887C12.0634 27.5727 12.2314 28.6827 12.8674 29.7927C13.0654 30.1467 12.9814 30.3387 12.7474 30.5727L12.7354 30.5787ZM23.7634 10.3527C23.8354 10.2807 23.9494 10.2627 24.0874 10.2627C26.3434 10.2627 28.5934 10.2627 30.8434 10.2627C31.0714 10.2627 31.2334 10.3227 31.3414 10.4367C31.4494 10.5567 31.4854 10.7307 31.4614 10.9647L31.3954 11.5587C31.3234 12.2007 31.2514 12.8427 31.1794 13.4847V13.5207C31.1614 13.6407 31.1494 13.7607 31.0534 13.8207C30.9814 13.8627 30.8794 13.8567 30.7414 13.7967C28.5754 12.9027 26.3854 13.1067 24.2254 14.4027C24.1534 14.4447 24.0754 14.4807 23.9674 14.5347C23.9074 14.5587 23.8474 14.5947 23.7634 14.6307L23.6854 14.6667V13.4427C23.6854 12.4707 23.6854 11.5527 23.6854 10.6227C23.6854 10.5027 23.7094 10.4127 23.7694 10.3527H23.7634ZM24.1234 15.4347C25.4434 14.6847 26.7574 14.0187 28.3294 14.1147C29.1214 14.1627 29.8774 14.3487 30.6274 14.6847C30.9154 14.8107 31.0114 14.9847 30.9694 15.3027C30.6754 17.7387 30.3814 20.1747 30.0874 22.6047C29.8234 24.8067 29.5594 27.0147 29.2894 29.2167C29.1934 29.9907 28.6174 30.5427 27.8914 30.5547C27.0874 30.5667 26.2894 30.5727 25.4734 30.5727C24.9394 30.5727 24.3994 30.5727 23.8534 30.5727C23.2954 30.5727 22.7374 30.5727 22.1614 30.5727H22.0414L22.1254 30.4827C24.3634 28.0347 24.9574 24.9867 25.4794 22.2927C25.5394 21.9867 25.5754 21.7467 25.5934 21.5187C25.6414 20.8767 25.4134 20.6127 24.7594 20.5527C23.7154 20.4567 23.6914 20.4387 23.6914 19.3947C23.6914 19.0947 23.6914 18.7947 23.6914 18.5007C23.6914 17.7447 23.6914 16.9587 23.6794 16.1847C23.6734 15.8307 23.7934 15.6267 24.1234 15.4407V15.4347ZM20.7094 6.86074C20.5414 6.79474 20.3494 6.71674 20.1334 6.61474L20.0854 6.59674C19.3414 6.26674 18.5734 5.92474 17.8054 5.62474C17.6554 5.56474 17.5654 5.49274 17.5234 5.40274C17.4754 5.28274 17.5234 5.16274 17.5834 5.04274C17.6074 4.99474 17.6254 4.94674 17.6434 4.89874C17.6974 4.72474 17.7574 4.62874 17.8534 4.58074C17.9494 4.53274 18.0694 4.55074 18.2434 4.62874C19.2994 5.10274 20.3854 5.55874 21.4294 6.00274L21.8554 6.18274C22.8034 6.58474 22.8814 7.40074 22.8394 8.13874C22.8394 8.24074 22.8394 8.32474 22.8394 8.40274C22.8394 8.54074 22.8334 8.65474 22.8454 8.75674C22.8814 8.98474 22.8514 9.14674 22.7554 9.25474C22.6474 9.36874 22.4734 9.39874 22.3054 9.39874C22.2634 9.39874 22.2214 9.39874 22.1794 9.39874C21.8494 9.38074 21.7414 9.26074 21.7534 8.94274C21.8314 7.32274 21.7054 7.27474 20.7034 6.86074H20.7094ZM22.8454 17.8407V18.2787C22.8454 18.4527 22.8454 18.6207 22.8454 18.7947C22.8454 19.1967 22.8394 19.6167 22.8514 20.0247C22.8574 20.1867 22.8274 20.3007 22.7554 20.3787C22.6594 20.4747 22.5154 20.4747 22.3774 20.4747C22.3114 20.4747 22.2394 20.4747 22.1854 20.4867C22.1374 20.4987 22.0954 20.4987 22.0594 20.4987C21.9814 20.4987 21.9154 20.4807 21.8734 20.4387C21.7714 20.3547 21.7594 20.1927 21.7654 20.0367C21.7654 19.4487 21.7654 18.8547 21.7654 18.2607C21.7654 17.7987 21.7654 17.3427 21.7654 16.8807C21.7654 16.6887 21.9874 16.4667 22.2034 16.3227C22.3054 16.2567 22.5514 16.1187 22.7134 16.1907C22.8754 16.2627 22.8574 16.4007 22.8454 16.5087C22.8454 16.5387 22.8454 16.5627 22.8454 16.5867C22.8454 17.0067 22.8454 17.4267 22.8454 17.8407ZM21.7654 15.5427V10.5867C21.7654 10.4607 21.7954 10.3707 21.8554 10.3167C21.9454 10.2387 22.0714 10.2507 22.1854 10.2567C22.2274 10.2567 22.2694 10.2627 22.3054 10.2627C22.3354 10.2627 22.3654 10.2627 22.3954 10.2627C22.5154 10.2507 22.6594 10.2387 22.7494 10.3287C22.8094 10.3887 22.8454 10.4787 22.8394 10.6047C22.8394 11.0247 22.8394 11.4507 22.8394 11.8707C22.8394 12.8547 22.8514 13.8747 22.8154 14.8707C22.8034 15.2667 22.4794 15.3387 22.1734 15.4107C22.0594 15.4347 21.9394 15.4647 21.8314 15.5067L21.7594 15.5367L21.7654 15.5427ZM15.2434 12.5187C15.1834 12.0327 15.1234 11.5467 15.0694 11.0667C15.0334 10.7367 15.0574 10.5567 15.1654 10.4367C15.2854 10.2987 15.5074 10.2687 15.7954 10.2687C16.3294 10.2687 16.8634 10.2687 17.4034 10.2687C17.8594 10.2687 18.3094 10.2687 18.7654 10.2687C19.3054 10.2687 19.8634 10.2687 20.4094 10.2627C20.4214 10.2627 20.4394 10.2627 20.4514 10.2627C20.6314 10.2627 20.7394 10.2927 20.8174 10.3707C20.8954 10.4487 20.9314 10.5687 20.9314 10.7547C20.9194 12.0987 20.9194 13.4667 20.9254 14.7927V15.3687C20.9254 15.5787 20.9254 15.8427 20.5594 15.9147C19.7614 16.0647 19.0354 16.1427 18.3514 16.1427C17.5654 16.1427 16.8334 16.0407 16.1374 15.8427C15.8014 15.7467 15.5854 15.5967 15.5434 15.1527C15.4594 14.2767 15.3514 13.3887 15.2494 12.5307L15.2434 12.5187ZM20.9194 20.1567C20.9194 20.4567 20.8054 20.5947 20.5354 20.6247C19.1614 20.7747 17.8114 21.1467 16.4134 21.7707L16.3474 21.8007L16.1914 20.5167C16.0534 19.3467 15.9154 18.2007 15.7774 17.0547C15.7594 16.9047 15.7774 16.8087 15.8434 16.7487C15.9094 16.6947 16.0054 16.6827 16.1554 16.7187C17.4514 17.0427 18.8674 17.0607 20.4814 16.7787C20.6134 16.7547 20.7454 16.7427 20.8294 16.8147C20.8954 16.8687 20.9194 16.9647 20.9194 17.1147C20.9134 18.0867 20.9134 19.1067 20.9194 20.1507V20.1567ZM18.8734 21.8007C20.1694 21.4587 21.5194 21.3147 22.8994 21.3687H23.3014C23.6374 21.3687 23.9734 21.3687 24.3034 21.3687C24.4534 21.3687 24.5614 21.4047 24.6214 21.4827C24.6874 21.5607 24.7054 21.6687 24.6814 21.8247C24.2614 24.2727 23.7694 26.6487 22.4194 28.7427C21.2554 30.5487 19.4674 31.5507 17.5774 31.5507C17.0014 31.5507 16.4134 31.4547 15.8314 31.2627C14.7454 30.8967 13.8634 30.0927 13.4254 29.0427C12.9874 28.0047 13.0174 26.8167 13.5154 25.7907C14.4934 23.7747 16.1914 22.5087 18.8734 21.8067V21.8007Z" fill="#111E6C"/>
</g>
</svg>
