<svg width="36" height="36" viewBox="0 0 36 36" fill="none" xmlns="http://www.w3.org/2000/svg">
<mask id="mask0_1975_22982" style="mask-type:alpha" maskUnits="userSpaceOnUse" x="0" y="0" width="36" height="36">
<rect width="36" height="36" fill="#D9D9D9"/>
</mask>
<g mask="url(#mask0_1975_22982)">
<path d="M23.9948 3.60029C22.8908 3.60029 21.7808 3.60029 20.6768 3.60029H18.2528C17.4548 3.60029 16.6628 3.60029 15.8708 3.60029H15.5228C14.2828 3.58829 13.3588 4.1263 12.7508 5.2143L12.5648 5.5443C12.2348 6.1323 12.1868 6.6963 12.4328 7.1283C12.6848 7.5663 13.2068 7.81229 13.9028 7.81829C13.9928 7.81829 14.0708 7.81829 14.1548 7.81829C14.2268 7.81829 14.2928 7.81829 14.3648 7.81829C14.5508 7.81829 14.7428 7.8303 14.9288 7.8903C15.2528 7.9983 15.5648 8.32229 15.6368 8.63429C15.6728 8.79029 15.6368 8.92829 15.5468 9.01829C15.1208 9.43229 15.1328 9.9183 15.1448 10.4283C15.1448 10.5243 15.1448 10.6263 15.1448 10.7223V10.8243C15.1448 11.2383 15.1448 11.6643 14.6528 11.9343C14.4668 12.0363 14.3648 12.2643 14.2628 12.4803C14.2448 12.5223 14.2268 12.5583 14.2088 12.6003L13.4588 14.1963C12.8288 15.5343 12.1988 16.8783 11.5688 18.2163C11.0588 19.3083 10.8008 20.4723 10.8008 21.6843C10.8008 22.9983 10.8008 24.3123 10.8008 25.6263C10.8008 26.8743 10.8008 28.1163 10.8008 29.3643C10.8008 31.2363 11.9708 32.4003 13.8488 32.4063C16.2548 32.4063 18.6668 32.4063 21.0728 32.4063C22.9988 32.4063 24.1568 31.2663 24.1688 29.3583C24.1748 28.3263 24.1688 27.2763 24.1688 26.2623C24.1688 25.6383 24.1688 25.0143 24.1688 24.3903C24.1688 22.3083 23.4848 20.4603 22.1228 18.9063C21.2408 17.9043 20.6768 16.7283 20.4308 15.4203C20.2868 14.6583 20.2988 13.8723 20.3048 13.1163V12.9303C20.3108 12.5463 20.2988 12.2103 20.0708 11.9523C19.8608 11.7123 19.8428 11.4603 19.8248 11.1843V11.1423C19.8068 10.9443 19.8248 10.7343 19.8308 10.5303C19.8668 9.9663 19.8968 9.4383 19.4168 8.9883C19.3568 8.9283 19.3208 8.82029 19.3268 8.70029C19.3268 8.56229 19.3868 8.4483 19.4768 8.3763C19.6448 8.2443 19.8548 8.37029 20.0048 8.46629C20.2388 8.61029 20.3588 8.8323 20.4728 9.0423L20.4848 9.06629C20.9468 9.93029 21.5888 10.6863 22.3928 11.3103C22.9448 11.7423 23.4488 11.7843 23.8448 11.4183C24.2408 11.0583 24.2468 10.5603 23.8688 9.96629C23.2868 9.05429 22.8248 8.0343 22.4888 6.9363C22.4408 6.7743 22.4048 6.6063 22.4888 6.4983C22.5548 6.4143 22.6748 6.3783 22.8788 6.3903C23.2388 6.4083 23.6288 6.4083 24.1148 6.3903C24.8048 6.3663 25.1228 6.04229 25.1348 5.35229C25.1348 5.14829 25.1348 4.93829 25.1348 4.73429C25.1288 3.91829 24.8168 3.6123 23.9828 3.6123L23.9948 3.60029ZM19.4948 12.9543C19.4768 14.0463 19.4528 15.1683 19.7648 16.2423C20.1128 17.4603 20.6888 18.5283 21.4748 19.4163C22.7288 20.8383 23.3588 22.5423 23.3468 24.4623C23.3468 25.4103 23.3468 26.3763 23.3468 27.3063C23.3468 27.9783 23.3468 28.6443 23.3468 29.3163C23.3468 30.7623 22.5728 31.5303 21.1208 31.5363C20.2868 31.5363 19.4528 31.5363 18.6188 31.5363C18.2468 31.5363 17.8808 31.5363 17.5088 31.5363H17.4428C16.7288 31.5363 16.0148 31.5363 15.2828 31.5363C14.8028 31.5363 14.3228 31.5363 13.8428 31.5363C12.4508 31.5243 11.6768 30.7623 11.6708 29.3823C11.6648 27.5703 11.6708 25.7283 11.6708 23.9463C11.6708 23.1603 11.6708 22.3743 11.6708 21.5943C11.6708 20.5383 11.8988 19.5183 12.3488 18.5703L12.9308 17.3403C13.6028 15.9243 14.2928 14.4603 14.9588 13.0143C15.2408 12.4023 15.6488 12.1443 16.2848 12.1623C17.0588 12.1863 17.8688 12.1863 18.7088 12.1623C18.9908 12.1623 19.1948 12.2103 19.3208 12.3423C19.4528 12.4683 19.5128 12.6723 19.5068 12.9603L19.4948 12.9543ZM15.9848 10.5123V10.4043C16.0388 9.7683 16.0688 9.7443 16.7828 9.7443C16.9628 9.7443 17.1368 9.7443 17.3168 9.7443C17.7128 9.7443 18.1208 9.7443 18.5288 9.7383C18.5408 9.7383 18.5528 9.7383 18.5648 9.7383C18.8828 9.7383 19.0028 9.87029 19.0148 10.2183V10.2543C19.0328 10.7583 19.0388 11.0163 18.9008 11.1543C18.7628 11.2923 18.5108 11.2923 18.0128 11.2923H17.5028C17.4248 11.2923 17.3468 11.2923 17.2688 11.2923C17.1068 11.2863 16.9388 11.2803 16.7768 11.3043C16.6928 11.3163 16.6148 11.3223 16.5428 11.3223C16.3628 11.3223 16.2368 11.2803 16.1408 11.1963C16.0028 11.0703 15.9548 10.8543 15.9788 10.5123H15.9848ZM18.5528 8.4483C18.4868 8.8323 18.3368 8.9523 17.9828 8.9043C17.8628 8.8863 17.7428 8.8923 17.5988 8.9043C17.4788 8.9163 17.3588 8.9223 17.2448 8.9223C16.8188 8.9223 16.4288 8.79629 16.2668 8.08229C16.1228 7.43429 15.5288 7.02629 14.6768 6.98429C14.5268 6.97829 14.3768 6.98429 14.2328 6.98429C14.0648 6.98429 13.8848 6.9843 13.7168 6.9783C13.4528 6.9603 13.2608 6.86429 13.1708 6.70229C13.0808 6.54629 13.0928 6.3423 13.2068 6.1203C13.3388 5.8623 13.4888 5.6043 13.6328 5.3583C13.7408 5.1723 13.8548 4.9863 13.9568 4.7943C14.1368 4.4643 14.4308 4.4583 14.7188 4.4583H18.9368C19.7588 4.4583 20.5808 4.4583 21.3968 4.4583C21.5408 4.4583 21.7208 4.45829 21.8168 4.56629C21.8768 4.63829 21.9008 4.7343 21.8768 4.8723C21.8708 4.9263 21.8768 4.9923 21.8768 5.0463C21.8888 5.2443 21.9008 5.4903 21.4628 5.5623C19.8188 5.8143 18.8408 6.7863 18.5528 8.4543V8.4483ZM23.1968 10.6083L23.3048 10.8063L23.1128 10.6923C22.3568 10.2363 21.7568 9.6063 21.3308 8.8083C21.0548 8.2863 20.6708 7.72829 19.9448 7.50029L19.8848 7.48229L19.9028 7.4223C19.9808 7.1583 20.1668 7.02029 20.3288 6.90029L20.3768 6.8643C20.7728 6.5703 21.0368 6.4143 21.2588 6.4863C21.4688 6.5583 21.5948 6.8403 21.7208 7.2783C22.0448 8.3883 22.5428 9.41429 23.1968 10.6023V10.6083ZM24.1808 5.4363C24.0968 5.5143 23.9828 5.53229 23.8508 5.53229C23.7908 5.53229 23.7308 5.5323 23.6708 5.5263C23.6348 5.5263 23.5988 5.5263 23.5568 5.5263H23.4608H23.4488C23.4008 5.5023 23.3168 5.5143 23.2328 5.5263C23.1068 5.5443 22.9628 5.56229 22.8548 5.46629C22.7708 5.39429 22.7348 5.26829 22.7288 5.08229C22.7288 4.80029 22.7708 4.6383 22.8848 4.5423C22.9868 4.4523 23.1368 4.4283 23.3588 4.4643C23.4548 4.4763 23.5688 4.4763 23.6768 4.4643C23.8988 4.4343 24.0488 4.4643 24.1508 4.5483C24.2528 4.6383 24.3068 4.7943 24.3068 5.0403C24.3068 5.2323 24.2648 5.3643 24.1808 5.4483V5.4363Z" fill="#111E6C"/>
<path d="M21.7641 28.434C21.7641 26.94 21.7701 25.1701 21.7641 23.4121C21.7581 21.9481 20.8161 20.9881 19.3641 20.9641C18.0381 20.9401 16.7061 20.9521 15.6981 20.9641C14.1801 20.9821 13.2261 21.9361 13.2141 23.4541C13.2021 24.8821 13.2021 26.4181 13.2141 28.4221C13.2201 29.4421 13.7721 29.988 14.8101 30C15.4281 30.006 16.0641 30 16.6701 30C16.9341 30 17.1981 30 17.4621 30C17.7441 30 18.0201 30 18.3021 30C18.9321 30 19.5861 30 20.2281 30C21.2301 29.988 21.7641 29.4481 21.7701 28.4401L21.7641 28.434ZM20.9361 27.1741C20.9361 27.6001 20.9361 28.0321 20.9361 28.4581C20.9361 28.6801 20.8761 28.8481 20.7681 28.9621C20.6541 29.0701 20.4861 29.1301 20.2641 29.1301H20.2461C19.6101 29.1241 18.9621 29.1241 18.3321 29.1301C18.0681 29.1301 17.8041 29.1301 17.5401 29.1301C17.2701 29.1301 17.0001 29.1301 16.7301 29.1301C16.1061 29.1301 15.4641 29.1301 14.8341 29.1361C14.8221 29.1361 14.8101 29.1361 14.8041 29.1361C14.5461 29.1361 14.3661 29.0821 14.2521 28.9621C14.1321 28.8481 14.0781 28.6681 14.0781 28.4221C14.0781 27.6241 14.0781 26.8201 14.0781 26.0221C14.0781 25.1281 14.0781 24.1981 14.0841 23.2861C14.0901 22.4221 14.7021 21.8101 15.5721 21.7921C16.8021 21.7681 18.0561 21.7681 19.4121 21.7921C20.3001 21.8101 20.9061 22.398 20.9241 23.268C20.9481 24.57 20.9481 25.8901 20.9421 27.1741H20.9361Z" fill="#111E6C"/>
</g>
</svg>
