<svg width="36" height="36" viewBox="0 0 36 36" fill="none" xmlns="http://www.w3.org/2000/svg">
<mask id="mask0_1975_23180" style="mask-type:alpha" maskUnits="userSpaceOnUse" x="0" y="0" width="36" height="36">
<rect width="36" height="36" fill="#D9D9D9"/>
</mask>
<g mask="url(#mask0_1975_23180)">
<path d="M24.6825 31.5481H24.4545C24.1065 31.5361 23.7465 31.5301 23.3865 31.5481C23.1765 31.5601 23.0445 31.5241 22.9545 31.4401C22.8705 31.3561 22.8345 31.2181 22.8405 31.0141C22.8645 30.2041 22.8645 29.4061 22.8405 28.6441C22.8285 28.2541 22.9125 28.0201 23.3925 27.8821C24.9765 27.4501 26.0025 25.9861 25.8825 24.3301C25.8105 23.3881 25.7085 22.4461 25.6065 21.5221C25.4025 19.6321 25.1865 17.6641 25.2585 15.7201C25.2705 15.5401 25.2225 15.3961 25.1325 15.3061C25.0485 15.2161 24.9165 15.1681 24.7485 15.1681C23.3865 15.1561 21.9165 15.1561 20.1225 15.1621C19.9485 15.1681 19.8165 15.2101 19.7325 15.3001C19.6425 15.3901 19.6005 15.5281 19.6065 15.7081C19.6125 15.8461 19.6065 15.9841 19.6065 16.1221V16.4401C19.6185 17.4901 19.6065 18.5041 19.3605 19.5301L19.2945 19.8241L19.2465 19.5301C18.9945 17.9521 18.4005 16.4641 17.8725 15.1921C16.9665 13.0441 16.5465 10.9921 16.5825 8.9281C16.5885 8.6281 16.6545 8.4001 16.8045 8.1661C17.1885 7.5781 17.2125 6.8881 16.8825 6.2941C16.6665 5.9041 16.5765 5.5081 16.5825 4.9861C16.5885 4.8361 16.5885 4.68009 16.5885 4.53009C16.5825 4.40409 16.5825 4.2721 16.5885 4.1461C16.5885 3.9601 16.5465 3.8221 16.4565 3.7321C16.3725 3.6481 16.2465 3.6001 16.0725 3.6001H12.4005C12.0765 3.6001 11.9085 3.76209 11.8905 4.09809C11.8725 4.40409 11.8785 4.71009 11.8845 4.99809C11.8905 5.40009 11.8605 5.8381 11.5845 6.3121C11.2605 6.8821 11.2845 7.54809 11.6505 8.13009C11.8185 8.40609 11.8665 8.66409 11.8845 9.00609C12.0285 11.5261 11.1945 13.8541 10.2405 16.2181C9.44854 18.1861 9.05254 19.9921 9.02854 21.7321C8.99254 24.1801 8.99854 26.6641 9.00454 29.0761C9.00454 29.6701 9.01054 30.2761 9.01054 30.8761C9.01054 31.8541 9.54454 32.3941 10.5225 32.3941C13.1505 32.3941 15.5925 32.3941 17.9745 32.3941C18.9045 32.3881 19.4505 31.8481 19.4865 30.9061C19.4985 30.5341 19.4985 30.1441 19.4925 29.7721V26.5321L19.5945 26.6461C20.3025 27.4201 20.9625 27.8281 21.7365 27.9781C22.0065 28.0261 22.0065 28.2121 22.0005 28.3621V29.2801C22.0005 29.8621 21.9945 30.4741 22.0065 31.0621C22.0125 31.2541 21.9765 31.3741 21.8985 31.4521C21.8265 31.5241 21.7125 31.5541 21.5385 31.5481C21.0765 31.5301 20.6025 31.5361 20.1285 31.5481C19.7805 31.5601 19.6185 31.6921 19.6245 31.9741C19.6305 32.2501 19.7985 32.3881 20.1345 32.3881H22.2285C23.0565 32.3881 23.8785 32.3881 24.7065 32.3881C25.0485 32.3881 25.2285 32.2501 25.2405 31.9861C25.2465 31.8601 25.2105 31.7581 25.1445 31.6861C25.0605 31.5961 24.9045 31.5421 24.6945 31.5421L24.6825 31.5481ZM12.7125 4.84809C12.7305 4.55409 12.8445 4.4461 13.1445 4.4461C13.7985 4.4521 14.5485 4.4641 15.2745 4.4401C15.4305 4.4401 15.5445 4.4701 15.6165 4.5361C15.7245 4.6381 15.7245 4.79409 15.7245 4.95609V5.0101C15.7305 5.1841 15.7245 5.3401 15.6225 5.4361C15.5505 5.5021 15.4425 5.5321 15.2865 5.5201C15.0285 5.5021 14.7705 5.50809 14.5065 5.51409C14.3025 5.51409 14.1045 5.51409 13.9005 5.51409C13.7145 5.50809 13.5165 5.5021 13.3365 5.5261C13.2705 5.5381 13.2165 5.5441 13.1625 5.5441C13.0245 5.5441 12.9225 5.5081 12.8445 5.4421C12.7185 5.3221 12.7005 5.1241 12.7125 4.8541V4.84809ZM12.8205 6.3841C13.8645 6.3721 14.7885 6.3721 15.6405 6.3901C16.2165 6.3961 16.2165 6.9181 16.2165 7.1701C16.2165 7.4821 16.1565 7.9141 15.6105 7.9201C15.4245 7.9261 15.2385 7.9261 15.0585 7.9261H13.7565C13.4565 7.9261 13.1505 7.9261 12.8385 7.9201C12.3165 7.9141 12.2445 7.53609 12.2505 7.16409C12.2505 6.87609 12.2505 6.3961 12.8205 6.3841ZM11.6265 15.0841C12.3945 13.2901 12.7545 11.3521 12.7185 9.3361C12.7125 9.0961 12.7485 8.9521 12.8445 8.8681C12.9345 8.7841 13.0725 8.7601 13.2825 8.7781C13.4925 8.8021 13.7205 8.7961 13.9365 8.7901C14.0325 8.7901 14.1285 8.7901 14.2305 8.7901H14.2905V8.8261C14.4045 8.8201 14.5305 8.80809 14.6565 8.79609C14.9985 8.76009 15.3525 8.71809 15.5805 8.88009C15.8325 9.06609 15.7965 9.43209 15.7605 9.79809C15.7485 9.94209 15.7305 10.0861 15.7365 10.2121C15.8025 11.8981 16.1565 13.5121 16.7865 15.0121C16.9425 15.3901 16.8825 15.6001 16.5525 15.8221C15.8745 16.2721 15.2085 16.7701 14.5845 17.2321C14.4525 17.3281 14.3385 17.3761 14.2245 17.3761C14.1105 17.3761 13.9965 17.3341 13.8765 17.2381C13.1805 16.7161 12.4785 16.2181 11.8125 15.7681C11.5125 15.5641 11.5185 15.3601 11.6325 15.0961L11.6265 15.0841ZM18.4365 31.3561C18.3105 31.4821 18.1125 31.5421 17.8245 31.5421H17.8125C15.2805 31.5301 12.9405 31.5301 10.6485 31.5421H10.6365C10.3365 31.5421 10.1385 31.4821 10.0065 31.3441C9.88054 31.2181 9.82054 31.0321 9.82054 30.7621C9.83854 29.5561 9.83254 28.3321 9.82654 27.1441C9.80854 25.1521 9.79654 23.0821 9.90454 21.0541C9.98254 19.6381 10.5105 17.5861 11.1165 16.3801L11.1465 16.3201L11.2065 16.3561C11.4465 16.5301 11.6865 16.6981 11.9385 16.8661C12.4965 17.2621 13.0845 17.6701 13.6365 18.1021C14.0745 18.4381 14.3985 18.4441 14.8125 18.1141C15.1965 17.8081 15.6045 17.5261 16.0005 17.2441C16.3005 17.0341 16.6125 16.8121 16.9185 16.5901C17.0625 16.4761 17.1885 16.4101 17.2965 16.4401C17.3985 16.4701 17.4705 16.5661 17.5485 16.7641C18.2325 18.5521 18.5865 20.1901 18.6045 21.7801C18.6285 23.5501 18.6285 25.3561 18.6285 27.1081C18.6285 28.3021 18.6225 29.5381 18.6285 30.7561C18.6285 31.0321 18.5685 31.2301 18.4425 31.3561H18.4365ZM20.4165 16.5181C20.4165 16.3381 20.4225 16.1941 20.5125 16.1041C20.5845 16.0321 20.6865 16.0021 20.8545 16.0021C21.8745 16.0261 22.9125 16.0261 23.9445 16.0021H23.9685C24.1245 16.0021 24.2265 16.0381 24.2985 16.1101C24.3825 16.2001 24.3945 16.3381 24.3885 16.5121C24.3885 16.5481 24.3885 16.5841 24.3825 16.6201C24.3825 16.7581 24.3825 16.9021 24.2865 16.9981C24.2145 17.0641 24.1065 17.0941 23.9565 17.0821C23.6025 17.0701 23.2485 17.0701 22.8945 17.0761H21.9525C21.5985 17.0701 21.2205 17.0701 20.8605 17.0821C20.8485 17.0881 20.8305 17.0881 20.8185 17.0881C20.6865 17.0881 20.5845 17.0521 20.5185 16.9921C20.4165 16.8901 20.4105 16.7341 20.4105 16.5721V16.5181H20.4165ZM22.3485 27.2041C21.6105 27.1861 20.9445 26.8861 20.4705 26.3521C19.9785 25.8061 19.7505 25.0801 19.8165 24.3121C19.9065 23.2441 20.0205 22.1641 20.1225 21.1141C20.2125 20.2141 20.3085 19.2841 20.3925 18.3601C20.4165 18.0481 20.5305 17.9341 20.8185 17.9341H20.8605C21.2325 17.9461 21.6105 17.9461 21.9765 17.9401H22.4505C22.6005 17.9401 22.7445 17.9401 22.8945 17.9401C23.2425 17.9401 23.6025 17.9461 23.9565 17.9281H24.0045C24.3465 17.9281 24.4185 18.1321 24.4365 18.3601C24.5025 19.0141 24.5685 19.6741 24.6345 20.3281C24.7725 21.6661 24.9165 23.0581 25.0125 24.4261C25.0665 25.1641 24.8205 25.8541 24.3285 26.3761C23.8365 26.8981 23.1285 27.1981 22.4025 27.1981H22.3485V27.2041Z" fill="#111E6C"/>
<path d="M17.3981 23.496C17.3021 23.4 17.1581 23.3521 16.9481 23.3521H16.9421C15.1181 23.3641 13.2881 23.3641 11.5181 23.3521H11.5121C11.2961 23.3521 11.1461 23.4 11.0501 23.496C10.9541 23.592 10.9121 23.7481 10.9121 23.9761C10.9241 24.6661 10.9181 25.3801 10.9181 26.0581V27.7681C10.9181 28.4461 10.9241 29.1541 10.9121 29.8441C10.9121 30.0661 10.9541 30.216 11.0501 30.312C11.1461 30.414 11.3021 30.462 11.5241 30.462H11.5301C12.4901 30.462 13.3841 30.462 14.2421 30.462C15.1781 30.462 16.0541 30.462 16.9001 30.462H16.9061C17.1341 30.462 17.2961 30.414 17.3981 30.312C17.4941 30.216 17.5421 30.066 17.5421 29.856V23.9281C17.5421 23.7301 17.4941 23.5861 17.3981 23.4901V23.496ZM16.6901 29.13C16.6901 29.322 16.6601 29.4361 16.5821 29.5081C16.5101 29.5801 16.4021 29.6161 16.2341 29.6161H16.2221C14.9501 29.5981 13.6421 29.5981 12.2201 29.6161C12.0461 29.6101 11.9261 29.5801 11.8481 29.5021C11.7761 29.4241 11.7401 29.3101 11.7461 29.1241C11.7581 28.5901 11.7521 28.0441 11.7521 27.5161V26.2261C11.7521 25.7221 11.7581 25.1941 11.7461 24.6781C11.7401 24.5041 11.7761 24.384 11.8481 24.306C11.9261 24.228 12.0461 24.198 12.2261 24.198C13.6961 24.21 15.0041 24.21 16.2281 24.198C16.3961 24.198 16.5101 24.2281 16.5821 24.3001C16.6781 24.3961 16.6901 24.5461 16.6901 24.6841C16.6781 26.1961 16.6781 27.696 16.6901 29.13Z" fill="#111E6C"/>
<path d="M23.5549 22.0861C23.5129 22.3441 23.3809 22.4761 23.1529 22.4821C23.0269 22.4881 22.9249 22.4581 22.8529 22.3921C22.7809 22.3261 22.7449 22.2301 22.7389 22.1101C22.7329 21.9781 22.7689 21.8641 22.8469 21.7921C22.9129 21.7201 23.0149 21.6841 23.1409 21.6841H23.1529C23.3749 21.6841 23.5129 21.8221 23.5549 22.0861Z" fill="#111E6C"/>
<path d="M22.0968 23.9878C22.1028 24.1258 22.0668 24.2278 21.9948 24.2998C21.9288 24.3718 21.8208 24.4138 21.6828 24.4138H21.6768C21.4308 24.4078 21.2988 24.2698 21.2988 24.0118C21.2988 23.7898 21.4128 23.6638 21.6648 23.5918C21.9468 23.6338 22.0848 23.7598 22.0968 23.9878Z" fill="#111E6C"/>
<path d="M23.5424 25.9138C23.5544 26.0458 23.5184 26.1538 23.4524 26.2258C23.3804 26.3038 23.2664 26.3458 23.1344 26.3518C23.0204 26.3578 22.9184 26.3158 22.8464 26.2498C22.7744 26.1778 22.7384 26.0758 22.7384 25.9498C22.7324 25.6618 22.9484 25.5658 23.1284 25.5298C23.3084 25.5478 23.5244 25.6318 23.5424 25.9138Z" fill="#111E6C"/>
<path d="M22.1015 20.1783C22.0655 20.4303 21.9335 20.5563 21.6995 20.5563H21.6815C21.5555 20.5563 21.4535 20.5203 21.3875 20.4483C21.3275 20.3823 21.2915 20.2803 21.2975 20.1543C21.3095 19.8963 21.4475 19.7583 21.6875 19.7583C21.6935 19.7583 21.6995 19.7583 21.7055 19.7643C21.9455 19.7703 22.0775 19.9083 22.1015 20.1783Z" fill="#111E6C"/>
<path d="M14.2545 13.2363H14.2185C13.4865 13.2363 12.8685 13.8363 12.8445 14.5743C12.8325 14.9523 12.9705 15.3183 13.2345 15.5883C13.4925 15.8583 13.8405 16.0083 14.2185 16.0083H14.2245C14.9805 16.0083 15.5925 15.3963 15.5985 14.6403C15.6105 13.8843 15.0105 13.2543 14.2545 13.2363ZM14.7585 14.6043C14.7045 14.9523 14.5245 15.1323 14.2305 15.1323H14.2185C14.0565 15.1263 13.9305 15.0843 13.8465 14.9883C13.7565 14.8983 13.7145 14.7723 13.7145 14.6103C13.7205 14.2923 13.9125 14.1003 14.2305 14.1003H14.2365C14.5065 14.1003 14.6865 14.2683 14.7585 14.5803V14.5923V14.6043Z" fill="#111E6C"/>
</g>
</svg>
