<svg xmlns="http://www.w3.org/2000/svg" version="1.1" xmlns:xlink="http://www.w3.org/1999/xlink" xmlns:svgjs="http://svgjs.dev/svgjs" width="1000" height="1000"><g clip-path="url(#SvgjsClipPath1084)"><rect width="1000" height="1000" fill="#ffffff"></rect><g transform="matrix(2.5806451612903225,0,0,2.5806451612903225,99.9209749775548,100.07903708181072)"><svg xmlns="http://www.w3.org/2000/svg" version="1.1" xmlns:xlink="http://www.w3.org/1999/xlink" xmlns:svgjs="http://svgjs.dev/svgjs" width="310px" height="310px"><svg version="1.1" id="Layer_1" xmlns="http://www.w3.org/2000/svg" xmlns:xlink="http://www.w3.org/1999/xlink" x="0px" y="0px" width="310px" height="310px" viewBox="0 0 310 310" style="enable-background:new 0 0 310 310;" xml:space="preserve">
<style type="text/css">
	.st0{fill:#111E6C;}
</style>
<path class="st0" d="M145,230.5c14.3,0,23.5-2.1,29.2-7.8c5.7-4.3,8.6-10.7,8.6-17.1c0-6.4-2.1-10.7-6.4-15s-12.1-7.8-20.7-10
	l-19.2-6.4c-10.7-3.6-20.7-7.8-29.2-10.7c-8.6-4.3-16.4-8.6-22.8-14.3s-10.7-12.1-15-19.2c-3.6-8.6-5.7-17.1-5.7-27.8
	c0-21.4,8.6-38.5,24.9-52S128.6,31,157.9,31c10.7,0,21.4,1.4,31.4,2.1c8.6,2.1,17.1,4.3,23.5,7.8s12.1,7.8,16.4,12.1
	c4.3,4.3,5.7,10,5.7,16.4s-1.4,10.7-4.3,16.4c-3.6,3.6-7.1,7.8-11.4,10.7c-6.4-4.3-13.5-7.1-23.5-10.7c-8.6-3.6-19.2-4.3-31.4-4.3
	s-21.4,2.1-27.8,5.7c-5.7,4.3-8.6,8.6-8.6,15c0,5.7,2.1,10,5.7,12.1c4.3,2.1,10,5.7,18.5,7.8l21.4,6.4c12.1,4.3,22.8,8.6,32.1,12.8
	c8.6,4.3,17.1,10,22.8,16.4c6.4,6.4,10.7,12.8,14.3,20.7c3.6,7.8,4.3,17.1,4.3,27.1c0,10.7-2.1,20.7-6.4,29.9
	c-4.3,8.6-10.7,16.4-19.2,22.8c-8.6,6.4-18.5,12.1-31.4,15c-12.8,3.6-27.1,5.7-43.5,5.7c-12.1-0.7-22.8-2.1-33.5-4.3
	c-10-2.1-19.2-4.3-25.7-8.6c-7.8-3.6-12.8-8.6-17.1-12.8c-5-5.7-7.1-10.7-7.1-18.5c0-6.4,2.1-12.8,6.4-17.1s8.6-8.6,12.8-10.7
	c6.4,5,16.4,10.7,26.4,15S132.2,230.5,145,230.5L145,230.5z"></path>
</svg></svg></g></g><defs><clipPath id="SvgjsClipPath1084"><rect width="1000" height="1000" x="0" y="0" rx="350" ry="350"></rect></clipPath></defs></svg>