<svg width="36" height="36" viewBox="0 0 36 36" fill="none" xmlns="http://www.w3.org/2000/svg">
<mask id="mask0_1975_23275" style="mask-type:alpha" maskUnits="userSpaceOnUse" x="0" y="0" width="36" height="36">
<rect width="36" height="36" fill="#D9D9D9"/>
</mask>
<g mask="url(#mask0_1975_23275)">
<path d="M24.9183 25.6135H24.9063C24.9063 21.8995 24.9063 18.1795 24.9063 14.4655C24.9063 14.2195 24.8943 13.9795 24.8643 13.7335C24.7383 12.6355 23.9703 11.8555 22.8903 11.6395C22.5603 11.5735 22.0923 11.8015 21.9243 11.4475C21.7863 11.1595 21.8823 10.7455 21.8823 10.3915C21.8823 9.11946 21.4743 8.67546 20.1903 8.58546C19.9323 8.56746 19.8183 8.50146 19.8243 8.23146C19.8363 7.55346 19.8363 6.88146 19.8243 6.20346C19.8243 5.94546 19.9083 5.81946 20.1783 5.84346C20.3463 5.85546 20.5203 5.85546 20.6823 5.83146C21.2943 5.74746 21.6003 5.32146 21.5703 4.61946C21.5463 4.01346 21.1923 3.61746 20.5923 3.61146C17.9043 3.59946 15.2223 3.59346 12.5343 3.61146C11.7363 3.61146 11.0703 4.18146 10.8723 4.90146C10.6803 5.59746 10.8603 5.83746 11.5923 5.83746C12.9423 5.83746 14.2983 5.84346 15.6483 5.83746C15.9603 5.83746 16.0863 5.91546 16.0743 6.24546C16.0503 6.84546 16.0443 7.44546 16.0743 8.04546C16.0983 8.45346 15.9903 8.59146 15.5523 8.59146C14.5623 8.59146 14.0403 9.16146 14.0223 10.1455C14.0223 10.4455 13.9983 10.7515 14.0223 11.0455C14.0643 11.4655 13.9443 11.6155 13.4823 11.6215C12.0843 11.6215 11.1063 12.5395 10.9983 13.8715L10.9863 17.3515C10.9863 19.1575 10.9863 20.9575 10.9863 22.7635C10.9863 25.1275 10.9803 27.4975 10.9863 29.8615C10.9923 31.3435 11.9043 32.4175 13.2603 32.4355C16.3743 32.4715 19.4943 32.4655 22.6143 32.4355C23.7243 32.4295 24.6603 31.5895 24.8403 30.5455C24.9123 30.1255 24.9183 29.7055 24.9123 29.2855V25.6075L24.9183 25.6135ZM22.4763 12.4795C23.4483 12.5095 24.0303 13.1095 24.0483 14.0875C24.0603 14.6155 24.0483 15.1375 24.0483 15.6655C24.0483 16.1695 24.0243 16.6795 24.0543 17.1835C24.0843 17.5855 23.9163 17.6695 23.5743 17.5915C23.2803 17.5255 22.9803 17.4955 22.6983 17.4055C21.4083 16.9915 20.0943 16.8655 18.7623 17.1115C18.4563 17.1655 18.3603 17.0635 18.3663 16.7635C18.3783 16.1275 18.3723 15.4855 18.3663 14.8495C18.3663 14.6335 18.4203 14.5255 18.6663 14.4715C19.4763 14.2795 19.6803 14.0335 19.6323 13.1695C19.6023 12.5995 19.7643 12.4195 20.3343 12.4615C21.0423 12.5155 21.7623 12.4615 22.4703 12.4795H22.4763ZM18.2223 13.6375C18.0783 13.6135 17.9223 13.6135 17.7783 13.6375C17.2323 13.7215 17.1003 13.4875 17.0943 12.9595C17.0883 12.1795 17.6583 12.5995 17.8863 12.4735C18.0543 12.4735 18.1443 12.4855 18.2403 12.4735C18.6843 12.4015 18.8103 12.5935 18.8043 13.0315C18.7983 13.4575 18.7323 13.7215 18.2283 13.6435L18.2223 13.6375ZM11.8083 4.97346C12.0483 4.51746 12.3783 4.45746 12.7203 4.45746C15.2523 4.45146 17.7903 4.45746 20.3223 4.45746C20.5083 4.45746 20.7183 4.43346 20.7303 4.71546C20.7363 4.95546 20.5683 4.97346 20.3883 4.97346C17.5563 4.97346 14.7243 4.97346 11.8143 4.97346H11.8083ZM18.9783 7.24146C18.9783 8.57946 18.9783 8.54346 17.6463 8.59746C17.0403 8.62146 16.8723 8.42346 16.9263 7.85346C16.9743 7.31346 16.9503 6.76746 16.9263 6.22746C16.9143 5.93346 17.0163 5.82546 17.3103 5.84346C17.7243 5.86146 18.1383 5.87346 18.5463 5.84346C18.9063 5.81946 19.0023 5.96346 18.9783 6.29346C18.9543 6.61146 18.9783 6.92946 18.9783 7.24746V7.24146ZM16.5603 9.44946C17.7783 9.44946 18.9963 9.44946 20.2143 9.44946C20.8743 9.44946 21.0063 9.58746 21.0183 10.2355C21.0343 11.1475 20.5823 11.6035 19.6623 11.6035H17.9763C17.0763 11.6035 16.1763 11.5915 15.2763 11.6035C14.9823 11.6035 14.8863 11.5075 14.8863 11.2195C14.8983 9.26946 14.7243 9.43746 16.5603 9.43746V9.44946ZM11.8083 15.9775V14.3035C11.8083 12.8935 12.4983 12.4915 13.4883 12.4735C14.1843 12.4615 14.8803 12.5095 15.5703 12.4555C16.1403 12.4135 16.3143 12.5815 16.2783 13.1635C16.2243 14.0455 16.4283 14.2915 17.2383 14.4655C17.4843 14.5195 17.5323 14.6275 17.5323 14.8435C17.5263 15.5755 17.5143 16.3075 17.5323 17.0395C17.5443 17.3515 17.4183 17.4715 17.1303 17.5195C16.5363 17.6155 15.9423 17.6515 15.3363 17.6335C14.4243 17.6035 13.5903 17.1295 12.6963 17.0935C11.5983 17.0515 11.8503 16.9435 11.8023 15.9715L11.8083 15.9775ZM24.0483 29.8315C24.0423 31.0075 23.4723 31.5955 22.2843 31.6015C19.3923 31.6135 16.5003 31.6135 13.6083 31.6015C12.4143 31.6015 11.8623 31.0255 11.8563 29.8255C11.8563 27.9475 11.8563 26.0695 11.8563 24.1915C11.8563 22.5415 11.8563 20.8855 11.8563 19.2355C11.8563 17.7055 11.8563 17.6875 13.3443 18.1255C14.5743 18.4855 15.8103 18.6235 17.0703 18.3775C17.4783 18.2995 17.5323 18.4615 17.5323 18.8095C17.5203 21.3835 17.5323 23.9575 17.5323 26.5255C17.5323 26.6935 17.5263 26.8675 17.5443 27.0295C17.5743 27.2575 17.7003 27.4195 17.9463 27.4195C18.1923 27.4195 18.3243 27.2695 18.3483 27.0355C18.3663 26.8675 18.3663 26.6995 18.3663 26.5315C18.3663 23.8855 18.3783 21.2335 18.3543 18.5875C18.3543 18.1675 18.4803 17.9755 18.8943 17.9275C19.5663 17.8435 20.2383 17.8015 20.9163 17.8735C21.7983 17.9695 22.6143 18.3775 23.4963 18.4375C23.9643 18.4675 24.0663 18.6175 24.0603 19.0735C24.0363 21.4615 24.0483 23.8495 24.0483 26.2375V29.2975C24.0483 29.4775 24.0483 29.6575 24.0483 29.8375V29.8315Z" fill="#111E6C"/>
</g>
</svg>
