<svg width="36" height="36" viewBox="0 0 36 36" fill="none" xmlns="http://www.w3.org/2000/svg">
<mask id="mask0_1975_22938" style="mask-type:alpha" maskUnits="userSpaceOnUse" x="0" y="0" width="36" height="36">
<rect width="36" height="36" fill="#D9D9D9"/>
</mask>
<g mask="url(#mask0_1975_22938)">
<path d="M17.8564 3.6001C19.8784 3.6001 21.9064 3.6001 23.9284 3.6001C25.2304 3.6001 25.9504 4.31409 25.9384 5.62209C25.9324 6.21609 26.1664 6.9181 25.7524 7.3681C25.2544 7.9141 25.5364 8.2201 25.8424 8.6281C26.2384 9.1501 26.5744 9.7201 27.0004 10.2181C27.3904 10.6801 27.3244 11.0581 26.9344 11.4421C26.7904 11.5861 26.6464 11.7541 26.4664 11.8381C26.1664 11.9821 26.1904 12.1561 26.2984 12.4201C27.0124 14.1781 27.3124 16.0141 27.3004 17.9101C27.2824 21.4741 27.3004 25.0321 27.3004 28.5961C27.3004 30.8761 25.7764 32.4001 23.4904 32.4001C19.7224 32.4001 15.9544 32.4001 12.1864 32.4001C9.94239 32.4001 8.40639 30.8641 8.40039 28.6261C8.40039 25.0081 8.40639 21.3901 8.40039 17.7721C8.40039 15.9361 8.70039 14.1541 9.39039 12.4501C9.50439 12.1621 9.52839 11.9881 9.21039 11.8261C9.01839 11.7301 8.86839 11.5441 8.71239 11.3821C8.38239 11.0401 8.32839 10.7101 8.65239 10.2961C9.18039 9.6181 9.66039 8.89811 10.1704 8.20211C10.3144 8.01011 10.3624 7.8721 10.1524 7.6861C9.84039 7.4101 9.74439 7.02609 9.75639 6.61209C9.76839 6.27609 9.75639 5.94009 9.75639 5.59809C9.76239 4.32609 10.4764 3.6061 11.7364 3.6001C13.7824 3.6001 15.8224 3.6001 17.8684 3.6001H17.8564ZM17.8144 28.3441C20.4784 28.3441 23.1364 28.3261 25.8004 28.3561C26.3224 28.3621 26.4424 28.2061 26.4004 27.7261C26.3584 27.3181 26.3704 26.8981 26.4004 26.4901C26.4244 26.1601 26.2924 26.0821 25.9804 26.0881C25.1344 26.1061 24.2944 26.0881 23.4484 26.0941C23.1184 26.0941 22.8124 26.0401 22.8064 25.6441C22.8064 25.2481 23.1124 25.1881 23.4424 25.1881C24.2644 25.1881 25.0924 25.1761 25.9144 25.1941C26.2684 25.2061 26.4124 25.1221 26.3944 24.7381C26.3644 23.9881 26.3644 23.2381 26.3944 22.4881C26.4124 22.0981 26.2564 22.0261 25.9084 22.0321C25.0684 22.0561 24.2224 22.0321 23.3764 22.0381C23.0584 22.0381 22.7944 21.9361 22.8004 21.5821C22.8004 21.2281 23.0704 21.1321 23.3884 21.1321C23.9524 21.1321 24.5104 21.1321 25.0744 21.1321C26.4124 21.1321 26.4064 21.1321 26.3884 19.7761C26.3884 19.4461 26.3164 19.3081 25.9564 19.3261C25.4164 19.3561 24.8644 19.2901 24.3244 19.3441C23.3944 19.4401 22.8484 19.2001 22.3924 18.2461C21.2344 15.8341 18.6484 14.7481 16.3444 15.5341C14.7244 16.0861 13.6324 17.2321 12.9784 18.7861C12.8104 19.1881 12.5764 19.3741 12.1324 19.3441C11.6284 19.3081 11.1184 19.3381 10.6144 19.3381C9.24039 19.3381 9.24639 19.3381 9.28239 20.7361C9.28839 21.0601 9.38439 21.1501 9.69639 21.1441C10.5424 21.1261 11.3824 21.1441 12.2284 21.1381C12.5584 21.1381 12.8644 21.1921 12.8704 21.5881C12.8704 21.9841 12.5704 22.0501 12.2404 22.0501C11.3944 22.0501 10.5544 22.0561 9.70839 22.0441C9.40839 22.0441 9.27039 22.0981 9.28239 22.4401C9.30639 23.2261 9.30639 24.0121 9.28239 24.8041C9.27039 25.1401 9.39639 25.2121 9.70239 25.2061C10.5844 25.1881 11.4664 25.2061 12.3424 25.2061C12.6484 25.2061 12.8704 25.3381 12.8704 25.6561C12.8704 25.9741 12.6484 26.1061 12.3424 26.1061C11.8924 26.1061 11.4424 26.0941 10.9924 26.1061C10.4404 26.1301 9.69639 25.8601 9.38439 26.2201C9.10839 26.5321 9.33639 27.2581 9.28239 27.7921C9.22839 28.2901 9.43839 28.3621 9.88239 28.3621C12.5224 28.3441 15.1684 28.3501 17.8084 28.3501L17.8144 28.3441ZM24.7684 18.4501C25.3264 18.4501 25.6984 18.4381 26.0764 18.4501C26.3284 18.4621 26.3884 18.3601 26.3944 18.1201C26.4424 16.1461 26.1124 14.2441 25.3324 12.4261C25.2544 12.2461 25.1584 12.1021 24.9544 12.0481C24.5224 11.9281 24.2104 11.6401 23.9224 11.3101C23.3224 10.6081 22.6384 10.6201 22.0324 11.3281C21.0904 12.4261 19.7524 12.4261 18.7984 11.3281C18.1864 10.6201 17.5144 10.6141 16.9084 11.3161C15.9304 12.4441 14.6224 12.4321 13.6384 11.2981C13.0564 10.6261 12.3604 10.6261 11.7844 11.2981C11.5264 11.6041 11.2504 11.8981 10.8604 12.0061C10.5424 12.0961 10.4164 12.2941 10.3024 12.5701C9.57639 14.3281 9.26439 16.1521 9.29439 18.0481C9.29439 18.3781 9.41439 18.4561 9.72039 18.4441C10.3024 18.4261 10.8844 18.4081 11.4604 18.4441C11.9464 18.4801 12.2044 18.3301 12.4444 17.8681C14.7544 13.4521 20.3704 13.1761 22.9624 17.3821C23.4844 18.2281 23.9704 18.6901 24.7804 18.4381L24.7684 18.4501ZM17.8264 7.2001C19.7524 7.2001 21.6844 7.2001 23.6104 7.2001C25.1464 7.2001 25.0384 7.3141 25.0384 5.7781C25.0384 4.7761 24.7684 4.5061 23.7844 4.5061C20.0404 4.5061 16.2964 4.5061 12.5464 4.5061C10.6744 4.5061 10.6324 4.55411 10.6444 6.42011C10.6444 7.11611 10.7284 7.2001 11.4184 7.2001C13.5544 7.2001 15.6904 7.2001 17.8204 7.2001H17.8264ZM25.4884 11.2501C25.7764 11.2381 26.0284 11.1361 26.1844 10.9141C26.3584 10.6621 26.0704 10.5181 25.9564 10.3501C25.5364 9.7321 25.0744 9.13809 24.6664 8.50809C24.4564 8.17809 24.2044 8.09409 23.8324 8.09409C19.8424 8.10609 15.8524 8.10609 11.8564 8.09409C11.4844 8.09409 11.2384 8.17209 11.0224 8.50809C10.6204 9.13809 10.1524 9.7261 9.73239 10.3501C9.61839 10.5181 9.33039 10.6621 9.50439 10.9081C9.68439 11.1601 9.97239 11.2801 10.2964 11.2381C10.6084 11.1961 10.8364 11.0101 11.0404 10.7761C12.0604 9.60009 13.3264 9.59411 14.3464 10.7521C14.9404 11.4241 15.6124 11.4241 16.2004 10.7401C17.1784 9.60609 18.5044 9.60609 19.4764 10.7401C20.0644 11.4241 20.7364 11.4301 21.3304 10.7581C22.3564 9.60009 23.6284 9.60609 24.6364 10.7761C24.8644 11.0461 25.1224 11.2381 25.4824 11.2501H25.4884ZM17.8684 29.2501C15.1924 29.2501 12.5164 29.2621 9.84039 29.2381C9.32439 29.2381 9.32439 29.4061 9.49239 29.7841C9.96039 30.8461 10.7644 31.4701 11.9224 31.4821C15.8704 31.5121 19.8244 31.5121 23.7724 31.4821C24.9244 31.4761 25.7284 30.8461 26.1964 29.7841C26.3644 29.4001 26.3584 29.2321 25.8484 29.2381C23.1904 29.2621 20.5324 29.2501 17.8744 29.2501H17.8684Z" fill="#111E6C"/>
<path d="M17.5501 27.0004C16.1041 26.9104 14.8081 26.1304 14.1301 24.5284C13.4521 22.9264 13.7461 21.4384 14.9221 20.1604C15.1801 19.8784 15.2521 19.7104 15.0361 19.3684C14.7061 18.8464 14.6461 18.2464 14.6821 17.6344C14.7001 17.3584 14.8141 17.1664 15.0841 17.1004C15.8281 16.9084 16.5781 16.8484 17.2681 17.2504C17.5621 17.4184 17.6761 17.4064 17.7781 17.0884C17.8081 16.9864 17.8861 16.8904 17.9641 16.8064C18.1261 16.6384 18.3181 16.5903 18.5221 16.7223C18.7141 16.8483 18.7921 17.0284 18.7081 17.2564C18.6301 17.4664 18.5101 17.6644 18.4501 17.8744C18.1981 18.7864 18.2161 18.8103 19.0981 19.0983C20.9761 19.7103 22.1761 21.6424 21.8581 23.5324C21.5161 25.5604 19.8421 27.0003 17.5561 26.9943L17.5501 27.0004ZM14.6941 22.9384C14.6941 24.6724 16.1041 26.0883 17.8321 26.0943C19.5661 26.0943 20.9821 24.6844 20.9881 22.9564C20.9881 21.2224 19.5841 19.8064 17.8501 19.8004C16.1161 19.7944 14.6941 21.2044 14.6941 22.9384ZM16.1821 17.8744C15.5641 17.8624 15.4921 17.9583 15.6481 18.5223C15.8521 19.2363 15.9421 19.2843 16.7761 19.0443C16.9621 18.9903 17.2621 19.0683 17.2981 18.8223C17.3401 18.5403 17.1661 18.2884 16.9321 18.1024C16.6981 17.9224 16.4281 17.8684 16.1761 17.8744H16.1821Z" fill="#111E6C"/>
<path d="M10.3028 16.5183C10.4168 15.3423 10.6928 14.2083 11.1488 13.1163C11.2688 12.8283 11.4488 12.6123 11.7848 12.7443C12.1148 12.8763 12.1088 13.1583 11.9888 13.4523C11.5688 14.4543 11.3048 15.4983 11.2088 16.5843C11.1788 16.9083 11.0888 17.2143 10.7048 17.1843C10.3148 17.1543 10.2668 16.8423 10.3028 16.5123V16.5183Z" fill="#111E6C"/>
<path d="M15.5941 22.7999C15.5821 21.7679 16.6801 20.6819 17.7361 20.6999C18.0421 20.6999 18.2641 20.8199 18.2761 21.1379C18.2881 21.4259 18.0961 21.5699 17.8141 21.5999C17.0101 21.6839 16.5661 22.1339 16.4881 22.9379C16.4581 23.2199 16.3021 23.4059 16.0141 23.3879C15.6961 23.3639 15.5821 23.1359 15.5881 22.7999H15.5941Z" fill="#111E6C"/>
<path d="M17.8566 24.3003C18.1086 24.3363 18.2766 24.4743 18.2826 24.7323C18.2886 25.0143 18.1206 25.1943 17.8326 25.1883C17.5506 25.1823 17.3826 24.9963 17.4066 24.7143C17.4246 24.4623 17.5986 24.3243 17.8566 24.3063V24.3003Z" fill="#111E6C"/>
</g>
</svg>
