<svg width="36" height="36" viewBox="0 0 36 36" fill="none" xmlns="http://www.w3.org/2000/svg">
<mask id="mask0_1975_22955" style="mask-type:alpha" maskUnits="userSpaceOnUse" x="0" y="0" width="36" height="36">
<rect width="36" height="36" fill="#D9D9D9"/>
</mask>
<g mask="url(#mask0_1975_22955)">
<path d="M31.7349 18.4578C31.5969 17.8158 31.0929 17.5458 30.2529 17.5398C29.8989 17.5398 29.4129 17.6597 29.2209 17.4797C28.9749 17.2457 29.2929 16.8017 29.3169 16.4417C29.4069 15.0257 29.2629 13.6937 28.0029 12.7637C27.7989 12.6137 27.8529 12.4518 27.8709 12.2718C27.9369 11.6958 27.8349 11.1498 27.5169 10.6578C27.0669 9.95575 26.3829 9.58375 25.6149 9.34375C25.3749 9.27175 25.2009 9.23574 25.3269 8.90574C25.7709 7.75374 25.4409 6.73375 24.7449 5.79775C24.0489 4.85575 23.0949 4.22575 22.0569 3.72175C21.5049 3.45775 21.2649 3.61975 21.2529 4.24375C21.2049 6.17575 20.5029 7.00374 18.6009 7.42374C17.3049 7.70574 15.9909 7.63975 14.6829 7.73575C12.4449 7.89775 10.9089 9.22974 10.4589 11.4137C10.3989 11.7137 10.2249 11.7437 10.0089 11.8157C8.58691 12.2837 7.74691 13.2797 7.39291 14.7197C7.15291 15.6917 7.35691 16.6097 7.71691 17.5097C7.64491 17.5277 7.60291 17.5398 7.56691 17.5398C7.15291 17.5398 6.74491 17.5398 6.33091 17.5398C5.56891 17.5398 5.08891 17.8098 4.92091 18.4038C4.72891 19.0878 4.70491 20.2457 5.32291 20.5937C5.71891 20.8157 5.77291 21.1277 5.80891 21.5057C6.05491 24.0377 7.05691 26.2577 8.98891 27.8837C10.0629 28.7897 10.5189 29.6958 10.3569 31.0578C10.2549 31.8918 10.8189 32.3898 11.6589 32.3898C16.1049 32.3898 20.5449 32.3898 24.9909 32.3898C25.8309 32.3898 26.2989 31.9037 26.3109 31.0517C26.3169 30.5057 26.3229 29.9657 26.3109 29.4197C26.3049 29.1737 26.3709 29.0117 26.5809 28.8557C29.1129 26.9537 30.5889 24.4517 30.8709 21.2777C30.8949 21.0257 30.9309 20.8338 31.2009 20.6898C31.8969 20.3178 31.9509 19.4417 31.7469 18.4517L31.7349 18.4578ZM9.89491 12.7578C10.2309 12.6018 10.4289 12.5417 10.5489 13.0277C10.7709 13.9757 11.4549 14.5517 12.3309 14.9117C12.5769 15.0137 12.8229 15.0137 12.9609 14.7377C13.1049 14.4557 12.9609 14.2397 12.7029 14.1617C10.6689 13.5497 10.9509 10.6997 12.3969 9.51175C13.2189 8.83975 14.1669 8.55174 15.2109 8.55174C16.4889 8.55174 17.7609 8.50375 19.0089 8.19775C20.6769 7.78375 21.8589 6.88375 22.0509 5.04775C22.0809 4.77175 22.1769 4.72974 22.4049 4.86774C23.1609 5.33574 23.8509 5.87575 24.3069 6.66175C24.9309 7.74175 24.7629 8.77975 23.8149 9.58375C22.5969 10.6217 21.1329 10.8497 19.6029 10.8497C19.4889 10.8497 19.3809 10.8377 19.2669 10.8317C18.9549 10.8197 18.6729 10.8797 18.6669 11.2517C18.6669 11.5877 18.9189 11.6777 19.2069 11.6837C21.1089 11.7497 22.9089 11.4738 24.4149 10.1718C24.5169 10.0878 24.6069 9.97974 24.7569 10.0097C25.5609 10.1657 26.3529 10.3937 26.8089 11.1437C27.2229 11.8277 27.0549 12.5358 26.6709 13.1718C26.0409 14.2158 25.0389 14.6658 23.8749 14.8398C23.7849 14.8518 23.6889 14.8518 23.5929 14.8578C23.2989 14.8818 23.0529 14.9958 23.0769 15.3258C23.1009 15.6498 23.3529 15.7518 23.6529 15.7218C25.0689 15.5778 26.3049 15.0677 27.1989 13.9097C27.5829 13.4117 27.6669 13.3937 27.9969 13.9337C28.6509 15.0077 28.5909 16.1417 28.2489 17.2997C28.1409 17.6537 27.8649 17.5398 27.6489 17.5398C24.5709 17.5458 21.4989 17.5398 18.4209 17.5398C15.3669 17.5398 12.3069 17.5277 9.25291 17.5517C8.82091 17.5517 8.61691 17.3957 8.44891 17.0297C7.71091 15.3917 8.35891 13.4597 9.89491 12.7517V12.7578ZM24.1269 31.5497C20.0769 31.5497 16.0269 31.5497 11.9769 31.5497C11.2209 31.5497 11.1849 31.5138 11.1849 30.7578C11.1849 30.4218 11.2089 30.0798 11.1789 29.7438C11.1429 29.3358 11.3169 29.2457 11.6949 29.2457C13.3449 29.2637 14.9889 29.2577 16.6389 29.2517H17.1129C17.1669 29.2517 17.2209 29.2517 17.2749 29.2517H19.6569C19.6569 29.2517 19.6689 29.2517 19.6749 29.2517C21.2889 29.2517 22.8969 29.2517 24.5109 29.2517C25.4469 29.2517 25.4529 29.2518 25.4469 30.2118C25.4409 31.6638 25.6149 31.5438 24.1269 31.5438V31.5497ZM30.0069 21.5057C29.6409 24.2717 28.3269 26.4737 26.1129 28.1597C25.8609 28.3517 25.6029 28.4357 25.2849 28.4297C23.6829 28.4177 22.0869 28.4297 20.4849 28.4297H19.7709C19.7049 28.4297 19.6389 28.4297 19.5729 28.4297H16.6029C14.8569 28.4297 13.1169 28.4297 11.3709 28.4297C11.0529 28.4297 10.7949 28.3577 10.5429 28.1657C8.32891 26.4857 7.00891 24.2897 6.63691 21.5177C6.57091 21.0197 6.69691 20.8877 7.20691 20.8937C10.4769 20.9177 13.7469 20.9057 17.0169 20.9057H20.4009C23.4249 20.9057 26.4489 20.9177 29.4729 20.8937C29.9829 20.8937 30.0609 21.0557 30.0009 21.5057H30.0069ZM30.8949 19.8197C30.7329 20.1137 30.4389 20.0358 30.1869 20.0358C26.9229 20.0358 23.6649 20.0358 20.4009 20.0358C20.4009 20.0358 20.3949 20.0358 20.3889 20.0358H17.0169C13.5129 20.0358 10.0029 20.0358 6.49891 20.0358C6.22891 20.0358 5.86891 20.1437 5.75491 19.8017C5.62291 19.4117 5.60491 18.9737 5.77291 18.5957C5.89891 18.3137 6.22891 18.3917 6.48091 18.3917C8.97691 18.3917 11.4669 18.3917 13.9629 18.3917C15.4269 18.3917 16.8849 18.3917 18.3489 18.3917C22.2489 18.3917 26.1489 18.3917 30.0489 18.3917C30.8529 18.3917 31.2789 19.1177 30.8889 19.8197H30.8949Z" fill="#111E6C"/>
</g>
</svg>
