<svg width="36" height="36" viewBox="0 0 36 36" fill="none" xmlns="http://www.w3.org/2000/svg">
<mask id="mask0_1975_22929" style="mask-type:alpha" maskUnits="userSpaceOnUse" x="0" y="0" width="36" height="36">
<rect width="36" height="36" fill="#D9D9D9"/>
</mask>
<g mask="url(#mask0_1975_22929)">
<path d="M32.3076 21.9737C32.4576 21.5177 32.3016 21.3917 32.1036 21.3197C31.9716 21.2717 31.8696 21.2717 31.7796 21.3197C31.6716 21.3737 31.5876 21.4937 31.5216 21.6797C31.4556 21.8657 31.3776 22.0457 31.2936 22.2197C31.2576 22.3037 31.2156 22.3877 31.1796 22.4717C31.0896 22.6757 30.9816 22.8737 30.7896 22.9157C30.5856 22.9637 30.3816 22.8137 30.2316 22.6757C28.7136 21.3317 26.4156 21.3497 25.0116 22.7237C24.2496 23.4677 23.3916 23.6477 22.6476 23.7257C21.9816 23.7977 21.6456 23.8337 21.4776 23.6357C21.3096 23.4377 21.3936 23.1317 21.5736 22.4537C21.6216 22.2677 21.6696 22.0877 21.7176 21.9017C21.9756 20.8997 22.2336 19.8677 22.8696 18.9677C23.1096 18.6317 23.3316 18.4037 23.8596 18.7577C24.9876 19.5197 26.2596 19.6997 27.6456 19.2977C27.6996 19.2797 27.7356 19.2617 27.7776 19.2437H27.7836C27.7836 19.2437 30.8016 18.3377 30.7896 14.7377C30.7896 14.7017 30.7896 14.6657 30.7896 14.6297C30.7236 13.9937 30.5676 13.4477 30.2976 12.9557C30.1596 12.6977 30.1536 12.4997 30.2856 12.2477C30.9396 10.9877 30.9816 9.63767 30.3876 8.52767C29.8056 7.43567 28.6716 6.72167 27.2916 6.57167C27.0216 6.54167 26.8416 6.45166 26.6736 6.24766C24.5376 3.72166 21.7956 2.98366 18.7416 4.11766C18.4836 4.21366 18.2796 4.20767 18.0456 4.10567C16.7556 3.53567 15.4116 3.58367 14.3616 4.23767C13.3056 4.89167 12.6636 6.07367 12.5916 7.48967C12.5796 7.77167 12.4836 7.94567 12.2556 8.10767C10.4436 9.39167 9.74758 11.3297 10.4016 13.2977C11.0556 15.2657 12.7776 16.4117 14.9796 16.3577C15.5556 16.3397 15.6276 16.6577 15.6516 17.0117C15.7416 18.2717 15.3996 19.4597 15.0696 20.6057C14.9016 21.1877 14.7336 21.7817 14.6136 22.3937L14.5656 22.6397L14.3676 22.4837C13.3776 21.6857 12.8556 20.7977 12.7296 19.6877C12.5196 17.9177 11.3136 16.6217 9.57358 16.3097C9.08158 16.2197 8.94358 15.9617 8.89558 15.5657C8.77558 14.6837 8.28358 14.0477 7.43158 13.6757C7.12558 13.5437 6.82558 13.4957 6.51958 13.4957C6.17158 13.4957 5.81158 13.5557 5.44558 13.6217L5.17558 13.6697C5.03758 13.6937 4.94158 13.8137 4.94158 13.9757C4.95958 15.0677 5.05558 16.1057 6.05158 16.7657C6.18958 16.8557 6.31558 16.9577 6.33358 17.1077C6.35158 17.2637 6.24958 17.3897 6.12958 17.5217C5.37958 18.3437 5.05558 19.3097 5.16358 20.3777C5.26558 21.3797 5.04358 22.3097 4.48558 23.2217C2.95558 25.7237 3.44758 28.9457 5.64958 30.8777C7.88158 32.8337 11.0616 32.9177 13.3896 31.0757C13.7136 30.8237 13.9716 30.7877 14.3436 30.9677C19.1076 33.2057 23.7396 32.8277 28.1136 29.8397C28.1436 29.8157 28.1736 29.7977 28.2036 29.7737C28.3116 29.6897 28.4376 29.5997 28.6116 29.5697C29.6376 29.3837 30.5796 28.6817 31.1436 27.6917C31.7376 26.6477 31.8216 25.4357 31.3956 24.2957C31.2636 23.9477 31.3596 23.7197 31.5396 23.4917C31.8696 23.0777 32.1276 22.5857 32.3316 21.9857L32.3076 21.9737ZM12.9816 15.1157C11.7036 14.4497 11.0196 13.3337 11.0136 11.9057C11.0076 10.4477 11.6736 9.34967 12.9876 8.64167C13.3716 8.43167 13.5396 8.30566 13.4736 7.94566C13.2636 6.72766 13.6896 5.72566 14.7036 5.03566C15.7356 4.33366 16.8636 4.32767 17.9616 5.02367C18.1956 5.17367 18.3936 5.17967 18.6696 5.05967C21.6096 3.76367 24.3036 4.48967 26.2536 7.10567C26.4216 7.32767 26.5836 7.41166 26.8416 7.39966C28.1316 7.35166 29.0916 7.89166 29.6436 8.96566C30.2076 10.0637 30.0936 11.1677 29.3136 12.1577C29.1096 12.4217 29.1036 12.6377 29.2956 12.9017C29.6736 13.4297 29.8956 14.0417 29.9496 14.7197C29.9496 14.7197 30.2676 17.8217 27.4056 18.4757C25.4076 18.9677 23.9196 18.3017 22.9776 16.4957C22.8096 16.1717 22.6356 16.0877 22.2696 16.1417C20.5716 16.4057 19.0536 16.0277 17.7636 15.0197C17.3136 14.6717 17.0376 14.6537 16.5876 14.9537C15.4536 15.6977 14.2116 15.7517 12.9816 15.1157ZM15.6216 21.7157C15.6936 21.5237 15.7416 21.3197 15.7896 21.1217L15.8436 20.9117C15.8856 20.7377 15.9636 20.6237 16.0656 20.5697C16.1196 20.5397 16.2096 20.5157 16.3296 20.5517L16.6296 20.6237C16.8156 20.6657 16.9836 20.7077 17.1576 20.7437C17.3496 20.7857 17.6016 20.7677 17.6916 20.4557C17.7156 20.3657 17.7996 20.1017 17.3736 19.9397C17.2716 19.9037 17.1396 19.8857 17.0136 19.8737C16.7436 19.8437 16.4316 19.8077 16.3116 19.5377C16.2096 19.3157 16.2876 19.0457 16.3596 18.7877C16.3956 18.6617 16.4316 18.5297 16.4436 18.4157C16.5216 17.6957 16.5156 17.0597 16.4256 16.4717C16.3896 16.2497 16.4016 16.0037 16.7256 15.8597C16.7556 15.8477 16.7856 15.8297 16.8096 15.8177C16.9596 15.7397 17.1636 15.6377 17.4336 15.8297C18.7416 16.7597 20.2416 17.1677 21.8916 17.0357C22.2396 17.0057 22.3836 17.2157 22.5036 17.3777L22.5456 17.4377C22.7856 17.7617 22.5696 17.9957 22.4556 18.1217C22.2216 18.6437 21.9336 18.9617 21.5796 19.0937C21.2436 19.2197 20.8596 19.1837 20.4036 18.9737C20.2956 18.9257 20.1936 18.9197 20.1036 18.9617C19.9956 19.0157 19.9116 19.1297 19.8756 19.2857C19.8336 19.4477 19.8456 19.6337 20.2296 19.7897C20.3196 19.8257 20.4336 19.8377 20.5536 19.8497C20.8176 19.8737 21.1476 19.9037 21.2436 20.2517C21.3096 20.4917 21.2076 20.7497 21.1116 21.0017C21.0696 21.1037 21.0336 21.2057 21.0036 21.3077L20.9016 21.6917C20.7696 22.1837 20.6376 22.6757 20.5176 23.1677C20.4876 23.2937 20.4336 23.4497 20.3016 23.5217C20.2416 23.5577 20.1756 23.5697 20.1156 23.5697C20.0376 23.5697 19.9536 23.5517 19.8936 23.5277C19.4316 23.3837 18.8916 23.2037 18.3936 22.9337C17.5896 22.4957 16.8456 22.2917 16.0896 22.3037C15.9096 22.3037 15.7296 22.2917 15.6336 22.1597C15.5376 22.0217 15.5856 21.8417 15.6336 21.7217L15.6216 21.7157ZM5.82358 14.8637C5.78158 14.4617 6.01558 14.3717 6.24358 14.3297C6.69358 14.2517 7.17958 14.4017 7.55158 14.7257C7.91758 15.0437 8.11558 15.4757 8.10358 15.9197C8.10358 16.0757 8.05558 16.1837 7.97758 16.2497C7.86358 16.3457 7.72558 16.3277 7.61758 16.3157C7.58158 16.3157 7.53358 16.3037 7.51558 16.3157L7.47358 16.3457H7.43158C6.56758 16.3337 5.90158 15.7217 5.81758 14.8637H5.82358ZM12.8316 30.3437C12.7716 30.5717 12.5376 30.6917 12.0216 30.9617C11.2476 31.3577 10.4256 31.5557 9.60958 31.5557C8.19958 31.5557 6.82558 30.9797 5.79958 29.8757C4.19158 28.1477 3.95158 25.6277 5.20558 23.5997C5.83558 22.5857 6.07558 21.6197 5.97958 20.4797C5.93758 20.1497 5.91958 19.5017 6.22558 18.8297C6.78358 17.6177 8.04358 16.8917 9.27958 17.0777C10.6356 17.2817 11.6976 18.3257 11.8596 19.6217C12.0216 20.9177 12.4656 21.8657 13.2456 22.5917C13.3416 22.6817 13.4436 22.7957 13.4376 22.9517C13.4376 23.1077 13.3116 23.2217 13.2096 23.3057C13.1136 23.3837 13.0236 23.4917 12.9396 23.5937C12.7776 23.7857 12.6096 23.9897 12.3756 24.0497C12.0816 24.1277 11.8716 23.9057 11.6856 23.7137C11.5956 23.6237 11.5056 23.5277 11.4096 23.4737C9.98758 22.6277 8.18758 22.9277 7.12558 24.1817C6.06958 25.4297 6.06358 27.2357 7.10758 28.4717C8.19958 29.7617 9.99358 30.0677 11.3676 29.1857C11.9076 28.8437 12.1356 28.9877 12.4116 29.4137L12.4596 29.4857C12.7356 29.9117 12.8796 30.1217 12.8196 30.3437H12.8316ZM11.6076 27.3737C11.7156 27.8177 11.4996 28.0697 11.2776 28.2557C10.8216 28.6337 10.2516 28.8257 9.68158 28.8257C9.19558 28.8257 8.71558 28.6877 8.29558 28.4117C7.38358 27.8057 6.96958 26.6537 7.28758 25.5977C7.60558 24.5477 8.58958 23.8397 9.74158 23.8397H9.75358C10.2156 23.8277 10.6896 23.9777 11.1216 24.2837C11.5536 24.5957 11.9976 24.9917 11.6856 25.7777C11.4996 26.2517 11.4756 26.8157 11.6136 27.3677L11.6076 27.3737ZM27.6216 29.1617C25.4256 30.7157 22.9776 31.5197 20.3436 31.5557C18.1896 31.5317 16.2696 31.0577 14.4636 30.0977C12.5616 29.0837 11.8536 26.9357 12.8076 25.1057C13.7676 23.2637 15.9336 22.6157 17.8416 23.6057C20.0256 24.7397 22.2576 24.9257 24.4776 24.1637C24.9576 24.0017 25.2516 24.2297 25.4916 24.4097C25.5636 24.4637 25.6296 24.5177 25.7076 24.5597C25.8216 24.6257 25.8936 24.7097 25.9176 24.8117C25.9536 24.9737 25.8636 25.1177 25.7916 25.2317C25.7616 25.2857 25.7256 25.3337 25.7136 25.3697C25.4796 26.2157 25.3776 26.7617 25.5696 27.0437C25.7616 27.3257 26.2956 27.4337 27.1536 27.5177C27.1896 27.5177 27.2496 27.5117 27.3096 27.4997C27.4476 27.4757 27.6276 27.4457 27.7536 27.5537C27.8316 27.6197 27.8736 27.7217 27.8736 27.8597C27.8736 27.9497 27.8976 28.0457 27.9216 28.1477C27.9876 28.4357 28.0836 28.8257 27.6216 29.1497V29.1617ZM29.6496 28.1417C29.6196 28.1657 29.5836 28.1957 29.5536 28.2257C29.4456 28.3277 29.2896 28.4717 29.1036 28.4717C29.0436 28.4717 28.9776 28.4537 28.9056 28.4177C28.6956 28.2977 28.7136 28.0637 28.7316 27.9077C28.7316 27.8477 28.7436 27.7877 28.7316 27.7517V27.7397V27.7217C28.7436 27.1517 28.7496 26.8097 28.6356 26.7017C28.5216 26.5937 28.1856 26.6177 27.6216 26.6537C27.5316 26.6537 27.4596 26.6657 27.3876 26.6777C27.0636 26.7197 26.6556 26.7617 26.4456 26.4497C26.2236 26.1197 26.4156 25.7597 26.5716 25.4657C26.6076 25.3937 26.6496 25.3217 26.6796 25.2557C26.7276 25.1477 26.7936 25.0577 26.8536 24.9677C26.8776 24.9317 26.9016 24.8897 26.9256 24.8537C27.0636 24.6317 27.1116 24.4697 27.0756 24.3557C27.0396 24.2357 26.8956 24.1337 26.6496 24.0317C26.5836 24.0077 26.5056 23.9777 26.4276 23.9537C26.0976 23.8457 25.6836 23.7077 25.7136 23.3477C25.7436 22.9517 26.2176 22.8137 26.5956 22.7057L26.7336 22.6637C28.1736 22.2257 29.7276 22.8737 30.4356 24.2057C31.1376 25.5317 30.8016 27.2237 29.6496 28.1417Z" fill="#111E6C"/>
</g>
</svg>
