<svg width="36" height="36" viewBox="0 0 36 36" fill="none" xmlns="http://www.w3.org/2000/svg">
<mask id="mask0_1975_22603" style="mask-type:alpha" maskUnits="userSpaceOnUse" x="0" y="0" width="36" height="36">
<rect width="36" height="36" fill="#D9D9D9"/>
</mask>
<g mask="url(#mask0_1975_22603)">
<path d="M24.6859 6.6541C24.6859 6.6541 24.6679 6.6121 24.6559 6.5881C24.6559 6.5761 24.6499 6.5581 24.6379 6.5461C24.5419 6.3721 24.5719 6.2281 24.7459 6.0901C25.3099 5.6341 25.4599 5.0821 25.1899 4.4521C24.9379 3.8641 24.4639 3.6001 23.6479 3.6001H23.6359C20.9839 3.6061 18.2839 3.6061 15.6739 3.6061C14.6599 3.6061 13.6459 3.6061 12.6319 3.6061C12.5599 3.6061 12.4819 3.6061 12.4099 3.6061C12.3319 3.6061 12.2599 3.6061 12.1939 3.6181C11.6599 3.7081 11.2879 3.9961 11.0899 4.4701C10.8619 5.0221 10.9399 5.5201 11.2939 5.8141C11.8159 6.2341 11.6719 6.6121 11.4439 7.0321C10.7299 8.3401 10.4299 9.7981 10.4899 11.6221C10.5439 13.3261 10.5319 15.0541 10.5199 16.7281C10.5199 17.4541 10.5079 18.1801 10.5079 18.9061V21.1141C10.5079 23.3341 10.5079 25.6261 10.5079 27.8821C10.5079 28.3981 10.5679 28.9681 11.0239 29.3161C11.4679 29.6521 11.6419 30.0841 11.7619 30.6181C11.9659 31.5301 12.4279 31.9561 13.3639 32.0821C16.3579 32.4961 19.5079 32.5081 22.7479 32.1181C23.9239 31.9741 24.3439 31.5841 24.6259 30.3781C24.6379 30.3181 24.6499 30.2521 24.6559 30.1921C24.6799 29.9941 24.7099 29.7661 24.9259 29.6281C25.7059 29.1301 25.8079 28.3741 25.8079 27.6301V25.2661C25.7839 21.0841 25.7659 16.7581 25.8199 12.5041C25.8439 10.5541 25.7779 8.4961 24.6979 6.6541H24.6859ZM12.2779 4.4881C12.4519 4.4641 12.6259 4.4641 12.7939 4.4641C16.3639 4.4641 19.9339 4.4641 23.5039 4.4641C23.6659 4.4641 23.8399 4.4641 24.0199 4.4881C24.2779 4.5241 24.4339 4.6981 24.4459 4.9681C24.4579 5.2561 24.3079 5.4601 24.0259 5.5141C23.9059 5.5381 23.7859 5.5381 23.6659 5.5321C23.6299 5.5321 23.5939 5.5321 23.5639 5.5321C22.1239 5.5321 20.6779 5.5321 19.2319 5.5321H17.0659C15.6199 5.5321 14.1799 5.5321 12.7339 5.5321C12.6979 5.5321 12.6619 5.5321 12.6319 5.5321C12.5959 5.5321 12.5599 5.5321 12.5239 5.5321C12.4399 5.5321 12.3559 5.5321 12.2719 5.5141C11.9899 5.4541 11.8339 5.2561 11.8459 4.9681C11.8579 4.6981 12.0139 4.5241 12.2719 4.4881H12.2779ZM23.7139 30.5101C23.5879 30.9601 23.2879 31.2001 22.7599 31.2661C21.4159 31.4461 19.9459 31.5301 18.1399 31.5361C16.7899 31.5301 15.1939 31.4941 13.5799 31.2721C13.3099 31.2361 13.0699 31.1881 12.8719 31.0081C12.6559 30.8101 12.4639 30.4921 12.5719 30.1921C12.6019 30.1141 12.6439 30.0661 12.7039 30.0361C12.8119 29.9881 12.9379 30.0361 13.0579 30.0781C13.1179 30.1021 13.1719 30.1201 13.2199 30.1261C16.7179 30.6061 20.1079 30.5881 23.3059 30.0661C23.5159 30.0301 23.6359 30.0481 23.7019 30.1261C23.7799 30.2161 23.7559 30.3661 23.7139 30.5101ZM23.1259 29.2501C21.6979 29.4961 20.1619 29.6101 18.2899 29.6101C18.1699 29.6101 18.0499 29.6101 17.9299 29.6101C15.8059 29.6101 14.0719 29.4541 12.4999 29.1181C11.5519 28.9141 11.3419 28.6621 11.3419 27.6721C11.3419 26.9341 11.3419 26.5681 11.5339 26.3941C11.7259 26.2261 12.0679 26.2621 12.7519 26.3341L12.8419 26.3461C16.2079 26.7121 19.7659 26.7181 23.4139 26.3641L24.1459 26.2921C24.5359 26.2561 24.7339 26.2321 24.8479 26.3401C24.9619 26.4481 24.9619 26.6401 24.9619 27.0661C24.9619 28.8541 24.8779 28.9561 23.1319 29.2561L23.1259 29.2501ZM24.3799 25.4101C22.3039 25.6381 20.2219 25.7521 18.1399 25.7521C16.0579 25.7521 13.9879 25.6381 11.9299 25.4101C11.4679 25.3561 11.3239 25.1941 11.3239 24.7321C11.3359 20.7421 11.3419 16.5661 11.3239 12.3241C11.3239 12.1141 11.3419 11.9521 11.4439 11.8621C11.5459 11.7721 11.7139 11.7661 11.9239 11.7961C16.0519 12.2881 20.2279 12.2881 24.3379 11.7961C24.5959 11.7661 24.7459 11.7901 24.8359 11.8681C24.9379 11.9641 24.9619 12.1201 24.9559 12.3601C24.9439 13.8901 24.9439 15.4501 24.9499 16.9561C24.9499 17.5081 24.9499 18.0661 24.9499 18.6181C24.9499 19.1221 24.9499 19.6261 24.9499 20.1301C24.9499 21.6481 24.9499 23.2201 24.9619 24.7621C24.9619 25.2001 24.8239 25.3501 24.3739 25.4041L24.3799 25.4101ZM24.9139 10.5601C24.7339 10.8361 24.3439 10.9801 23.5579 11.0461C21.7999 11.1961 20.2999 11.3041 18.8599 11.3041C18.6439 11.3041 18.4339 11.3041 18.2239 11.2981C15.8239 11.3341 13.5559 11.1301 11.8519 10.9561C11.4319 10.9141 11.3479 10.7221 11.3299 10.3741C11.2999 9.7381 11.5159 9.1741 11.7319 8.6281C11.8339 8.3701 11.9359 8.1001 12.0139 7.8301C12.3619 6.5641 13.1179 6.3361 14.2099 6.3721C16.5259 6.4561 18.8899 6.4321 21.1699 6.4141C21.7999 6.4141 22.4239 6.4021 23.0539 6.3961H23.0719C23.4739 6.3961 23.7379 6.4861 23.8999 6.9481C24.0319 7.3081 24.1879 7.6681 24.3439 8.0161C24.4939 8.3641 24.6559 8.7181 24.7819 9.0781C25.0639 9.8581 25.1059 10.2901 24.9259 10.5721L24.9139 10.5601Z" fill="#111E6C"/>
</g>
</svg>
