<svg width="36" height="36" viewBox="0 0 36 36" fill="none" xmlns="http://www.w3.org/2000/svg">
<mask id="mask0_1975_23191" style="mask-type:alpha" maskUnits="userSpaceOnUse" x="0" y="0" width="36" height="36">
<rect width="36" height="36" fill="#D9D9D9"/>
</mask>
<g mask="url(#mask0_1975_23191)">
<path d="M25.2306 8.75383C25.5427 8.38783 25.5186 7.91383 25.3986 7.46383C25.1046 6.36583 24.1507 5.62783 22.9927 5.63983C22.6927 5.63983 22.4827 5.59183 22.2787 5.33383C21.8407 4.78783 21.2347 4.54183 20.5387 4.61383C20.2267 4.64383 20.0287 4.54783 19.8127 4.33183C18.9607 3.47383 17.7547 3.36583 16.7287 4.03183C16.5127 4.17583 16.3327 4.22983 16.0687 4.15183C14.8867 3.79783 13.8007 4.23583 13.1947 5.30383C13.0567 5.54383 12.9247 5.66383 12.6367 5.63983C12.1987 5.59783 11.7847 5.72983 11.4007 5.93983C10.2007 6.59983 9.85865 7.83583 10.5607 9.00583C10.6807 9.20383 10.6507 9.40183 10.6567 9.60583C10.6807 11.6098 10.5967 13.6138 10.7227 15.6178C10.7767 16.5358 10.9207 17.4418 11.1487 18.3358L11.6347 20.4298C11.6467 20.4838 11.6587 20.5378 11.6707 20.5918C11.9947 21.8878 12.1267 23.2078 12.1207 24.5458C12.1207 26.7358 12.1207 28.9318 12.1207 31.1218C12.1207 32.0758 12.4567 32.3998 13.4107 32.3998H22.1827C23.1667 32.3998 23.4847 32.0818 23.4847 31.0798V24.4978C23.4847 23.1418 23.6347 21.8098 23.9587 20.4898C24.4627 18.4558 24.9666 16.4218 24.9486 14.2978C24.9306 12.7978 24.9486 11.2978 24.9486 9.79783C24.9486 9.41983 24.9607 9.07783 25.2367 8.75383H25.2306ZM11.5027 9.77383C11.5027 9.51583 11.5807 9.40183 11.8567 9.41383C12.3007 9.42583 12.7507 9.40183 13.2007 9.42583C13.7647 9.44983 14.0707 9.78583 14.0947 10.3618C14.1067 10.6978 14.0947 11.0338 14.0947 11.3698C14.0947 11.6338 14.0707 11.8978 14.1007 12.1558C14.1607 12.6118 14.0227 12.7858 13.5307 12.7138C12.9967 12.6298 12.4507 12.6178 11.9107 12.6058C11.6467 12.5938 11.4967 12.5638 11.5027 12.2398C11.5207 11.4178 11.5147 10.5958 11.5027 9.77383ZM22.0746 31.5598C19.4707 31.5418 16.8607 31.5478 14.2567 31.5478H13.3027C13.0687 31.5478 12.9667 31.4518 12.9667 31.2118C12.9787 30.7078 12.9727 30.2098 12.9727 29.6398C13.5067 29.9338 13.9867 30.1618 14.5507 30.1558C15.3547 30.1378 16.1587 30.1498 16.9687 30.1498C17.0527 30.1498 17.1427 30.1498 17.2207 30.1378H19.1947C19.1947 30.1378 19.2427 30.1498 19.2667 30.1438C19.3987 30.1378 19.5367 30.1378 19.6687 30.1378H19.6867C20.0047 30.1438 20.3287 30.1618 20.6527 30.1618C21.3307 30.1618 22.0027 30.0778 22.6387 29.6158C22.6387 30.1378 22.6086 30.5698 22.6446 30.9898C22.6866 31.4518 22.5007 31.5598 22.0746 31.5598ZM23.9946 16.0558C23.8866 16.6678 23.8087 17.2798 23.6887 17.8858C23.3887 19.4458 22.8907 20.9638 22.7287 22.5538C22.5607 24.2218 22.6747 25.8898 22.6387 27.5578C22.6207 28.6858 22.0387 29.2798 20.9047 29.2978C20.5027 29.3038 20.0947 29.3038 19.6867 29.3038H15.9667C15.5227 29.3038 15.0847 29.3038 14.6467 29.2978C13.5787 29.2738 12.9787 28.6678 12.9727 27.6118C12.9667 26.6758 12.9547 25.7338 12.9727 24.7978C13.0087 23.3098 12.8467 21.8458 12.5047 20.3998L11.9347 17.9998C11.9347 17.9998 11.9227 17.9338 11.9167 17.8978C11.6647 16.7998 11.5507 15.6838 11.5207 14.5558C11.4907 13.4218 11.4967 13.4218 12.6067 13.4818C12.8347 13.4938 13.0567 13.4998 13.2787 13.5178C13.8147 13.5578 14.0907 13.8418 14.1067 14.3698C14.1247 15.3298 14.7367 16.0618 15.6187 16.1878C16.4947 16.3138 17.3107 15.7858 17.5507 14.8558C17.6407 14.5138 17.7547 14.5438 18.0007 14.6278C18.4627 14.7778 18.9187 14.9158 19.3807 15.0418C19.3807 15.0418 19.4227 15.0538 19.4887 15.0718C19.4887 15.0718 19.4947 15.0718 19.5007 15.0718C19.8007 15.1498 20.6767 15.3718 21.6367 15.4918C21.7087 15.5098 21.7866 15.5158 21.8646 15.5218C22.4466 15.5638 23.0287 15.6178 23.6047 15.6298C23.9227 15.6358 24.0546 15.7258 23.9946 16.0498V16.0558ZM24.1026 14.4238C24.1086 14.7658 23.9647 14.8318 23.6646 14.8078C23.1067 14.7538 22.5427 14.7358 21.9847 14.6818C21.9847 14.6818 20.5507 14.5138 19.7467 14.2858C19.7347 14.2858 19.7287 14.2798 19.7227 14.2738C19.2187 14.1238 18.7207 13.9498 18.2167 13.8178C17.9047 13.7398 17.6647 13.6318 17.5927 13.3738V11.0578C17.5927 11.0578 17.5927 10.9918 17.5927 10.9618C17.5927 10.8958 17.5927 10.8298 17.5927 10.7638C17.5927 10.6018 17.5927 10.4398 17.6047 10.2838C17.6587 9.75583 18.0367 9.41383 18.5347 9.41983C19.0327 9.43183 19.3807 9.77983 19.3987 10.3318C19.4167 10.8538 19.3987 11.3818 19.4107 11.9038C19.4347 13.0138 20.1547 13.7698 21.1627 13.7758C22.1767 13.7758 22.8907 13.0258 22.9207 11.9158C22.9327 11.3878 22.9087 10.8658 22.9327 10.3378C22.9567 9.80383 23.2807 9.46783 23.7427 9.42583C24.0067 9.39583 24.1086 9.47383 24.1026 9.75583C24.0966 11.3098 24.0906 12.8638 24.1026 14.4238ZM23.8146 8.55583C22.7767 8.61583 22.0927 9.33583 22.0807 10.3858C22.0687 10.9138 22.0866 11.4358 22.0746 11.9638C22.0567 12.5338 21.6967 12.9178 21.1927 12.9358C20.6647 12.9478 20.2867 12.5518 20.2747 11.9518C20.2627 11.3878 20.2927 10.8238 20.2627 10.2658C20.2207 9.37783 19.5847 8.68783 18.7387 8.57383C17.9287 8.45983 17.1187 8.96983 16.8547 9.76183C16.7407 10.0918 16.7587 10.4278 16.7707 10.7638V13.0258C16.7707 13.1878 16.7707 13.3438 16.7767 13.5058C16.7767 13.8118 16.7767 14.1238 16.7587 14.4298C16.7287 15.0058 16.3447 15.3598 15.8287 15.3478C15.3307 15.3298 14.9947 14.9758 14.9647 14.4238C14.9527 14.2738 14.9587 14.1238 14.9587 13.9738C14.9587 12.8338 14.9647 11.6878 14.9527 10.5478C14.9467 9.25183 14.2567 8.56183 12.9727 8.55583C12.5467 8.55583 12.1147 8.56783 11.6827 8.55583C11.1007 8.53783 10.8847 8.23783 11.0407 7.66783C11.2747 6.77983 12.0607 6.33583 13.0687 6.56383C13.4647 6.65383 13.6507 6.55183 13.7647 6.16183C14.1187 4.99783 15.0487 4.57183 16.1227 5.08783C16.4407 5.23783 16.6567 5.22583 16.9207 4.97983C17.7667 4.18183 18.8226 4.29583 19.4647 5.24983C19.6747 5.56783 19.8727 5.66383 20.2507 5.53783C20.9227 5.30383 21.5107 5.53183 21.8107 6.14983C22.0027 6.55183 22.2186 6.64183 22.6446 6.54583C23.4786 6.35383 24.1926 6.73183 24.4986 7.44583C24.7986 8.14783 24.5707 8.51383 23.8146 8.55583Z" fill="#111E6C"/>
<path d="M17.2444 18.8278C17.2444 17.8258 16.4404 17.0038 15.4384 16.9918C14.4364 16.9798 13.6144 17.7778 13.5904 18.7798C13.5664 19.8118 14.3884 20.6458 15.4204 20.6398C16.4224 20.6398 17.2384 19.8238 17.2444 18.8278ZM14.4364 18.8278C14.4364 18.2758 14.8804 17.8378 15.4384 17.8498C15.9724 17.8618 16.3864 18.2818 16.3864 18.8158C16.3864 19.3738 15.9424 19.8118 15.3964 19.7998C14.8804 19.7878 14.4424 19.3438 14.4424 18.8278H14.4364Z" fill="#111E6C"/>
<path d="M19.9614 20.4298C19.0914 20.4178 18.3774 21.1078 18.3654 21.9778C18.3534 22.8478 19.0434 23.5558 19.9194 23.5678C20.7894 23.5798 21.5034 22.8898 21.5154 22.0198C21.5274 21.1498 20.8314 20.4418 19.9614 20.4298ZM19.9554 22.7158C19.5474 22.7398 19.2054 22.3858 19.2294 21.9658C19.2594 21.5278 19.5174 21.2878 19.9554 21.2758C20.3454 21.2638 20.6574 21.5998 20.6574 22.0258C20.6214 22.4278 20.3934 22.6858 19.9554 22.7098V22.7158Z" fill="#111E6C"/>
<path d="M17.0637 23.6519C17.0457 22.8779 16.4157 22.2719 15.6477 22.2779C14.8797 22.2899 14.2617 22.9199 14.2617 23.6879C14.2617 24.4559 14.8917 25.0859 15.6537 25.0859C16.4457 25.0859 17.0817 24.4439 17.0637 23.6459V23.6519ZM15.1197 23.7059C15.1077 23.3519 15.3177 23.1479 15.6717 23.1479C16.0017 23.1479 16.2057 23.3399 16.2117 23.6639C16.2237 24.0179 16.0077 24.2039 15.6657 24.2279C15.3297 24.2039 15.1197 24.0299 15.1137 23.7059H15.1197Z" fill="#111E6C"/>
<path d="M19.9805 24.9777C19.3385 24.9837 18.8105 25.5297 18.8165 26.1717C18.8225 26.8137 19.3685 27.3477 20.0105 27.3357C20.6525 27.3297 21.1865 26.7837 21.1745 26.1417C21.1685 25.4997 20.6225 24.9657 19.9805 24.9777ZM19.9805 26.4657C19.7825 26.4597 19.6745 26.3337 19.6865 26.1297C19.6985 25.9557 19.8065 25.8537 19.9805 25.8477C20.1845 25.8477 20.2865 25.9557 20.3045 26.1537C20.2865 26.3517 20.1785 26.4717 19.9805 26.4597V26.4657Z" fill="#111E6C"/>
<path d="M16.7172 26.0997C16.0632 26.0937 15.5412 26.6097 15.5352 27.2697C15.5352 27.9237 16.0452 28.4577 16.6932 28.4637C17.3352 28.4637 17.8812 27.9357 17.8932 27.2937C17.8992 26.6577 17.3592 26.1057 16.7172 26.0997ZM16.7172 27.5937C16.5072 27.5877 16.3872 27.4677 16.3872 27.2817C16.3872 27.0957 16.5072 26.9697 16.7052 26.9757C16.9032 26.9757 17.0232 27.0837 17.0232 27.2817C17.0232 27.4797 16.9032 27.5817 16.7172 27.5937Z" fill="#111E6C"/>
<path d="M20.7549 16.3801C20.1009 16.3681 19.5669 16.8781 19.5549 17.5261C19.5429 18.1801 20.0529 18.7141 20.7069 18.7261C21.3609 18.7381 21.8889 18.2341 21.9069 17.5801C21.9189 16.9261 21.4149 16.3921 20.7609 16.3801H20.7549ZM20.7549 17.8861C20.5389 17.8561 20.4129 17.7541 20.4069 17.5621C20.4009 17.3701 20.5209 17.2441 20.7069 17.2321C20.9229 17.2201 21.0549 17.3521 21.0549 17.5681C21.0549 17.7601 20.9049 17.8441 20.7609 17.8861H20.7549Z" fill="#111E6C"/>
</g>
</svg>
