<svg width="36" height="36" viewBox="0 0 36 36" fill="none" xmlns="http://www.w3.org/2000/svg">
<mask id="mask0_1975_22964" style="mask-type:alpha" maskUnits="userSpaceOnUse" x="0" y="0" width="36" height="36">
<rect width="36" height="36" fill="#D9D9D9"/>
</mask>
<g mask="url(#mask0_1975_22964)">
</g>
<g clip-path="url(#clip0_1975_22964)">
<path d="M29.1583 10.5303C29.1043 10.4583 29.0263 10.4163 28.9183 10.4043C28.7503 10.3803 28.6423 10.3323 28.5883 10.2543C28.5163 10.1523 28.5403 10.0203 28.5643 9.88234C28.5703 9.85234 28.5763 9.81634 28.5823 9.78634L28.6183 9.58234C28.7383 8.79634 28.8703 7.97434 28.9843 7.17634C29.1283 6.19834 28.6903 5.58034 27.7183 5.40034L27.6163 5.38234C27.3403 5.32834 27.0583 5.27434 26.7763 5.26834C26.4823 5.26234 26.4043 5.15434 26.3323 4.89634C26.1883 4.36234 25.6783 3.92434 24.9823 3.71434C24.2503 3.49834 23.5243 3.60634 23.0803 3.99034C22.7383 4.29034 22.6543 4.70434 22.5643 5.14234C22.5523 5.19634 22.5403 5.25034 22.5283 5.30434L22.5163 5.34634L22.4863 5.32834C21.9523 5.02234 21.3823 5.04634 20.8243 5.07034C20.7763 5.07634 20.7223 5.07634 20.6743 5.07634C20.3443 5.09434 20.1403 5.07634 20.0383 4.64434C19.8943 4.02634 19.4023 3.66034 18.6943 3.63034C18.4303 3.62434 18.1663 3.62434 17.8543 3.63034C17.0443 3.64834 16.5643 4.00234 16.3903 4.72834C16.3063 5.05234 16.1623 5.07634 15.9343 5.07634C15.8143 5.08234 15.6823 5.07634 15.5503 5.07034C15.0283 5.05234 14.4943 5.03434 13.9543 5.35234L13.9183 5.37634V5.32834C13.9003 5.25634 13.8943 5.19634 13.8883 5.14834C13.8763 5.06434 13.8703 5.00434 13.8523 4.94434C13.6723 4.12234 13.2223 3.65434 12.5983 3.64834H12.5503C11.3203 3.64834 10.4503 3.81034 10.2343 4.58434C10.0603 5.18434 9.74225 5.30434 9.21425 5.31034C9.11825 5.31634 9.01625 5.33434 8.91425 5.35234C8.87825 5.36434 8.84225 5.37034 8.80625 5.37634C7.70225 5.58634 7.28825 6.18634 7.47425 7.32634C7.61225 8.17234 7.75025 9.05434 7.87625 9.93634C7.88225 9.96034 7.88825 9.98434 7.89425 10.0143C7.91825 10.0983 7.94225 10.2003 7.88825 10.2723C7.85825 10.3143 7.80425 10.3443 7.72625 10.3503C7.51625 10.3743 7.37225 10.4403 7.28825 10.5423C7.16225 10.7103 7.19825 10.9623 7.24025 11.2263V11.2983C7.46825 12.9063 7.69025 14.5323 7.90625 16.1163C8.02625 17.0043 8.14625 17.9043 8.27225 18.7923L8.60225 21.2523C9.07625 24.6963 9.56225 28.2543 10.0423 31.7643C10.0903 32.1123 10.1623 32.2923 10.2823 32.3643C10.4083 32.4363 10.6003 32.4183 10.9663 32.2803C15.5923 30.5523 20.3023 30.4983 24.9823 32.1123C25.6843 32.3523 26.0083 32.4063 26.1823 32.2923C26.3563 32.1903 26.3863 31.9083 26.4343 31.4823C26.4523 31.3803 26.4643 31.2663 26.4823 31.1403L27.0223 27.1443C27.4603 23.9403 27.8923 20.7303 28.3303 17.5263C28.6243 15.3483 28.9243 13.1943 29.2123 11.1063C29.2543 10.8363 29.2303 10.6503 29.1463 10.5423L29.1583 10.5303ZM25.7503 9.39034C25.8043 9.01834 25.8643 8.64634 25.9183 8.27434C25.9903 7.78834 26.0623 7.29034 26.1343 6.78634C26.1643 6.53434 26.2483 6.36634 26.3803 6.27034C26.5063 6.18034 26.6683 6.15634 26.8903 6.19234C27.0463 6.22234 27.2143 6.24634 27.3703 6.26434C27.4483 6.27634 27.5203 6.28834 27.5983 6.30034C27.9763 6.35434 28.1503 6.58234 28.0903 6.96034C28.0303 7.39234 27.9643 7.81834 27.8983 8.24434C27.8083 8.83234 27.7123 9.43234 27.6283 10.0323C27.5983 10.2603 27.4963 10.3563 27.2743 10.3563H27.2503C27.1003 10.3503 26.9443 10.3503 26.7943 10.3563H26.5903C26.1103 10.3563 25.8703 10.3563 25.7623 10.2303C25.6543 10.0983 25.6843 9.86434 25.7503 9.39034ZM23.3023 6.37834C23.3803 5.92834 23.4583 5.46034 23.5123 5.00434C23.5483 4.72234 23.7343 4.54834 23.9863 4.54834H24.0343C24.4543 4.58434 24.7903 4.63834 25.0963 4.71634C25.3723 4.79434 25.4923 5.02234 25.4383 5.37634L25.2823 6.36634C25.1023 7.55434 24.9163 8.78434 24.7363 9.98434C24.7003 10.2423 24.5983 10.3383 24.3403 10.3623H24.3163C24.0343 10.3863 23.8123 10.4043 23.6383 10.4043C23.4163 10.4043 23.2723 10.3743 23.1763 10.2843C22.9963 10.1283 22.9963 9.78034 22.9963 9.09634C23.0023 8.17834 23.1523 7.26034 23.3023 6.37834ZM20.1223 9.99034C20.1223 9.75034 20.1223 9.49834 20.1223 9.25834V8.49634C20.1223 7.90234 20.1223 7.29034 20.1163 6.67834C20.1103 6.42034 20.1703 6.24034 20.2903 6.12634C20.4103 6.00634 20.5843 5.96434 20.8363 5.97034C21.0163 5.98234 21.1963 5.98234 21.3703 5.97034C21.6163 5.95834 21.7963 6.00634 21.9163 6.12034C22.0423 6.24034 22.1023 6.43834 22.1023 6.72634C22.0903 7.54834 22.0903 8.38834 22.0963 9.19834V10.7463C22.0903 11.1423 21.1663 12.2223 20.7763 12.2823C20.6983 12.2943 20.6143 12.3003 20.5363 12.3003C20.4163 12.3003 20.3083 12.2763 20.2303 12.2043C20.1343 12.1143 20.0923 11.9583 20.1043 11.7183C20.1463 11.1483 20.1343 10.5663 20.1283 9.99634L20.1223 9.99034ZM17.2303 5.35834C17.2303 4.60834 17.3143 4.53634 18.2203 4.53634H18.2443C19.1023 4.53634 19.1983 4.62034 19.2043 5.35234V9.48634C19.2043 10.2483 19.1983 11.0463 19.2103 11.8263C19.2103 12.1203 19.1503 12.2703 18.7903 12.2883H18.7543C18.4963 12.3003 18.2863 12.3063 18.1123 12.3063C17.7643 12.3063 17.5543 12.2703 17.4283 12.1503C17.2303 11.9583 17.2303 11.5803 17.2303 10.8183V5.35834ZM14.3143 10.0863C14.4043 9.34834 14.3803 8.57434 14.3623 7.83034C14.3503 7.49434 14.3443 7.14034 14.3443 6.79834C14.3443 6.09634 14.4583 5.98834 15.1843 5.98234H15.3343C15.4243 5.98234 15.5143 5.98234 15.5983 5.97634C15.8443 5.96434 16.0243 6.01234 16.1443 6.12634C16.2703 6.25234 16.3303 6.45034 16.3243 6.73834C16.3123 7.32634 16.3123 7.92634 16.3243 8.51434V9.89434C16.3243 10.4883 16.3243 11.1063 16.3183 11.7183C16.3183 11.7603 16.3243 11.8083 16.3303 11.8563C16.3543 12.0123 16.3843 12.2043 16.1623 12.2583C16.0543 12.2823 15.9283 12.3123 15.8023 12.3123C15.6643 12.3123 15.5203 12.2763 15.3943 12.1563C15.3403 12.1023 15.2863 12.0483 15.2323 12.0003C14.7043 11.4963 14.2063 11.0163 14.3203 10.0863H14.3143ZM11.5003 4.66834C11.6383 4.64434 11.7703 4.62034 11.9083 4.60234C12.0103 4.58434 12.1063 4.57234 12.2083 4.55434C12.4243 4.51834 12.5983 4.54834 12.7243 4.64434C12.8383 4.72834 12.9103 4.86634 12.9343 5.05234C12.9883 5.52034 13.0663 5.99434 13.1443 6.45634C13.2943 7.32634 13.4443 8.23834 13.4383 9.14434C13.4323 9.79834 13.4323 10.1283 13.2643 10.2843C13.1683 10.3743 13.0183 10.4043 12.7903 10.4043C12.6223 10.4043 12.4003 10.3863 12.1243 10.3623H12.1063C11.8723 10.3443 11.7343 10.2783 11.6923 9.99634C11.5123 8.74234 11.3143 7.45834 11.1283 6.22834L10.9963 5.38234C10.9363 4.97434 11.1043 4.73434 11.5003 4.66834ZM8.44625 6.51034C8.55425 6.36634 8.72825 6.28834 8.98625 6.26434C9.16025 6.24634 9.34025 6.22834 9.52025 6.19834C9.74825 6.15034 9.91625 6.18034 10.0483 6.27034C10.1863 6.37234 10.2703 6.55234 10.3063 6.82234C10.4623 7.95634 10.6063 8.89834 10.7563 9.77434C10.7923 9.97234 10.8103 10.1703 10.7023 10.2843C10.6483 10.3443 10.5583 10.3743 10.4383 10.3743C10.3903 10.3743 10.3363 10.3683 10.2763 10.3563C10.1623 10.3383 10.0363 10.3443 9.91625 10.3503C9.85625 10.3563 9.80225 10.3563 9.74825 10.3563C8.85425 10.3563 8.84825 10.3443 8.71625 9.46834C8.68025 9.24034 8.64425 9.01834 8.61425 8.79034C8.53625 8.25634 8.45825 7.71034 8.36225 7.16434C8.30825 6.87034 8.33825 6.65434 8.44625 6.51034ZM9.92825 24.3603C9.72425 22.7163 9.50225 21.0423 9.26825 19.3683C9.25025 19.2423 9.24425 19.1163 9.31025 19.0383C9.36425 18.9783 9.45425 18.9483 9.60425 18.9483H9.61625C10.7563 18.9603 11.8843 18.9603 13.0783 18.9543H14.3863L14.3563 19.0023C13.1443 20.9283 13.1443 22.8003 14.3563 24.7383L14.3863 24.7863H12.2623C12.0883 24.7863 11.9083 24.7803 11.7343 24.7803C11.3203 24.7803 10.8883 24.7743 10.4683 24.7923H10.4143C10.1443 24.7923 9.97625 24.7083 9.92825 24.3603ZM27.1423 19.2843C26.9083 21.0123 26.6743 22.7283 26.4523 24.4563C26.4163 24.7083 26.2843 24.7623 26.0503 24.7623C24.7723 24.7563 23.4943 24.7563 22.1023 24.7563C23.3383 22.8063 23.3263 20.9283 22.1143 18.9903C23.7703 18.9903 25.3423 18.9903 26.9143 18.9903C27.1423 18.9903 27.1783 19.0863 27.1483 19.2843H27.1423ZM22.0963 21.8643C22.0963 22.8963 21.6943 23.8743 20.9623 24.6123C20.2303 25.3443 19.2523 25.7463 18.2203 25.7463H18.2143C16.0963 25.7463 14.3683 24.0183 14.3503 21.9123C14.3443 20.8743 14.7403 19.8903 15.4723 19.1523C16.1983 18.4143 17.1703 18.0063 18.2023 18.0003H18.2143C19.2463 18.0003 20.2183 18.4023 20.9503 19.1343C21.6883 19.8603 22.0963 20.8383 22.0963 21.8643ZM26.2603 26.1483C25.9843 27.9363 25.7863 29.3883 25.6303 30.7263C25.6063 30.9423 25.5703 31.1043 25.4683 31.1703C25.4263 31.1943 25.3783 31.2063 25.3243 31.2063C25.2343 31.2063 25.1263 31.1763 24.9883 31.1343C20.6683 29.7423 16.2223 29.7063 11.7763 31.0203L11.7343 31.0323C11.3203 31.1523 11.1103 31.2183 10.9843 31.1283C10.8523 31.0443 10.8223 30.8223 10.7623 30.3663V30.3543C10.7143 30.0183 10.6723 29.6883 10.6303 29.3523C10.4923 28.3203 10.3543 27.2403 10.1923 26.1963C10.1563 25.9803 10.1743 25.8603 10.2403 25.7883C10.3003 25.7223 10.3963 25.6923 10.5703 25.6923H10.6363C11.1403 25.7103 11.6563 25.7043 12.1603 25.7043C12.4723 25.6983 12.7903 25.6983 13.1023 25.6983C13.3123 25.7043 13.5343 25.7043 13.7563 25.6983C14.7463 25.6563 15.5323 25.8123 16.2883 26.2083C17.6743 26.9283 19.1923 26.8443 20.6683 25.9743C20.9923 25.7823 21.3043 25.6923 21.6703 25.6923H21.6943C23.0383 25.7043 24.4363 25.7043 25.8343 25.6923H25.8643C26.0323 25.6923 26.1463 25.7103 26.2123 25.7883C26.2723 25.8603 26.2903 25.9743 26.2603 26.1543V26.1483ZM28.2283 11.7483C27.9283 13.8003 27.6523 15.7983 27.4063 17.7003C27.3643 18.0303 27.1903 18.0603 26.9383 18.0543C26.2723 18.0483 25.5883 18.0483 24.9283 18.0483C24.5383 18.0543 24.1483 18.0543 23.7643 18.0483C23.4643 18.0483 23.1583 18.0483 22.8583 18.0543C21.9943 18.0783 21.0583 18.0243 20.0863 17.5143C18.7423 16.8123 17.2423 16.9083 15.7603 17.7963C15.4543 17.9763 15.1603 18.0543 14.8003 18.0543H14.7883C12.8983 18.0423 11.2123 18.0483 9.61625 18.0603H9.59825C9.24425 18.0603 9.07625 17.9823 9.02225 17.5683C8.78225 15.5883 8.50025 13.6323 8.23025 11.7963C8.20025 11.5863 8.21825 11.4543 8.29025 11.3703C8.36225 11.2923 8.48225 11.2563 8.68625 11.2563H8.71625C10.0243 11.2803 11.2903 11.2743 12.8023 11.2623H12.8323C13.0723 11.2623 13.3423 11.2863 13.5103 11.5443C14.4043 12.8883 15.7183 13.4223 17.6263 13.2063C18.4183 13.1223 19.2343 13.1463 20.0203 13.1763C20.2843 13.1823 20.5483 13.1943 20.8123 13.1943H20.8483C21.2263 13.1943 21.4663 13.0923 21.6283 12.8523C22.5163 11.5443 23.8183 11.0103 25.5883 11.2503C26.1463 11.3223 26.7283 11.2983 27.2983 11.2743C27.4483 11.2683 27.5983 11.2623 27.7423 11.2563C27.9403 11.2563 28.0843 11.2683 28.1683 11.3583C28.2343 11.4363 28.2523 11.5623 28.2283 11.7483Z" fill="#111E6C"/>
<path d="M27.1368 19.032C27.0948 18.984 27.0228 18.96 26.9148 18.96H26.9088C25.7388 18.966 24.5748 18.966 23.3508 18.96H22.0608L22.0848 19.008C23.2968 20.94 23.2968 22.812 22.0788 24.744L22.0488 24.786H23.1408C24.1488 24.786 25.0968 24.786 26.0508 24.792H26.0628C26.2968 24.792 26.4468 24.732 26.4828 24.456C26.6868 22.872 26.9148 21.186 27.1728 19.29C27.1908 19.2 27.1908 19.098 27.1368 19.032ZM26.0628 24.726H26.0508C25.4148 24.72 24.7788 24.72 24.1188 24.72H22.1508C23.3448 22.806 23.3508 20.94 22.1628 19.014H23.3448C24.5688 19.02 25.7328 19.02 26.9028 19.014H26.9088C26.9988 19.014 27.0528 19.032 27.0828 19.068C27.1188 19.104 27.1248 19.164 27.1068 19.278C26.8488 21.174 26.6208 22.86 26.4168 24.444C26.3868 24.678 26.2728 24.726 26.0568 24.726H26.0628ZM27.1368 19.032C27.0948 18.984 27.0228 18.96 26.9148 18.96H26.9088C25.7388 18.966 24.5748 18.966 23.3508 18.96H22.0608L22.0848 19.008C23.2968 20.94 23.2968 22.812 22.0788 24.744L22.0488 24.786H23.1408C24.1488 24.786 25.0968 24.786 26.0508 24.792H26.0628C26.2968 24.792 26.4468 24.732 26.4828 24.456C26.6868 22.872 26.9148 21.186 27.1728 19.29C27.1908 19.2 27.1908 19.098 27.1368 19.032ZM26.0628 24.726H26.0508C25.4148 24.72 24.7788 24.72 24.1188 24.72H22.1508C23.3448 22.806 23.3508 20.94 22.1628 19.014H23.3448C24.5688 19.02 25.7328 19.02 26.9028 19.014H26.9088C26.9988 19.014 27.0528 19.032 27.0828 19.068C27.1188 19.104 27.1248 19.164 27.1068 19.278C26.8488 21.174 26.6208 22.86 26.4168 24.444C26.3868 24.678 26.2728 24.726 26.0568 24.726H26.0628ZM27.1368 19.032C27.0948 18.984 27.0228 18.96 26.9148 18.96H26.9088C25.7388 18.966 24.5748 18.966 23.3508 18.96H22.0608L22.0848 19.008C23.2968 20.94 23.2968 22.812 22.0788 24.744L22.0488 24.786H23.1408C24.1488 24.786 25.0968 24.786 26.0508 24.792H26.0628C26.2968 24.792 26.4468 24.732 26.4828 24.456C26.6868 22.872 26.9148 21.186 27.1728 19.29C27.1908 19.2 27.1908 19.098 27.1368 19.032ZM26.0628 24.726H26.0508C25.4148 24.72 24.7788 24.72 24.1188 24.72H22.1508C23.3448 22.806 23.3508 20.94 22.1628 19.014H23.3448C24.5688 19.02 25.7328 19.02 26.9028 19.014H26.9088C26.9988 19.014 27.0528 19.032 27.0828 19.068C27.1188 19.104 27.1248 19.164 27.1068 19.278C26.8488 21.174 26.6208 22.86 26.4168 24.444C26.3868 24.678 26.2728 24.726 26.0568 24.726H26.0628ZM27.1368 19.032C27.0948 18.984 27.0228 18.96 26.9148 18.96H26.9088C25.7388 18.966 24.5748 18.966 23.3508 18.96H22.0608L22.0848 19.008C23.2968 20.94 23.2968 22.812 22.0788 24.744L22.0488 24.786H23.1408C24.1488 24.786 25.0968 24.786 26.0508 24.792H26.0628C26.2968 24.792 26.4468 24.732 26.4828 24.456C26.6868 22.872 26.9148 21.186 27.1728 19.29C27.1908 19.2 27.1908 19.098 27.1368 19.032ZM26.0628 24.726H26.0508C25.4148 24.72 24.7788 24.72 24.1188 24.72H22.1508C23.3448 22.806 23.3508 20.94 22.1628 19.014H23.3448C24.5688 19.02 25.7328 19.02 26.9028 19.014H26.9088C26.9988 19.014 27.0528 19.032 27.0828 19.068C27.1188 19.104 27.1248 19.164 27.1068 19.278C26.8488 21.174 26.6208 22.86 26.4168 24.444C26.3868 24.678 26.2728 24.726 26.0568 24.726H26.0628ZM27.1368 19.032C27.0948 18.984 27.0228 18.96 26.9148 18.96H26.9088C25.7388 18.966 24.5748 18.966 23.3508 18.96H22.0608L22.0848 19.008C23.2968 20.94 23.2968 22.812 22.0788 24.744L22.0488 24.786H23.1408C24.1488 24.786 25.0968 24.786 26.0508 24.792H26.0628C26.2968 24.792 26.4468 24.732 26.4828 24.456C26.6868 22.872 26.9148 21.186 27.1728 19.29C27.1908 19.2 27.1908 19.098 27.1368 19.032ZM26.0628 24.726H26.0508C25.4148 24.72 24.7788 24.72 24.1188 24.72H22.1508C23.3448 22.806 23.3508 20.94 22.1628 19.014H23.3448C24.5688 19.02 25.7328 19.02 26.9028 19.014H26.9088C26.9988 19.014 27.0528 19.032 27.0828 19.068C27.1188 19.104 27.1248 19.164 27.1068 19.278C26.8488 21.174 26.6208 22.86 26.4168 24.444C26.3868 24.678 26.2728 24.726 26.0568 24.726H26.0628Z" fill="white"/>
</g>
<defs>
<clipPath id="clip0_1975_22964">
<rect width="22.044" height="28.8" fill="white" transform="translate(7.19922 3.6001)"/>
</clipPath>
</defs>
</svg>
