<svg width="36" height="36" viewBox="0 0 36 36" fill="none" xmlns="http://www.w3.org/2000/svg">
<mask id="mask0_1975_23058" style="mask-type:alpha" maskUnits="userSpaceOnUse" x="0" y="0" width="36" height="36">
<rect width="36" height="36" fill="#D9D9D9"/>
</mask>
<g mask="url(#mask0_1975_23058)">
<path d="M27.2305 19.1144C27.2005 18.3464 26.9545 17.6504 26.5225 17.0204C26.5225 17.0204 26.0125 16.1924 25.3165 15.3404C25.0765 15.0404 24.9385 14.7164 24.8845 14.3264C24.6445 12.5684 24.4105 10.8044 24.1165 9.05237C23.9965 8.34437 24.0205 7.75037 24.5725 7.22237C24.9925 6.82037 24.9865 6.34037 24.6925 5.84237C24.4405 5.40437 24.2365 4.94236 24.0025 4.49836C23.7025 3.94036 23.2225 3.65237 22.5925 3.64637C22.0105 3.64037 21.4225 3.70637 20.8525 3.63437C19.3825 3.44237 18.5365 4.06037 17.9425 5.40437C17.5585 6.27437 17.4505 6.93437 18.1645 7.61237C18.4345 7.87037 18.4585 8.15837 18.3985 8.52437C18.2065 9.68837 18.0025 10.8524 17.9125 12.0224C17.7685 13.8764 17.2705 15.5504 15.9865 16.9664C15.4225 17.5904 15.2365 18.4124 15.2125 19.2644C15.1945 19.9724 15.1465 20.6864 15.1045 21.5204C14.5045 21.0584 14.0785 21.3164 13.6765 21.7244C13.2685 22.1324 12.8665 22.4804 12.1945 22.4564C11.5345 22.4384 11.0845 23.0084 11.0845 23.6984C11.0845 24.0104 10.9765 24.1064 10.7065 24.1844C10.1425 24.3524 9.81847 24.7544 9.83647 25.3424C9.84847 25.6724 9.75847 25.7804 9.43447 25.8344C8.90647 25.9184 8.57647 26.2664 8.44447 26.7824C8.33047 27.2444 8.43247 27.7124 8.81047 27.9404C9.30247 28.2404 9.38047 28.6784 9.48847 29.1464C9.64447 29.8184 9.80047 30.4964 9.95047 31.1684C10.1665 32.0984 10.5265 32.3924 11.4745 32.3924C15.9265 32.3924 20.3845 32.3924 24.8365 32.3924C26.6125 32.3924 27.7465 31.2104 27.6745 29.4344C27.5365 25.9964 27.3925 22.5524 27.2485 19.1144H27.2305ZM18.8245 5.56636C19.1365 4.73836 19.6465 4.35437 20.5645 4.46837C21.1345 4.54037 21.7165 4.48037 22.2985 4.48037C22.9465 4.48037 23.7025 5.21236 23.7325 5.84836C23.7445 6.10636 23.5405 6.02837 23.4205 6.03437C22.6945 6.04037 21.9685 6.03437 21.2425 6.03437C20.5345 6.03437 19.8265 6.01637 19.1185 6.04037C18.6745 6.05237 18.6985 5.91437 18.8365 5.56037L18.8245 5.56636ZM23.6185 6.91037C23.6785 7.10237 23.5285 7.19836 23.4385 7.30036C23.1805 7.60036 23.0365 7.91237 23.1625 8.32037C23.2465 8.57837 23.1685 8.72837 22.8445 8.72237C21.7645 8.70437 20.6785 8.72236 19.5985 8.71636C19.4485 8.71636 19.1845 8.75837 19.2625 8.49437C19.4485 7.87037 19.1365 7.42637 18.6685 6.91037H23.6125H23.6185ZM23.2285 11.7824C22.5565 11.7584 21.8845 11.7764 21.2125 11.7764C20.5405 11.7764 19.8685 11.7644 19.1965 11.7764C18.8665 11.7824 18.7525 11.6624 18.8245 11.3504C18.8485 11.2424 18.8665 11.1284 18.8845 11.0204C18.9625 10.5644 18.8845 9.95237 19.1545 9.68837C19.4845 9.37037 20.1085 9.59236 20.6065 9.58036C21.3685 9.56236 22.1365 9.59237 22.9045 9.56837C23.2705 9.55637 23.3965 9.68837 23.4205 10.0364C23.4505 10.4624 23.5225 10.8884 23.6065 11.3084C23.6725 11.6384 23.6005 11.7884 23.2285 11.7764V11.7824ZM12.4765 23.2784C12.8905 23.2784 13.2985 23.2904 13.7125 23.2784C14.1325 23.2604 14.4385 23.1164 14.2105 22.6184C14.1205 22.4204 14.2345 22.3544 14.3425 22.2524C14.4805 22.1204 14.5765 22.2224 14.6725 22.3124C14.8525 22.4744 15.0445 22.6244 15.2065 22.8044C15.5305 23.1584 15.8965 23.3504 16.3945 23.2904C16.6765 23.2544 17.0005 23.2664 17.0185 23.6624C17.0365 24.1004 16.7065 24.1004 16.3945 24.1004C15.7585 24.1004 15.1225 24.1004 14.4865 24.1004C13.8145 24.1004 13.1425 24.1004 12.4645 24.1004C12.1705 24.1004 11.9245 24.0284 11.9245 23.6864C11.9245 23.3384 12.1825 23.2784 12.4765 23.2844V23.2784ZM9.83647 27.4724C9.53047 27.4724 9.24847 27.4304 9.26647 27.0344C9.28447 26.6804 9.55447 26.6504 9.83047 26.6504C11.3845 26.6504 12.9325 26.6504 14.4865 26.6504C14.6365 26.6504 14.7865 26.6564 14.9365 26.6384C15.1585 26.6084 15.3265 26.4884 15.3385 26.2424C15.3505 25.9664 15.1825 25.8284 14.9365 25.7984C14.7505 25.7744 14.5645 25.7864 14.3785 25.7864C13.3525 25.7864 12.3205 25.7864 11.2945 25.7864C10.9945 25.7864 10.6885 25.7624 10.6705 25.3904C10.6585 25.0244 10.9465 24.9644 11.2585 24.9644C13.4065 24.9644 15.5545 24.9644 17.7085 24.9644C18.0145 24.9644 18.2965 25.0064 18.2905 25.3904C18.2845 25.7444 18.0145 25.7864 17.7265 25.7804C17.5225 25.7804 17.3125 25.7804 17.1085 25.7804C16.7845 25.7924 16.3525 25.7084 16.3405 26.2004C16.3285 26.6984 16.7485 26.6444 17.0785 26.6444C17.7505 26.6444 18.4225 26.6444 19.0945 26.6444C19.4005 26.6444 19.6945 26.6804 19.6945 27.0584C19.6945 27.4364 19.3885 27.4664 19.0885 27.4664C17.5585 27.4664 16.0225 27.4664 14.4925 27.4664C13.0705 27.4664 11.6545 27.4664 10.2325 27.4664C10.1005 27.4664 9.96847 27.4664 9.84247 27.4664L9.83647 27.4724ZM24.7705 20.9984C24.8185 21.3224 24.6805 21.4184 24.3685 21.4124C23.3005 21.3944 22.2385 21.4124 21.1705 21.4124C20.1625 21.4124 19.1485 21.4004 18.1405 21.4184C17.7865 21.4244 17.6485 21.3344 17.6725 20.9504C17.7445 19.7984 17.5285 19.9784 18.6685 19.9664C20.4985 19.9544 22.3345 19.9784 24.1645 19.9544C24.6325 19.9484 24.8185 20.0864 24.7645 20.5544C24.7465 20.7044 24.7525 20.8544 24.7765 21.0044L24.7705 20.9984ZM18.0445 22.2824C19.1125 22.2764 20.1745 22.2824 21.2425 22.2824C22.2685 22.2824 23.3005 22.2944 24.3265 22.2764C24.6985 22.2704 24.8545 22.3544 24.8605 22.7624C24.8785 23.9744 24.9205 25.1924 24.9985 26.4044C25.0285 26.8424 24.8725 26.9324 24.4705 26.9264C23.3305 26.9024 22.1905 26.9084 21.0505 26.9264C20.7445 26.9264 20.5405 26.8964 20.4265 26.5424C20.2765 26.1044 19.8925 25.8764 19.4365 25.8164C19.1965 25.7864 19.1365 25.7024 19.1425 25.4624C19.1605 24.7784 18.8185 24.3404 18.1525 24.1484C18.0685 24.1244 17.9065 24.0644 17.9125 24.0464C18.0205 23.5004 17.5945 23.0624 17.6005 22.5464C17.6005 22.2044 17.8585 22.2944 18.0445 22.2884V22.2824ZM18.7045 28.7984C18.5065 29.5364 18.3325 30.2864 18.1825 31.0364C18.1105 31.3904 17.9425 31.5464 17.5765 31.5464C15.5185 31.5404 13.4605 31.5404 11.4025 31.5464C11.0485 31.5464 10.8505 31.4144 10.7725 31.0544C10.6045 30.2684 10.4365 29.4824 10.2265 28.7084C10.1365 28.3784 10.2445 28.3304 10.5325 28.3304C11.8405 28.3424 13.1545 28.3304 14.4625 28.3304C15.7525 28.3304 17.0425 28.3424 18.3385 28.3244C18.7285 28.3184 18.8065 28.4264 18.7045 28.7924V28.7984ZM24.8965 31.5404C23.0605 31.5584 21.2305 31.5524 19.3945 31.5404C19.2445 31.5404 18.9445 31.6604 18.9985 31.3304C19.0405 31.0784 18.9505 30.6824 19.4425 30.7064C19.8745 30.7244 20.3005 30.7064 20.7325 30.7064C21.0445 30.7064 21.3265 30.6524 21.3205 30.2804C21.3205 29.9024 21.0205 29.8544 20.7205 29.8544C20.3665 29.8544 20.0065 29.8544 19.6525 29.8544C19.5265 29.8544 19.4005 29.8604 19.3705 29.6684C19.2145 28.6724 19.9705 27.7784 20.9845 27.7784C21.8245 27.7784 22.6705 27.7784 23.5105 27.7784C25.1665 27.7784 25.1545 27.7784 25.1125 29.4704C25.1065 29.7644 25.0165 29.8664 24.7285 29.8604C24.1105 29.8484 23.4925 29.8604 22.8745 29.8604C22.5925 29.8604 22.3165 29.9324 22.3105 30.2684C22.3045 30.6344 22.5745 30.7184 22.8925 30.7124C23.5825 30.7124 24.2785 30.7244 24.9685 30.7124C25.6345 30.7004 26.0005 30.3164 25.9705 29.6324C25.8445 26.4524 25.7125 23.2724 25.5685 20.0984C25.5385 19.4564 25.2085 19.1444 24.5665 19.1444C22.3405 19.1384 20.1145 19.1384 17.8825 19.1444C17.2345 19.1444 16.9105 19.4444 16.8625 20.0864C16.8145 20.7044 16.7905 21.3224 16.7845 21.9344C16.7845 22.2644 16.7365 22.4504 16.3285 22.4324C15.9445 22.4144 15.9145 22.2344 15.9265 21.9284C15.9685 21.1244 15.9985 20.3204 16.0225 19.5164C16.0405 18.6464 16.2925 17.8664 16.8385 17.1764C17.2525 16.6484 17.6245 16.0844 18.0265 15.5444C18.2125 15.2984 18.3145 15.0284 18.3565 14.7224C18.4225 14.1644 18.5305 13.6124 18.5785 13.0544C18.6085 12.7184 18.7405 12.6224 19.0705 12.6224C20.4385 12.6404 21.8065 12.6524 23.1685 12.6224C23.6725 12.6104 23.8105 12.7664 23.8885 13.2524C24.0265 14.1404 23.9245 15.1004 24.6205 15.8444C24.6625 15.8924 24.7045 15.9344 24.7525 15.9764C24.9385 16.1684 25.3105 16.6244 25.8145 17.4884C26.1925 18.1244 26.3785 18.7844 26.4025 19.5044C26.5285 22.8524 26.6665 26.2004 26.7865 29.5484C26.8285 30.7904 26.1265 31.5344 24.8905 31.5464L24.8965 31.5404Z" fill="#111E6C"/>
</g>
</svg>
