<svg width="30" height="30" viewBox="0 0 30 30" fill="none" xmlns="http://www.w3.org/2000/svg">
<g id="Group">
<path id="Vector" d="M19.5768 17.3848C19.1148 17.4028 19.0368 17.1928 18.9768 16.8208C18.7428 15.3928 17.5788 14.3668 16.1388 14.3308C15.6408 14.3188 15.2388 14.1628 14.8608 13.8568C13.7388 12.9568 12.8028 12.9688 11.6628 13.8568C10.8348 14.5048 10.3368 14.4988 9.50283 13.8448C8.39283 12.9688 7.42683 12.9748 6.30483 13.8688C6.02283 14.0908 5.73483 14.3068 5.35683 14.3188C5.33883 14.3188 5.32083 14.3188 5.30283 14.3248C5.27883 14.3248 5.26083 14.3248 5.23683 14.3248C3.86283 14.4448 3.41883 14.8768 3.41883 14.8768C3.35283 14.9188 3.28683 14.9728 3.22083 15.0268C2.64483 15.5248 2.26683 16.1368 2.18883 16.8988C2.15283 17.2288 2.08083 17.3848 1.69683 17.3848C0.988829 17.3848 0.622827 17.7748 0.616827 18.4708C0.604827 19.6708 0.586833 20.8708 0.622833 22.0708C0.700833 24.6808 2.79483 27.0208 5.36883 27.3628C5.84283 27.4228 5.99883 27.5548 5.98683 28.0408C5.95683 29.0188 6.37083 29.4028 7.34283 29.4028C9.44283 29.4028 11.5428 29.4028 13.6428 29.4028C14.8548 29.4028 15.1968 29.0848 15.2088 27.8908C15.2088 27.5248 15.3288 27.4108 15.6828 27.3748C16.4388 27.3028 17.1288 27.0388 17.7768 26.6488C17.7828 26.6488 17.7888 26.6488 17.7948 26.6488C17.8128 26.6428 17.8308 26.6248 17.8488 26.6128C17.8608 26.6068 17.8728 26.6008 17.8848 26.5948C17.9268 26.5708 17.9628 26.5468 17.9988 26.5168C18.0228 26.5048 18.0408 26.4868 18.0648 26.4688C18.5328 26.1208 19.1208 25.5088 19.3128 25.3108C19.3308 25.2928 19.3548 25.2688 19.3728 25.2448C19.4028 25.2088 19.4328 25.1728 19.4628 25.1368C19.9368 24.4948 20.2908 23.7928 20.4228 23.0008C20.6868 21.4168 20.5368 19.8208 20.5248 18.2308C20.5248 17.6908 20.0988 17.3728 19.5768 17.3908V17.3848ZM3.04083 16.8748C3.16683 16.3888 3.39483 15.9808 3.78483 15.6628C3.80883 15.6448 3.83283 15.6268 3.85683 15.6028C4.32483 15.1468 4.81683 15.1048 5.08683 15.1228C5.14683 15.1408 5.21283 15.1468 5.28483 15.1528C5.34483 15.1528 5.40483 15.1528 5.47083 15.1528C6.07083 15.1228 6.51483 14.7868 6.95883 14.4328C7.59483 13.9348 8.22483 13.9348 8.85483 14.4148C10.1988 15.4468 10.9668 15.4468 12.3228 14.4148C12.9348 13.9528 13.5948 13.9168 14.1708 14.4028C14.7708 14.9128 15.4248 15.1588 16.2108 15.2008C17.1408 15.2488 17.7708 15.7828 18.0708 16.6708C18.2928 17.3128 18.2448 17.3728 17.5788 17.3728C13.1748 17.3728 8.77083 17.3728 4.36083 17.3728C4.04283 17.3728 3.71883 17.3488 3.40683 17.3728C2.97483 17.4148 2.95083 17.2228 3.03483 16.8748H3.04083ZM13.7268 28.5508C11.9868 28.5388 10.2468 28.5508 8.50083 28.5508C8.10483 28.5508 7.71483 28.5328 7.31883 28.5508C6.81483 28.5748 6.82083 28.2628 6.80283 27.8908C6.77883 27.4768 6.97683 27.4408 7.30683 27.4408C8.41083 27.4528 9.51482 27.4408 10.6188 27.4408C11.6688 27.4408 12.7188 27.4528 13.7628 27.4408C14.1408 27.4408 14.3808 27.4528 14.3688 27.9628C14.3568 28.4668 14.1528 28.5568 13.7208 28.5508H13.7268ZM19.7268 21.4108C19.7448 22.5808 19.4868 23.6668 18.7848 24.6208C18.3168 25.2808 17.8848 25.6108 17.6448 25.7548C17.5788 25.7848 17.5128 25.8208 17.4468 25.8628C16.6968 26.3248 15.8868 26.5828 14.9988 26.5828C12.0588 26.5828 9.11283 26.6008 6.17283 26.5828C3.72483 26.5648 1.67283 24.6508 1.50483 22.2088C1.42683 21.0688 1.49283 19.9228 1.45683 18.7828C1.43883 18.3208 1.61283 18.2188 2.03883 18.2248C4.88883 18.2428 7.73883 18.2308 10.5888 18.2308C13.4388 18.2308 16.2888 18.2428 19.1388 18.2188C19.6128 18.2188 19.7508 18.3628 19.7328 18.8248C19.6968 19.6828 19.7148 20.5468 19.7268 21.4108Z" fill="#111E6C"/>
<path id="Vector_2" d="M28.7641 8.66678C27.4981 7.40678 26.2381 6.14677 24.9781 4.88677L23.1241 3.03278C23.1181 3.02678 23.1121 3.02078 23.1061 3.01478C22.5361 2.44478 21.9601 1.88077 21.3961 1.30477C20.8141 0.704772 20.1361 0.434772 19.3141 0.704772C18.4681 0.980772 18.0781 1.61677 17.9521 2.46277C17.5201 5.34877 17.0821 8.24077 16.6501 11.1268C16.4461 12.4888 17.5141 13.5688 18.8701 13.3708C19.9801 13.2088 21.0901 13.0408 22.2001 12.8728C24.0481 12.5908 25.9021 12.3268 27.7501 12.0208C28.7701 11.8528 29.4061 11.0788 29.4061 9.97478C29.3941 9.54878 29.1601 9.08078 28.7581 8.67878L28.7641 8.66678ZM18.7981 12.5128C17.9041 12.6208 17.3881 12.1108 17.5021 11.2228C17.6641 9.98077 17.8801 8.75077 18.0541 7.50877C18.0961 7.20277 18.2701 7.20277 18.4861 7.24477C19.4161 7.41877 20.1721 7.82677 20.5501 8.76277C20.9941 9.84877 21.2221 11.0128 21.9121 12.0508C20.8261 12.2188 19.8121 12.3928 18.7981 12.5188V12.5128ZM28.4941 10.4908C28.3321 10.9408 27.9721 11.1328 27.5041 11.1988C26.1301 11.3968 24.7621 11.6128 23.4001 11.8348C23.0221 11.8948 22.7761 11.8168 22.5601 11.4748C22.0741 10.7008 21.8281 9.83678 21.5581 8.97878C21.1021 7.53878 20.1721 6.65077 18.6661 6.42277C18.3241 6.36877 18.2401 6.23077 18.2941 5.90077C18.4861 4.77277 18.6601 3.64478 18.8221 2.51678C18.8941 2.02478 19.0981 1.65877 19.5841 1.50877C20.0641 1.35877 20.4541 1.53878 20.7961 1.89278C21.3001 2.41478 21.8221 2.92477 22.3441 3.44077L24.2401 5.33079C25.5361 6.62679 26.8261 7.92877 28.1341 9.21877C28.5001 9.58477 28.6801 9.98678 28.5001 10.4848L28.4941 10.4908Z" fill="#111E6C"/>
<path id="Vector_3" d="M12.7904 19.7068C11.3144 19.7068 9.83836 19.7068 8.35636 19.7068C8.05036 19.7068 7.74436 19.7488 7.73836 20.1088C7.73236 20.5168 8.06236 20.5408 8.38036 20.5408C9.13036 20.5408 9.87436 20.5408 10.6244 20.5408C11.3324 20.5408 12.0464 20.5408 12.7544 20.5408C13.0544 20.5408 13.4084 20.5648 13.4204 20.1388C13.4324 19.7188 13.0964 19.7068 12.7784 19.7068H12.7904Z" fill="#111E6C"/>
<path id="Vector_4" d="M21.4433 5.89485C21.0173 5.90685 21.0353 6.25486 21.0353 6.56086C21.0353 6.87886 21.0713 7.22086 21.4733 7.20286C21.8693 7.18486 21.8993 6.84886 21.8813 6.56086C21.8873 6.21286 21.8573 5.88285 21.4433 5.89485Z" fill="#111E6C"/>
<path id="Vector_5" d="M21.8632 4.58076C21.8332 4.09476 21.3832 4.14874 21.0772 4.04074C20.7712 4.02274 20.5612 4.16076 20.5792 4.44876C20.6092 4.93476 21.0532 4.91074 21.3772 4.97674C21.6592 5.03674 21.8752 4.86876 21.8632 4.58076Z" fill="#111E6C"/>
<path id="Vector_6" d="M23.8906 8.49888C23.4406 8.58288 23.3746 8.99087 23.3206 9.35087C23.2846 9.61487 23.4826 9.78287 23.7406 9.74687C24.2146 9.68087 24.1846 9.21888 24.3406 8.93088C24.2866 8.64888 24.1426 8.45088 23.8906 8.49888Z" fill="#111E6C"/>
<path id="Vector_7" d="M25.3592 9.38674C25.0712 9.33274 24.8792 9.50074 24.8912 9.79474C24.9152 10.2627 25.3352 10.2147 25.6232 10.3227C25.9232 10.3227 26.1332 10.1908 26.1092 9.90275C26.0792 9.45875 25.6652 9.44674 25.3532 9.38674H25.3592Z" fill="#111E6C"/>
<path id="Vector_8" d="M24.324 7.29282C24.324 6.89682 23.994 6.86682 23.682 6.87282C23.376 6.87282 23.1 6.93282 23.118 7.31082C23.136 7.68882 23.436 7.70682 23.748 7.70082C24.036 7.72482 24.324 7.64682 24.324 7.29282Z" fill="#111E6C"/>
<path id="Vector_9" d="M20.0096 2.82288C19.7036 2.82288 19.6016 3.02689 19.6016 3.30289C19.6016 3.59689 19.6976 3.83688 20.0216 3.83688C20.3096 3.83688 20.4356 3.62688 20.4296 3.34488C20.4416 3.05088 20.3516 2.81689 20.0096 2.81689V2.82288Z" fill="#111E6C"/>
</g>
</svg>
