<?xml version="1.0" encoding="utf-8"?>
<!-- Generator: Adobe Illustrator 25.1.0, SVG Export Plug-In . SVG Version: 6.00 Build 0)  -->
<svg version="1.1" id="Layer_1" xmlns="http://www.w3.org/2000/svg" xmlns:xlink="http://www.w3.org/1999/xlink" x="0px" y="0px"
	 width="30px" height="30px" viewBox="0 0 30 30" style="enable-background:new 0 0 30 30;" xml:space="preserve">
<style type="text/css">
	.st0{fill:#111E6C;}
</style>
<g id="Group_5">
	<path id="Vector" class="st0" d="M28.6,21.8h-0.8c-1.2,0-2.4,0-3.6,0c-0.4,0-0.7-0.1-0.8-0.6c-0.4-2-0.9-4.1-1.4-6
		c-0.3-1.3-0.6-2.7-0.9-4c-0.2-0.8-0.6-1.2-1.3-1.4c-0.1,0-0.3,0-0.5-0.1c-0.1,0-0.2,0-0.3,0l-0.1,0l0.1-0.1C21,8.3,21.1,6.5,21,4.8
		c0-0.4-0.2-0.6-0.6-0.6c-0.1,0-0.1,0-0.2,0c-0.1,0-0.2,0-0.3,0c-0.3,0-0.5,0-0.8,0c-1.6,0.1-2.8,0.7-3.7,2
		c-0.1,0.2-0.2,0.4-0.3,0.6C15,6.9,14.9,7,14.9,7.1l0,0.1l0-0.1c-1-1.4-2.4-2.1-4.3-1.9c-0.4,0-0.6,0.2-0.6,0.6
		c-0.1,1.7,0.4,2.9,1.5,4l0.1,0.1h-0.1c-0.4,0-0.6,0-0.8,0c-1.2,0-1.6,0.4-1.9,1.5l-0.4,1.9c-0.6,2.6-1.2,5.4-1.8,8
		c-0.1,0.5-0.3,0.6-0.7,0.6h0c-0.7,0-1.4,0-2.1,0c-0.6,0-1.3,0-1.9,0H1.3c-0.3,0-0.5,0.1-0.6,0.2s-0.1,0.3-0.1,0.6
		c0.1,0.6,0.3,1.1,0.6,1.5c0.7,0.9,1.6,1.4,3,1.4h0c4.9,0,9.9,0,14.8,0c2,0,4,0,6,0c0.2,0,0.4,0,0.6,0c0.3,0,0.5,0,0.8,0
		c1.6-0.1,2.8-1.2,3-2.8c0-0.3,0-0.5-0.1-0.7C29.2,21.9,29,21.8,28.6,21.8L28.6,21.8z M16.7,6c0.8-0.7,1.9-1.1,3.1-0.9
		c0.2,0,0.3,0.1,0.3,0.3c0.1,1.2-0.2,2.3-1,3.1c-0.7,0.8-1.8,1.3-3,1.3c-0.1,0-0.1,0-0.1,0c-0.3,0-0.5,0-0.6-0.1
		c-0.1-0.1-0.1-0.3-0.1-0.7C15.4,7.8,15.9,6.7,16.7,6L16.7,6z M10.8,6.6c0-0.3,0-0.5,0.1-0.5C11,6,11.1,5.9,11.3,6
		c1.8,0,3.3,1.5,3.3,3.3c0,0.4-0.1,0.5-0.5,0.5h0C12.3,9.8,10.8,8.4,10.8,6.6L10.8,6.6z M9.4,12.1C9.4,12.1,9.4,12.1,9.4,12.1
		c0.3-1.5,0.3-1.5,1.8-1.5h3.9c0.4,0,0.8,0,1.2,0c1,0,2,0,3.1,0h0c0.6,0,0.9,0.3,1.1,0.9l0,0.1c0.1,0.5,0.2,0.7,0.1,0.9
		c-0.1,0.1-0.4,0.1-0.9,0.1h0c-1.2,0-1.5,0.2-1.8,1.4c-0.1,0.3-0.2,0.4-0.5,0.4c-0.3,0-0.5-0.1-0.5-0.4c0-0.3-0.1-0.4-0.2-0.5
		c-0.1-0.1-0.2-0.1-0.3,0C16,13.6,16,13.9,16,14.2v0.1c0,0.4,0,0.8,0,1.1c0,0.5,0,1.1,0,1.6c0,0.2,0,0.4-0.2,0.6
		c-0.1,0.1-0.2,0.1-0.3,0.1h0c-0.5,0-0.5-0.5-0.5-0.7c0-0.8,0-1.7,0-2.5c0-1.1-0.8-1.9-1.9-1.9c-0.9,0-2.1,0-3.3,0
		c-0.2,0-0.3,0-0.4-0.1C9.3,12.4,9.3,12.3,9.4,12.1L9.4,12.1z M7.3,21.2c0.7-2.8,1.2-5.1,1.7-7.3c0.1-0.4,0.2-0.5,0.6-0.5
		c0.7,0,1.3,0,2,0c0.5,0,0.9,0,1.4,0c0.8,0,1.1,0.4,1.1,1.1c0,0.4,0,0.9,0,1.4c0,0.4,0,0.8,0,1.2c0,0.9,0.5,1.5,1.3,1.5h0
		c0.4,0,0.7-0.1,0.9-0.4c0.3-0.3,0.4-0.7,0.4-1.2v-0.2c0-0.4,0-0.8,0-1.2c0-0.1,0-0.2,0.1-0.3c0.1-0.1,0.2-0.1,0.3-0.1h0
		c0.9,0,1.3-0.4,1.5-1.3c0-0.2,0.1-0.5,0.3-0.5c0.5-0.1,0.9-0.1,1.4-0.1c0.1,0,0.2,0,0.3,0c0.2,0,0.2,0.2,0.2,0.3c0,0,0,0,0,0.1
		c0.2,0.7,0.3,1.4,0.5,2c0.4,1.8,0.8,3.7,1.3,5.5c0,0.2,0,0.3,0,0.4c-0.1,0.1-0.2,0.1-0.4,0.1h0c-1.9,0-3.7,0-5.6,0h-1.8
		c-1.2,0-2.4,0-3.7,0c-1.2,0-2.3,0-3.5,0h0c-0.2,0-0.4,0-0.4-0.1S7.2,21.5,7.3,21.2L7.3,21.2z M28.3,23.4c-0.4,0.7-1,1.1-1.8,1.2
		c-0.2,0-0.4,0-0.5,0c-1.9,0-3.8,0-5.7,0c-5.3,0-10.7,0-16.1,0h0c-1.1,0-1.9-0.4-2.4-1.2c-0.2-0.3-0.2-0.5-0.2-0.6
		c0.1-0.1,0.3-0.1,0.6-0.1c8.6,0,17.1,0,25.7,0c0.3,0,0.5,0,0.6,0.1C28.5,22.9,28.4,23.1,28.3,23.4L28.3,23.4z"/>
</g>
</svg>
