<?xml version="1.0" encoding="utf-8"?>
<!-- Generator: Adobe Illustrator 25.1.0, SVG Export Plug-In . SVG Version: 6.00 Build 0)  -->
<svg version="1.1" id="Layer_1" xmlns="http://www.w3.org/2000/svg" xmlns:xlink="http://www.w3.org/1999/xlink" x="0px" y="0px"
	 width="30px" height="30px" viewBox="0 0 30 30" style="enable-background:new 0 0 30 30;" xml:space="preserve">
<style type="text/css">
	.st0{fill:#111E6C;}
</style>
<g id="Group">
	<path id="Vector" class="st0" d="M24.7,8.1c0.7-0.2,1.1-0.7,1-1.4c-0.1-0.8-0.6-1.3-1.6-1.3h-0.6c-3.5,0-7.1,0-10.7,0h0
		c-0.4,0-0.6-0.1-0.8-0.5c-0.4-1-0.9-2.1-1.4-3.1c-0.3-0.6-0.7-1-1.2-1.2C9,0.5,8.5,0.6,8.1,0.8C7.6,1.1,7.3,1.5,7.1,2
		C7,2.5,7.1,3.1,7.4,3.6C7.7,4,7.9,4.3,8.2,4.7c0.1,0.2,0.3,0.4,0.4,0.6l0.1,0.1H8.5c-0.4,0-0.8,0-1.1,0c-0.3,0-0.7,0-1,0
		c-0.5,0-0.9,0-1.4,0C4.3,5.5,3.8,6,3.7,6.7C3.6,7.4,4.1,8,4.7,8.1c0.4,0.1,0.5,0.3,0.5,0.7c0.2,2.7,0.4,5.4,0.6,8.1
		C6,19.6,6.2,22.3,6.4,25C6.5,26.2,7,27,8,27.3c0.3,0.1,0.4,0.2,0.4,0.5c0.2,1,0.9,1.6,1.9,1.6c2.9,0,5.9,0,8.7,0
		c1,0,1.7-0.6,1.9-1.6c0.1-0.3,0.2-0.4,0.4-0.5c1-0.4,1.5-1.1,1.6-2.1c0.1-1,0.2-2.1,0.2-3.1c0-0.6,0.1-1.1,0.1-1.7
		c0.1-1.2,0.2-2.3,0.3-3.5c0.2-2.7,0.4-5.5,0.6-8.3C24.3,8.4,24.4,8.2,24.7,8.1L24.7,8.1z M8.6,3.8C8.4,3.6,8.3,3.4,8.2,3.2
		C8,2.9,7.9,2.5,8,2.2C8,2,8.2,1.7,8.4,1.6C8.7,1.5,9,1.4,9.2,1.5C9.5,1.6,9.8,1.9,10,2.2c0.2,0.3,0.3,0.7,0.4,1
		c0.2,0.5,0.5,1,0.7,1.6c0.1,0.3,0.2,0.4,0.1,0.5c-0.1,0.1-0.2,0.1-0.5,0.1c-0.1,0-0.1,0-0.2,0c0,0-0.1,0-0.2,0c-0.1,0-0.2,0-0.2,0
		c-0.4,0-0.7-0.4-0.9-0.7C9,4.4,8.8,4.1,8.6,3.8L8.6,3.8z M20,28L20,28c-0.2,0.4-0.6,0.5-1,0.5h-2.2c-2.2,0-4.3,0-6.5,0
		c-0.3,0-0.5-0.1-0.7-0.2c-0.2-0.1-0.5-0.4-0.4-0.7c0.1-0.2,0.3-0.2,0.5-0.1c0.1,0,0.1,0,0.2,0c1.2,0,2.5,0,3.7,0h2.1
		c1.3,0,2.6,0,4,0h0c0.1,0,0.3,0,0.4,0.1C20.2,27.7,20.1,27.9,20,28L20,28z M22.2,24.2c-0.1,1.8-0.3,2.4-2.4,2.4c-0.1,0-0.1,0-0.2,0
		c-2.4,0-4.9,0-7.3,0c-1.1,0-2.1,0-3.2,0c-1.4,0-1.8-0.4-1.9-1.7c-0.1-0.6-0.1-0.9,0.1-1.1c0.2-0.2,0.5-0.2,1.1-0.2h6.4
		c1.2,0,2.3,0,3.5,0c1.1,0,2.3,0,3.4,0h0c0.2,0,0.4,0,0.5,0.1S22.2,24,22.2,24.2z M22.4,22.2c0,0.4-0.2,0.5-0.6,0.5h0
		c-4.6,0-9.4,0-14.1,0c-0.4,0-0.6-0.1-0.6-0.5c-0.2-3.2-0.5-6.5-0.7-9.7c0-0.2,0-0.3,0.1-0.4C6.5,12,6.7,12,6.9,12c2,0,4.1,0,6.1,0
		h1.8h1.8c2,0,4,0,6.1,0c0.2,0,0.4,0,0.5,0.1c0.1,0.1,0.1,0.2,0.1,0.4C22.9,15.7,22.6,18.9,22.4,22.2L22.4,22.2z M23.4,8.8
		c-0.1,0.6-0.1,1.3-0.1,2c0,0.3-0.2,0.5-0.5,0.5c-5.3,0-10.7,0-16,0c-0.3,0-0.5-0.1-0.5-0.5c0-0.7-0.1-1.3-0.1-2
		c0-0.2,0-0.4,0.1-0.5c0.1-0.1,0.3-0.1,0.5-0.1c2,0,4.1,0,6.1,0h2h2c2,0,4.1,0,6.1,0h0c0.2,0,0.4,0,0.5,0.1
		C23.4,8.4,23.4,8.6,23.4,8.8L23.4,8.8z M24,7.4L24,7.4c-2.6,0-5.2,0-7.8,0H5.5c0,0-0.1,0-0.1,0c-0.1,0-0.2,0-0.2,0
		c-0.4,0-0.6-0.2-0.6-0.6c0-0.3,0.2-0.5,0.5-0.5c0.1,0,0.2,0,0.3,0h0.1c6.2,0,12.3,0,18.5,0c0.1,0,0.1,0,0.2,0c0.1,0,0.2,0,0.3,0
		c0.3,0.1,0.5,0.2,0.5,0.5c0,0.3-0.2,0.5-0.4,0.5C24.3,7.4,24.1,7.4,24,7.4z"/>
	<path id="Vector_2" class="st0" d="M16.7,15.1c0-0.1,0.1-0.2,0.2-0.3c0.2-0.2,0.2-0.4,0.1-0.6c-0.1-0.2-0.3-0.2-0.5-0.1
		c-0.1,0-0.1,0.1-0.2,0.1c-0.1,0-0.2,0.1-0.3,0.1c-0.4,0.1-0.6,0.2-0.7,0.1c-0.1-0.1-0.1-0.3-0.1-0.7c0,0,0-0.1,0-0.1
		c0-0.2,0-0.3-0.1-0.4c-0.1-0.1-0.3-0.2-0.4-0.1c-0.3,0.1-0.3,0.3-0.3,0.6v0.1c0,0.4,0,0.6-0.2,0.7c-0.1,0.1-0.3,0-0.7-0.1
		c-0.1-0.1-0.3-0.1-0.4-0.2c-0.3-0.1-0.5-0.1-0.6,0.1c-0.1,0.1-0.1,0.2-0.1,0.3c0,0.1,0.1,0.2,0.2,0.2c0.1,0.1,0.2,0.2,0.2,0.3
		c0,0.1-0.1,0.2-0.2,0.3l0,0c-0.4,0.4-0.6,0.9-0.6,1.5c0,1.1,0.6,2.6,1.4,3.5c0.4,0.5,1,0.8,1.5,0.8h0c0.5,0,1-0.3,1.5-0.8
		c0.6-0.7,1.1-1.7,1.3-2.9c0.2-0.9,0-1.6-0.6-2.2C16.7,15.3,16.7,15.2,16.7,15.1L16.7,15.1z M16.6,17.9c-0.2,0.9-0.6,1.6-1.1,2.1
		c-0.3,0.3-0.5,0.4-0.8,0.4c-0.3,0-0.5-0.1-0.8-0.4c-0.7-0.7-1.1-1.6-1.2-2.7c0-0.9,0.5-1.5,1.5-1.7c0.8-0.2,1.5,0,2,0.5
		C16.6,16.4,16.8,17.1,16.6,17.9L16.6,17.9z"/>
</g>
</svg>
