<?xml version="1.0" encoding="utf-8"?>
<!-- Generator: Adobe Illustrator 25.1.0, SVG Export Plug-In . SVG Version: 6.00 Build 0)  -->
<svg version="1.1" id="Layer_1" xmlns="http://www.w3.org/2000/svg" xmlns:xlink="http://www.w3.org/1999/xlink" x="0px" y="0px"
	 width="30px" height="30px" viewBox="0 0 30 30" style="enable-background:new 0 0 30 30;" xml:space="preserve">
<style type="text/css">
	.st0{fill:#111E6C;}
</style>
<g id="Group">
	<path id="Vector" class="st0" d="M21.5,20.1c0,2.5,0,4.9,0,7.4c0,1.3-0.6,2-2,2c-3.1,0-6.1,0-9.2,0c-1.3,0-2-0.6-2-2
		c0-4.8,0-9.7,0-14.5c0-1.1,0.3-2.1,0.7-3.1C10,8.2,10.8,6.6,11.6,5c0.2-0.5,0.1-0.9,0.2-1.4c0-0.1-0.1-0.2-0.1-0.2
		c-0.6-0.1-0.5-0.7-0.5-1.1c0-1.9-0.1-1.7,1.7-1.7c1.7,0,3.4,0,5.1,0c0.7,0,0.8,0.1,0.8,0.8c0,0.4,0,0.8,0,1.2c0,0.4,0,0.7-0.5,0.8
		c-0.2,0.1-0.3,1-0.1,1.5c0.3,0.6,0.6,1.3,1,1.9c0.5,1,1,2.1,1.6,3.1c0.5,1,0.8,2,0.7,3.1C21.5,15.3,21.5,17.7,21.5,20.1L21.5,20.1z
		 M20.6,20c0-2.2,0-4.4,0-6.6c0-1.3-0.2-2.5-0.9-3.6c-0.4-0.7-0.3-0.7-0.9-0.3c-1,0.7-1.9,0.7-2.9,0c-0.7-0.5-1.1-0.5-1.8,0
		c-1,0.7-1.9,0.7-2.9,0c-0.1-0.1-0.3-0.2-0.4-0.2c-0.2-0.1-0.3-0.1-0.4,0.1c-0.6,1.1-1.1,2.1-1.1,3.4c0,4.9,0,9.7,0,14.6
		c0,0.8,0.2,1.1,1.1,1.1c3,0,6,0,9.1,0c0.9,0,1.1-0.2,1.1-1.1C20.6,24.9,20.6,22.5,20.6,20z M17.3,9.2c0.6,0.1,0.9-0.4,1.3-0.6
		c0.3-0.1,0.3-0.2,0.1-0.5c-0.3-0.6-0.6-1.3-1-2c-0.4-0.7-0.8-1.5-0.6-2.4c0.1-0.4-0.2-0.4-0.4-0.4c-1.2,0-2.4,0-3.6,0
		c-0.4,0-0.5,0.2-0.4,0.5c0.1,0.7-0.1,1.4-0.5,2c-0.4,0.7-0.8,1.5-1.1,2.2C11,8.2,10.9,8.3,11,8.5c0.5,0.7,1.7,0.9,2.5,0.4
		c1-0.7,1.9-0.7,2.9,0C16.7,9,17,9.2,17.3,9.2L17.3,9.2z M14.9,2.4c0.8,0,1.6,0,2.4,0c0.4,0,0.5-0.1,0.5-0.5c0-0.3-0.1-0.5-0.4-0.4
		c-1.6,0-3.2,0-4.8,0c-0.3,0-0.4,0.1-0.5,0.4c0,0.4,0.1,0.5,0.5,0.5C13.3,2.4,14.1,2.4,14.9,2.4L14.9,2.4z"/>
	<path id="Vector_2" class="st0" d="M10.2,17.9c0-1.6,0-3.3,0-4.9c0-0.6,0.1-1.2,0.4-1.8c0.1-0.3,0.3-0.5,0.6-0.4
		c0.3,0.1,0.4,0.4,0.3,0.7c-0.3,0.7-0.3,1.4-0.3,2.2c0,3.1,0,6.2,0,9.3c0,0.2,0,0.3,0,0.5c0,0.3-0.2,0.4-0.4,0.4
		c-0.3,0-0.4-0.2-0.5-0.4c0-0.1,0-0.3,0-0.5C10.2,21.3,10.2,19.6,10.2,17.9L10.2,17.9z"/>
	<path id="Vector_3" class="st0" d="M11.1,26.2c0,0.3,0,0.6,0,0.9c0,0.3-0.2,0.4-0.4,0.4c-0.3,0-0.5-0.1-0.5-0.4c0-0.6,0-1.3,0-2
		c0-0.2,0.2-0.4,0.5-0.4c0.2,0,0.4,0.2,0.4,0.4C11.1,25.6,11.1,25.9,11.1,26.2z"/>
	<path id="Vector_4" class="st0" d="M15,4.3c0.3,0,0.6,0,0.8,0c0.3,0,0.4,0.2,0.4,0.4s-0.1,0.5-0.4,0.5c-0.6,0-1.2,0-1.8,0
		c-0.3,0-0.4-0.2-0.4-0.5c0-0.2,0.2-0.4,0.4-0.4C14.4,4.3,14.7,4.3,15,4.3L15,4.3z"/>
</g>
</svg>
