<?xml version="1.0" encoding="utf-8"?>
<!-- Generator: Adobe Illustrator 25.1.0, SVG Export Plug-In . SVG Version: 6.00 Build 0)  -->
<svg version="1.1" id="Layer_1" xmlns="http://www.w3.org/2000/svg" xmlns:xlink="http://www.w3.org/1999/xlink" x="0px" y="0px"
	 width="30px" height="30px" viewBox="0 0 30 30" style="enable-background:new 0 0 30 30;" xml:space="preserve">
<style type="text/css">
	.st0{fill:#111E6C;}
</style>
<g id="Group_7">
	<path id="Vector" class="st0" d="M28.7,15.5c-0.1-0.6-0.6-0.9-1.5-0.9c-0.4,0-0.8,0.1-1-0.1c-0.2-0.2,0.1-0.7,0.1-1
		c0.1-1.4-0.1-2.7-1.3-3.7c-0.2-0.2-0.1-0.3-0.1-0.5c0.1-0.6,0-1.1-0.4-1.6c-0.4-0.7-1.1-1.1-1.9-1.3c-0.2-0.1-0.4-0.1-0.3-0.4
		c0.4-1.2,0.1-2.2-0.6-3.1c-0.7-0.9-1.6-1.6-2.7-2.1c-0.6-0.3-0.8-0.1-0.8,0.5c0,1.9-0.8,2.8-2.7,3.2c-1.3,0.3-2.6,0.2-3.9,0.3
		C9.4,4.9,7.9,6.2,7.5,8.4C7.4,8.7,7.2,8.7,7,8.8c-1.4,0.5-2.3,1.5-2.6,2.9c-0.2,1,0,1.9,0.3,2.8c-0.1,0-0.1,0-0.2,0
		c-0.4,0-0.8,0-1.2,0c-0.8,0-1.2,0.3-1.4,0.9c-0.2,0.7-0.2,1.8,0.4,2.2c0.4,0.2,0.5,0.5,0.5,0.9C3.1,21,4.1,23.3,6,24.9
		c1.1,0.9,1.5,1.8,1.4,3.2c-0.1,0.8,0.5,1.3,1.3,1.3c4.4,0,8.9,0,13.3,0c0.8,0,1.3-0.5,1.3-1.3c0-0.5,0-1.1,0-1.6
		c0-0.2,0.1-0.4,0.3-0.6c2.5-1.9,4-4.4,4.3-7.6c0-0.3,0.1-0.4,0.3-0.6C28.9,17.3,29,16.4,28.7,15.5L28.7,15.5z M6.9,9.8
		C7.2,9.6,7.4,9.5,7.5,10c0.2,0.9,0.9,1.5,1.8,1.9C9.6,12,9.8,12,10,11.7c0.1-0.3,0-0.5-0.3-0.6c-2-0.6-1.8-3.5-0.3-4.6
		c0.8-0.7,1.8-1,2.8-1c1.3,0,2.5,0,3.8-0.4c1.7-0.4,2.9-1.3,3-3.2c0-0.3,0.1-0.3,0.4-0.2c0.8,0.5,1.4,1,1.9,1.8
		c0.6,1.1,0.5,2.1-0.5,2.9c-1.2,1-2.7,1.3-4.2,1.3c-0.1,0-0.2,0-0.3,0c-0.3,0-0.6,0-0.6,0.4c0,0.3,0.3,0.4,0.5,0.4
		c1.9,0.1,3.7-0.2,5.2-1.5C21.5,7.1,21.6,7,21.8,7c0.8,0.2,1.6,0.4,2.1,1.1c0.4,0.7,0.2,1.4-0.1,2c-0.6,1-1.6,1.5-2.8,1.7
		c-0.1,0-0.2,0-0.3,0c-0.3,0-0.5,0.1-0.5,0.5c0,0.3,0.3,0.4,0.6,0.4c1.4-0.1,2.7-0.7,3.5-1.8c0.4-0.5,0.5-0.5,0.8,0
		c0.7,1.1,0.6,2.2,0.3,3.4c-0.1,0.4-0.4,0.2-0.6,0.2c-3.1,0-6.1,0-9.2,0c-3.1,0-6.1,0-9.2,0c-0.4,0-0.6-0.2-0.8-0.5
		C4.7,12.4,5.4,10.5,6.9,9.8L6.9,9.8z M21.1,28.5c-4,0-8.1,0-12.1,0c-0.8,0-0.8,0-0.8-0.8c0-0.3,0-0.7,0-1c0-0.4,0.1-0.5,0.5-0.5
		c1.6,0,3.3,0,4.9,0h0.5c0.1,0,0.1,0,0.2,0h2.4c0,0,0,0,0,0c1.6,0,3.2,0,4.8,0c0.9,0,0.9,0,0.9,1C22.4,28.7,22.6,28.5,21.1,28.5
		L21.1,28.5z M27,18.5c-0.4,2.8-1.7,5-3.9,6.7c-0.3,0.2-0.5,0.3-0.8,0.3c-1.6,0-3.2,0-4.8,0h-0.7c-0.1,0-0.1,0-0.2,0h-3
		c-1.7,0-3.5,0-5.2,0c-0.3,0-0.6-0.1-0.8-0.3c-2.2-1.7-3.5-3.9-3.9-6.6c-0.1-0.5,0.1-0.6,0.6-0.6c3.3,0,6.5,0,9.8,0h3.4
		c3,0,6,0,9.1,0C27,17.9,27.1,18.1,27,18.5L27,18.5z M27.9,16.8c-0.2,0.3-0.5,0.2-0.7,0.2c-3.3,0-6.5,0-9.8,0c0,0,0,0,0,0H14
		c-3.5,0-7,0-10.5,0c-0.3,0-0.6,0.1-0.7-0.2c-0.1-0.4-0.2-0.8,0-1.2c0.1-0.3,0.5-0.2,0.7-0.2c2.5,0,5,0,7.5,0c1.5,0,2.9,0,4.4,0
		c3.9,0,7.8,0,11.7,0C27.9,15.4,28.3,16.1,27.9,16.8L27.9,16.8z"/>
</g>
</svg>
