<svg width="30" height="30" viewBox="0 0 30 30" fill="none" xmlns="http://www.w3.org/2000/svg">
<g id="Group 4">
<path id="Vector" d="M29.3095 18.9735C29.4595 18.5175 29.3035 18.3915 29.1055 18.3195C28.9735 18.2715 28.8715 18.2715 28.7815 18.3195C28.6735 18.3735 28.5895 18.4935 28.5235 18.6795C28.4575 18.8655 28.3795 19.0455 28.2955 19.2195C28.2595 19.3035 28.2175 19.3875 28.1815 19.4715C28.0915 19.6755 27.9835 19.8735 27.7915 19.9155C27.5875 19.9635 27.3835 19.8135 27.2335 19.6755C25.7155 18.3315 23.4175 18.3495 22.0135 19.7235C21.2515 20.4675 20.3935 20.6475 19.6495 20.7255C18.9835 20.7975 18.6475 20.8335 18.4795 20.6355C18.3115 20.4375 18.3955 20.1315 18.5755 19.4535C18.6235 19.2675 18.6715 19.0875 18.7195 18.9015C18.9775 17.8995 19.2355 16.8675 19.8715 15.9675C20.1115 15.6315 20.3335 15.4035 20.8615 15.7575C21.9895 16.5195 23.2615 16.6995 24.6475 16.2975C24.7015 16.2795 24.7375 16.2615 24.7795 16.2435H24.7855C24.7855 16.2435 27.8035 15.3375 27.7915 11.7375C27.7915 11.7015 27.7915 11.6655 27.7915 11.6295C27.7255 10.9935 27.5695 10.4475 27.2995 9.95555C27.1615 9.69755 27.1555 9.49954 27.2875 9.24754C27.9415 7.98754 27.9835 6.63754 27.3895 5.52754C26.8075 4.43554 25.6735 3.72155 24.2935 3.57155C24.0235 3.54155 23.8435 3.45154 23.6755 3.24754C21.5395 0.721542 18.7975 -0.0164599 15.7435 1.11754C15.4855 1.21354 15.2815 1.20755 15.0475 1.10555C13.7575 0.535547 12.4135 0.583547 11.3635 1.23755C10.3075 1.89155 9.66553 3.07355 9.59353 4.48955C9.58153 4.77155 9.48553 4.94555 9.25753 5.10755C7.44553 6.39155 6.74953 8.32954 7.40353 10.2975C8.05753 12.2655 9.77953 13.4115 11.9815 13.3575C12.5575 13.3395 12.6295 13.6575 12.6535 14.0115C12.7435 15.2715 12.4015 16.4595 12.0715 17.6055C11.9035 18.1875 11.7355 18.7815 11.6155 19.3935L11.5675 19.6395L11.3695 19.4835C10.3795 18.6855 9.85753 17.7975 9.73153 16.6875C9.52153 14.9175 8.31553 13.6215 6.57553 13.3095C6.08353 13.2195 5.94553 12.9615 5.89753 12.5655C5.77753 11.6835 5.28553 11.0475 4.43353 10.6755C4.12753 10.5435 3.82753 10.4955 3.52153 10.4955C3.17353 10.4955 2.81353 10.5555 2.44753 10.6215L2.17753 10.6695C2.03953 10.6935 1.94353 10.8135 1.94353 10.9755C1.96153 12.0675 2.05753 13.1055 3.05353 13.7655C3.19153 13.8555 3.31753 13.9575 3.33553 14.1075C3.35353 14.2635 3.25153 14.3895 3.13153 14.5215C2.38153 15.3435 2.05753 16.3095 2.16553 17.3775C2.26753 18.3795 2.04553 19.3095 1.48753 20.2215C-0.0424685 22.7235 0.449531 25.9455 2.65153 27.8775C4.88353 29.8335 8.06353 29.9175 10.3915 28.0755C10.7155 27.8235 10.9735 27.7875 11.3455 27.9675C16.1095 30.2055 20.7415 29.8275 25.1155 26.8395C25.1455 26.8155 25.1755 26.7975 25.2055 26.7735C25.3135 26.6895 25.4395 26.5995 25.6135 26.5695C26.6395 26.3835 27.5815 25.6815 28.1455 24.6915C28.7395 23.6475 28.8235 22.4355 28.3975 21.2955C28.2655 20.9475 28.3615 20.7195 28.5415 20.4915C28.8715 20.0775 29.1295 19.5855 29.3335 18.9855L29.3095 18.9735ZM9.98353 12.1155C8.70553 11.4495 8.02153 10.3335 8.01553 8.90555C8.00953 7.44755 8.67553 6.34955 9.98953 5.64155C10.3735 5.43155 10.5415 5.30554 10.4755 4.94554C10.2655 3.72754 10.6915 2.72554 11.7055 2.03554C12.7375 1.33354 13.8655 1.32755 14.9635 2.02355C15.1975 2.17355 15.3955 2.17954 15.6715 2.05954C18.6115 0.763544 21.3055 1.48955 23.2555 4.10555C23.4235 4.32755 23.5855 4.41154 23.8435 4.39954C25.1335 4.35154 26.0935 4.89154 26.6455 5.96554C27.2095 7.06354 27.0955 8.16755 26.3155 9.15755C26.1115 9.42155 26.1055 9.63754 26.2975 9.90154C26.6755 10.4295 26.8975 11.0415 26.9515 11.7195C26.9515 11.7195 27.2695 14.8215 24.4075 15.4755C22.4095 15.9675 20.9215 15.3015 19.9795 13.4955C19.8115 13.1715 19.6375 13.0875 19.2715 13.1415C17.5735 13.4055 16.0555 13.0275 14.7655 12.0195C14.3155 11.6715 14.0395 11.6535 13.5895 11.9535C12.4555 12.6975 11.2135 12.7515 9.98353 12.1155ZM12.6235 18.7155C12.6955 18.5235 12.7435 18.3195 12.7915 18.1215L12.8455 17.9115C12.8875 17.7375 12.9655 17.6235 13.0675 17.5695C13.1215 17.5395 13.2115 17.5155 13.3315 17.5515L13.6315 17.6235C13.8175 17.6655 13.9855 17.7075 14.1595 17.7435C14.3515 17.7855 14.6035 17.7675 14.6935 17.4555C14.7175 17.3655 14.8015 17.1015 14.3755 16.9395C14.2735 16.9035 14.1415 16.8855 14.0155 16.8735C13.7455 16.8435 13.4335 16.8075 13.3135 16.5375C13.2115 16.3155 13.2895 16.0455 13.3615 15.7875C13.3975 15.6615 13.4335 15.5295 13.4455 15.4155C13.5235 14.6955 13.5175 14.0595 13.4275 13.4715C13.3915 13.2495 13.4035 13.0035 13.7275 12.8595C13.7575 12.8475 13.7875 12.8295 13.8115 12.8175C13.9615 12.7395 14.1655 12.6375 14.4355 12.8295C15.7435 13.7595 17.2435 14.1675 18.8935 14.0355C19.2415 14.0055 19.3855 14.2155 19.5055 14.3775L19.5475 14.4375C19.7875 14.7615 19.5715 14.9955 19.4575 15.1215C19.2235 15.6435 18.9355 15.9615 18.5815 16.0935C18.2455 16.2195 17.8615 16.1835 17.4055 15.9735C17.2975 15.9255 17.1955 15.9195 17.1055 15.9615C16.9975 16.0155 16.9135 16.1295 16.8775 16.2855C16.8355 16.4475 16.8475 16.6335 17.2315 16.7895C17.3215 16.8255 17.4355 16.8375 17.5555 16.8495C17.8195 16.8735 18.1495 16.9035 18.2455 17.2515C18.3115 17.4915 18.2095 17.7495 18.1135 18.0015C18.0715 18.1035 18.0355 18.2055 18.0055 18.3075L17.9035 18.6915C17.7715 19.1835 17.6395 19.6755 17.5195 20.1675C17.4895 20.2935 17.4355 20.4495 17.3035 20.5215C17.2435 20.5575 17.1775 20.5695 17.1175 20.5695C17.0395 20.5695 16.9555 20.5515 16.8955 20.5275C16.4335 20.3835 15.8935 20.2035 15.3955 19.9335C14.5915 19.4955 13.8475 19.2915 13.0915 19.3035C12.9115 19.3035 12.7315 19.2915 12.6355 19.1595C12.5395 19.0215 12.5875 18.8415 12.6355 18.7215L12.6235 18.7155ZM2.82553 11.8635C2.78353 11.4615 3.01753 11.3715 3.24553 11.3295C3.69553 11.2515 4.18153 11.4015 4.55353 11.7255C4.91953 12.0435 5.11753 12.4755 5.10553 12.9195C5.10553 13.0755 5.05753 13.1835 4.97953 13.2495C4.86553 13.3455 4.72753 13.3275 4.61953 13.3155C4.58353 13.3155 4.53553 13.3035 4.51753 13.3155L4.47553 13.3455H4.43353C3.56953 13.3335 2.90353 12.7215 2.81953 11.8635H2.82553ZM9.83353 27.3435C9.77353 27.5715 9.53953 27.6915 9.02353 27.9615C8.24953 28.3575 7.42753 28.5555 6.61153 28.5555C5.20153 28.5555 3.82753 27.9795 2.80153 26.8755C1.19353 25.1475 0.953532 22.6275 2.20753 20.5995C2.83753 19.5855 3.07753 18.6195 2.98153 17.4795C2.93953 17.1495 2.92153 16.5015 3.22753 15.8295C3.78553 14.6175 5.04553 13.8915 6.28153 14.0775C7.63753 14.2815 8.69953 15.3255 8.86153 16.6215C9.02353 17.9175 9.46753 18.8655 10.2475 19.5915C10.3435 19.6815 10.4455 19.7955 10.4395 19.9515C10.4395 20.1075 10.3135 20.2215 10.2115 20.3055C10.1155 20.3835 10.0255 20.4915 9.94153 20.5935C9.77953 20.7855 9.61153 20.9895 9.37753 21.0495C9.08353 21.1275 8.87353 20.9055 8.68753 20.7135C8.59753 20.6235 8.50753 20.5275 8.41153 20.4735C6.98953 19.6275 5.18953 19.9275 4.12753 21.1815C3.07153 22.4295 3.06553 24.2355 4.10953 25.4715C5.20153 26.7615 6.99553 27.0675 8.36953 26.1855C8.90953 25.8435 9.13753 25.9875 9.41353 26.4135L9.46153 26.4855C9.73753 26.9115 9.88153 27.1215 9.82153 27.3435H9.83353ZM8.60953 24.3735C8.71753 24.8175 8.50153 25.0695 8.27953 25.2555C7.82353 25.6335 7.25353 25.8255 6.68353 25.8255C6.19753 25.8255 5.71753 25.6875 5.29753 25.4115C4.38553 24.8055 3.97153 23.6535 4.28953 22.5975C4.60753 21.5475 5.59153 20.8395 6.74353 20.8395H6.75553C7.21753 20.8275 7.69153 20.9775 8.12353 21.2835C8.55553 21.5955 8.99953 21.9915 8.68753 22.7775C8.50153 23.2515 8.47753 23.8155 8.61553 24.3675L8.60953 24.3735ZM24.6235 26.1615C22.4275 27.7155 19.9795 28.5195 17.3455 28.5555C15.1915 28.5315 13.2715 28.0575 11.4655 27.0975C9.56353 26.0835 8.85553 23.9355 9.80953 22.1055C10.7695 20.2635 12.9355 19.6155 14.8435 20.6055C17.0275 21.7395 19.2595 21.9255 21.4795 21.1635C21.9595 21.0015 22.2535 21.2295 22.4935 21.4095C22.5655 21.4635 22.6315 21.5175 22.7095 21.5595C22.8235 21.6255 22.8955 21.7095 22.9195 21.8115C22.9555 21.9735 22.8655 22.1175 22.7935 22.2315C22.7635 22.2855 22.7275 22.3335 22.7155 22.3695C22.4815 23.2155 22.3795 23.7615 22.5715 24.0435C22.7635 24.3255 23.2975 24.4335 24.1555 24.5175C24.1915 24.5175 24.2515 24.5115 24.3115 24.4995C24.4495 24.4755 24.6295 24.4455 24.7555 24.5535C24.8335 24.6195 24.8755 24.7215 24.8755 24.8595C24.8755 24.9495 24.8995 25.0455 24.9235 25.1475C24.9895 25.4355 25.0855 25.8255 24.6235 26.1495V26.1615ZM26.6515 25.1415C26.6215 25.1655 26.5855 25.1955 26.5555 25.2255C26.4475 25.3275 26.2915 25.4715 26.1055 25.4715C26.0455 25.4715 25.9795 25.4535 25.9075 25.4175C25.6975 25.2975 25.7155 25.0635 25.7335 24.9075C25.7335 24.8475 25.7455 24.7875 25.7335 24.7515V24.7395V24.7215C25.7455 24.1515 25.7515 23.8095 25.6375 23.7015C25.5235 23.5935 25.1875 23.6175 24.6235 23.6535C24.5335 23.6535 24.4615 23.6655 24.3895 23.6775C24.0655 23.7195 23.6575 23.7615 23.4475 23.4495C23.2255 23.1195 23.4175 22.7595 23.5735 22.4655C23.6095 22.3935 23.6515 22.3215 23.6815 22.2555C23.7295 22.1475 23.7955 22.0575 23.8555 21.9675C23.8795 21.9315 23.9035 21.8895 23.9275 21.8535C24.0655 21.6315 24.1135 21.4695 24.0775 21.3555C24.0415 21.2355 23.8975 21.1335 23.6515 21.0315C23.5855 21.0075 23.5075 20.9775 23.4295 20.9535C23.0995 20.8455 22.6855 20.7075 22.7155 20.3475C22.7455 19.9515 23.2195 19.8135 23.5975 19.7055L23.7355 19.6635C25.1755 19.2255 26.7295 19.8735 27.4375 21.2055C28.1395 22.5315 27.8035 24.2235 26.6515 25.1415Z" fill="#111E6C"/>
</g>
</svg>
