<?xml version="1.0" encoding="utf-8"?>
<!-- Generator: Adobe Illustrator 25.1.0, SVG Export Plug-In . SVG Version: 6.00 Build 0)  -->
<svg version="1.1" id="Layer_1" xmlns="http://www.w3.org/2000/svg" xmlns:xlink="http://www.w3.org/1999/xlink" x="0px" y="0px"
	 width="30px" height="30px" viewBox="0 0 30 30" style="enable-background:new 0 0 30 30;" xml:space="preserve">
<style type="text/css">
	.st0{fill:#111E6C;}
</style>
<g id="Group">
	<path id="Vector" class="st0" d="M14.9,0.6c2,0,4,0,6.1,0c1.3,0,2,0.7,2,2c0,0.6,0.2,1.3-0.2,1.7c-0.5,0.5-0.2,0.9,0.1,1.3
		c0.4,0.5,0.7,1.1,1.2,1.6c0.4,0.5,0.3,0.8-0.1,1.2c-0.1,0.1-0.3,0.3-0.5,0.4c-0.3,0.1-0.3,0.3-0.2,0.6c0.7,1.8,1,3.6,1,5.5
		c0,3.6,0,7.1,0,10.7c0,2.3-1.5,3.8-3.8,3.8c-3.8,0-7.5,0-11.3,0c-2.2,0-3.8-1.5-3.8-3.8c0-3.6,0-7.2,0-10.9c0-1.8,0.3-3.6,1-5.3
		C6.5,9.2,6.5,9,6.2,8.8C6,8.7,5.9,8.5,5.7,8.4C5.4,8,5.3,7.7,5.7,7.3c0.5-0.7,1-1.4,1.5-2.1c0.1-0.2,0.2-0.3,0-0.5
		C6.8,4.4,6.7,4,6.8,3.6c0-0.3,0-0.7,0-1c0-1.3,0.7-2,2-2C10.8,0.6,12.8,0.6,14.9,0.6L14.9,0.6z M14.8,25.3c2.7,0,5.3,0,8,0
		c0.5,0,0.6-0.2,0.6-0.6c0-0.4,0-0.8,0-1.2c0-0.3-0.1-0.4-0.4-0.4c-0.8,0-1.7,0-2.5,0c-0.3,0-0.6-0.1-0.6-0.5c0-0.4,0.3-0.5,0.6-0.5
		c0.8,0,1.7,0,2.5,0c0.4,0,0.5-0.1,0.5-0.5c0-0.8,0-1.5,0-2.2c0-0.4-0.1-0.5-0.5-0.5c-0.8,0-1.7,0-2.5,0c-0.3,0-0.6-0.1-0.6-0.5
		c0-0.4,0.3-0.5,0.6-0.5c0.6,0,1.1,0,1.7,0c1.3,0,1.3,0,1.3-1.4c0-0.3-0.1-0.5-0.4-0.4c-0.5,0-1.1,0-1.6,0c-0.9,0.1-1.5-0.1-1.9-1.1
		c-1.2-2.4-3.7-3.5-6-2.7c-1.6,0.6-2.7,1.7-3.4,3.3c-0.2,0.4-0.4,0.6-0.8,0.6c-0.5,0-1,0-1.5,0c-1.4,0-1.4,0-1.3,1.4
		c0,0.3,0.1,0.4,0.4,0.4c0.8,0,1.7,0,2.5,0c0.3,0,0.6,0.1,0.6,0.4C9.9,19,9.6,19,9.2,19c-0.8,0-1.7,0-2.5,0c-0.3,0-0.4,0.1-0.4,0.4
		c0,0.8,0,1.6,0,2.4c0,0.3,0.1,0.4,0.4,0.4c0.9,0,1.8,0,2.6,0c0.3,0,0.5,0.1,0.5,0.5s-0.2,0.5-0.5,0.5c-0.4,0-0.9,0-1.3,0
		c-0.6,0-1.3-0.2-1.6,0.1c-0.3,0.3,0,1-0.1,1.6c-0.1,0.5,0.2,0.6,0.6,0.6C9.5,25.3,12.2,25.4,14.8,25.3L14.8,25.3z M21.8,15.4
		c0.6,0,0.9,0,1.3,0c0.3,0,0.3-0.1,0.3-0.3c0-2-0.3-3.9-1.1-5.7C22.3,9.2,22.2,9.1,22,9c-0.4-0.1-0.7-0.4-1-0.7
		c-0.6-0.7-1.3-0.7-1.9,0c-0.9,1.1-2.3,1.1-3.2,0c-0.6-0.7-1.3-0.7-1.9,0c-1,1.1-2.3,1.1-3.3,0c-0.6-0.7-1.3-0.7-1.9,0
		C8.5,8.6,8.2,8.9,7.9,9C7.5,9.1,7.4,9.3,7.3,9.6c-0.7,1.8-1,3.6-1,5.5c0,0.3,0.1,0.4,0.4,0.4c0.6,0,1.2,0,1.7,0
		c0.5,0,0.7-0.1,1-0.6c2.3-4.4,7.9-4.7,10.5-0.5C20.5,15.2,21,15.7,21.8,15.4L21.8,15.4z M14.8,4.2c1.9,0,3.9,0,5.8,0
		c1.5,0,1.4,0.1,1.4-1.4c0-1-0.3-1.3-1.3-1.3c-3.7,0-7.5,0-11.2,0c-1.9,0-1.9,0-1.9,1.9c0,0.7,0.1,0.8,0.8,0.8
		C10.6,4.2,12.7,4.2,14.8,4.2L14.8,4.2z M22.5,8.2c0.3,0,0.5-0.1,0.7-0.3c0.2-0.3-0.1-0.4-0.2-0.6c-0.4-0.6-0.9-1.2-1.3-1.8
		c-0.2-0.3-0.5-0.4-0.8-0.4c-4,0-8,0-12,0C8.5,5.1,8.2,5.2,8,5.5C7.6,6.1,7.2,6.7,6.7,7.3C6.6,7.5,6.3,7.7,6.5,7.9
		C6.7,8.2,7,8.3,7.3,8.2C7.6,8.2,7.8,8,8,7.8c1-1.2,2.3-1.2,3.3,0c0.6,0.7,1.3,0.7,1.9,0c1-1.1,2.3-1.1,3.3,0c0.6,0.7,1.3,0.7,1.9,0
		c1-1.2,2.3-1.2,3.3,0C21.9,8,22.1,8.2,22.5,8.2L22.5,8.2z M14.9,26.2c-2.7,0-5.4,0-8,0c-0.5,0-0.5,0.2-0.3,0.5
		c0.5,1.1,1.3,1.7,2.4,1.7c3.9,0,7.9,0,11.8,0c1.2,0,2-0.6,2.4-1.7c0.2-0.4,0.2-0.6-0.3-0.5C20.2,26.3,17.5,26.2,14.9,26.2
		L14.9,26.2z"/>
	<path id="Vector_2" class="st0" d="M14.5,24c-1.4-0.1-2.7-0.9-3.4-2.5c-0.7-1.6-0.4-3.1,0.8-4.4c0.3-0.3,0.3-0.5,0.1-0.8
		c-0.3-0.5-0.4-1.1-0.4-1.7c0-0.3,0.1-0.5,0.4-0.5c0.7-0.2,1.5-0.3,2.2,0.1c0.3,0.2,0.4,0.2,0.5-0.2c0-0.1,0.1-0.2,0.2-0.3
		c0.2-0.2,0.4-0.2,0.6-0.1c0.2,0.1,0.3,0.3,0.2,0.5c-0.1,0.2-0.2,0.4-0.3,0.6c-0.3,0.9-0.2,0.9,0.6,1.2c1.9,0.6,3.1,2.5,2.8,4.4
		C18.5,22.6,16.8,24,14.5,24L14.5,24z M11.7,19.9c0,1.7,1.4,3.1,3.1,3.2c1.7,0,3.1-1.4,3.2-3.1c0-1.7-1.4-3.1-3.1-3.2
		C13.1,16.8,11.7,18.2,11.7,19.9z M13.2,14.9c-0.6,0-0.7,0.1-0.5,0.6c0.2,0.7,0.3,0.8,1.1,0.5c0.2-0.1,0.5,0,0.5-0.2
		c0-0.3-0.1-0.5-0.4-0.7C13.7,14.9,13.4,14.9,13.2,14.9L13.2,14.9z"/>
	<path id="Vector_3" class="st0" d="M7.3,13.5c0.1-1.2,0.4-2.3,0.8-3.4c0.1-0.3,0.3-0.5,0.6-0.4c0.3,0.1,0.3,0.4,0.2,0.7
		c-0.4,1-0.7,2-0.8,3.1c0,0.3-0.1,0.6-0.5,0.6C7.3,14.2,7.3,13.8,7.3,13.5L7.3,13.5z"/>
	<path id="Vector_4" class="st0" d="M12.6,19.8c0-1,1.1-2.1,2.1-2.1c0.3,0,0.5,0.1,0.5,0.4c0,0.3-0.2,0.4-0.5,0.5
		c-0.8,0.1-1.2,0.5-1.3,1.3c0,0.3-0.2,0.5-0.5,0.4C12.7,20.4,12.6,20.1,12.6,19.8L12.6,19.8z"/>
	<path id="Vector_5" class="st0" d="M14.9,21.3c0.3,0,0.4,0.2,0.4,0.4c0,0.3-0.2,0.5-0.4,0.5c-0.3,0-0.4-0.2-0.4-0.5
		C14.4,21.5,14.6,21.3,14.9,21.3L14.9,21.3z"/>
</g>
</svg>
