<?xml version="1.0" encoding="utf-8"?>
<!-- Generator: Adobe Illustrator 25.1.0, SVG Export Plug-In . SVG Version: 6.00 Build 0)  -->
<svg version="1.1" id="Layer_1" xmlns="http://www.w3.org/2000/svg" xmlns:xlink="http://www.w3.org/1999/xlink" x="0px" y="0px"
	 width="30px" height="30px" viewBox="0 0 30 30" style="enable-background:new 0 0 30 30;" xml:space="preserve">
<style type="text/css">
	.st0{fill:#111E6C;}
</style>
<g id="Group_1">
	<path id="Vector" class="st0" d="M21.7,3.7C21.7,3.7,21.7,3.6,21.7,3.7c0-0.1,0-0.1,0-0.1c-0.1-0.2-0.1-0.3,0.1-0.5
		c0.6-0.5,0.7-1,0.4-1.6c-0.3-0.6-0.7-0.9-1.5-0.9h0c-2.7,0-5.4,0-8,0c-1,0-2,0-3,0c-0.1,0-0.1,0-0.2,0c-0.1,0-0.1,0-0.2,0
		C8.7,0.7,8.3,1,8.1,1.5C7.9,2,7.9,2.5,8.3,2.8C8.8,3.2,8.7,3.6,8.4,4c-0.7,1.3-1,2.8-1,4.6c0.1,1.7,0,3.4,0,5.1c0,0.7,0,1.5,0,2.2
		v2.2c0,2.2,0,4.5,0,6.8c0,0.5,0.1,1.1,0.5,1.4c0.4,0.3,0.6,0.8,0.7,1.3c0.2,0.9,0.7,1.3,1.6,1.5c3,0.4,6.1,0.4,9.4,0
		c1.2-0.1,1.6-0.5,1.9-1.7c0-0.1,0-0.1,0-0.2c0-0.2,0.1-0.4,0.3-0.6c0.8-0.5,0.9-1.3,0.9-2v-2.4c0-4.2,0-8.5,0-12.8
		C22.8,7.6,22.8,5.5,21.7,3.7L21.7,3.7z M9.3,1.5c0.2,0,0.3,0,0.5,0c3.6,0,7.1,0,10.7,0c0.2,0,0.3,0,0.5,0c0.3,0,0.4,0.2,0.4,0.5
		c0,0.3-0.1,0.5-0.4,0.5c-0.1,0-0.2,0-0.4,0c0,0-0.1,0-0.1,0c-1.4,0-2.9,0-4.3,0h-2.2c-1.4,0-2.9,0-4.3,0c0,0-0.1,0-0.1,0
		c0,0-0.1,0-0.1,0c-0.1,0-0.2,0-0.3,0C9,2.5,8.8,2.3,8.8,2C8.9,1.7,9,1.5,9.3,1.5L9.3,1.5z M20.7,27.5c-0.1,0.4-0.4,0.7-1,0.8
		c-1.3,0.2-2.8,0.3-4.6,0.3c-1.4,0-2.9,0-4.6-0.3c-0.3,0-0.5-0.1-0.7-0.3c-0.2-0.2-0.4-0.5-0.3-0.8c0-0.1,0.1-0.1,0.1-0.2
		c0.1,0,0.2,0,0.4,0c0.1,0,0.1,0,0.2,0c3.5,0.5,6.9,0.5,10.1-0.1c0.2,0,0.3,0,0.4,0.1C20.8,27.2,20.8,27.4,20.7,27.5z M20.1,26.2
		c-1.4,0.2-3,0.4-4.8,0.4c-0.1,0-0.2,0-0.4,0c-2.1,0-3.9-0.2-5.4-0.5c-0.9-0.2-1.2-0.5-1.2-1.4c0-0.7,0-1.1,0.2-1.3
		c0.2-0.2,0.5-0.1,1.2-0.1l0.1,0c3.4,0.4,6.9,0.4,10.6,0l0.7-0.1c0.4,0,0.6-0.1,0.7,0s0.1,0.3,0.1,0.7C22,25.9,21.9,26,20.1,26.2
		L20.1,26.2z M21.4,22.4c-2.1,0.2-4.2,0.3-6.2,0.3c-2.1,0-4.2-0.1-6.2-0.3c-0.5-0.1-0.6-0.2-0.6-0.7c0-4,0-8.2,0-12.4
		c0-0.2,0-0.4,0.1-0.5c0.1-0.1,0.3-0.1,0.5-0.1c4.1,0.5,8.3,0.5,12.4,0c0.3,0,0.4,0,0.5,0.1C21.9,9,22,9.1,22,9.4c0,1.5,0,3.1,0,4.6
		c0,0.6,0,1.1,0,1.7c0,0.5,0,1,0,1.5c0,1.5,0,3.1,0,4.6C22,22.2,21.8,22.4,21.4,22.4L21.4,22.4z M21.9,7.6C21.7,7.8,21.3,8,20.6,8
		c-1.8,0.1-3.3,0.3-4.7,0.3c-0.2,0-0.4,0-0.6,0c-2.4,0-4.7-0.2-6.4-0.3c-0.4,0-0.5-0.2-0.5-0.6c0-0.6,0.2-1.2,0.4-1.7
		C8.8,5.4,8.9,5.1,9,4.8c0.3-1.3,1.1-1.5,2.2-1.5c2.3,0.1,4.7,0.1,7,0c0.6,0,1.3,0,1.9,0h0c0.4,0,0.7,0.1,0.8,0.6
		C21,4.3,21.2,4.7,21.3,5c0.1,0.3,0.3,0.7,0.4,1.1C22.1,6.9,22.1,7.3,21.9,7.6L21.9,7.6z"/>
</g>
</svg>
