<?xml version="1.0" encoding="utf-8"?>
<!-- Generator: Adobe Illustrator 25.1.0, SVG Export Plug-In . SVG Version: 6.00 Build 0)  -->
<svg version="1.1" id="Layer_1" xmlns="http://www.w3.org/2000/svg" xmlns:xlink="http://www.w3.org/1999/xlink" x="0px" y="0px"
	 width="30px" height="30px" viewBox="0 0 30 30" style="enable-background:new 0 0 30 30;" xml:space="preserve">
<style type="text/css">
	.st0{fill:#111E6C;}
</style>
<g id="Group">
	<path id="Vector" class="st0" d="M22.2,5.8c0.3-0.4,0.3-0.8,0.2-1.3c-0.3-1.1-1.2-1.8-2.4-1.8c-0.3,0-0.5,0-0.7-0.3
		c-0.4-0.5-1-0.8-1.7-0.7c-0.3,0-0.5-0.1-0.7-0.3c-0.9-0.9-2.1-1-3.1-0.3c-0.2,0.1-0.4,0.2-0.7,0.1c-1.2-0.4-2.3,0.1-2.9,1.2
		c-0.1,0.2-0.3,0.4-0.6,0.3c-0.4,0-0.9,0.1-1.2,0.3C7.2,3.6,6.9,4.8,7.6,6c0.1,0.2,0.1,0.4,0.1,0.6c0,2-0.1,4,0.1,6
		c0.1,0.9,0.2,1.8,0.4,2.7l0.5,2.1c0,0.1,0,0.1,0,0.2c0.3,1.3,0.5,2.6,0.4,4c0,2.2,0,4.4,0,6.6c0,1,0.3,1.3,1.3,1.3h8.8
		c1,0,1.3-0.3,1.3-1.3v-6.6c0-1.4,0.2-2.7,0.5-4c0.5-2,1-4.1,1-6.2c0-1.5,0-3,0-4.5C21.9,6.4,22,6.1,22.2,5.8L22.2,5.8z M8.5,6.8
		c0-0.3,0.1-0.4,0.4-0.4c0.4,0,0.9,0,1.3,0c0.6,0,0.9,0.4,0.9,0.9c0,0.3,0,0.7,0,1c0,0.3,0,0.5,0,0.8c0.1,0.5-0.1,0.6-0.6,0.6
		C10,9.6,9.5,9.6,8.9,9.6c-0.3,0-0.4,0-0.4-0.4C8.5,8.4,8.5,7.6,8.5,6.8z M19.1,28.6c-2.6,0-5.2,0-7.8,0h-1c-0.2,0-0.3-0.1-0.3-0.3
		c0-0.5,0-1,0-1.6c0.5,0.3,1,0.5,1.6,0.5c0.8,0,1.6,0,2.4,0c0.1,0,0.2,0,0.3,0h2c0,0,0,0,0.1,0c0.1,0,0.3,0,0.4,0h0c0.3,0,0.6,0,1,0
		c0.7,0,1.4-0.1,2-0.5c0,0.5,0,1,0,1.4C19.7,28.5,19.5,28.6,19.1,28.6z M21,13.1c-0.1,0.6-0.2,1.2-0.3,1.8c-0.3,1.6-0.8,3.1-1,4.7
		c-0.2,1.7-0.1,3.3-0.1,5c0,1.1-0.6,1.7-1.7,1.7c-0.4,0-0.8,0-1.2,0H13c-0.4,0-0.9,0-1.3,0c-1.1,0-1.7-0.6-1.7-1.7
		c0-0.9,0-1.9,0-2.8c0-1.5-0.1-3-0.5-4.4L8.9,15c0,0,0-0.1,0-0.1c-0.3-1.1-0.4-2.2-0.4-3.3c0-1.1,0-1.1,1.1-1.1c0.2,0,0.4,0,0.7,0
		c0.5,0,0.8,0.3,0.8,0.9c0,1,0.6,1.7,1.5,1.8c0.9,0.1,1.7-0.4,1.9-1.3c0.1-0.3,0.2-0.3,0.5-0.2c0.5,0.2,0.9,0.3,1.4,0.4
		c0,0,0,0,0.1,0c0,0,0,0,0,0c0.3,0.1,1.2,0.3,2.1,0.4c0.1,0,0.1,0,0.2,0c0.6,0,1.2,0.1,1.7,0.1C20.9,12.6,21.1,12.7,21,13.1L21,13.1
		z M21.1,11.4c0,0.3-0.1,0.4-0.4,0.4c-0.6-0.1-1.1-0.1-1.7-0.1c0,0-1.4-0.2-2.2-0.4c0,0,0,0,0,0c-0.5-0.1-1-0.3-1.5-0.5
		c-0.3-0.1-0.6-0.2-0.6-0.4V8.1c0,0,0-0.1,0-0.1c0-0.1,0-0.1,0-0.2c0-0.2,0-0.3,0-0.5c0.1-0.5,0.4-0.9,0.9-0.9
		c0.5,0,0.8,0.4,0.9,0.9c0,0.5,0,1.1,0,1.6c0,1.1,0.7,1.9,1.8,1.9c1,0,1.7-0.8,1.8-1.9c0-0.5,0-1.1,0-1.6c0-0.5,0.3-0.9,0.8-0.9
		c0.3,0,0.4,0,0.4,0.3C21.1,8.3,21.1,9.9,21.1,11.4z M20.8,5.6c-1,0.1-1.7,0.8-1.7,1.8c0,0.5,0,1.1,0,1.6c0,0.6-0.4,1-0.9,1
		c-0.5,0-0.9-0.4-0.9-1c0-0.6,0-1.1,0-1.7c0-0.9-0.7-1.6-1.5-1.7c-0.8-0.1-1.6,0.4-1.9,1.2c-0.1,0.3-0.1,0.7-0.1,1V10
		c0,0.2,0,0.3,0,0.5c0,0.3,0,0.6,0,0.9c0,0.6-0.4,0.9-0.9,0.9c-0.5,0-0.8-0.4-0.9-0.9c0-0.2,0-0.3,0-0.5c0-1.1,0-2.3,0-3.4
		c0-1.3-0.7-2-2-2c-0.4,0-0.9,0-1.3,0C8.1,5.5,7.9,5.2,8,4.7c0.2-0.9,1-1.3,2-1.1c0.4,0.1,0.6,0,0.7-0.4C11.1,2,12,1.6,13.1,2.1
		c0.3,0.2,0.5,0.1,0.8-0.1c0.8-0.8,1.9-0.7,2.5,0.3c0.2,0.3,0.4,0.4,0.8,0.3c0.7-0.2,1.3,0,1.6,0.6c0.2,0.4,0.4,0.5,0.8,0.4
		c0.8-0.2,1.5,0.2,1.9,0.9C21.8,5.1,21.6,5.5,20.8,5.6z"/>
	<path id="Vector_2" class="st0" d="M14.2,15.8c0-1-0.8-1.8-1.8-1.8s-1.8,0.8-1.8,1.8c0,1,0.8,1.9,1.8,1.9
		C13.4,17.6,14.2,16.8,14.2,15.8z M11.4,15.8c0-0.6,0.4-1,1-1c0.5,0,0.9,0.4,0.9,1c0,0.6-0.4,1-1,1C11.9,16.8,11.4,16.3,11.4,15.8
		L11.4,15.8z"/>
	<path id="Vector_3" class="st0" d="M17,17.4c-0.9,0-1.6,0.7-1.6,1.5c0,0.9,0.7,1.6,1.6,1.6c0.9,0,1.6-0.7,1.6-1.5
		C18.5,18.1,17.8,17.4,17,17.4z M17,19.7c-0.4,0-0.8-0.3-0.7-0.8c0-0.4,0.3-0.7,0.7-0.7c0.4,0,0.7,0.3,0.7,0.8
		C17.6,19.4,17.4,19.7,17,19.7L17,19.7z"/>
	<path id="Vector_4" class="st0" d="M14.1,20.7c0-0.8-0.6-1.4-1.4-1.4c-0.8,0-1.4,0.6-1.4,1.4c0,0.8,0.6,1.4,1.4,1.4
		C13.4,22.1,14.1,21.4,14.1,20.7L14.1,20.7z M12.1,20.7c0-0.4,0.2-0.6,0.6-0.6c0.3,0,0.5,0.2,0.5,0.5c0,0.4-0.2,0.5-0.5,0.6
		C12.3,21.2,12.1,21,12.1,20.7L12.1,20.7z"/>
	<path id="Vector_5" class="st0" d="M17,22c-0.6,0-1.2,0.6-1.2,1.2c0,0.6,0.6,1.2,1.2,1.2c0.6,0,1.2-0.6,1.2-1.2
		C18.2,22.5,17.6,22,17,22z M17,23.5c-0.2,0-0.3-0.1-0.3-0.3c0-0.2,0.1-0.3,0.3-0.3c0.2,0,0.3,0.1,0.3,0.3
		C17.3,23.4,17.2,23.5,17,23.5L17,23.5z"/>
	<path id="Vector_6" class="st0" d="M13.7,23.1c-0.7,0-1.2,0.5-1.2,1.2c0,0.7,0.5,1.2,1.2,1.2c0.6,0,1.2-0.5,1.2-1.2
		C14.9,23.7,14.4,23.1,13.7,23.1z M13.7,24.6c-0.2,0-0.3-0.1-0.3-0.3c0-0.2,0.1-0.3,0.3-0.3c0.2,0,0.3,0.1,0.3,0.3
		S13.9,24.6,13.7,24.6z"/>
	<path id="Vector_7" class="st0" d="M17.8,13.4c-0.7,0-1.2,0.5-1.2,1.1c0,0.7,0.5,1.2,1.2,1.2c0.7,0,1.2-0.5,1.2-1.1
		C18.9,13.9,18.4,13.4,17.8,13.4L17.8,13.4z M17.8,14.9c-0.2,0-0.3-0.1-0.3-0.3c0-0.2,0.1-0.3,0.3-0.3c0.2,0,0.3,0.1,0.3,0.3
		C18.1,14.8,17.9,14.8,17.8,14.9L17.8,14.9z"/>
</g>
</svg>
