<svg width="30" height="30" viewBox="0 0 30 30" fill="none" xmlns="http://www.w3.org/2000/svg">
<g id="Group">
<path id="Vector" d="M28.9893 17.8561C29.1213 17.7841 29.2172 17.5621 29.2712 17.4421C29.4572 17.0161 29.4272 16.56 29.1872 16.194C28.9232 15.786 28.4313 15.5401 27.8733 15.5341C25.7193 15.5341 23.5712 15.5341 21.4172 15.5341H18.8372H16.4432C14.2472 15.5341 12.0512 15.5341 9.85524 15.5341C9.11724 15.5341 8.59525 15.8701 8.39125 16.4881C8.18125 17.1301 8.39124 17.6701 9.02124 18.0961C9.25524 18.2521 9.29125 18.4381 9.31525 18.6601C9.65125 21.9181 11.2233 24.42 13.9893 26.094C14.5233 26.418 14.6072 26.664 14.3492 27.204C14.0672 27.798 14.0493 28.344 14.3073 28.746C14.5653 29.16 15.0932 29.3881 15.7772 29.3881C16.4132 29.3881 17.0492 29.388 17.6852 29.376C18.2612 29.376 18.8492 29.364 19.4372 29.364C20.2472 29.364 21.0692 29.3761 21.8792 29.4061C22.5452 29.4361 23.1392 29.142 23.4272 28.644C23.6912 28.188 23.6553 27.6421 23.3253 27.1021C23.1933 26.8861 23.1452 26.724 23.1812 26.58C23.2172 26.424 23.3492 26.298 23.6012 26.148C26.2892 24.6 27.8792 22.236 28.3292 19.122L28.3413 19.0561C28.4073 18.5821 28.4732 18.138 28.9832 17.862L28.9893 17.8561ZM22.7312 28.182C22.6232 28.548 22.2932 28.548 22.0172 28.548C21.2012 28.548 20.3972 28.548 19.5872 28.548H17.8772C17.5772 28.548 17.2772 28.548 16.9712 28.548C16.5572 28.548 16.1432 28.548 15.7292 28.548C15.3452 28.548 15.1173 28.4701 15.0093 28.3021C14.9013 28.1401 14.9193 27.9061 15.0573 27.5701C15.3573 26.8321 15.4052 26.808 16.1792 27.048C17.9732 27.594 19.8512 27.576 21.7472 26.994C21.7832 26.982 21.8253 26.964 21.8733 26.94C21.9813 26.886 22.1012 26.826 22.2152 26.868C22.2812 26.892 22.3412 26.946 22.3772 27.03C22.4132 27.108 22.4612 27.186 22.5092 27.264C22.6592 27.528 22.8332 27.822 22.7312 28.182ZM27.4652 19.4341C26.6552 23.6761 23.1032 26.6101 18.7952 26.6101C18.7532 26.6101 18.7113 26.6101 18.6753 26.6101C14.4873 26.5561 10.9232 23.4601 10.2152 19.2421C10.2032 19.1881 10.1973 19.1281 10.1913 19.0741C10.1493 18.7021 10.1252 18.5161 10.2212 18.4021C10.3172 18.2941 10.4973 18.294 10.8573 18.294H23.7393C23.8473 18.294 23.9612 18.294 24.0692 18.294C24.0752 18.294 24.0812 18.294 24.0932 18.294C24.1052 18.294 24.1113 18.294 24.1233 18.294H26.0913C26.1693 18.3 26.2472 18.3061 26.3372 18.3061H26.5052C27.0932 18.3061 27.3572 18.306 27.4952 18.468C27.6272 18.63 27.5732 18.9001 27.4712 19.4461L27.4652 19.4341ZM28.4073 17.2921C28.2693 17.4301 28.0532 17.454 27.8372 17.454H27.7952C27.5372 17.454 27.2792 17.454 27.0272 17.454H26.8112C26.6492 17.454 26.4932 17.454 26.3312 17.454H26.2893H10.0292C9.89725 17.454 9.75925 17.454 9.62725 17.436C9.32725 17.394 9.15925 17.1961 9.15925 16.8961C9.15925 16.5961 9.33925 16.404 9.63925 16.368C9.78925 16.35 9.93325 16.35 10.0832 16.35H27.7832C28.0952 16.35 28.5452 16.3501 28.5512 16.8841C28.5512 17.0581 28.5092 17.19 28.4132 17.28L28.4073 17.2921Z" fill="#111E6C"/>
<path id="Vector_2" d="M8.16283 21.516C8.16283 20.898 7.92283 20.4 7.43083 20.01L7.39483 19.98C7.20283 19.83 7.01083 19.674 6.80683 19.536C6.41683 19.272 6.23083 18.906 6.23683 18.42C6.23683 17.808 6.23683 17.196 6.23683 16.59C6.23683 16.146 6.23683 15.702 6.23683 15.264C6.23683 15.24 6.23683 15.21 6.23683 15.186C6.23083 15.06 6.21283 14.892 6.39883 14.796C7.28083 14.34 7.25083 13.542 7.22083 12.696V12.66C7.18483 11.754 6.65683 11.232 5.76283 11.214C5.39683 11.214 5.02483 11.208 4.65283 11.208C4.32883 11.208 4.00483 11.208 3.68083 11.208H3.21883C2.06083 11.214 1.58083 11.688 1.57483 12.852C1.57483 13.056 1.57483 13.32 1.58083 13.584C1.59883 14.07 1.80283 14.436 2.17483 14.658C2.48083 14.838 2.54083 15.054 2.53483 15.366C2.53483 15.564 2.52883 15.762 2.52283 15.96C2.51083 16.596 2.49283 17.256 2.54683 17.898C2.62483 18.81 2.31283 19.422 1.53883 19.884C0.896834 20.268 0.578826 20.892 0.602826 21.726C0.620826 22.422 0.614832 23.13 0.608832 23.814C0.608832 24.114 0.608832 24.42 0.608832 24.72C0.608832 25.044 0.608832 25.362 0.608832 25.686C0.608832 26.424 0.608832 27.186 0.608832 27.936C0.620832 28.8 1.16683 29.37 2.00683 29.382C3.51283 29.4 5.06083 29.4 6.74683 29.382C7.59883 29.37 8.15083 28.812 8.15683 27.96C8.16283 26.556 8.16283 25.128 8.15683 23.748C8.15683 23.004 8.15683 22.266 8.15683 21.522L8.16283 21.516ZM2.55283 13.914C2.43883 13.8 2.38483 13.638 2.38483 13.416V13.404C2.38483 13.404 2.38483 13.38 2.38483 13.368C2.36083 12.756 2.35483 12.402 2.53483 12.21C2.72083 12.018 3.06883 12.012 3.66883 12.012H4.28683C4.73683 12.012 5.19283 12.012 5.64283 12.012H5.66083C5.91883 12.012 6.10483 12.078 6.23083 12.204C6.35083 12.33 6.40483 12.528 6.38683 12.78C6.38083 12.864 6.38683 12.948 6.38683 13.032C6.38683 13.08 6.38683 13.122 6.38683 13.17C6.38683 13.998 6.29683 14.082 5.48083 14.088C5.32483 14.088 5.17483 14.088 5.01883 14.088C4.91683 14.088 4.81483 14.088 4.71283 14.088H4.28083C3.86683 14.088 3.45883 14.088 3.05083 14.088C2.82883 14.082 2.66683 14.034 2.55283 13.926V13.914ZM1.51483 21.072C1.61683 20.832 1.79683 20.646 2.08483 20.478C3.04483 19.92 3.45283 19.098 3.36883 17.892C3.33283 17.388 3.33883 16.872 3.35083 16.38C3.35083 16.062 3.36283 15.732 3.35083 15.408C3.34483 15.054 3.47683 14.916 3.83683 14.904H3.86683C4.62883 14.88 5.01283 14.868 5.21683 15.072C5.42683 15.276 5.42683 15.666 5.42683 16.446C5.42683 16.65 5.42683 16.854 5.42683 17.058C5.42683 17.508 5.43283 17.97 5.42083 18.426C5.39683 19.176 5.70283 19.77 6.34483 20.232C6.40483 20.28 6.47083 20.322 6.53683 20.364C6.83683 20.562 7.14283 20.772 7.28083 21.162C7.34083 21.324 7.38883 21.534 7.28683 21.672C7.21483 21.768 7.08283 21.816 6.86683 21.816C6.85483 21.816 6.83683 21.816 6.82483 21.816C6.24283 21.798 5.64883 21.804 5.07283 21.804C4.82683 21.804 4.58683 21.804 4.34083 21.804H3.63883C3.08083 21.804 2.52883 21.804 1.97083 21.804C1.70083 21.804 1.53883 21.744 1.45483 21.624C1.37683 21.504 1.38883 21.33 1.49683 21.072H1.51483ZM7.35883 27.756C7.35883 28.098 7.34683 28.524 6.73483 28.536C6.36283 28.542 5.99083 28.548 5.61283 28.548C5.36683 28.548 5.11483 28.548 4.87483 28.548C4.62883 28.548 4.38283 28.548 4.13083 28.548H3.59083C3.11683 28.548 2.63083 28.548 2.15083 28.548C1.52083 28.536 1.44883 28.35 1.41283 27.564C1.40083 27.342 1.44283 27.192 1.53883 27.096C1.67083 26.958 1.89283 26.964 2.11483 26.964C2.66683 26.976 3.22483 26.97 3.77083 26.97C4.21483 26.97 4.65883 26.97 5.10283 26.97C5.64283 26.97 6.20083 26.97 6.75283 26.97C6.96883 26.97 7.16683 26.97 7.28683 27.102C7.37083 27.192 7.40083 27.33 7.37683 27.522C7.37083 27.6 7.36483 27.684 7.36483 27.768L7.35883 27.756ZM7.25683 26.034C7.16083 26.13 7.02883 26.154 6.85483 26.154C6.83683 26.154 6.81883 26.154 6.79483 26.154C6.23683 26.142 5.66683 26.142 5.11483 26.148C4.64683 26.148 4.17883 26.148 3.70483 26.148C3.12883 26.148 2.52883 26.148 1.94083 26.148C1.76083 26.148 1.61683 26.136 1.52083 26.04C1.44283 25.962 1.41283 25.848 1.41883 25.68C1.43683 24.846 1.43683 23.976 1.41883 23.088C1.41883 22.92 1.44883 22.8 1.52683 22.722C1.62883 22.62 1.78483 22.608 1.93483 22.608C3.90283 22.62 5.42083 22.62 6.84883 22.608H6.86683C7.05883 22.608 7.17883 22.644 7.26283 22.728C7.34683 22.812 7.37683 22.938 7.37083 23.142C7.34683 24.114 7.34683 24.9 7.37083 25.62C7.37683 25.818 7.34083 25.95 7.25683 26.034Z" fill="#111E6C"/>
<path id="Vector_3" d="M4.4773 3.69598C5.0653 4.33798 5.6113 4.88398 6.1513 5.36998C6.3013 5.50798 6.4393 5.65798 6.4453 5.83798C6.4453 5.98198 6.3673 6.12597 6.1873 6.31197C5.7253 6.77997 5.6953 7.46397 6.1093 8.02197C6.5233 8.57397 7.2373 8.74797 7.7653 8.42997C8.2093 8.16597 8.4193 8.32798 8.7013 8.60998C9.6013 9.51598 10.5013 10.416 11.4013 11.322C11.9533 11.868 12.4993 12.42 13.0513 12.972C13.3093 13.23 13.5973 13.518 13.9453 13.374C14.0653 13.326 14.1733 13.302 14.2633 13.302C14.5393 13.302 14.7133 13.488 14.8753 13.674C15.0133 13.824 15.1393 13.95 15.2773 14.058C15.9073 14.568 16.7713 14.538 17.3413 13.986C17.9293 13.41 17.9773 12.528 17.4493 11.886C17.3413 11.754 17.2153 11.634 17.0953 11.514C17.0173 11.436 16.9393 11.358 16.8613 11.28C16.8433 11.262 16.8313 11.25 16.8133 11.232C16.7233 11.148 16.6033 11.034 16.7053 10.818C16.9573 10.308 16.6813 9.97198 16.3213 9.61798C14.9953 8.30398 13.6573 6.95998 12.3613 5.66398L11.9233 5.22597C11.9233 5.22597 11.8813 5.18397 11.8633 5.16597C11.7133 5.02797 11.5453 4.87197 11.7373 4.52997C12.1273 3.83397 12.0133 3.15597 11.4313 2.71197C10.8433 2.26197 10.1713 2.32197 9.5893 2.87997C9.4513 3.01197 9.3373 3.07197 9.2293 3.07197H9.2233C9.0913 3.07197 8.9833 2.98198 8.8573 2.84998C8.4853 2.45998 8.0953 2.06997 7.7173 1.69797C7.5553 1.53597 7.3873 1.37397 7.2253 1.21197C6.8113 0.797969 6.3433 0.605976 5.7433 0.599976C5.2153 0.629976 4.5073 0.845968 4.1413 1.67997C3.8173 2.41197 3.9313 3.10798 4.4713 3.69598H4.4773ZM14.8093 9.60598C15.0973 9.60598 15.3733 9.74398 15.5593 9.97798C15.7573 10.224 15.8413 10.536 15.7813 10.842C15.7273 11.118 15.8053 11.364 16.0273 11.598C16.1233 11.694 16.2193 11.79 16.3093 11.886C16.4653 12.042 16.6273 12.204 16.7773 12.366C17.0773 12.702 17.0773 13.074 16.7773 13.38C16.6213 13.536 16.4533 13.614 16.2733 13.614C16.0933 13.614 15.9313 13.542 15.7633 13.398C15.5653 13.224 15.3793 13.032 15.1993 12.846L15.1153 12.762C14.7433 12.372 14.4253 12.282 14.0533 12.456C13.8853 12.534 13.7473 12.51 13.6153 12.378C13.0153 11.772 12.4153 11.172 11.7733 10.536L10.8433 9.60598H12.1993C13.1053 9.60598 13.9633 9.60598 14.8093 9.60598ZM13.3453 7.79397L14.3233 8.76597H14.1433C13.7233 8.76597 13.3153 8.76597 12.9193 8.77197C12.5473 8.77197 12.1813 8.77798 11.8213 8.77798C11.2933 8.77798 10.7713 8.77198 10.2553 8.74198C9.8053 8.71798 9.5353 8.37598 9.2773 8.04598C9.1753 7.91398 9.0673 7.78198 8.9533 7.67398C8.9113 7.63198 8.8873 7.58397 8.8873 7.53597C8.8873 7.43997 8.9773 7.36198 9.0493 7.30198C9.0673 7.28398 9.0853 7.27197 9.1033 7.25397C9.4033 6.94797 9.7033 6.64797 10.0033 6.34797C10.2193 6.13197 10.4353 5.91598 10.6513 5.69998C10.7473 5.60398 10.8373 5.51398 10.9513 5.51398C11.0353 5.51398 11.1193 5.55598 11.2093 5.65198C11.8993 6.35398 12.6013 7.04997 13.3393 7.79397H13.3453ZM9.1093 4.52398C9.4573 4.17598 9.7993 3.83397 10.1473 3.48597C10.3033 3.32997 10.4593 3.25198 10.6153 3.25198C10.7473 3.25198 10.8793 3.31198 10.9933 3.43198C11.2273 3.67198 11.2093 3.97798 10.9513 4.24198C10.0933 5.10598 9.2293 5.96998 8.3653 6.83398L7.6453 7.55397C7.5193 7.67997 7.3753 7.74598 7.2193 7.74598C7.2013 7.74598 7.1833 7.74598 7.1653 7.74598C6.9613 7.74598 6.7933 7.63798 6.7093 7.45198C6.6013 7.20598 6.6553 6.97198 6.8713 6.75598C7.3933 6.23998 7.9093 5.72398 8.4253 5.20198L9.1033 4.52398H9.1093ZM5.3593 1.50598C5.7733 1.30198 6.1753 1.35598 6.4933 1.65598C6.9073 2.04598 7.3153 2.45998 7.7173 2.85598C7.9513 3.08998 8.1853 3.32397 8.4253 3.55797C8.4853 3.61797 8.5633 3.70797 8.5633 3.82197C8.5633 3.89997 8.5153 3.97197 8.4373 4.04397C8.4253 4.04997 8.4193 4.06198 8.4073 4.07398C7.8673 4.71598 7.5973 5.03398 7.2913 5.05198H7.2733C6.9793 5.05198 6.6913 4.76398 6.1273 4.19998L5.8213 3.89397C5.6053 3.67797 5.3893 3.46198 5.1673 3.24598C4.9333 3.01798 4.8073 2.75398 4.7833 2.44198C4.8193 1.99198 5.0113 1.68597 5.3593 1.51197V1.50598Z" fill="#111E6C"/>
<path id="Vector_4" d="M5.93168 24.24C5.04368 24.078 4.07768 23.922 2.97968 23.76C2.95568 23.76 2.93168 23.76 2.90768 23.76C2.82368 23.76 2.75768 23.784 2.69768 23.826C2.61968 23.886 2.56568 23.988 2.55368 24.114C2.52968 24.348 2.65568 24.504 2.90168 24.546C3.55568 24.66 4.20968 24.774 4.86368 24.882L5.68568 25.02C5.99168 25.044 6.15968 24.954 6.21368 24.714C6.24368 24.588 6.22568 24.474 6.17168 24.39C6.12368 24.312 6.03968 24.264 5.93168 24.246V24.24Z" fill="#111E6C"/>
</g>
</svg>
