<svg width="30" height="30" viewBox="0 0 30 30" fill="none" xmlns="http://www.w3.org/2000/svg">
<g id="Group 2">
<path id="Vector" d="M10.0073 21.7226C9.89331 21.7346 9.77931 21.6506 9.68931 21.5606C9.12531 21.0146 8.42931 20.5826 7.57131 20.2346C5.74731 19.4966 3.7493 19.2506 1.2833 19.4666C1.0373 19.4906 0.857308 19.5746 0.743308 19.7186C0.617308 19.8746 0.575313 20.1086 0.617313 20.4026C0.905313 22.4006 1.3313 24.0146 1.9493 25.4906C2.4893 26.7746 3.29331 27.7886 4.35531 28.5086C6.26331 29.8046 8.73531 29.6546 10.3613 28.1486C10.4753 28.0466 10.5593 27.9986 10.6433 27.9986C10.7273 27.9986 10.8113 28.0406 10.9193 28.1306C12.6533 29.5106 14.6513 29.7926 16.6973 28.9526C17.6573 28.5566 18.6413 28.3946 19.8773 28.4126C20.2493 28.4186 20.6333 28.4126 20.9993 28.4126C21.1673 28.4126 21.3413 28.4126 21.5093 28.4126H22.4093C23.0873 28.4126 23.7593 28.4126 24.4373 28.4126C26.1473 28.4126 27.0293 27.5966 27.2093 25.8626C27.3233 24.7826 27.4553 23.6906 27.5813 22.6286C27.6233 22.3046 27.6593 21.9866 27.7013 21.6626C28.2413 17.1326 28.7873 12.6026 29.3333 8.07262C29.4053 7.46662 29.2313 7.01062 28.7933 6.66862C28.4573 6.41062 28.0673 6.36862 27.7193 6.36862H27.7073C26.9213 6.36862 26.1353 6.36862 25.3493 6.36862C23.9993 6.36862 22.6013 6.36862 21.2273 6.38062C21.2273 6.38062 21.2153 6.38062 21.2093 6.38062C20.9873 6.38062 20.8553 6.33862 20.7713 6.24862C20.6873 6.15862 20.6573 6.02662 20.6753 5.81062C20.6993 5.48062 20.6933 5.14462 20.6873 4.82062C20.6873 4.73662 20.6873 4.65862 20.6873 4.57462C20.6693 3.56062 20.2073 2.84062 19.3073 2.43262C17.9573 1.82062 16.5953 1.25662 15.2753 0.704617C14.7053 0.464617 14.2793 0.638618 14.0093 1.21462C13.9013 1.43662 13.8113 1.67662 13.7273 1.88662C13.4453 2.59462 13.6133 3.00262 14.3093 3.30862C14.8733 3.55462 15.4433 3.79462 16.0073 4.03462C16.3553 4.18462 16.7033 4.32862 17.0513 4.47862C17.9093 4.84462 17.9213 4.86862 17.9333 5.75062V5.82262C17.9333 6.03262 17.8973 6.16462 17.8133 6.24862C17.7053 6.35662 17.5253 6.36862 17.3573 6.36862C16.0493 6.35662 14.7233 6.35662 13.4333 6.36262H12.8453C12.2453 6.36262 11.7953 6.52462 11.5253 6.83662C11.2493 7.14862 11.1473 7.60462 11.2193 8.20462C11.5673 11.1266 12.0233 14.9666 12.4973 18.8306C12.5333 19.1066 12.4973 19.3046 12.2273 19.4906C11.4293 20.0306 10.7753 20.6966 10.2833 21.4706C10.1873 21.6206 10.1033 21.6926 10.0133 21.7046L10.0073 21.7226ZM9.73731 27.5786C9.11931 28.1966 8.1713 28.5266 7.1993 28.5266C6.5333 28.5266 5.86131 28.3766 5.26131 28.0646C4.15131 27.4826 3.32331 26.5346 2.74731 25.1666C2.10531 23.6486 1.77531 22.0946 1.53531 20.7806C1.49931 20.5826 1.51731 20.4566 1.58931 20.3726C1.65531 20.2946 1.76931 20.2526 1.94331 20.2646C2.17731 20.2706 2.41131 20.2646 2.64531 20.2646C2.74731 20.2646 2.85531 20.2646 2.95731 20.2646C4.64931 20.2646 6.01731 20.5106 7.26531 21.0326C7.71531 21.2186 8.16531 21.4706 8.64531 21.8006C9.20931 22.1906 9.6893 22.6166 9.3833 23.5886C9.0653 24.5726 9.23331 25.6826 9.86931 26.7926C10.0673 27.1466 9.9833 27.3386 9.7493 27.5726L9.73731 27.5786ZM20.7653 7.35262C20.8373 7.28062 20.9513 7.26262 21.0893 7.26262C23.3453 7.26262 25.5953 7.26262 27.8453 7.26262C28.0733 7.26262 28.2353 7.32262 28.3433 7.43662C28.4513 7.55662 28.4873 7.73062 28.4633 7.96462L28.3973 8.55862C28.3253 9.20062 28.2533 9.84262 28.1813 10.4846V10.5206C28.1633 10.6406 28.1513 10.7606 28.0553 10.8206C27.9833 10.8626 27.8813 10.8566 27.7433 10.7966C25.5773 9.90262 23.3873 10.1066 21.2273 11.4026C21.1553 11.4446 21.0773 11.4806 20.9693 11.5346C20.9093 11.5586 20.8493 11.5946 20.7653 11.6306L20.6873 11.6666V10.4426C20.6873 9.47062 20.6873 8.55262 20.6873 7.62262C20.6873 7.50262 20.7113 7.41262 20.7713 7.35262H20.7653ZM21.1253 12.4346C22.4453 11.6846 23.7593 11.0186 25.3313 11.1146C26.1233 11.1626 26.8793 11.3486 27.6293 11.6846C27.9173 11.8106 28.0133 11.9846 27.9713 12.3026C27.6773 14.7386 27.3833 17.1746 27.0893 19.6046C26.8253 21.8066 26.5613 24.0146 26.2913 26.2166C26.1953 26.9906 25.6193 27.5426 24.8933 27.5546C24.0893 27.5666 23.2913 27.5726 22.4753 27.5726C21.9413 27.5726 21.4013 27.5726 20.8553 27.5726C20.2973 27.5726 19.7393 27.5726 19.1633 27.5726H19.0433L19.1273 27.4826C21.3653 25.0346 21.9593 21.9866 22.4813 19.2926C22.5413 18.9866 22.5773 18.7466 22.5953 18.5186C22.6433 17.8766 22.4153 17.6126 21.7613 17.5526C20.7173 17.4566 20.6933 17.4386 20.6933 16.3946C20.6933 16.0946 20.6933 15.7946 20.6933 15.5006C20.6933 14.7446 20.6933 13.9586 20.6813 13.1846C20.6753 12.8306 20.7953 12.6266 21.1253 12.4406V12.4346ZM17.7113 3.86062C17.5433 3.79462 17.3513 3.71662 17.1353 3.61462L17.0873 3.59662C16.3433 3.26662 15.5753 2.92462 14.8073 2.62462C14.6573 2.56462 14.5673 2.49262 14.5253 2.40262C14.4773 2.28262 14.5253 2.16262 14.5853 2.04262C14.6093 1.99462 14.6273 1.94662 14.6453 1.89862C14.6993 1.72462 14.7593 1.62862 14.8553 1.58062C14.9513 1.53262 15.0713 1.55062 15.2453 1.62862C16.3013 2.10262 17.3873 2.55862 18.4313 3.00262L18.8573 3.18262C19.8053 3.58462 19.8833 4.40062 19.8413 5.13862C19.8413 5.24062 19.8413 5.32462 19.8413 5.40262C19.8413 5.54062 19.8353 5.65462 19.8473 5.75662C19.8833 5.98462 19.8533 6.14662 19.7573 6.25462C19.6493 6.36862 19.4753 6.39862 19.3073 6.39862C19.2653 6.39862 19.2233 6.39862 19.1813 6.39862C18.8513 6.38062 18.7433 6.26062 18.7553 5.94262C18.8333 4.32262 18.7073 4.27462 17.7053 3.86062H17.7113ZM19.8473 14.8406V15.2786C19.8473 15.4526 19.8473 15.6206 19.8473 15.7946C19.8473 16.1966 19.8413 16.6166 19.8533 17.0246C19.8593 17.1866 19.8293 17.3006 19.7573 17.3786C19.6613 17.4746 19.5173 17.4746 19.3793 17.4746C19.3133 17.4746 19.2413 17.4746 19.1873 17.4866C19.1393 17.4986 19.0973 17.4986 19.0613 17.4986C18.9833 17.4986 18.9173 17.4806 18.8753 17.4386C18.7733 17.3546 18.7613 17.1926 18.7673 17.0366C18.7673 16.4486 18.7673 15.8546 18.7673 15.2606C18.7673 14.7986 18.7673 14.3426 18.7673 13.8806C18.7673 13.6886 18.9893 13.4666 19.2053 13.3226C19.3073 13.2566 19.5533 13.1186 19.7153 13.1906C19.8773 13.2626 19.8593 13.4006 19.8473 13.5086C19.8473 13.5386 19.8473 13.5626 19.8473 13.5866C19.8473 14.0066 19.8473 14.4266 19.8473 14.8406ZM18.7673 12.5426V7.58662C18.7673 7.46062 18.7973 7.37062 18.8573 7.31662C18.9473 7.23862 19.0733 7.25062 19.1873 7.25662C19.2293 7.25662 19.2713 7.26262 19.3073 7.26262C19.3373 7.26262 19.3673 7.26262 19.3973 7.26262C19.5173 7.25062 19.6613 7.23862 19.7513 7.32862C19.8113 7.38862 19.8473 7.47862 19.8413 7.60462C19.8413 8.02462 19.8413 8.45062 19.8413 8.87062C19.8413 9.85462 19.8533 10.8746 19.8173 11.8706C19.8053 12.2666 19.4813 12.3386 19.1753 12.4106C19.0613 12.4346 18.9413 12.4646 18.8333 12.5066L18.7613 12.5366L18.7673 12.5426ZM12.2453 9.51862C12.1853 9.03262 12.1253 8.54662 12.0713 8.06662C12.0353 7.73662 12.0593 7.55662 12.1673 7.43662C12.2873 7.29862 12.5093 7.26862 12.7973 7.26862C13.3313 7.26862 13.8653 7.26862 14.4053 7.26862C14.8613 7.26862 15.3113 7.26862 15.7673 7.26862C16.3073 7.26862 16.8653 7.26862 17.4113 7.26262C17.4233 7.26262 17.4413 7.26262 17.4533 7.26262C17.6333 7.26262 17.7413 7.29262 17.8193 7.37062C17.8973 7.44862 17.9333 7.56862 17.9333 7.75462C17.9213 9.09862 17.9213 10.4666 17.9273 11.7926V12.3686C17.9273 12.5786 17.9273 12.8426 17.5613 12.9146C16.7633 13.0646 16.0373 13.1426 15.3533 13.1426C14.5673 13.1426 13.8353 13.0406 13.1393 12.8426C12.8033 12.7466 12.5873 12.5966 12.5453 12.1526C12.4613 11.2766 12.3533 10.3886 12.2513 9.53062L12.2453 9.51862ZM17.9213 17.1566C17.9213 17.4566 17.8073 17.5946 17.5373 17.6246C16.1633 17.7746 14.8133 18.1466 13.4153 18.7706L13.3493 18.8006L13.1933 17.5166C13.0553 16.3466 12.9173 15.2006 12.7793 14.0546C12.7613 13.9046 12.7793 13.8086 12.8453 13.7486C12.9113 13.6946 13.0073 13.6826 13.1573 13.7186C14.4533 14.0426 15.8693 14.0606 17.4833 13.7786C17.6153 13.7546 17.7473 13.7426 17.8313 13.8146C17.8973 13.8686 17.9213 13.9646 17.9213 14.1146C17.9153 15.0866 17.9153 16.1066 17.9213 17.1506V17.1566ZM15.8753 18.8006C17.1713 18.4586 18.5213 18.3146 19.9013 18.3686H20.3033C20.6393 18.3686 20.9753 18.3686 21.3053 18.3686C21.4553 18.3686 21.5633 18.4046 21.6233 18.4826C21.6893 18.5606 21.7073 18.6686 21.6833 18.8246C21.2633 21.2726 20.7713 23.6486 19.4213 25.7426C18.2573 27.5486 16.4693 28.5506 14.5793 28.5506C14.0033 28.5506 13.4153 28.4546 12.8333 28.2626C11.7473 27.8966 10.8653 27.0926 10.4273 26.0426C9.98931 25.0046 10.0193 23.8166 10.5173 22.7906C11.4953 20.7746 13.1933 19.5086 15.8753 18.8066V18.8006Z" fill="#111E6C"/>
</g>
</svg>
