<?xml version="1.0" encoding="utf-8"?>
<!-- Generator: Adobe Illustrator 25.1.0, SVG Export Plug-In . SVG Version: 6.00 Build 0)  -->
<svg version="1.1" id="Layer_1" xmlns="http://www.w3.org/2000/svg" xmlns:xlink="http://www.w3.org/1999/xlink" x="0px" y="0px"
	 width="30px" height="30px" viewBox="0 0 30 30" style="enable-background:new 0 0 30 30;" xml:space="preserve">
<style type="text/css">
	.st0{fill:#111E6C;}
</style>
<g id="Group">
	<path id="Vector" class="st0" d="M22.2,28.5H22c-0.3,0-0.7,0-1.1,0c-0.2,0-0.3,0-0.4-0.1c-0.1-0.1-0.1-0.2-0.1-0.4
		c0-0.8,0-1.6,0-2.4c0-0.4,0.1-0.6,0.6-0.8c1.6-0.4,2.6-1.9,2.5-3.6c-0.1-0.9-0.2-1.9-0.3-2.8c-0.2-1.9-0.4-3.9-0.3-5.8
		c0-0.2,0-0.3-0.1-0.4c-0.1-0.1-0.2-0.1-0.4-0.1c-1.4,0-2.8,0-4.6,0c-0.2,0-0.3,0-0.4,0.1c-0.1,0.1-0.1,0.2-0.1,0.4
		c0,0.1,0,0.3,0,0.4v0.3c0,1.1,0,2.1-0.2,3.1l-0.1,0.3l0-0.3c-0.3-1.6-0.8-3.1-1.4-4.3C14.5,10,14,8,14.1,5.9c0-0.3,0.1-0.5,0.2-0.8
		c0.4-0.6,0.4-1.3,0.1-1.9c-0.2-0.4-0.3-0.8-0.3-1.3c0-0.1,0-0.3,0-0.5c0-0.1,0-0.3,0-0.4c0-0.2,0-0.3-0.1-0.4
		c-0.1-0.1-0.2-0.1-0.4-0.1H9.9c-0.3,0-0.5,0.2-0.5,0.5c0,0.3,0,0.6,0,0.9c0,0.4,0,0.8-0.3,1.3C8.8,3.9,8.8,4.5,9.2,5.1
		C9.3,5.4,9.4,5.7,9.4,6c0.1,2.5-0.7,4.8-1.6,7.2c-0.8,2-1.2,3.8-1.2,5.5c0,2.4,0,4.9,0,7.3c0,0.6,0,1.2,0,1.8c0,1,0.5,1.5,1.5,1.5
		c2.6,0,5.1,0,7.5,0c0.9,0,1.5-0.5,1.5-1.5c0-0.4,0-0.8,0-1.1v-3.2l0.1,0.1c0.7,0.8,1.4,1.2,2.1,1.3c0.3,0,0.3,0.2,0.3,0.4v0.9
		c0,0.6,0,1.2,0,1.8c0,0.2,0,0.3-0.1,0.4c-0.1,0.1-0.2,0.1-0.4,0.1c-0.5,0-0.9,0-1.4,0c-0.3,0-0.5,0.1-0.5,0.4
		c0,0.3,0.2,0.4,0.5,0.4h2.1c0.8,0,1.6,0,2.5,0c0.3,0,0.5-0.1,0.5-0.4c0-0.1,0-0.2-0.1-0.3C22.6,28.6,22.4,28.5,22.2,28.5L22.2,28.5
		z M10.2,1.8c0-0.3,0.1-0.4,0.4-0.4c0.7,0,1.4,0,2.1,0c0.2,0,0.3,0,0.3,0.1c0.1,0.1,0.1,0.3,0.1,0.4V2c0,0.2,0,0.3-0.1,0.4
		c-0.1,0.1-0.2,0.1-0.3,0.1c-0.3,0-0.5,0-0.8,0c-0.2,0-0.4,0-0.6,0c-0.2,0-0.4,0-0.6,0c-0.1,0-0.1,0-0.2,0c-0.1,0-0.2,0-0.3-0.1
		C10.2,2.3,10.2,2.1,10.2,1.8L10.2,1.8z M10.3,3.4c1,0,2,0,2.8,0c0.6,0,0.6,0.5,0.6,0.8c0,0.3-0.1,0.7-0.6,0.8c-0.2,0-0.4,0-0.6,0
		h-1.3c-0.3,0-0.6,0-0.9,0c-0.5,0-0.6-0.4-0.6-0.8C9.8,3.9,9.8,3.4,10.3,3.4z M9.1,12.1c0.8-1.8,1.1-3.7,1.1-5.7
		c0-0.2,0-0.4,0.1-0.5c0.1-0.1,0.2-0.1,0.4-0.1c0.2,0,0.4,0,0.7,0c0.1,0,0.2,0,0.3,0h0.1v0c0.1,0,0.2,0,0.4,0c0.3,0,0.7-0.1,0.9,0.1
		c0.3,0.2,0.2,0.6,0.2,0.9c0,0.1,0,0.3,0,0.4c0.1,1.7,0.4,3.3,1.1,4.8c0.2,0.4,0.1,0.6-0.2,0.8c-0.7,0.5-1.3,0.9-2,1.4
		c-0.1,0.1-0.2,0.1-0.4,0.1c-0.1,0-0.2,0-0.3-0.1c-0.7-0.5-1.4-1-2.1-1.5C9,12.6,9,12.4,9.1,12.1L9.1,12.1z M15.9,28.4
		c-0.1,0.1-0.3,0.2-0.6,0.2h0c-2.5,0-4.9,0-7.2,0h0c-0.3,0-0.5-0.1-0.6-0.2c-0.1-0.1-0.2-0.3-0.2-0.6c0-1.2,0-2.4,0-3.6
		c0-2,0-4.1,0.1-6.1c0.1-1.4,0.6-3.5,1.2-4.7l0-0.1l0.1,0c0.2,0.2,0.5,0.3,0.7,0.5c0.6,0.4,1.1,0.8,1.7,1.2c0.4,0.3,0.8,0.3,1.2,0
		c0.4-0.3,0.8-0.6,1.2-0.9c0.3-0.2,0.6-0.4,0.9-0.7c0.1-0.1,0.3-0.2,0.4-0.2c0.1,0,0.2,0.1,0.3,0.3c0.7,1.8,1,3.4,1.1,5
		c0,1.8,0,3.6,0,5.3c0,1.2,0,2.4,0,3.6C16.1,28,16.1,28.2,15.9,28.4L15.9,28.4z M17.9,13.5c0-0.2,0-0.3,0.1-0.4
		c0.1-0.1,0.2-0.1,0.3-0.1c1,0,2.1,0,3.1,0h0c0.2,0,0.3,0,0.3,0.1c0.1,0.1,0.1,0.2,0.1,0.4c0,0,0,0.1,0,0.1c0,0.1,0,0.3-0.1,0.4
		c-0.1,0.1-0.2,0.1-0.3,0.1c-0.4,0-0.7,0-1.1,0h-0.9c-0.4,0-0.7,0-1.1,0c0,0,0,0,0,0c-0.1,0-0.2,0-0.3-0.1
		C17.9,13.9,17.9,13.7,17.9,13.5L17.9,13.5L17.9,13.5z M19.8,24.2c-0.7,0-1.4-0.3-1.9-0.9c-0.5-0.5-0.7-1.3-0.7-2
		c0.1-1.1,0.2-2.1,0.3-3.2c0.1-0.9,0.2-1.8,0.3-2.8c0-0.3,0.1-0.4,0.4-0.4h0c0.4,0,0.8,0,1.1,0H20c0.1,0,0.3,0,0.4,0
		c0.3,0,0.7,0,1.1,0h0c0.3,0,0.4,0.2,0.4,0.4c0.1,0.7,0.1,1.3,0.2,2c0.1,1.3,0.3,2.7,0.4,4.1c0.1,0.7-0.2,1.4-0.7,1.9
		C21.3,23.9,20.6,24.2,19.8,24.2L19.8,24.2L19.8,24.2z"/>
	<path id="Vector_2" class="st0" d="M14.9,20.5c-0.1-0.1-0.2-0.1-0.4-0.1h0c-1.8,0-3.7,0-5.4,0h0c-0.2,0-0.4,0-0.5,0.1
		c-0.1,0.1-0.1,0.3-0.1,0.5c0,0.7,0,1.4,0,2.1v1.7c0,0.7,0,1.4,0,2.1c0,0.2,0,0.4,0.1,0.5c0.1,0.1,0.3,0.2,0.5,0.2h0
		c1,0,1.9,0,2.7,0c0.9,0,1.8,0,2.7,0h0c0.2,0,0.4,0,0.5-0.2c0.1-0.1,0.1-0.2,0.1-0.5v-5.9C15,20.7,15,20.6,14.9,20.5L14.9,20.5z
		 M14.2,26.1c0,0.2,0,0.3-0.1,0.4c-0.1,0.1-0.2,0.1-0.3,0.1h0c-1.3,0-2.6,0-4,0c-0.2,0-0.3,0-0.4-0.1c-0.1-0.1-0.1-0.2-0.1-0.4
		c0-0.5,0-1.1,0-1.6v-1.3c0-0.5,0-1,0-1.5c0-0.2,0-0.3,0.1-0.4c0.1-0.1,0.2-0.1,0.4-0.1c1.5,0,2.8,0,4,0c0.2,0,0.3,0,0.4,0.1
		c0.1,0.1,0.1,0.2,0.1,0.4C14.2,23.2,14.2,24.7,14.2,26.1z"/>
	<path id="Vector_3" class="st0" d="M21.1,19.1c0,0.3-0.2,0.4-0.4,0.4c-0.1,0-0.2,0-0.3-0.1s-0.1-0.2-0.1-0.3c0-0.1,0-0.2,0.1-0.3
		c0.1-0.1,0.2-0.1,0.3-0.1h0C20.9,18.7,21,18.8,21.1,19.1z"/>
	<path id="Vector_4" class="st0" d="M19.6,21c0,0.1,0,0.2-0.1,0.3c-0.1,0.1-0.2,0.1-0.3,0.1h0c-0.2,0-0.4-0.1-0.4-0.4
		c0-0.2,0.1-0.3,0.4-0.4C19.4,20.6,19.6,20.8,19.6,21z"/>
	<path id="Vector_5" class="st0" d="M21,22.9c0,0.1,0,0.2-0.1,0.3c-0.1,0.1-0.2,0.1-0.3,0.1c-0.1,0-0.2,0-0.3-0.1
		c-0.1-0.1-0.1-0.2-0.1-0.3c0-0.3,0.2-0.4,0.4-0.4C20.8,22.5,21,22.6,21,22.9z"/>
	<path id="Vector_6" class="st0" d="M19.6,17.2c0,0.3-0.2,0.4-0.4,0.4h0c-0.1,0-0.2,0-0.3-0.1c-0.1-0.1-0.1-0.2-0.1-0.3
		c0-0.3,0.1-0.4,0.4-0.4c0,0,0,0,0,0C19.4,16.8,19.6,16.9,19.6,17.2z"/>
	<path id="Vector_7" class="st0" d="M11.8,10.2L11.8,10.2c-0.8,0-1.4,0.6-1.4,1.3c0,0.4,0.1,0.7,0.4,1c0.3,0.3,0.6,0.4,1,0.4h0
		c0.8,0,1.4-0.6,1.4-1.4C13.1,10.9,12.5,10.3,11.8,10.2z M12.3,11.6c-0.1,0.3-0.2,0.5-0.5,0.5h0c-0.2,0-0.3,0-0.4-0.1
		c-0.1-0.1-0.1-0.2-0.1-0.4c0-0.3,0.2-0.5,0.5-0.5h0C12,11.1,12.2,11.3,12.3,11.6L12.3,11.6L12.3,11.6z"/>
</g>
</svg>
