<?xml version="1.0" encoding="utf-8"?>
<!-- Generator: Adobe Illustrator 25.1.0, SVG Export Plug-In . SVG Version: 6.00 Build 0)  -->
<svg version="1.1" id="Layer_1" xmlns="http://www.w3.org/2000/svg" xmlns:xlink="http://www.w3.org/1999/xlink" x="0px" y="0px"
	 width="30px" height="30px" viewBox="0 0 30 30" style="enable-background:new 0 0 30 30;" xml:space="preserve">
<style type="text/css">
	.st0{fill:#111E6C;}
</style>
<g id="Group_6">
	<path id="Vector" class="st0" d="M24.2,16.1c0-0.8-0.3-1.5-0.7-2.1c0,0-0.5-0.8-1.2-1.7c-0.2-0.3-0.4-0.6-0.4-1
		c-0.2-1.8-0.5-3.5-0.8-5.3C21,5.3,21,4.8,21.6,4.2C22,3.8,22,3.3,21.7,2.8c-0.3-0.4-0.5-0.9-0.7-1.3c-0.3-0.6-0.8-0.8-1.4-0.9
		c-0.6,0-1.2,0.1-1.7,0c-1.5-0.2-2.3,0.4-2.9,1.8c-0.4,0.9-0.5,1.5,0.2,2.2c0.3,0.3,0.3,0.5,0.2,0.9C15.2,6.7,15,7.9,14.9,9
		c-0.1,1.9-0.6,3.5-1.9,4.9c-0.6,0.6-0.8,1.4-0.8,2.3c0,0.7-0.1,1.4-0.1,2.3c-0.6-0.5-1-0.2-1.4,0.2c-0.4,0.4-0.8,0.8-1.5,0.7
		c-0.7,0-1.1,0.6-1.1,1.2c0,0.3-0.1,0.4-0.4,0.5c-0.6,0.2-0.9,0.6-0.9,1.2c0,0.3-0.1,0.4-0.4,0.5c-0.5,0.1-0.9,0.4-1,0.9
		c-0.1,0.5,0,0.9,0.4,1.2c0.5,0.3,0.6,0.7,0.7,1.2c0.2,0.7,0.3,1.4,0.5,2c0.2,0.9,0.6,1.2,1.5,1.2c4.5,0,8.9,0,13.4,0
		c1.8,0,2.9-1.2,2.8-3C24.5,23,24.4,19.6,24.2,16.1L24.2,16.1z M15.8,2.6c0.3-0.8,0.8-1.2,1.7-1.1c0.6,0.1,1.2,0,1.7,0
		c0.6,0,1.4,0.7,1.4,1.4c0,0.3-0.2,0.2-0.3,0.2c-0.7,0-1.5,0-2.2,0c-0.7,0-1.4,0-2.1,0C15.7,3.1,15.7,2.9,15.8,2.6L15.8,2.6z
		 M20.6,3.9c0.1,0.2-0.1,0.3-0.2,0.4c-0.3,0.3-0.4,0.6-0.3,1c0.1,0.3,0,0.4-0.3,0.4c-1.1,0-2.2,0-3.2,0c-0.2,0-0.4,0-0.3-0.2
		c0.2-0.6-0.1-1.1-0.6-1.6H20.6L20.6,3.9z M20.2,8.8c-0.7,0-1.3,0-2,0c-0.7,0-1.3,0-2,0c-0.3,0-0.4-0.1-0.4-0.4c0-0.1,0-0.2,0.1-0.3
		c0.1-0.5,0-1.1,0.3-1.3c0.3-0.3,1-0.1,1.5-0.1c0.8,0,1.5,0,2.3,0c0.4,0,0.5,0.1,0.5,0.5c0,0.4,0.1,0.9,0.2,1.3
		C20.7,8.6,20.6,8.8,20.2,8.8L20.2,8.8z M9.5,20.3c0.4,0,0.8,0,1.2,0c0.4,0,0.7-0.2,0.5-0.7c-0.1-0.2,0-0.3,0.1-0.4
		c0.1-0.1,0.2,0,0.3,0.1c0.2,0.2,0.4,0.3,0.5,0.5c0.3,0.4,0.7,0.5,1.2,0.5c0.3,0,0.6,0,0.6,0.4c0,0.4-0.3,0.4-0.6,0.4
		c-0.6,0-1.3,0-1.9,0c-0.7,0-1.3,0-2,0c-0.3,0-0.5-0.1-0.5-0.4C8.9,20.3,9.2,20.3,9.5,20.3L9.5,20.3z M6.8,24.5
		c-0.3,0-0.6,0-0.6-0.4c0-0.4,0.3-0.4,0.6-0.4c1.6,0,3.1,0,4.7,0c0.1,0,0.3,0,0.4,0c0.2,0,0.4-0.2,0.4-0.4c0-0.3-0.2-0.4-0.4-0.4
		c-0.2,0-0.4,0-0.6,0c-1,0-2.1,0-3.1,0c-0.3,0-0.6,0-0.6-0.4C7.7,22,7.9,22,8.3,22c2.1,0,4.3,0,6.4,0c0.3,0,0.6,0,0.6,0.4
		c0,0.4-0.3,0.4-0.6,0.4c-0.2,0-0.4,0-0.6,0c-0.3,0-0.8-0.1-0.8,0.4c0,0.5,0.4,0.4,0.7,0.4c0.7,0,1.3,0,2,0c0.3,0,0.6,0,0.6,0.4
		c0,0.4-0.3,0.4-0.6,0.4c-1.5,0-3.1,0-4.6,0c-1.4,0-2.8,0-4.3,0C7.1,24.5,7,24.5,6.8,24.5L6.8,24.5z M21.8,18c0,0.3-0.1,0.4-0.4,0.4
		c-1.1,0-2.1,0-3.2,0c-1,0-2,0-3,0c-0.4,0-0.5-0.1-0.5-0.5c0.1-1.2-0.1-1,1-1c1.8,0,3.7,0,5.5,0c0.5,0,0.7,0.1,0.6,0.6
		C21.7,17.7,21.8,17.9,21.8,18L21.8,18z M15,19.3c1.1,0,2.1,0,3.2,0c1,0,2.1,0,3.1,0c0.4,0,0.5,0.1,0.5,0.5c0,1.2,0.1,2.4,0.1,3.6
		c0,0.4-0.1,0.5-0.5,0.5c-1.1,0-2.3,0-3.4,0c-0.3,0-0.5,0-0.6-0.4c-0.1-0.4-0.5-0.7-1-0.7c-0.2,0-0.3-0.1-0.3-0.4
		c0-0.7-0.3-1.1-1-1.3c-0.1,0-0.2-0.1-0.2-0.1c0.1-0.5-0.3-1-0.3-1.5C14.6,19.2,14.9,19.3,15,19.3L15,19.3z M15.7,25.8
		c-0.2,0.7-0.4,1.5-0.5,2.2c-0.1,0.4-0.2,0.5-0.6,0.5c-2.1,0-4.1,0-6.2,0c-0.4,0-0.6-0.1-0.6-0.5c-0.2-0.8-0.3-1.6-0.5-2.3
		c-0.1-0.3,0-0.4,0.3-0.4c1.3,0,2.6,0,3.9,0c1.3,0,2.6,0,3.9,0C15.7,25.3,15.8,25.4,15.7,25.8L15.7,25.8z M21.9,28.5
		c-1.8,0-3.7,0-5.5,0c-0.1,0-0.4,0.1-0.4-0.2c0-0.3,0-0.6,0.4-0.6c0.4,0,0.9,0,1.3,0c0.3,0,0.6-0.1,0.6-0.4c0-0.4-0.3-0.4-0.6-0.4
		c-0.4,0-0.7,0-1.1,0c-0.1,0-0.3,0-0.3-0.2c-0.2-1,0.6-1.9,1.6-1.9c0.8,0,1.7,0,2.5,0c1.7,0,1.6,0,1.6,1.7c0,0.3-0.1,0.4-0.4,0.4
		c-0.6,0-1.2,0-1.9,0c-0.3,0-0.6,0.1-0.6,0.4c0,0.4,0.3,0.5,0.6,0.4c0.7,0,1.4,0,2.1,0c0.7,0,1-0.4,1-1.1c-0.1-3.2-0.3-6.4-0.4-9.5
		c0-0.6-0.4-1-1-1c-2.2,0-4.5,0-6.7,0c-0.6,0-1,0.3-1,0.9c0,0.6-0.1,1.2-0.1,1.8c0,0.3,0,0.5-0.5,0.5c-0.4,0-0.4-0.2-0.4-0.5
		c0-0.8,0.1-1.6,0.1-2.4c0-0.9,0.3-1.6,0.8-2.3c0.4-0.5,0.8-1.1,1.2-1.6c0.2-0.2,0.3-0.5,0.3-0.8c0.1-0.6,0.2-1.1,0.2-1.7
		c0-0.3,0.2-0.4,0.5-0.4c1.4,0,2.7,0,4.1,0c0.5,0,0.6,0.1,0.7,0.6c0.1,0.9,0,1.8,0.7,2.6c0,0,0.1,0.1,0.1,0.1
		c0.2,0.2,0.6,0.6,1.1,1.5c0.4,0.6,0.6,1.3,0.6,2c0.1,3.3,0.3,6.7,0.4,10C23.8,27.8,23.1,28.5,21.9,28.5L21.9,28.5z"/>
</g>
</svg>
