<svg width="122" height="171" viewBox="0 0 122 171" fill="none" xmlns="http://www.w3.org/2000/svg">
<path d="M73.7851 84.1513L66.8672 87.9277L78.1594 108.528L85.0773 104.751L73.7851 84.1513Z" fill="#EFEFEF"/>
<path d="M78.8977 93.4946L74.656 85.752C73.5798 86.482 72.4543 87.1699 71.2866 87.8087C70.119 88.4475 68.9302 89.0161 67.7344 89.5285L71.976 97.2712C73.1648 96.7377 74.3536 96.1691 75.5142 95.5303C76.6819 94.8915 77.8003 94.2036 78.8906 93.4946H78.8977Z" fill="#EFEFEF"/>
<path d="M26.4779 6.04948C2.5686 19.099 -6.21008 49.0167 6.8665 72.8694C19.9431 96.7291 49.9229 105.49 73.8321 92.4401C97.7414 79.3906 106.52 49.4729 93.4435 25.6132C80.3669 1.76048 50.3801 -7.00002 26.4779 6.04948ZM69.5975 84.7185C49.9651 95.4375 25.3454 88.2354 14.6112 68.6506C3.86993 49.0588 11.08 24.4901 30.7125 13.7781C50.3449 3.05911 74.9646 10.2542 85.6988 29.846C96.4401 49.4378 89.223 74.0066 69.5975 84.7185Z" fill="#EFEFEF"/>
<path d="M87.7437 103.299L75.5 109.982L108.948 171L121.191 164.316L87.7437 103.299Z" fill="#EFEFEF"/>
<path d="M79.6831 107.696L77.2578 109.02L110.706 170.037L113.131 168.713L79.6831 107.696Z" fill="#EFEFEF"/>
<path d="M87.7346 103.302L83.7109 105.498L117.159 166.516L121.182 164.319L87.7346 103.302Z" fill="#EFEFEF"/>
</svg>
