<?xml version="1.0" encoding="utf-8"?>
<!-- Generator: Adobe Illustrator 25.1.0, SVG Export Plug-In . SVG Version: 6.00 Build 0)  -->
<svg version="1.1" id="Layer_1" xmlns="http://www.w3.org/2000/svg" xmlns:xlink="http://www.w3.org/1999/xlink" x="0px" y="0px"
	 width="209px" height="296px" viewBox="0 0 209 296" style="enable-background:new 0 0 209 296;" xml:space="preserve">
<style type="text/css">
	.st0{fill:#EFEFEF;}
</style>
<g>
	<path class="st0" d="M126.6,145.7l-12,6.5l19.5,35.7l12-6.5L126.6,145.7z"/>
	<path class="st0" d="M135.5,161.8l-7.3-13.4c-1.9,1.3-3.8,2.5-5.8,3.6c-2,1.1-4.1,2.1-6.1,3l7.3,13.4c2.1-0.9,4.1-1.9,6.1-3
		C131.6,164.3,133.6,163.1,135.5,161.8L135.5,161.8z"/>
	<path class="st0" d="M44.7,10.5C3.4,33.1-11.8,84.8,10.8,126.1c22.6,41.3,74.5,56.5,115.9,33.9c41.4-22.6,56.6-74.4,33.9-115.7
		C138,3,86.1-12.1,44.7,10.5z M119.4,146.6c-34,18.6-76.6,6.1-95.2-27.8c-18.6-33.9-6.1-76.4,27.9-95c34-18.6,76.6-6.1,95.2,27.8
		C165.9,85.6,153.4,128.1,119.4,146.6z"/>
	<path class="st0" d="M150.8,178.8l-21.2,11.6L187.5,296l21.2-11.6L150.8,178.8z"/>
	<path class="st0" d="M136.8,186.4l-4.2,2.3l57.9,105.6l4.2-2.3L136.8,186.4z"/>
	<path class="st0" d="M150.8,178.8l-7,3.8l57.9,105.6l7-3.8L150.8,178.8z"/>
</g>
</svg>
