<?xml version="1.0" encoding="utf-8"?>
<!-- Generator: Adobe Illustrator 25.1.0, SVG Export Plug-In . SVG Version: 6.00 Build 0)  -->
<svg version="1.1" id="Layer_1" xmlns="http://www.w3.org/2000/svg" xmlns:xlink="http://www.w3.org/1999/xlink" x="0px" y="0px"
	 width="240px" height="62px" viewBox="0 0 240 62" style="enable-background:new 0 0 240 62;" xml:space="preserve">
<style type="text/css">
	.st0{fill:#FFFFFF;}
	.st1{fill:#6F97FF;}
</style>
<g>
	<path class="st0" d="M11.5,28.8c2,0,3.3-0.3,4.1-1.1c0.8-0.6,1.2-1.5,1.2-2.4s-0.3-1.5-0.9-2.1s-1.5-1.1-2.9-1.4l-2.7-0.9
		c-1.5-0.5-2.9-1.1-4.1-1.5c-1.2-0.6-2.3-1.2-3.2-2s-1.5-1.7-2-2.7c-0.6-1.2-0.9-2.4-0.9-3.9c0-3,1.2-5.4,3.5-7.3S9,0.8,13.3,0.8
		c1.5,0,3,0.2,4.4,0.3c1.2,0.3,2.4,0.6,3.3,1.1s1.7,1.1,2.3,1.7C23.9,4.5,24,5.2,24,6.1s-0.2,1.5-0.6,2.3C23,9,22.5,9.6,21.9,10.1
		c-0.8-0.6-2-1.1-3.3-1.5C17.4,8.1,15.9,8,14.2,8s-3,0.3-3.9,0.8C9.5,9.4,9.1,10,9.1,10.9c0,0.8,0.3,1.4,0.8,1.7
		c0.6,0.3,1.5,0.8,2.6,1.1l2.9,0.9c1.7,0.6,3.2,1.2,4.5,1.8c1.2,0.6,2.4,1.4,3.2,2.3c0.9,0.9,1.5,1.8,2,2.9s0.6,2.4,0.6,3.8
		c0,1.5-0.3,2.9-0.9,4.2c-0.6,1.2-1.5,2.3-2.7,3.2s-2.6,1.7-4.4,2.1c-1.7,0.5-3.8,0.8-5.9,0.8C10,35.5,8.5,35.3,7,35
		c-1.4-0.3-2.6-0.6-3.6-1.2C2.3,33.3,1.6,32.6,1,32c-0.7-0.8-1-1.5-1-2.6c0-0.9,0.3-1.8,0.9-2.4s1.2-1.2,1.8-1.5
		C3.6,26.2,5,27,6.4,27.6C7.7,28.2,9.7,28.8,11.5,28.8L11.5,28.8z"/>
	<path class="st0" d="M64,18.2c0,2.9-0.5,5.3-1.4,7.6c-0.9,2.1-2,3.9-3.6,5.4c-1.5,1.5-3.3,2.6-5.4,3.3c-2.1,0.8-4.4,1.2-6.8,1.2
		s-4.7-0.3-6.8-1.2c-2.1-0.8-3.8-1.8-5.3-3.3s-2.7-3.3-3.5-5.4c-0.9-2.1-1.2-4.7-1.2-7.6s0.5-5.3,1.4-7.6c0.9-2.1,2.1-3.9,3.6-5.4
		s3.3-2.6,5.3-3.3c2.1-0.8,4.2-1.2,6.7-1.2s4.7,0.3,6.7,1.2c2.1,0.8,3.9,1.8,5.4,3.3s2.7,3.3,3.6,5.4C63.5,12.9,64,15.5,64,18.2
		L64,18.2z M55,18.2c0-3.5-0.8-6-2.3-7.9s-3.5-2.7-5.9-2.7s-4.4,0.9-5.9,2.7s-2.3,4.4-2.3,7.9s0.8,6.2,2.3,7.9
		c1.5,1.8,3.5,2.7,5.9,2.7s4.5-0.9,5.9-2.7C54.4,24.4,55,21.9,55,18.2z"/>
	<path class="st0" d="M85,9.9c0.5-0.2,0.9-0.5,1.7-0.6S88.2,9,89.1,9c1.4,0,2.6,0.2,3.5,0.6s1.5,1.1,1.7,1.8c0.5,1.7,0.9,3,1.2,4.4
		c0.5,1.4,0.8,2.7,1.2,3.9c0.3,1.2,0.8,2.6,1.1,3.8c0.3,1.2,0.6,2.6,1.1,3.9h0.3c0.3-2.3,0.8-4.4,1.1-6.5s0.6-4.1,0.9-6.2
		c0.3-2,0.5-4.1,0.8-6c0-2,0.3-3.9,0.6-6c1.2-0.8,2.4-1.1,3.9-1.1c1.2,0,2.3,0.3,3,0.8c0.9,0.5,1.4,1.4,1.4,2.7
		c0,0.8-0.2,1.8-0.3,3.3s-0.5,3.2-0.6,5c-0.3,1.8-0.6,3.8-1.1,5.7c-0.3,2-0.8,3.9-1.2,5.7c-0.5,1.8-0.9,3.6-1.2,5.1
		c-0.5,1.5-0.9,2.7-1.2,3.6c-0.5,0.5-1.4,0.8-2.4,1.1c-1.1,0.3-2.3,0.5-3.3,0.5c-1.5,0-2.9-0.2-3.9-0.6s-1.8-1.1-2-1.8
		c-0.5-1.5-1.1-3.5-1.8-5.7c-0.6-2.3-1.4-4.8-2.1-7.4c-0.3,1.4-0.6,2.6-0.9,3.9c-0.3,1.4-0.6,2.6-1.1,3.8c-0.3,1.2-0.6,2.4-0.9,3.5
		s-0.6,2-0.9,2.9c-0.5,0.5-1.2,0.8-2.3,1.1c-0.9,0.3-2,0.5-3.2,0.5c-1.5,0-2.7-0.2-3.9-0.6s-2-1.1-2.3-1.7c-0.3-0.8-0.6-1.7-1.1-3
		c-0.3-1.4-0.8-2.9-1.2-4.5c-0.5-1.7-0.8-3.5-1.2-5.4c-0.5-2-0.8-3.9-1.2-5.9c-0.3-2-0.8-3.8-1.1-5.7C68.2,6.7,68,5,67.7,3.4
		c0.5-0.5,1.1-0.8,2-1.2c0.8-0.3,1.7-0.6,2.7-0.6c1.2,0,2.3,0.3,3,0.9s1.4,1.5,1.5,2.7c0.6,3.5,1.1,6.4,1.5,8.8
		c0.3,2.4,0.8,4.4,0.9,6.2c0.3,1.7,0.5,3.2,0.8,4.2c0.2,1.2,0.5,2.3,0.6,3.2H81c0.3-1.5,0.8-2.9,1.1-4.1c0.3-1.2,0.6-2.6,1.1-3.9
		c0.5-1.4,0.8-2.7,1.1-4.2C84.1,13.7,84.5,12,85,9.9L85,9.9z"/>
	<path class="st0" d="M132.2,8.7v26.2c-0.5,0.2-0.9,0.2-1.7,0.3c-0.8,0.2-1.5,0.2-2.3,0.2c-1.7,0-2.9-0.3-3.6-0.9
		c-0.8-0.6-1.1-1.7-1.1-3.2V8.7h-8.6c-0.2-0.3-0.5-0.8-0.6-1.4c-0.2-0.6-0.3-1.2-0.3-2c0-1.2,0.3-2.1,0.8-2.7s1.2-0.9,2.3-0.9h23.7
		c0.5,0.5,0.6,0.9,0.8,1.5s0.3,1.2,0.3,2c0,1.2-0.3,2.1-0.8,2.7c-0.6,0.6-1.2,0.9-2.3,0.9L132.2,8.7L132.2,8.7z"/>
	<path class="st0" d="M174.7,29.9c0,1.1-0.2,1.8-0.6,2.4c-0.5,0.5-1.1,1.1-2,1.5c-0.5,0.3-1.2,0.6-1.8,0.8c-0.8,0.3-1.5,0.5-2.4,0.6
		c-0.9,0.2-1.8,0.3-2.7,0.5s-2,0.2-2.9,0.2c-2.6,0-5-0.3-7.3-1.1c-2.3-0.6-4.2-1.7-5.9-3.2c-1.7-1.4-3-3.2-3.9-5.4
		c-0.9-2.1-1.4-4.8-1.4-7.9c0-2.9,0.5-5.4,1.5-7.6c0.8-2.1,2.1-3.9,3.8-5.4s3.6-2.6,5.9-3.3s4.7-1.1,7.3-1.1c3.3,0,6,0.6,8,1.5
		c2,1.1,3,2.4,3,4.1c0,0.9-0.2,1.5-0.6,2.3c-0.5,0.6-0.9,1.2-1.5,1.5c-0.9-0.6-2-1.1-3.3-1.7c-1.4-0.5-3-0.8-4.8-0.8
		c-1.5,0-2.9,0.3-4.2,0.8c-1.2,0.5-2.3,1.2-3.2,2.1c-0.9,0.9-1.7,2-2.1,3.3s-0.8,2.7-0.8,4.4c0,1.8,0.3,3.3,0.8,4.7s1.2,2.4,2.1,3.3
		c0.9,0.9,2,1.5,3.2,2s2.6,0.6,3.9,0.6c0.9,0,1.7-0.2,2.4-0.3c0.8-0.2,1.2-0.3,1.7-0.6v-6.2h-6.2c-0.2-0.3-0.5-0.9-0.6-1.4
		c-0.2-0.6-0.3-1.2-0.3-1.8c0-1.2,0.3-2,0.8-2.6c0.6-0.6,1.2-0.8,2.1-0.8h9.2c1.1,0,1.8,0.3,2.4,0.9c0.6,0.6,0.9,1.4,0.9,2.4
		L174.7,29.9L174.7,29.9z"/>
	<path class="st0" d="M182.5,33.8c-0.8-0.8-1.2-2-1.2-3.3v-24c0-1.4,0.5-2.4,1.2-3.3s2-1.2,3.3-1.2h18c0.2,0.3,0.5,0.8,0.6,1.4
		c0.2,0.6,0.3,1.2,0.3,1.8c0,1.2-0.3,2.1-0.8,2.7s-1.2,0.9-2.3,0.9h-12.1v6h12.7c0.2,0.3,0.5,0.8,0.6,1.4c0.2,0.6,0.3,1.2,0.3,1.8
		c0,1.2-0.3,2.1-0.8,2.7s-1.2,0.9-2.1,0.9h-10.6v6.8H204c0.2,0.3,0.5,0.9,0.6,1.4c0.2,0.6,0.3,1.2,0.3,2c0,1.2-0.3,2.1-0.8,2.6
		c-0.5,0.6-1.2,0.8-2.1,0.8h-16C184.5,35,183.4,34.6,182.5,33.8L182.5,33.8z"/>
	<path class="st0" d="M238.2,34.9c-0.9,0.3-2,0.5-3.2,0.5s-2.4-0.2-3.5-0.6c-1.1-0.5-2-1.4-2.7-2.7l-6.4-12.2
		c-0.6-1.2-1.2-2.3-1.7-3.5c-0.6-1.2-1.1-2.4-1.5-3.6l-0.3,0.2c0.2,2.1,0.3,4.2,0.3,6.2s0,3.9,0,5.7V35c-0.3,0-0.9,0.2-1.7,0.3
		s-1.5,0.2-2.3,0.2c-1.7,0-2.7-0.3-3.5-0.9c-0.6-0.6-0.9-1.5-0.9-3V3.2c0.5-0.6,1.2-1.1,2.1-1.5c0.9-0.3,2-0.5,3-0.5
		c1.2,0,2.4,0.2,3.5,0.6s2,1.2,2.7,2.7l6.4,12.2c0.6,1.2,1.2,2.3,1.7,3.5c0.6,1.2,1.1,2.4,1.5,3.6h0.2c-0.2-2.4-0.3-4.7-0.3-7
		c0-2.1,0-4.2,0-6.4V1.6c0.3,0,0.9-0.2,1.7-0.3c0.8-0.2,1.5-0.2,2.3-0.2c1.7,0,2.7,0.3,3.5,0.9s0.9,1.5,0.9,3v28.7
		C239.7,34.3,239.1,34.6,238.2,34.9L238.2,34.9z"/>
	<path class="st1" d="M11.8,58.4v2.4H2.1V47h9.5v2.4H4.8v3.3h5.9V55H4.8v3.6L11.8,58.4L11.8,58.4z"/>
	<path class="st1" d="M13.9,60.9V47h2.7v11.6h7.1V61L13.9,60.9C13.9,61,13.9,60.9,13.9,60.9z"/>
	<path class="st1" d="M35.1,58.4v2.4h-9.7V47h9.5v2.4h-6.8v3.3H34V55h-5.9v3.6L35.1,58.4L35.1,58.4z"/>
	<path class="st1" d="M48.5,60.9v-9.2l-3.6,6.8h-1.5l-3.6-6.8v9.2h-2.7V47h3l4.1,7.9l4.2-7.9h2.9v13.9H48.5z"/>
	<path class="st1" d="M63.8,58.4v2.4h-9.7V47h9.5v2.4h-6.8v3.3h5.9V55h-5.9v3.6L63.8,58.4L63.8,58.4z"/>
	<path class="st1" d="M68.7,51.9v8.9H66V47h2.1l7.3,9.2v-9.1H78V61h-2.3L68.7,51.9L68.7,51.9z"/>
	<path class="st1" d="M91.5,49.2H87v11.6h-2.7V49.2h-4.4v-2.4h11.6V49.2z"/>
	<path class="st1" d="M101.5,50.6c-0.2-0.2-0.3-0.2-0.5-0.3c-0.3-0.2-0.6-0.3-0.9-0.5s-0.8-0.3-1.2-0.3c-0.5-0.2-0.8-0.2-1.2-0.2
		c-0.8,0-1.4,0.2-1.7,0.5c-0.3,0.3-0.6,0.6-0.6,1.2c0,0.3,0,0.5,0.2,0.8c0.2,0.2,0.3,0.3,0.6,0.5c0.3,0.2,0.6,0.3,1.1,0.5
		s0.9,0.3,1.4,0.3c0.8,0.2,1.4,0.3,1.8,0.6c0.6,0.2,1.1,0.5,1.4,0.8c0.5,0.3,0.8,0.8,0.9,1.2c0.2,0.5,0.3,0.9,0.3,1.7
		s-0.2,1.4-0.5,2c-0.3,0.5-0.6,0.9-1.2,1.2c-0.5,0.3-1.1,0.6-1.7,0.8s-1.2,0.2-2,0.2c-1.1,0-2.1-0.2-3-0.5c-1.1-0.3-2-0.8-2.7-1.4
		l1.2-2.3c0.2,0.2,0.3,0.3,0.6,0.5s0.6,0.3,1.1,0.6s0.9,0.3,1.4,0.5s1.1,0.2,1.5,0.2c1.5,0,2.3-0.5,2.3-1.5c0-0.3-0.2-0.6-0.3-0.8
		c-0.2-0.2-0.5-0.5-0.8-0.6s-0.8-0.3-1.1-0.5c-0.5-0.2-0.9-0.3-1.5-0.5s-1.2-0.3-1.7-0.6c-0.5-0.2-0.9-0.5-1.2-0.8s-0.6-0.6-0.8-1.1
		s-0.3-0.9-0.3-1.4c0-0.8,0.2-1.4,0.5-1.8c0.3-0.6,0.6-1.1,1.1-1.4c0.5-0.3,1.1-0.6,1.7-0.9c0.6-0.2,1.2-0.3,2-0.3
		c0.9,0,1.8,0.2,2.7,0.5c0.8,0.3,1.5,0.6,2.1,1.1L101.5,50.6L101.5,50.6z"/>
</g>
</svg>
