<?xml version="1.0" encoding="utf-8"?>
<!-- Generator: Adobe Illustrator 25.1.0, SVG Export Plug-In . SVG Version: 6.00 Build 0)  -->
<svg version="1.1" id="Layer_1" xmlns="http://www.w3.org/2000/svg" xmlns:xlink="http://www.w3.org/1999/xlink" x="0px" y="0px"
	 width="160px" height="24px" viewBox="0 0 160 24" style="enable-background:new 0 0 160 24;" xml:space="preserve">
<style type="text/css">
	.st0{fill:#FFFFFF;}
</style>
<path class="st0" d="M8.1,18.9c1.3,0,2.2-0.2,2.7-0.7c0.5-0.4,0.8-1,0.8-1.6c0-0.6-0.2-1-0.6-1.4s-1.1-0.6-1.9-0.9l-1.8-0.6
	c-1-0.3-1.9-0.6-2.7-1c-0.8-0.4-1.5-0.8-2.1-1.3c-0.6-0.5-1-1.1-1.3-1.8C0.8,8.9,0.6,8,0.6,7c0-2,0.8-3.6,2.3-4.8
	C4.5,1,6.6,0.4,9.3,0.4c1,0,2,0.1,2.9,0.2C13,0.8,13.8,1,14.4,1.3s1.1,0.7,1.5,1.1c0.4,0.4,0.5,0.9,0.5,1.5S16.3,5,16,5.4
	c-0.3,0.4-0.6,0.8-1,1.1c-0.5-0.4-1.3-0.7-2.2-1C12,5.2,11,5.1,9.9,5.1c-1.1,0-2,0.2-2.6,0.5C6.8,6,6.5,6.5,6.5,7
	c0,0.5,0.2,0.8,0.5,1.1c0.4,0.2,0.9,0.5,1.7,0.8l1.9,0.6c1.1,0.4,2.1,0.8,3,1.2c0.8,0.4,1.6,0.9,2.1,1.5s1,1.2,1.3,1.9
	c0.3,0.7,0.4,1.6,0.4,2.5c0,1-0.2,1.9-0.6,2.8c-0.4,0.8-1,1.5-1.8,2.1c-0.8,0.6-1.7,1.1-2.9,1.4s-2.5,0.5-3.9,0.5
	c-1.1,0-2.1-0.1-3.1-0.3c-0.9-0.2-1.7-0.4-2.4-0.8c-0.7-0.3-1.2-0.8-1.6-1.2c-0.4-0.5-0.6-1-0.6-1.7c0-0.6,0.2-1.2,0.6-1.6
	s0.8-0.8,1.2-1c0.7,0.5,1.5,1,2.4,1.4S6.9,18.9,8.1,18.9L8.1,18.9z"/>
<path class="st0" d="M42.8,12c0,1.9-0.3,3.5-0.8,5c-0.6,1.4-1.3,2.7-2.4,3.6c-1,1-2.2,1.7-3.6,2.2c-1.4,0.5-2.9,0.8-4.5,0.8
	c-1.6,0-3.1-0.2-4.5-0.8c-1.4-0.5-2.5-1.2-3.5-2.2c-1-1-1.8-2.2-2.3-3.6s-0.9-3.1-0.9-5s0.3-3.5,0.9-5s1.4-2.6,2.4-3.6
	s2.2-1.7,3.6-2.2c1.4-0.5,2.8-0.8,4.4-0.8s3.1,0.3,4.4,0.8c1.4,0.5,2.6,1.2,3.6,2.2c1,1,1.8,2.2,2.4,3.6C42.5,8.5,42.8,10.1,42.8,12
	L42.8,12z M36.9,12c0-2.3-0.5-4-1.5-5.2S33.2,5,31.5,5c-1.7,0-2.9,0.6-3.9,1.8s-1.5,2.9-1.5,5.2c0,2.3,0.5,4.1,1.5,5.2
	s2.3,1.8,4,1.8c1.7,0,3-0.6,3.9-1.8C36.5,16.1,36.9,14.3,36.9,12z"/>
<path class="st0" d="M56.7,6.4C57,6.3,57.3,6.2,57.8,6c0.5-0.1,1-0.2,1.6-0.2c0.9,0,1.7,0.1,2.3,0.4c0.6,0.3,1,0.7,1.1,1.2
	c0.3,1.1,0.6,2,0.8,2.9c0.3,0.9,0.5,1.8,0.8,2.6c0.2,0.8,0.5,1.7,0.7,2.5c0.2,0.8,0.5,1.7,0.7,2.6h0.2c0.2-1.5,0.5-2.9,0.7-4.3
	S67,11,67.1,9.7c0.2-1.3,0.4-2.7,0.5-4S68,3,68.2,1.6c0.8-0.5,1.6-0.7,2.6-0.7c0.8,0,1.5,0.2,2.1,0.5c0.6,0.3,0.9,0.9,0.9,1.8
	c0,0.5,0,1.2-0.2,2.2c-0.1,1-0.3,2.1-0.4,3.3c-0.2,1.2-0.4,2.5-0.7,3.8c-0.2,1.3-0.5,2.6-0.8,3.8c-0.3,1.2-0.6,2.4-0.8,3.4
	s-0.6,1.8-0.8,2.4c-0.3,0.3-0.9,0.5-1.6,0.7c-0.7,0.2-1.5,0.3-2.2,0.3c-1,0-1.9-0.1-2.6-0.4c-0.7-0.3-1.1-0.7-1.3-1.2
	c-0.3-1-0.7-2.3-1.2-3.8c-0.5-1.5-0.9-3.2-1.4-4.9c-0.2,0.9-0.4,1.7-0.6,2.6c-0.2,0.9-0.4,1.7-0.7,2.5c-0.2,0.8-0.4,1.6-0.6,2.3
	c-0.2,0.7-0.4,1.3-0.6,1.9c-0.3,0.3-0.8,0.5-1.5,0.7c-0.6,0.2-1.4,0.3-2.2,0.3c-1,0-1.8-0.1-2.6-0.4c-0.8-0.3-1.3-0.7-1.5-1.2
	c-0.2-0.5-0.5-1.1-0.7-2c-0.2-0.9-0.5-1.9-0.8-3c-0.3-1.1-0.5-2.3-0.8-3.6c-0.3-1.3-0.5-2.6-0.8-3.9c-0.2-1.3-0.5-2.5-0.7-3.8
	c-0.2-1.2-0.4-2.3-0.5-3.4c0.3-0.3,0.7-0.5,1.3-0.8C47,1.1,47.5,1,48.2,1c0.8,0,1.5,0.2,2,0.6s0.9,1,1,1.8c0.4,2.3,0.7,4.2,1,5.8
	c0.2,1.6,0.5,2.9,0.7,4.1c0.2,1.1,0.3,2.1,0.5,2.9c0.1,0.8,0.3,1.4,0.4,2h0.2c0.2-1,0.5-1.9,0.7-2.7c0.2-0.8,0.4-1.7,0.7-2.6
	s0.5-1.8,0.7-2.8C56.1,8.9,56.4,7.8,56.7,6.4L56.7,6.4z"/>
<path class="st0" d="M87.9,5.6v17.3c-0.3,0.1-0.6,0.1-1.1,0.2c-0.5,0.1-1,0.1-1.5,0.1c-1.1,0-1.9-0.2-2.4-0.6
	c-0.5-0.4-0.7-1.1-0.7-2.1V5.6h-5.7c-0.1-0.2-0.3-0.6-0.4-0.9c-0.1-0.4-0.2-0.8-0.2-1.3c0-0.8,0.2-1.4,0.5-1.8s0.8-0.6,1.5-0.6h15.8
	C93.9,1.3,94,1.6,94.1,2c0.1,0.4,0.2,0.8,0.2,1.3c0,0.8-0.2,1.4-0.5,1.8c-0.4,0.4-0.8,0.6-1.5,0.6L87.9,5.6L87.9,5.6z"/>
<path class="st0" d="M116,19.6c0,0.7-0.1,1.2-0.4,1.6c-0.3,0.3-0.7,0.7-1.3,1c-0.3,0.2-0.8,0.4-1.2,0.5c-0.5,0.2-1,0.3-1.6,0.4
	c-0.6,0.1-1.2,0.2-1.8,0.3c-0.6,0.1-1.3,0.1-1.9,0.1c-1.7,0-3.3-0.2-4.8-0.7c-1.5-0.4-2.8-1.1-3.9-2.1c-1.1-0.9-2-2.1-2.6-3.6
	c-0.6-1.4-0.9-3.2-0.9-5.2c0-1.9,0.3-3.6,1-5c0.6-1.4,1.5-2.7,2.6-3.6c1.1-1,2.4-1.7,3.9-2.2c1.5-0.5,3.1-0.7,4.8-0.7
	c2.2,0,4,0.3,5.3,1c1.3,0.7,2,1.6,2,2.7c0,0.6-0.1,1-0.4,1.5s-0.6,0.8-1,1c-0.6-0.4-1.3-0.7-2.2-1.1c-0.9-0.3-2-0.5-3.2-0.5
	c-1,0-1.9,0.2-2.8,0.5c-0.8,0.3-1.5,0.8-2.2,1.4c-0.6,0.6-1.1,1.3-1.4,2.2c-0.3,0.9-0.5,1.8-0.5,2.9c0,1.2,0.2,2.2,0.5,3.1
	c0.3,0.9,0.8,1.6,1.4,2.2c0.6,0.6,1.3,1,2.1,1.3c0.8,0.3,1.7,0.4,2.6,0.4c0.6,0,1.1-0.1,1.6-0.2c0.5-0.1,0.8-0.2,1.1-0.4v-4.1h-4.2
	c-0.1-0.2-0.3-0.6-0.4-0.9c-0.1-0.4-0.2-0.8-0.2-1.2c0-0.8,0.2-1.3,0.5-1.7c0.4-0.4,0.8-0.5,1.4-0.5h6.1c0.7,0,1.2,0.2,1.6,0.6
	c0.4,0.4,0.6,0.9,0.6,1.6L116,19.6L116,19.6z"/>
<path class="st0" d="M121.2,22.2c-0.5-0.5-0.8-1.3-0.8-2.2V4.1c0-0.9,0.3-1.6,0.8-2.2s1.3-0.8,2.2-0.8h11.9c0.1,0.2,0.3,0.5,0.4,0.9
	c0.1,0.4,0.2,0.8,0.2,1.2c0,0.8-0.2,1.4-0.5,1.8c-0.4,0.4-0.8,0.6-1.5,0.6h-8v4h8.4c0.1,0.2,0.3,0.5,0.4,0.9
	c0.1,0.4,0.2,0.8,0.2,1.2c0,0.8-0.2,1.4-0.5,1.8c-0.3,0.4-0.8,0.6-1.4,0.6h-7v4.5h9.6c0.1,0.2,0.3,0.5,0.4,0.9
	c0.1,0.4,0.2,0.8,0.2,1.3c0,0.8-0.2,1.4-0.5,1.7c-0.4,0.4-0.8,0.5-1.4,0.5h-10.7C122.5,23,121.8,22.8,121.2,22.2L121.2,22.2z"/>
<path class="st0" d="M158,23c-0.6,0.2-1.3,0.3-2.1,0.3s-1.6-0.1-2.3-0.4c-0.7-0.3-1.3-0.9-1.8-1.8l-4.2-8.1
	c-0.4-0.8-0.8-1.5-1.1-2.3c-0.4-0.8-0.7-1.6-1-2.4l-0.2,0.1c0.1,1.4,0.2,2.8,0.2,4.1c0,1.3,0,2.6,0,3.8v6.7c-0.2,0-0.6,0.1-1.1,0.2
	c-0.5,0.1-1,0.1-1.5,0.1c-1.1,0-1.8-0.2-2.3-0.6c-0.4-0.4-0.7-1-0.7-2V2.1c0.3-0.4,0.8-0.7,1.4-1c0.6-0.2,1.3-0.3,2-0.3
	c0.8,0,1.6,0.1,2.3,0.4c0.7,0.3,1.3,0.9,1.8,1.8l4.2,8.1c0.4,0.8,0.8,1.5,1.1,2.3c0.3,0.8,0.7,1.6,1,2.4l0.1,0
	c-0.1-1.6-0.2-3.1-0.2-4.6c0-1.4,0-2.8,0-4.2V1c0.2,0,0.6-0.1,1.1-0.2s1-0.1,1.5-0.1c1.1,0,1.8,0.2,2.3,0.6c0.4,0.4,0.6,1,0.6,2v19
	C159,22.5,158.6,22.8,158,23L158,23z"/>
</svg>
