<?xml version="1.0" encoding="utf-8"?>
<!-- Generator: Adobe Illustrator 25.1.0, SVG Export Plug-In . SVG Version: 6.00 Build 0)  -->
<svg version="1.1" id="Layer_1" xmlns="http://www.w3.org/2000/svg" xmlns:xlink="http://www.w3.org/1999/xlink" x="0px" y="0px"
	 width="240px" height="62px" viewBox="0 0 240 62" style="enable-background:new 0 0 240 62;" xml:space="preserve">
<style type="text/css">
	.st0{fill:#FFFFFF;}
	.st1{fill:#00E3D5;}
</style>
<g>
	<path class="st0" d="M11.5,28.7c2,0,3.3-0.3,4.1-1.1c0.8-0.6,1.2-1.5,1.2-2.4s-0.3-1.5-0.9-2.1c-0.6-0.5-1.5-0.9-2.9-1.4l-2.7-0.9
		c-1.5-0.5-2.9-0.9-4.1-1.5s-2.3-1.2-3.2-2s-1.5-1.7-2-2.7c-0.6-1.2-0.9-2.4-0.9-3.9c0-3,1.2-5.4,3.5-7.3S9,0.7,13.3,0.7
		c1.5,0,3,0.2,4.4,0.3c1.2,0.3,2.4,0.6,3.3,1.1s1.7,1.1,2.3,1.7c0.6,0.6,0.8,1.4,0.8,2.3s-0.2,1.5-0.6,2.3c-0.5,0.5-1,1.1-1.6,1.6
		c-0.8-0.6-2-1.1-3.3-1.5c-1.2-0.5-2.7-0.6-4.4-0.6s-3,0.3-3.9,0.8c-0.8,0.6-1.2,1.2-1.2,2.1c0,0.8,0.3,1.2,0.8,1.7
		c0.6,0.3,1.4,0.8,2.6,1.1l2.9,0.9c1.7,0.6,3.2,1.2,4.5,1.8c1.2,0.6,2.4,1.4,3.2,2.3c0.9,0.9,1.5,1.8,2,2.9s0.6,2.4,0.6,3.8
		c0,1.5-0.3,2.9-0.9,4.2c-0.6,1.2-1.5,2.3-2.7,3.2s-2.6,1.7-4.4,2.1c-1.7,0.5-3.8,0.8-5.9,0.8c-1.7,0-3.2-0.2-4.7-0.5
		c-1.4-0.3-2.6-0.6-3.6-1.2c-1.1-0.5-1.8-1.1-2.4-1.8C0.3,31.2,0,30.4,0,29.3c0-0.9,0.3-1.8,0.9-2.4s1.2-1.2,1.8-1.5
		c0.9,0.8,2.3,1.5,3.6,2.1C8,28.4,9.7,28.7,11.5,28.7L11.5,28.7z"/>
	<path class="st0" d="M64,18.3c0,2.9-0.5,5.3-1.2,7.6c-0.9,2.1-2,3.9-3.6,5.4c-1.5,1.5-3.3,2.6-5.4,3.3c-2.1,0.8-4.4,1.2-6.8,1.2
		c-2.4,0-4.7-0.3-6.8-1.2c-2.1-0.8-3.8-1.8-5.3-3.3s-2.7-3.3-3.5-5.4c-0.9-2.1-1.2-4.7-1.2-7.6s0.5-5.3,1.4-7.6
		c0.9-2.1,2.1-3.9,3.6-5.4s3.3-2.6,5.3-3.3c2.1-0.8,4.2-1.2,6.7-1.2c2.4,0,4.7,0.3,6.7,1.2c2.1,0.8,3.9,1.8,5.4,3.3s2.7,3.3,3.6,5.4
		C63.6,12.8,64,15.4,64,18.3L64,18.3z M55.2,18.3c0-3.5-0.8-6.1-2.3-7.9S49.4,7.8,47,7.8c-2.6,0-4.4,0.9-5.9,2.6
		c-1.5,1.8-2.3,4.4-2.3,7.9s0.8,6.2,2.3,7.9c1.5,1.8,3.5,2.6,5.9,2.6c2.6,0,4.5-0.9,5.9-2.6C54.5,24.3,55.2,21.8,55.2,18.3z"/>
	<path class="st0" d="M85,9.8c0.5-0.2,0.9-0.5,1.7-0.6c0.8-0.2,1.5-0.3,2.4-0.3c1.4,0,2.6,0.2,3.5,0.6c0.9,0.5,1.5,1.1,1.7,1.8
		c0.5,1.7,0.9,3,1.2,4.4c0.5,1.4,0.8,2.7,1.2,3.9c0.3,1.2,0.8,2.6,1.1,3.8c0.3,1.2,0.8,2.6,1.1,3.9h0.3c0.3-2.3,0.8-4.4,0.9-6.5
		c0.3-2.1,0.6-4.1,0.9-6.2s0.6-4.1,0.8-6.1c0.2-2,0.5-3.9,0.8-6.1c1.2-0.8,2.4-1.1,3.9-1.1c1.2,0,2.3,0.3,3,0.8
		c0.9,0.5,1.4,1.4,1.4,2.6c0,0.8-0.2,1.8-0.3,3.3s-0.5,3.2-0.6,5c-0.3,1.8-0.6,3.8-1.1,5.8c-0.3,2-0.8,3.9-1.2,5.8
		c-0.5,1.8-0.9,3.6-1.2,5.1c-0.5,1.5-0.9,2.7-1.2,3.6c-0.5,0.5-1.4,0.8-2.4,1.1c-1.1,0.3-2.3,0.5-3.3,0.5c-1.5,0-2.9-0.2-3.9-0.6
		c-1.1-0.5-1.7-1.1-2-1.8c-0.5-1.5-1.1-3.5-1.8-5.8s-1.4-4.8-2.1-7.4c-0.3,1.4-0.6,2.6-0.9,3.9c-0.3,1.4-0.6,2.6-1.1,3.8
		c-0.3,1.2-0.6,2.4-0.9,3.5s-0.6,2-0.9,2.9c-0.5,0.5-1.2,0.8-2.3,1.1c-0.9,0.3-2,0.5-3.2,0.5c-1.5,0-2.7-0.2-3.9-0.6
		c-1.2-0.5-2-1.1-2.3-1.7c-0.3-0.8-0.6-1.7-1.1-3c-0.3-1.4-0.8-2.9-1.2-4.5s-0.9-3.5-1.2-5.4c-0.5-2-0.8-3.9-1.2-5.9
		c-0.3-2-0.8-3.8-1.1-5.8c-0.3-1.8-0.5-3.5-0.8-5c0.5-0.5,1.1-0.8,2-1.2c0.8-0.3,1.7-0.6,2.7-0.6c1.2,0,2.3,0.3,3,0.9
		s1.2,1.5,1.5,2.7c0.6,3.5,1.1,6.4,1.5,8.8c0.3,2.4,0.8,4.4,1.1,6.2s0.5,3.2,0.8,4.2c0.2,1.2,0.5,2.1,0.6,3h0.3
		c0.3-1.5,0.8-2.9,1.1-4.1c0.3-1.2,0.6-2.6,1.1-3.9c0.3-1.4,0.8-2.7,1.1-4.2C84.3,13.6,84.6,11.9,85,9.8L85,9.8z"/>
	<path class="st0" d="M132.3,8.6v26.2c-0.5,0.2-0.9,0.2-1.7,0.3c-0.8,0.2-1.5,0.2-2.3,0.2c-1.7,0-2.9-0.3-3.6-0.9
		c-0.8-0.6-1.1-1.7-1.1-3.2V8.6H115c-0.2-0.3-0.5-0.8-0.6-1.4c-0.2-0.6-0.3-1.2-0.3-2c0-1.2,0.3-2.1,0.8-2.7
		c0.6-0.6,1.2-0.9,2.3-0.9H141c0.5,0.5,0.6,0.9,0.8,1.5s0.3,1.2,0.3,2c0,1.2-0.3,2.1-0.8,2.7c-0.6,0.6-1.2,0.9-2.3,0.9L132.3,8.6
		L132.3,8.6z"/>
	<path class="st0" d="M174.8,29.8c0,1.1-0.2,1.8-0.6,2.3s-1.1,1.1-2,1.5c-0.5,0.3-1.2,0.6-1.8,0.8c-0.8,0.3-1.5,0.5-2.4,0.6
		s-1.8,0.3-2.7,0.5s-2,0.2-2.9,0.2c-2.6,0-5-0.3-7.3-1.1c-2.3-0.6-4.2-1.7-5.9-3.2c-1.7-1.4-3-3.2-3.9-5.4c-0.9-2.1-1.4-4.8-1.4-7.9
		c0-2.9,0.5-5.4,1.5-7.6c0.8-2,2.1-3.8,3.8-5.1c1.7-1.5,3.6-2.6,5.9-3.3c2.3-0.8,4.7-1.1,7.3-1.1c3.3,0,6.1,0.5,8,1.5
		c2,1.1,3,2.4,3,4.1c0,0.8-0.2,1.5-0.6,2.3c-0.5,0.6-0.9,1.1-1.5,1.5c-0.9-0.6-2.1-1.1-3.3-1.7c-1.4-0.5-3-0.8-4.8-0.8
		c-1.5,0-2.9,0.3-4.2,0.8c-1.2,0.5-2.3,1.2-3.3,2.1c-0.9,0.9-1.7,2-2.1,3.3c-0.5,1.4-0.8,2.7-0.8,4.4c0,1.8,0.3,3.3,0.8,4.7
		s1.2,2.4,2,3.3c0.9,0.9,2,1.5,3.2,2s2.6,0.6,3.9,0.6c0.9,0,1.7-0.2,2.4-0.3c0.8-0.2,1.2-0.3,1.7-0.6V22h-6.4
		c-0.2-0.3-0.5-0.8-0.6-1.4c-0.2-0.6-0.3-1.2-0.3-1.8c0-1.2,0.3-2,0.8-2.6s1.2-0.8,2.1-0.8h9.2c1.1,0,1.8,0.3,2.4,0.9
		c0.6,0.6,0.9,1.4,0.9,2.4L174.8,29.8L174.8,29.8z"/>
	<path class="st0" d="M182.6,33.7c-0.8-0.8-1.2-2-1.2-3.3V6.3c0-1.4,0.5-2.4,1.2-3.3c0.8-0.8,2-1.2,3.3-1.2h18
		c0.2,0.3,0.5,0.8,0.6,1.4c0.2,0.6,0.3,1.2,0.3,1.8c0,1.2-0.3,2.1-0.8,2.7s-1.2,0.9-2.3,0.9h-12.1v6.1h12.7c0.2,0.3,0.5,0.8,0.6,1.4
		c0.2,0.6,0.3,1.2,0.3,1.8c0,1.2-0.3,2.1-0.8,2.6c-0.5,0.6-1.2,0.9-2.1,0.9h-10.6v6.8h14.4c0.2,0.3,0.5,0.8,0.6,1.4
		c0.2,0.6,0.3,1.2,0.3,2c0,1.2-0.3,2.1-0.8,2.6c-0.5,0.6-1.2,0.8-2.1,0.8h-16.2C184.6,34.9,183.6,34.5,182.6,33.7L182.6,33.7z"/>
	<path class="st0" d="M238.3,34.8c-0.9,0.3-2,0.5-3.2,0.5s-2.4-0.2-3.5-0.6s-2-1.4-2.7-2.7l-6.4-12.3c-0.6-1.2-1.2-2.3-1.7-3.5
		s-1.1-2.4-1.5-3.6l-0.5,0.2c0.2,2.1,0.3,4.2,0.3,6.2s0,3.9,0,5.8v10.1c-0.3,0-0.9,0.2-1.7,0.3s-1.5,0.2-2.3,0.2
		c-1.7,0-2.7-0.3-3.5-0.9c-0.6-0.6-1.1-1.5-1.1-3V3.2c0.5-0.6,1.2-1.1,2.1-1.5c0.9-0.3,2-0.5,3-0.5c1.2,0,2.4,0.2,3.5,0.6
		s2,1.2,2.7,2.7l6.4,12.3c0.6,1.2,1.2,2.3,1.7,3.5c0.6,1.2,1.1,2.4,1.5,3.6h0.2c-0.2-2.4-0.3-4.7-0.3-7c0-2.1,0-4.2,0-6.2V1.6
		c0.3,0,0.9-0.2,1.7-0.3s1.5-0.2,2.3-0.2c1.7,0,2.7,0.3,3.5,0.9c0.6,0.6,1.1,1.5,1.1,3v28.8C239.8,34.2,239.2,34.5,238.3,34.8
		L238.3,34.8z"/>
	<path class="st1" d="M2.1,60.8V46.9H8c0.6,0,1.2,0.2,1.8,0.5s1.1,0.6,1.4,1.1c0.5,0.5,0.8,0.9,0.9,1.5c0.2,0.6,0.3,1.1,0.3,1.7
		s-0.2,1.2-0.3,1.7c-0.2,0.6-0.5,1.1-0.9,1.5c-0.3,0.3-0.8,0.8-1.4,0.9C9.2,56,8.6,56.1,8,56.1H4.8v4.7H2.1z M4.8,53.7H8
		c0.5,0,0.9-0.2,1.2-0.6c0.3-0.5,0.5-0.9,0.5-1.7c0-0.3,0-0.6-0.2-0.9C9.3,50.2,9.2,50,9,49.7c-0.2-0.2-0.3-0.3-0.6-0.5
		C8.2,49,7.9,49,7.6,49h-3L4.8,53.7L4.8,53.7z"/>
	<path class="st1" d="M14.4,60.8V46.9h6.1c0.6,0,1.2,0.2,1.8,0.5c0.6,0.3,1.1,0.6,1.4,1.1c0.5,0.5,0.8,0.9,0.9,1.5
		c0.2,0.6,0.3,1.1,0.3,1.7c0,0.9-0.2,1.7-0.8,2.4c-0.5,0.8-1.1,1.2-1.8,1.7l3.2,5.3h-3l-2.9-4.7h-2.7V61h-2.4v-0.2H14.4z M17.1,53.7
		h3.3c0.3,0,0.5,0,0.8-0.2c0.2-0.2,0.5-0.3,0.6-0.5c0.2-0.2,0.3-0.5,0.3-0.8c0.2-0.3,0.2-0.6,0.2-0.9c0-0.3,0-0.6-0.2-0.9
		c-0.2-0.3-0.3-0.5-0.5-0.8s-0.3-0.3-0.6-0.5c-0.3-0.2-0.5-0.2-0.8-0.2h-3.3L17.1,53.7L17.1,53.7z"/>
	<path class="st1" d="M33.3,60.8c-1.1,0-2-0.2-2.7-0.6c-0.8-0.5-1.5-0.9-2.1-1.5s-1.1-1.4-1.4-2.3c-0.3-0.9-0.5-1.7-0.5-2.6
		c0-0.9,0.2-1.8,0.5-2.7s0.8-1.7,1.5-2.3c0.6-0.6,1.4-1.2,2.1-1.5c0.8-0.5,1.8-0.6,2.7-0.6s2,0.2,2.7,0.6c0.8,0.5,1.5,0.9,2.1,1.7
		c0.6,0.6,1.1,1.4,1.4,2.3c0.3,0.9,0.5,1.7,0.5,2.6c0,0.9-0.2,1.8-0.5,2.7s-0.8,1.5-1.4,2.3c-0.6,0.6-1.4,1.2-2.1,1.5
		C35.3,60.7,34.4,60.8,33.3,60.8z M29.4,53.8c0,0.6,0.2,1.2,0.3,1.8c0.2,0.6,0.5,1.1,0.8,1.5c0.3,0.5,0.8,0.8,1.2,1.1
		c0.5,0.3,1.1,0.5,1.7,0.5s1.2-0.2,1.7-0.5s0.9-0.6,1.2-1.1s0.6-0.9,0.8-1.5s0.3-1.1,0.3-1.7c0-0.6-0.2-1.2-0.3-1.8
		c-0.2-0.6-0.5-1.1-0.8-1.5s-0.8-0.8-1.2-1.1s-1.1-0.3-1.7-0.3s-1.2,0.2-1.8,0.5c-0.5,0.3-0.9,0.6-1.2,1.1c-0.3,0.5-0.6,0.9-0.8,1.5
		C29.4,52.6,29.4,53.2,29.4,53.8L29.4,53.8z"/>
	<path class="st1" d="M41.5,53.7c0-0.9,0.2-1.7,0.5-2.6c0.3-0.8,0.8-1.5,1.4-2.3c0.6-0.6,1.4-1.2,2.1-1.5c0.9-0.5,1.8-0.6,2.9-0.6
		c1.4,0,2.4,0.3,3.3,0.9c0.9,0.6,1.7,1.4,2.1,2.3l-2.1,1.4c-0.2-0.5-0.5-0.8-0.6-1.1c-0.3-0.3-0.6-0.5-0.9-0.6
		c-0.3-0.2-0.6-0.3-0.9-0.3s-0.6-0.2-0.9-0.2c-0.8,0-1.2,0.2-1.8,0.5c-0.5,0.3-0.9,0.6-1.2,1.1s-0.6,0.9-0.8,1.5s-0.3,1.1-0.3,1.7
		c0,0.6,0.2,1.2,0.3,1.8c0.2,0.6,0.5,1.1,0.8,1.5c0.3,0.5,0.8,0.8,1.4,1.1c0.5,0.3,1.1,0.5,1.7,0.5c0.3,0,0.6,0,0.9-0.2
		c0.3-0.2,0.6-0.2,0.9-0.3c0.3-0.2,0.6-0.5,0.9-0.6c0.3-0.3,0.5-0.6,0.6-0.9l2.3,1.2c-0.2,0.5-0.6,0.9-0.9,1.4
		c-0.5,0.5-0.9,0.8-1.4,1.1s-1.1,0.5-1.7,0.6c-0.6,0.2-1.2,0.2-1.7,0.2c-1.1,0-2-0.2-2.7-0.6c-0.8-0.5-1.5-0.9-2.1-1.7
		c-0.6-0.6-1.1-1.4-1.4-2.3C41.6,55.5,41.5,54.6,41.5,53.7L41.5,53.7z"/>
	<path class="st1" d="M65.5,58.4v2.4h-9.7V46.9h9.5v2.4h-6.8v3.3h5.8v2.3h-5.9v3.6L65.5,58.4L65.5,58.4z"/>
	<path class="st1" d="M75.7,50.5c-0.2-0.2-0.3-0.2-0.5-0.3c-0.3-0.2-0.6-0.3-0.9-0.5s-0.8-0.3-1.1-0.3c-0.5-0.2-0.8-0.2-1.2-0.2
		c-0.8,0-1.4,0.2-1.7,0.5c-0.3,0.3-0.6,0.6-0.6,1.2c0,0.3,0,0.5,0.2,0.8c0.2,0.2,0.3,0.3,0.6,0.5s0.6,0.3,1.1,0.5S72.5,53,73,53
		c0.6,0.2,1.4,0.3,1.8,0.6c0.6,0.2,1.1,0.5,1.4,0.8c0.5,0.3,0.8,0.8,0.9,1.1c0.2,0.5,0.3,0.9,0.3,1.7s-0.2,1.4-0.5,2
		s-0.6,0.9-1.1,1.2s-1.1,0.6-1.7,0.8s-1.2,0.3-2,0.3c-1.1,0-2.1-0.2-3-0.5c-1.1-0.3-2-0.8-2.7-1.4l1.2-2.3c0.2,0.2,0.3,0.3,0.6,0.5
		s0.6,0.3,1.1,0.6c0.5,0.2,0.9,0.3,1.4,0.5s1.1,0.2,1.5,0.2c1.5,0,2.3-0.5,2.3-1.4c0-0.3-0.2-0.6-0.3-0.8c-0.2-0.2-0.5-0.5-0.8-0.6
		c-0.3-0.2-0.8-0.3-1.1-0.5s-0.9-0.3-1.5-0.5S69.6,55,69,54.7c-0.5-0.2-0.9-0.5-1.2-0.8s-0.6-0.6-0.8-1.1c-0.2-0.5-0.3-0.9-0.3-1.4
		c0-0.8,0.2-1.4,0.5-1.8c0.3-0.6,0.6-1.1,1.1-1.4s1.1-0.6,1.7-0.8s1.2-0.3,2-0.3c0.9,0,1.8,0.2,2.7,0.5c0.8,0.3,1.5,0.6,2.1,1.1
		L75.7,50.5L75.7,50.5z"/>
	<path class="st1" d="M87.6,50.5c-0.2-0.2-0.3-0.2-0.5-0.3c-0.3-0.2-0.6-0.3-0.9-0.5s-0.8-0.3-1.2-0.3c-0.5-0.2-0.8-0.2-1.2-0.2
		c-0.8,0-1.4,0.2-1.7,0.5c-0.3,0.3-0.6,0.6-0.6,1.2c0,0.3,0.2,0.5,0.2,0.8c0.2,0.2,0.3,0.3,0.6,0.5s0.6,0.3,1.1,0.5s0.9,0.3,1.4,0.3
		c0.6,0.2,1.4,0.3,1.8,0.6c0.6,0.2,1.1,0.5,1.4,0.8s0.6,0.8,0.9,1.1c0.2,0.5,0.3,0.9,0.3,1.7s-0.2,1.4-0.5,2
		c-0.3,0.5-0.6,0.9-1.2,1.2c-0.5,0.3-1.1,0.6-1.7,0.8s-1.2,0.3-2,0.3c-1.1,0-2.1-0.2-3-0.5c-1.1-0.3-2-0.8-2.7-1.4l1.2-2.3
		c0.2,0.2,0.3,0.3,0.6,0.5s0.6,0.3,1.1,0.6c0.5,0.2,0.9,0.3,1.4,0.5s1.1,0.2,1.5,0.2c1.5,0,2.3-0.5,2.3-1.4c0-0.3-0.2-0.6-0.3-0.8
		c-0.2-0.2-0.5-0.5-0.8-0.6c-0.3-0.2-0.8-0.3-1.2-0.5c-0.5-0.2-0.9-0.3-1.5-0.5s-1.2-0.3-1.7-0.6c-0.5-0.2-0.9-0.5-1.2-0.8
		s-0.6-0.6-0.8-1.1s-0.3-0.9-0.3-1.4c0-0.8,0.2-1.4,0.5-1.8c0.3-0.6,0.6-1.1,1.1-1.4s1.1-0.6,1.7-0.8s1.2-0.3,2-0.3
		c0.9,0,1.8,0.2,2.7,0.5c0.8,0.3,1.5,0.6,2.1,1.1L87.6,50.5L87.6,50.5z"/>
	<path class="st1" d="M104.4,50.5c-0.2-0.2-0.3-0.2-0.5-0.3c-0.3-0.2-0.6-0.3-0.9-0.5s-0.8-0.3-1.1-0.3c-0.5-0.2-0.8-0.2-1.2-0.2
		c-0.8,0-1.4,0.2-1.7,0.5c-0.3,0.3-0.6,0.6-0.6,1.2c0,0.3,0,0.5,0.2,0.8c0.2,0.2,0.3,0.3,0.6,0.5c0.3,0.2,0.6,0.3,1.1,0.5
		s0.9,0.3,1.4,0.3c0.6,0.2,1.4,0.3,1.8,0.6c0.6,0.2,1.1,0.5,1.4,0.8s0.8,0.8,0.9,1.1c0.2,0.5,0.3,0.9,0.3,1.7s-0.2,1.4-0.5,2
		c-0.3,0.5-0.6,0.9-1.2,1.2c-0.5,0.3-1.1,0.6-1.7,0.8s-1.2,0.3-2,0.3c-1.1,0-2.1-0.2-3-0.5c-1.1-0.3-2-0.8-2.7-1.4l1.2-2.3
		c0.2,0.2,0.3,0.3,0.6,0.5c0.3,0.2,0.6,0.3,1.1,0.6c0.5,0.2,0.9,0.3,1.4,0.5s1.1,0.2,1.5,0.2c1.5,0,2.3-0.5,2.3-1.4
		c0-0.3-0.2-0.6-0.3-0.8s-0.5-0.5-0.8-0.6c-0.3-0.2-0.8-0.3-1.1-0.5c-0.3-0.2-0.9-0.3-1.5-0.5s-1.2-0.3-1.7-0.6
		c-0.5-0.2-0.9-0.5-1.2-0.8c-0.3-0.3-0.6-0.6-0.8-1.1s-0.3-0.9-0.3-1.4c0-0.8,0.2-1.4,0.5-1.8c0.3-0.6,0.6-1.1,1.1-1.4
		c0.5-0.3,1.1-0.6,1.7-0.8s1.2-0.3,2-0.3c1.1,0,1.8,0.2,2.7,0.5c0.8,0.3,1.5,0.6,2.1,1.1L104.4,50.5L104.4,50.5z"/>
	<path class="st1" d="M114.1,60.8c-1.1,0-2-0.2-2.7-0.6c-0.8-0.5-1.5-0.9-2.1-1.5s-1.1-1.4-1.4-2.3c-0.3-0.9-0.5-1.7-0.5-2.6
		c0-0.9,0.2-1.8,0.5-2.7s0.8-1.7,1.4-2.3s1.4-1.2,2.1-1.5c0.9-0.5,1.8-0.6,2.7-0.6c0.9,0,2,0.2,2.7,0.6c0.8,0.5,1.5,0.9,2.1,1.7
		c0.6,0.6,1.1,1.4,1.4,2.3c0.3,0.9,0.5,1.7,0.5,2.6c0,0.9-0.2,1.8-0.5,2.7s-0.8,1.5-1.4,2.3s-1.4,1.2-2.1,1.5S115.2,60.8,114.1,60.8
		z M110,53.8c0,0.6,0.2,1.2,0.3,1.8c0.2,0.6,0.5,1.1,0.8,1.5s0.8,0.8,1.2,1.1c0.5,0.3,1.1,0.5,1.7,0.5s1.2-0.2,1.7-0.5
		s0.9-0.6,1.2-1.1c0.3-0.5,0.6-0.9,0.8-1.5c0.2-0.6,0.3-1.1,0.3-1.7c0-0.6-0.2-1.2-0.3-1.8c-0.2-0.6-0.5-1.1-0.8-1.5
		s-0.8-0.8-1.2-1.1c-0.5-0.3-1.1-0.3-1.7-0.3s-1.2,0.2-1.8,0.5c-0.5,0.3-0.9,0.6-1.2,1.1c-0.3,0.5-0.6,0.9-0.8,1.5
		C110.2,52.6,110,53.2,110,53.8L110,53.8z"/>
	<path class="st1" d="M123,60.8V46.9h2.7v11.7h7.1V61H123V60.8z"/>
	<path class="st1" d="M139.5,58.5c0.6,0,1.2-0.2,1.7-0.5s0.8-0.6,1.1-1.1s0.5-0.9,0.6-1.5c0.2-0.5,0.2-1.1,0.2-1.5v-7.1h2.7V54
		c0,0.9-0.2,1.8-0.3,2.7c-0.2,0.8-0.6,1.5-1.1,2.3c-0.5,0.6-1.1,1.1-1.8,1.5c-0.8,0.3-1.7,0.6-2.7,0.6s-2.1-0.2-2.9-0.6
		c-0.8-0.5-1.4-0.9-1.8-1.5s-0.8-1.4-1.1-2.3c-0.2-0.8-0.3-1.7-0.3-2.6V47h2.7v7.1c0,0.6,0,1.2,0.2,1.7c0.2,0.6,0.3,1.1,0.6,1.5
		c0.3,0.5,0.6,0.8,1.1,1.1C138.5,58.4,138.9,58.5,139.5,58.5L139.5,58.5z"/>
	<path class="st1" d="M158.9,49.2h-4.5v11.7h-2.7V49.2h-4.4v-2.4H159C158.9,46.7,158.9,49.2,158.9,49.2z"/>
	<path class="st1" d="M160.6,60.8V46.9h2.7v13.9C163.3,60.8,160.6,60.8,160.6,60.8z"/>
	<path class="st1" d="M172.2,60.8c-1.1,0-2-0.2-2.7-0.6c-0.9-0.5-1.5-0.9-2.1-1.5s-1.1-1.4-1.4-2.3c-0.3-0.9-0.5-1.7-0.5-2.6
		c0-0.9,0.2-1.8,0.5-2.7s0.9-1.7,1.5-2.3s1.4-1.2,2.1-1.5c0.9-0.5,1.8-0.6,2.7-0.6s2,0.2,2.7,0.6c0.9,0.5,1.5,0.9,2.1,1.7
		c0.6,0.6,1.1,1.4,1.4,2.3c0.3,0.9,0.5,1.7,0.5,2.6c0,0.9-0.2,1.8-0.5,2.7s-0.8,1.5-1.4,2.3c-0.6,0.6-1.4,1.2-2.1,1.5
		C174.2,60.7,173.1,60.8,172.2,60.8z M168.1,53.8c0,0.6,0.2,1.2,0.3,1.8c0.2,0.6,0.5,1.1,0.8,1.5s0.8,0.8,1.2,1.1s1.1,0.5,1.7,0.5
		c0.6,0,1.2-0.2,1.7-0.5s0.9-0.6,1.2-1.1s0.6-0.9,0.8-1.5s0.3-1.1,0.3-1.7c0-0.6-0.2-1.2-0.3-1.8c-0.2-0.6-0.5-1.1-0.8-1.5
		s-0.8-0.8-1.2-1.1c-0.5-0.3-1.1-0.3-1.7-0.3c-0.6,0-1.2,0.2-1.8,0.5c-0.5,0.3-0.9,0.6-1.2,1.1s-0.6,0.9-0.8,1.5
		C168.3,52.6,168.1,53.2,168.1,53.8L168.1,53.8z"/>
	<path class="st1" d="M183.9,51.9v8.9h-2.7V46.9h2.1l7.3,9.2V47h2.7v14H191L183.9,51.9L183.9,51.9z"/>
	<path class="st1" d="M204.4,50.5c-0.2-0.2-0.3-0.2-0.5-0.3c-0.3-0.2-0.6-0.3-0.9-0.5c-0.3-0.2-0.8-0.3-1.2-0.3s-0.8-0.2-1.2-0.2
		c-0.8,0-1.4,0.2-1.7,0.5s-0.6,0.6-0.6,1.2c0,0.3,0.2,0.5,0.2,0.8c0.2,0.2,0.3,0.3,0.6,0.5s0.6,0.3,1.1,0.5s0.9,0.3,1.4,0.3
		c0.8,0.2,1.4,0.3,1.8,0.6c0.6,0.2,1.1,0.5,1.4,0.8s0.6,0.8,0.9,1.1c0.2,0.5,0.3,0.9,0.3,1.7s-0.2,1.4-0.5,2s-0.6,0.9-1.2,1.2
		c-0.5,0.3-1.1,0.6-1.7,0.8c-0.6,0.2-1.2,0.3-2,0.3c-1.1,0-2.1-0.2-3.2-0.5c-1.1-0.3-2-0.8-2.7-1.4l1.2-2.3c0.2,0.2,0.3,0.3,0.6,0.5
		s0.6,0.3,1.1,0.6c0.5,0.2,0.9,0.3,1.4,0.5s1.1,0.2,1.5,0.2c1.5,0,2.3-0.5,2.3-1.4c0-0.3-0.2-0.6-0.3-0.8s-0.5-0.5-0.8-0.6
		c-0.3-0.2-0.8-0.3-1.2-0.5s-0.9-0.3-1.5-0.5s-1.2-0.3-1.8-0.6c-0.5-0.2-0.9-0.5-1.2-0.8s-0.6-0.6-0.8-1.1s-0.3-0.9-0.3-1.4
		c0-0.8,0.2-1.4,0.5-1.8c0.3-0.6,0.6-1.1,1.1-1.4c0.5-0.3,1.1-0.6,1.7-0.8c0.6-0.2,1.2-0.3,2-0.3c0.9,0,1.8,0.2,2.7,0.5
		c0.8,0.3,1.5,0.6,2.1,1.1L204.4,50.5L204.4,50.5z"/>
</g>
</svg>
