<?xml version="1.0" encoding="utf-8"?>
<!-- Generator: Adobe Illustrator 25.1.0, SVG Export Plug-In . SVG Version: 6.00 Build 0)  -->
<svg version="1.1" id="Layer_1" xmlns="http://www.w3.org/2000/svg" xmlns:xlink="http://www.w3.org/1999/xlink" x="0px" y="0px"
	 width="240px" height="62px" viewBox="0 0 240 62" style="enable-background:new 0 0 240 62;" xml:space="preserve">
<style type="text/css">
	.st0{fill:#111E6C;}
	.st1{fill:#FF7A00;}
</style>
<g>
	<path class="st0" d="M11.5,28.8c2,0,3.3-0.3,4.1-1.1c0.8-0.6,1.2-1.5,1.2-2.4s-0.3-1.5-0.9-2.1c-0.6-0.6-1.7-1.1-2.9-1.4l-2.7-0.9
		c-1.5-0.5-2.9-1.1-4.1-1.5c-1.2-0.6-2.3-1.2-3.2-2s-1.5-1.7-2.1-2.7c-0.5-1.2-0.8-2.4-0.8-3.9c0-3,1.2-5.4,3.5-7.3s5.6-2.7,9.7-2.7
		c1.5,0,3,0.2,4.4,0.3c1.2,0.3,2.4,0.6,3.3,1.1s1.7,1.1,2.3,1.7c0.6,0.6,0.8,1.4,0.8,2.3s-0.2,1.5-0.6,2.3C23,9,22.5,9.6,21.9,10
		C21,9.4,20,9,18.6,8.5c-1.2-0.5-2.7-0.6-4.4-0.6s-3,0.3-3.9,0.8c-0.8,0.6-1.2,1.2-1.2,2.1c0,0.8,0.3,1.4,0.8,1.7
		c0.6,0.3,1.4,0.8,2.6,1.1l3,0.9c1.7,0.6,3.2,1.2,4.5,1.8c1.2,0.6,2.4,1.4,3.2,2.3c0.9,0.9,1.5,1.8,2,2.9c0.5,1.1,0.6,2.4,0.6,3.8
		c0,1.5-0.3,2.9-0.9,4.2c-0.6,1.2-1.5,2.3-2.7,3.2c-1.2,0.9-2.6,1.7-4.4,2.1c-1.8,0.5-3.8,0.8-6.1,0.8C10,35.5,8.5,35.3,7,35
		c-1.4-0.3-2.7-0.6-3.6-1.2c-1.1-0.5-1.8-1.2-2.4-1.8C0.3,31.2,0,30.5,0,29.4c0-0.9,0.3-1.8,0.9-2.4c0.6-0.6,1.2-1.2,1.8-1.5
		C3.6,26.2,5,27,6.4,27.6S9.7,28.8,11.5,28.8L11.5,28.8z"/>
	<path class="st0" d="M64,18.2c0,2.9-0.5,5.3-1.4,7.6c-0.9,2.1-2,3.9-3.6,5.4c-1.5,1.5-3.3,2.6-5.4,3.3c-2.1,0.8-4.4,1.2-6.8,1.2
		s-4.7-0.3-6.8-1.2c-2.1-0.8-3.9-1.8-5.4-3.3c-1.5-1.5-2.7-3.3-3.5-5.4c-0.9-2.1-1.2-4.7-1.2-7.6s0.5-5.3,1.4-7.6s2.1-3.9,3.6-5.4
		s3.3-2.6,5.3-3.3c2.1-0.8,4.2-1.2,6.7-1.2c2.4,0,4.7,0.3,6.7,1.2c2.1,0.8,3.9,1.8,5.4,3.3s2.7,3.3,3.6,5.4
		C63.6,12.9,64,15.5,64,18.2L64,18.2z M55.1,18.2c0-3.5-0.8-6.1-2.3-7.9s-3.5-2.7-5.9-2.7c-2.6,0-4.4,0.9-5.9,2.7s-2.3,4.4-2.3,7.9
		s0.8,6.2,2.3,7.9c1.5,1.8,3.5,2.7,6.1,2.7c2.6,0,4.5-0.9,5.9-2.7C54.5,24.4,55.1,21.8,55.1,18.2z"/>
	<path class="st0" d="M85,9.9c0.5-0.2,0.9-0.5,1.7-0.6C87.5,9.1,88.2,9,89.1,9c1.4,0,2.6,0.2,3.5,0.6c0.9,0.5,1.5,1.1,1.7,1.8
		c0.5,1.7,0.9,3,1.2,4.4c0.5,1.4,0.8,2.7,1.2,3.9c0.3,1.2,0.8,2.6,1.1,3.8c0.3,1.2,0.8,2.6,1.1,3.9h0.3c0.3-2.3,0.8-4.4,1.1-6.5
		s0.6-4.1,0.9-6.2c0.3-2,0.6-4.1,0.8-6.1s0.5-4.1,0.8-6.2c1.2-0.8,2.4-1.1,3.9-1.1c1.2,0,2.3,0.3,3.2,0.8c0.9,0.5,1.4,1.4,1.4,2.7
		c0,0.8,0,1.8-0.3,3.3c-0.2,1.5-0.5,3.2-0.6,5c-0.3,1.8-0.6,3.8-1.1,5.8c-0.3,2-0.8,3.9-1.2,5.8c-0.5,1.8-0.9,3.6-1.2,5.1
		c-0.3,1.5-0.9,2.7-1.2,3.6c-0.5,0.5-1.4,0.8-2.4,1.1s-2.3,0.5-3.3,0.5c-1.5,0-2.9-0.2-3.9-0.6c-1.1-0.5-1.7-1.1-2-1.8
		c-0.5-1.5-1.1-3.5-1.8-5.8s-1.4-4.8-2.1-7.4c-0.3,1.4-0.6,2.6-0.9,3.9s-0.6,2.6-1.1,3.8c-0.3,1.2-0.6,2.4-0.9,3.5
		c-0.3,1.1-0.6,2-0.9,2.9c-0.5,0.5-1.2,0.8-2.3,1.1c-0.9,0.3-2.1,0.5-3.3,0.5c-1.5,0-2.7-0.2-3.9-0.6s-2-1.1-2.3-1.7
		c-0.3-0.8-0.8-1.7-1.1-3c-0.3-1.4-0.8-2.9-1.2-4.5c-0.5-1.7-0.8-3.5-1.2-5.4s-0.8-3.9-1.2-5.9c-0.3-2-0.8-3.8-1.1-5.8
		c-0.3-1.8-0.5-3.5-0.8-5.1c0.5-0.5,1.1-0.8,2-1.2c0.8-0.3,1.7-0.6,2.7-0.6c1.2,0,2.3,0.3,3,0.9c0.8,0.6,1.4,1.5,1.5,2.7
		c0.6,3.5,1.1,6.4,1.5,8.8c0.3,2.4,0.8,4.4,1.1,6.2c0.3,1.7,0.5,3.2,0.8,4.2c0.2,1.2,0.5,2.3,0.6,3.2h0.3c0.3-1.5,0.8-2.9,1.1-4.1
		c0.3-1.2,0.6-2.6,1.1-3.9c0.5-1.4,0.8-2.7,1.1-4.2C84.1,13.7,84.6,12,85,9.9L85,9.9z"/>
	<path class="st0" d="M132.3,8.7v26.2c-0.5,0.2-0.9,0.2-1.7,0.3c-0.8,0.2-1.5,0.2-2.3,0.2c-1.7,0-2.9-0.3-3.6-0.9
		c-0.8-0.6-1.1-1.7-1.1-3.2V8.7H115c-0.2-0.3-0.5-0.8-0.6-1.4c-0.2-0.6-0.3-1.2-0.3-2c0-1.2,0.3-2.1,0.8-2.7s1.2-0.9,2.3-0.9H141
		c0.3,0.5,0.5,0.9,0.6,1.5s0.3,1.2,0.3,2c0,1.2-0.3,2.1-0.8,2.7c-0.6,0.6-1.2,0.9-2.3,0.9L132.3,8.7L132.3,8.7z"/>
	<path class="st0" d="M174.8,29.9c0,1.1-0.2,1.8-0.6,2.4c-0.5,0.5-1.1,1.1-2,1.5c-0.5,0.3-1.2,0.6-1.8,0.8c-0.8,0.3-1.5,0.5-2.4,0.6
		s-1.8,0.3-2.7,0.5c-0.9,0.2-2,0.2-2.9,0.2c-2.6,0-5-0.3-7.3-1.1c-2.3-0.6-4.2-1.7-5.9-3.2c-1.7-1.4-3-3.2-3.9-5.4
		c-0.9-2.1-1.4-4.8-1.4-7.9c0-2.9,0.5-5.4,1.5-7.6c0.8-2.1,2.1-3.9,3.8-5.4c1.7-1.5,3.6-2.6,5.9-3.3c2.3-0.8,4.7-1.1,7.3-1.1
		c3.3,0,6.1,0.6,8,1.5c2,1.1,3,2.4,3,4.1c0,0.9-0.2,1.5-0.6,2.3s-0.9,1.2-1.5,1.5c-0.9-0.6-2-1.1-3.3-1.7c-1.4-0.5-3-0.8-4.8-0.8
		c-1.5,0-2.9,0.3-4.2,0.8c-1.2,0.5-2.3,1.2-3.3,2.1c-0.9,0.9-1.7,2-2.1,3.3c-0.5,1.4-0.8,2.7-0.8,4.4c0,1.8,0.3,3.3,0.8,4.7
		c0.5,1.4,1.2,2.4,2,3.3s2,1.5,3.2,2c1.2,0.5,2.6,0.6,3.9,0.6c0.9,0,1.7-0.2,2.4-0.3c0.8-0.2,1.2-0.3,1.7-0.6v-6.2h-6.4
		c-0.2-0.3-0.5-0.9-0.6-1.4c-0.2-0.6-0.3-1.2-0.3-1.8c0-1.2,0.3-2,0.8-2.6c0.6-0.6,1.2-0.8,2.1-0.8h9.2c1.1,0,1.8,0.3,2.4,0.9
		c0.6,0.6,0.9,1.4,0.9,2.4L174.8,29.9L174.8,29.9z"/>
	<path class="st0" d="M182.6,33.8c-0.8-0.8-1.2-2-1.2-3.3V6.4c0-1.4,0.5-2.4,1.2-3.3s2-1.2,3.3-1.2h18c0.2,0.3,0.5,0.8,0.6,1.4
		s0.3,1.2,0.3,1.8c0,1.2-0.3,2.1-0.8,2.7c-0.6,0.6-1.2,0.9-2.3,0.9h-12.1v6.1h12.7c0.2,0.3,0.5,0.8,0.6,1.4c0.2,0.6,0.3,1.2,0.3,1.8
		c0,1.2-0.3,2.1-0.8,2.7c-0.5,0.6-1.2,0.9-2.1,0.9h-10.6v6.8h14.4c0.2,0.3,0.5,0.9,0.6,1.4c0.2,0.6,0.3,1.2,0.3,2
		c0,1.2-0.3,2.1-0.8,2.6c-0.5,0.6-1.2,0.8-2.1,0.8h-16.2C184.6,35,183.6,34.6,182.6,33.8L182.6,33.8z"/>
	<path class="st0" d="M238.3,34.9c-0.9,0.3-2,0.5-3.2,0.5s-2.4-0.2-3.5-0.6s-2-1.4-2.7-2.7l-6.4-12.3c-0.6-1.2-1.2-2.3-1.7-3.5
		c-0.6-1.2-1.1-2.4-1.5-3.6l-0.3,0.2c0.2,2.1,0.3,4.2,0.3,6.2s0,3.9,0,5.8v10.1c-0.3,0-0.9,0.2-1.7,0.3c-0.8,0.2-1.5,0.2-2.3,0.2
		c-1.7,0-2.7-0.3-3.5-0.9c-0.6-0.6-1.1-1.5-1.1-3V3.2c0.5-0.6,1.2-1.1,2.1-1.5c0.9-0.5,2-0.5,3-0.5c1.2,0,2.4,0.2,3.5,0.6
		s2,1.2,2.7,2.7l6.4,12.3c0.6,1.2,1.2,2.3,1.7,3.5c0.5,1.2,1.1,2.4,1.5,3.6h0.2c-0.2-2.4-0.3-4.7-0.3-7c0-2.1,0-4.2,0-6.4V1.6
		c0.3,0,0.9-0.2,1.7-0.3c0.8-0.2,1.5-0.2,2.3-0.2c1.7,0,2.7,0.3,3.5,0.9c0.6,0.6,0.9,1.5,0.9,3v28.8
		C239.8,34.3,239.2,34.6,238.3,34.9L238.3,34.9z"/>
	<path class="st1" d="M2.1,60.9V47h2.7v13.9H2.1z"/>
	<path class="st1" d="M10.4,52v8.9H7.7V47h2.1l7.3,9.2v-9.1h2.7V61h-2.3L10.4,52L10.4,52z"/>
	<path class="st1" d="M32.4,59.2c-1.1,1.1-2.4,1.7-3.9,1.7c-0.9,0-1.8-0.2-2.6-0.6c-0.8-0.5-1.5-0.9-2.1-1.5
		c-0.6-0.6-1.1-1.4-1.4-2.3c-0.3-0.9-0.5-1.8-0.5-2.9c0-0.9,0.2-1.8,0.5-2.7c0.3-0.9,0.9-1.5,1.4-2.3c0.6-0.6,1.4-1.1,2.1-1.5
		c0.9-0.3,1.7-0.6,2.7-0.6c1.4,0,2.4,0.3,3.3,0.8c0.9,0.6,1.7,1.4,2.1,2.3l-2,1.5c-0.3-0.8-0.9-1.2-1.5-1.5
		c-0.6-0.3-1.4-0.6-2.1-0.6c-0.6,0-1.2,0.2-1.7,0.3c-0.5,0.3-0.9,0.6-1.2,1.1c-0.3,0.5-0.6,0.9-0.8,1.5c-0.2,0.6-0.3,1.2-0.3,1.8
		s0.2,1.2,0.3,1.8c0.2,0.6,0.5,1.1,0.9,1.5c0.3,0.5,0.8,0.8,1.4,1.1c0.6,0.3,1.1,0.3,1.7,0.3c1.4,0,2.6-0.6,3.6-2v-1.1h-2.9v-2h5
		v7.3h-2.3L32.4,59.2L32.4,59.2z"/>
	<path class="st1" d="M46.6,58.5v2.4h-9.7V47h9.5v2.4h-6.8v3.3h5.9V55h-5.9v3.6L46.6,58.5L46.6,58.5z"/>
	<path class="st1" d="M51.5,52v8.9h-2.7V47h2.1l7.3,9.2v-9.1h2.7V61h-2.3L51.5,52L51.5,52z"/>
	<path class="st1" d="M63.7,60.9V47h2.7v13.9H63.7z"/>
	<path class="st1" d="M79.1,58.5v2.4h-9.7V47H79v2.4h-6.8v3.3h5.8V55H72v3.6L79.1,58.5L79.1,58.5z"/>
	<path class="st1" d="M81.3,60.9V47h6.2c0.6,0,1.2,0.2,1.8,0.5c0.6,0.3,1.1,0.6,1.4,1.1c0.5,0.5,0.8,0.9,0.9,1.5s0.3,1.1,0.3,1.7
		c0,0.9-0.3,1.7-0.8,2.4c-0.5,0.8-1.1,1.2-1.8,1.7l3.2,5.3h-3l-2.9-4.7H84V61h-2.7V60.9z M84,53.8h3.3c0.3,0,0.5,0,0.8-0.2
		c0.2-0.2,0.5-0.3,0.6-0.5c0.2-0.2,0.3-0.5,0.3-0.8s0.2-0.6,0.2-0.9c0-0.3,0-0.6-0.2-0.9s-0.3-0.5-0.5-0.8c-0.2-0.2-0.3-0.3-0.6-0.5
		s-0.5-0.2-0.8-0.2H84V53.8L84,53.8z"/>
	<path class="st1" d="M94.3,60.9V47H97v13.9H94.3z M96.4,45.8l-1.8-0.6l1.1-2.3h2.4L96.4,45.8L96.4,45.8z"/>
	<path class="st1" d="M104,47h2.4l5.3,13.9h-2.9l-1.4-3.5h-4.8l-1.2,3.5h-2.7L104,47z M107,55.4l-1.8-5.4l-2,5.4
		C103.2,55.4,107,55.4,107,55.4z"/>
	<path class="st1" d="M118.2,47l3.5,6.8l3.5-6.8h2.9l-5,9.1v4.8h-2.7V56l-5-9.1L118.2,47L118.2,47z"/>
	<path class="st1" d="M139.7,60.9c-1.1,0-2-0.2-2.7-0.6c-0.9-0.5-1.5-0.9-2.1-1.5c-0.6-0.6-1.1-1.4-1.4-2.3
		c-0.3-0.9-0.5-1.7-0.5-2.6s0.2-1.8,0.5-2.7c0.3-0.9,0.8-1.7,1.4-2.3s1.4-1.2,2.1-1.5c0.8-0.5,1.8-0.6,2.7-0.6s2,0.2,2.7,0.6
		s1.5,0.9,2.1,1.7c0.6,0.6,1.1,1.4,1.4,2.3c0.3,0.9,0.5,1.7,0.5,2.6c0,0.9-0.2,1.8-0.5,2.7c-0.3,0.9-0.8,1.5-1.4,2.3
		c-0.6,0.6-1.4,1.2-2.1,1.5C141.5,60.7,140.6,60.9,139.7,60.9z M135.6,53.9c0,0.6,0.2,1.2,0.3,1.8c0.2,0.6,0.5,1.1,0.8,1.5
		s0.8,0.8,1.2,1.1s1.1,0.5,1.7,0.5s1.2-0.2,1.8-0.5c0.5-0.3,0.9-0.6,1.2-1.1c0.3-0.5,0.6-0.9,0.8-1.5c0.2-0.6,0.3-1.1,0.3-1.7
		c0-0.6-0.2-1.2-0.3-1.8s-0.5-1.1-0.8-1.5s-0.8-0.8-1.2-1.1s-1.1-0.3-1.7-0.3s-1.2,0.2-1.8,0.5c-0.5,0.3-0.9,0.6-1.2,1.1
		s-0.6,0.9-0.8,1.5C135.6,52.7,135.6,53.3,135.6,53.9L135.6,53.9z"/>
	<path class="st1" d="M159.8,57.3c0,0.6-0.2,1.1-0.3,1.5c-0.3,0.5-0.6,0.8-0.9,1.1c-0.5,0.3-0.9,0.5-1.4,0.8
		c-0.6,0.2-1.1,0.3-1.8,0.3h-6.8V47h7.4c0.5,0,0.9,0.2,1.4,0.3s0.8,0.5,1.1,0.8s0.5,0.8,0.6,1.2s0.3,0.9,0.3,1.2
		c0,0.8-0.2,1.4-0.5,2c-0.3,0.6-0.9,1.1-1.5,1.4c0.8,0.3,1.4,0.6,1.8,1.2C159.5,55.6,159.8,56.3,159.8,57.3L159.8,57.3z M151.2,49.2
		v3.5h3.6c0.5,0,0.9-0.2,1.2-0.5c0.3-0.3,0.5-0.8,0.5-1.4c0-0.6-0.2-0.9-0.5-1.2c-0.3-0.3-0.6-0.5-1.1-0.5H151.2L151.2,49.2z
		 M157.1,56.8c0-0.3,0-0.5-0.2-0.8s-0.2-0.5-0.3-0.6c-0.2-0.2-0.3-0.3-0.5-0.5c-0.2-0.2-0.5-0.2-0.6-0.2h-4.2v3.6h4.1
		c0.3,0,0.5,0,0.8-0.2s0.5-0.2,0.6-0.3c0.2-0.2,0.3-0.3,0.3-0.6C156.9,57.3,157.1,57,157.1,56.8z"/>
	<path class="st1" d="M161.9,60.9V47h6.2c0.6,0,1.2,0.2,1.8,0.5s1.1,0.6,1.4,1.1c0.5,0.5,0.8,0.9,0.9,1.5s0.3,1.1,0.3,1.7
		c0,0.9-0.2,1.7-0.6,2.4c-0.5,0.8-1.1,1.2-1.8,1.7l3.2,5.3h-3l-2.9-4.7h-2.7V61h-2.7V60.9z M164.6,53.8h3.3c0.3,0,0.5,0,0.8-0.2
		c0.2-0.2,0.5-0.3,0.6-0.5s0.3-0.5,0.3-0.8c0.2-0.3,0.2-0.6,0.2-0.9c0-0.3,0-0.6-0.2-0.9s-0.3-0.5-0.5-0.8c-0.2-0.2-0.3-0.3-0.6-0.5
		c-0.3-0.2-0.5-0.2-0.8-0.2h-3.3L164.6,53.8L164.6,53.8z"/>
	<path class="st1" d="M178.7,47h2.4l5.3,13.9h-2.7l-1.4-3.5h-4.8l-1.2,3.5h-2.7L178.7,47z M181.9,55.4l-2-5.4l-2,5.4H181.9z"/>
	<path class="st1" d="M196.1,50.6c-0.2-0.2-0.3-0.2-0.5-0.3c-0.3-0.2-0.6-0.3-0.9-0.5c-0.3-0.2-0.8-0.3-1.1-0.3
		c-0.5-0.2-0.8-0.2-1.2-0.2c-0.8,0-1.4,0.2-1.7,0.5c-0.3,0.3-0.6,0.6-0.6,1.2c0,0.3,0,0.5,0.2,0.8c0.2,0.2,0.3,0.3,0.6,0.5
		c0.3,0.2,0.6,0.3,1.1,0.5c0.5,0.2,0.9,0.3,1.4,0.3c0.6,0.2,1.4,0.3,1.8,0.6c0.5,0.3,1.1,0.5,1.4,0.8c0.5,0.3,0.6,0.8,0.9,1.2
		c0.2,0.5,0.3,0.9,0.3,1.7c0,0.8-0.2,1.4-0.5,2c-0.3,0.5-0.6,0.9-1.2,1.2c-0.5,0.3-1.1,0.6-1.7,0.8c-0.6,0.2-1.2,0.2-2,0.2
		c-1.1,0-2.1-0.2-3.2-0.5s-2-0.8-2.7-1.4l1.2-2.3c0.2,0.2,0.3,0.3,0.6,0.5c0.3,0.2,0.6,0.3,1.1,0.6s0.9,0.3,1.4,0.5
		c0.5,0.2,1.1,0.2,1.5,0.2c1.5,0,2.3-0.5,2.3-1.5c0-0.3-0.2-0.6-0.3-0.8c-0.2-0.2-0.5-0.5-0.8-0.6c-0.3-0.2-0.8-0.3-1.1-0.5
		c-0.5-0.2-0.9-0.3-1.5-0.5c-0.6-0.2-1.2-0.3-1.8-0.6c-0.5-0.2-0.9-0.5-1.2-0.8c-0.3-0.3-0.6-0.6-0.8-1.1c-0.2-0.5-0.3-0.9-0.3-1.4
		c0-0.8,0.2-1.4,0.5-1.8c0.3-0.6,0.6-1.1,1.1-1.4c0.5-0.3,1.1-0.6,1.7-0.9c0.6-0.2,1.2-0.3,2-0.3c0.9,0,1.8,0.2,2.7,0.5
		c0.8,0.3,1.5,0.6,2.1,1.1L196.1,50.6L196.1,50.6z"/>
</g>
</svg>
