<svg width="36" height="36" viewBox="0 0 36 36" fill="none" xmlns="http://www.w3.org/2000/svg">
<mask id="mask0_1975_23240" style="mask-type:alpha" maskUnits="userSpaceOnUse" x="0" y="0" width="36" height="36">
<rect width="36" height="36" fill="#D9D9D9"/>
</mask>
<g mask="url(#mask0_1975_23240)">
<path d="M31.6415 24.8342H30.8855C29.7215 24.8282 28.5155 24.8222 27.3335 24.8402C26.9015 24.8402 26.6675 24.7562 26.5475 24.2402C26.0975 22.2242 25.6235 20.1722 25.1615 18.1922C24.8555 16.8662 24.5495 15.5402 24.2435 14.2082C24.0695 13.4582 23.6615 13.0022 22.9835 12.8282C22.8515 12.7922 22.7075 12.7802 22.5335 12.7682C22.4435 12.7622 22.3415 12.7502 22.2275 12.7382L22.1195 12.7262L22.2035 12.6602C23.9495 11.2862 24.0995 9.48619 24.0095 7.75219C23.9915 7.36819 23.8235 7.2002 23.4575 7.2002C23.3855 7.2002 23.3135 7.2002 23.2415 7.2002C23.1275 7.2002 23.0135 7.2002 22.8995 7.2002C22.6415 7.2002 22.3715 7.2002 22.1075 7.2002C20.5475 7.2602 19.2995 7.9322 18.3995 9.1982C18.2735 9.3782 18.1655 9.57019 18.0515 9.76819C17.9975 9.86419 17.9375 9.9662 17.8775 10.0622L17.8415 10.1222L17.7995 10.0622C16.8335 8.6402 15.4415 8.0042 13.5395 8.1122C13.0895 8.1362 12.9335 8.2922 12.9095 8.7302C12.8255 10.4462 13.2995 11.6702 14.4575 12.6962L14.5475 12.7742H14.4275C14.0495 12.7742 13.8395 12.7742 13.6295 12.7742C12.4715 12.7742 11.9915 13.1642 11.7275 14.3042L11.2895 16.1762C10.6775 18.8102 10.0415 21.5342 9.4415 24.2162C9.3275 24.7142 9.1055 24.8162 8.7035 24.8162H8.6555C7.9715 24.8042 7.2815 24.7982 6.5975 24.7982C5.9495 24.7982 5.3015 24.7982 4.6715 24.8042H4.2935C3.9815 24.8042 3.7955 24.8582 3.6995 24.9662C3.6035 25.0742 3.5795 25.2662 3.6155 25.5782C3.6815 26.1422 3.8735 26.6462 4.1795 27.0662C4.8635 28.0142 5.8115 28.4582 7.1555 28.4582H7.1675C12.0995 28.4462 17.1155 28.4462 21.9635 28.4522C23.9615 28.4522 25.9535 28.4522 27.9515 28.4522C28.1495 28.4522 28.3475 28.4522 28.5455 28.4522C28.8095 28.4522 29.0795 28.4522 29.3495 28.4342C30.9215 28.3442 32.1695 27.1982 32.3735 25.6382C32.4215 25.2902 32.3975 25.0922 32.2955 24.9782C32.1935 24.8582 31.9955 24.8102 31.6475 24.8102L31.6415 24.8342ZM19.7015 8.9942C20.5355 8.2562 21.6455 7.92019 22.8215 8.05219C23.0555 8.07619 23.1395 8.1602 23.1635 8.4002C23.2835 9.5942 22.9475 10.7042 22.2035 11.5262C21.4715 12.3422 20.4215 12.7922 19.2455 12.7982C19.1915 12.7982 19.1435 12.7982 19.1015 12.7982C18.7895 12.7982 18.6215 12.7862 18.5255 12.6902C18.4115 12.5762 18.4115 12.3722 18.4175 11.9522C18.4175 10.7762 18.8795 9.7262 19.7075 8.9882L19.7015 8.9942ZM13.7495 9.5702C13.7375 9.2762 13.7795 9.1142 13.8875 9.0302C13.9715 8.9582 14.1035 8.9462 14.2775 8.9882C16.1075 9.0302 17.5835 10.5302 17.5715 12.3362C17.5715 12.6962 17.4635 12.8042 17.1095 12.8102H17.0735C15.2975 12.8102 13.8095 11.3642 13.7435 9.5762L13.7495 9.5702ZM12.3935 15.1082C12.3935 15.1082 12.4055 15.0722 12.4055 15.0602C12.7055 13.6562 12.7235 13.6442 14.1515 13.6442H18.0515C18.4655 13.6442 18.8795 13.6442 19.2935 13.6442C20.2955 13.6442 21.3335 13.6502 22.3535 13.6322H22.3955C23.0015 13.6322 23.3195 13.8902 23.4515 14.4962L23.4695 14.5682C23.5775 15.0662 23.6315 15.3122 23.5235 15.4502C23.4095 15.5882 23.1695 15.5882 22.6355 15.5882H22.6175C21.4055 15.5882 21.1535 15.7862 20.8235 17.0042C20.7515 17.2802 20.5895 17.4242 20.3495 17.4362C20.0855 17.4542 19.8875 17.2982 19.8395 17.0462C19.7915 16.7942 19.7195 16.6502 19.6115 16.5842C19.5275 16.5302 19.4255 16.5182 19.2935 16.5482C18.9635 16.6262 18.9635 16.9022 18.9695 17.1902V17.2622C18.9695 17.6402 18.9695 18.0182 18.9695 18.3962C18.9695 18.9302 18.9695 19.4642 18.9695 19.9922C18.9695 20.1842 18.9515 20.4242 18.8075 20.5682C18.7235 20.6522 18.6095 20.6882 18.4655 20.6882H18.4475C17.9435 20.6762 17.9435 20.2022 17.9495 19.9682C17.9555 19.1282 17.9615 18.3002 17.9495 17.4662C17.9315 16.3322 17.1875 15.5882 16.0475 15.5822C15.1535 15.5762 13.9775 15.5642 12.7895 15.5822C12.5795 15.5822 12.4595 15.5522 12.3935 15.4622C12.3335 15.3782 12.3335 15.2642 12.3935 15.0902V15.1082ZM10.2815 24.2282C10.9475 21.4262 11.4875 19.1042 11.9735 16.9262C12.0575 16.5482 12.2075 16.4342 12.5975 16.4342C13.2635 16.4462 13.9355 16.4462 14.5895 16.4402C15.0515 16.4402 15.5135 16.4402 15.9695 16.4402C16.7195 16.4402 17.0855 16.8122 17.0915 17.5562C17.0915 18.0062 17.0915 18.4682 17.0915 18.9122C17.0915 19.2962 17.0915 19.6802 17.0915 20.0642C17.0975 20.9522 17.6375 21.5582 18.4295 21.5702H18.4475C18.8075 21.5702 19.1195 21.4502 19.3595 21.2162C19.6415 20.9402 19.7975 20.5262 19.7975 20.0402V19.8422C19.8035 19.4462 19.8095 19.0442 19.7975 18.6422C19.7975 18.5042 19.8155 18.4202 19.8635 18.3662C19.9295 18.3002 20.0315 18.2882 20.1635 18.2882H20.1695C21.0635 18.2882 21.4955 17.9162 21.6575 17.0042C21.6875 16.8242 21.7355 16.5542 21.9755 16.5002C22.4375 16.3982 22.9175 16.4222 23.3795 16.4462C23.4935 16.4462 23.6075 16.4582 23.7215 16.4642C23.9015 16.4702 23.9255 16.6322 23.9495 16.7462C23.9495 16.7702 23.9555 16.7942 23.9615 16.8122C24.1175 17.4902 24.2735 18.1742 24.4295 18.8522C24.8435 20.6522 25.2755 22.5182 25.7075 24.3422C25.7495 24.5282 25.7435 24.6482 25.6835 24.7262C25.6055 24.8282 25.4495 24.8342 25.2755 24.8342H25.2575C23.4035 24.8282 21.5135 24.8342 19.6895 24.8342H17.9195C16.7075 24.8342 15.4955 24.8342 14.2655 24.8342C13.1015 24.8342 11.9255 24.8342 10.7615 24.8462H10.7375C10.4975 24.8462 10.3595 24.8042 10.2875 24.7142C10.2155 24.6242 10.2095 24.4802 10.2695 24.2282H10.2815ZM31.2575 26.3882C30.8375 27.1262 30.2135 27.5342 29.4095 27.6062C29.2295 27.6242 29.0375 27.6242 28.8815 27.6242C26.9795 27.6242 25.0775 27.6242 23.1815 27.6242C17.9135 27.6242 12.4715 27.6242 7.1135 27.6302H7.1075C5.9735 27.6302 5.2175 27.2342 4.7375 26.3882C4.5815 26.1182 4.5095 25.9382 4.5755 25.8182C4.6475 25.6982 4.8455 25.6742 5.1635 25.6742C13.7195 25.6742 22.2755 25.6742 30.8375 25.6742C31.1615 25.6742 31.3595 25.6982 31.4315 25.8182C31.4975 25.9322 31.4255 26.1122 31.2695 26.3822L31.2575 26.3882Z" fill="#111E6C"/>
</g>
</svg>
